<svg width="224" height="225" viewBox="0 0 224 225" fill="none" xmlns="http://www.w3.org/2000/svg">
<path d="M0 3H224V225H0V3Z" fill="white"/>
<path opacity="0.19" d="M107.656 206.464C155.367 206.464 194.043 167.787 194.043 120.077C194.043 72.3665 155.367 33.6897 107.656 33.6897C59.9459 33.6897 21.269 72.3665 21.269 120.077C21.269 167.787 59.9459 206.464 107.656 206.464Z" fill="#FF4800"/>
<path d="M53.8141 186.596C53.8141 186.596 16.9539 145.283 36.0123 134.578C55.0696 123.875 53.8141 186.596 53.8141 186.596Z" fill="#36B289"/>
<g opacity="0.66">
<path d="M53.7438 186.93C53.5966 186.899 53.4812 186.773 53.4721 186.615C52.8517 175.681 40.1318 142.519 40.0039 142.185C39.9359 142.008 40.0243 141.811 40.1997 141.743C40.3763 141.677 40.5744 141.764 40.6412 141.939C41.1676 143.306 53.5287 175.535 54.1548 186.577C54.1649 186.765 54.0212 186.927 53.8333 186.938C53.8027 186.938 53.7732 186.937 53.7438 186.93Z" fill="#442071"/>
</g>
<path d="M58.8286 183.7C58.8286 183.7 54.5992 128.496 76.2432 131.552C97.8873 134.609 58.8286 183.7 58.8286 183.7Z" fill="#36B289"/>
<g opacity="0.66">
<path d="M58.5706 183.924C58.4721 183.81 58.4574 183.64 58.5457 183.509C64.6883 174.441 74.7015 140.363 74.8011 140.02C74.8543 139.839 75.0434 139.735 75.2245 139.788C75.4056 139.842 75.5097 140.032 75.4565 140.212C75.0456 141.616 65.3132 174.735 59.1106 183.891C59.0053 184.048 58.7925 184.088 58.6363 183.983C58.6125 183.965 58.5898 183.946 58.5706 183.924Z" fill="#442071"/>
</g>
<path d="M56.2785 173.976C56.2785 173.976 34.5767 123.04 56.0589 118.997C77.5411 114.954 56.2785 173.976 56.2785 173.976Z" fill="#36B289"/>
<g opacity="0.66">
<path d="M56.1056 174.27C55.9754 174.194 55.9075 174.037 55.9493 173.885C58.861 163.326 57.4222 127.838 57.4074 127.481C57.3995 127.291 57.5456 127.133 57.7346 127.125C57.9237 127.118 58.0822 127.264 58.0901 127.452C58.1512 128.915 59.5482 163.406 56.6082 174.066C56.5584 174.249 56.3705 174.355 56.1882 174.305C56.1588 174.296 56.1316 174.285 56.1056 174.27Z" fill="#442071"/>
</g>
<path d="M65.4435 193.821H46.0806L39.6255 167.285H70.4631L65.4435 193.821Z" fill="#E5937A"/>
<path opacity="0.31" d="M67.9895 180.364L70.4631 167.285H39.6255L42.8066 180.364H67.9895Z" fill="#442071"/>
<path d="M73.6911 164.416H36.3984V175.891H73.6911V164.416Z" fill="#E5937A"/>
<path d="M50.8354 129.799C50.8354 129.799 35.5049 147.372 25.3638 174.133L33.329 179.432C33.329 179.432 61.9478 151.095 62.4618 136.504C62.4618 136.504 54.9561 125.331 50.8354 129.799Z" fill="#F4B998"/>
<path d="M52.4009 213.448C52.4009 213.448 52.8798 217.274 57.6628 218.231C62.4458 219.187 70.0997 217.753 70.0997 217.753L52.4009 213.448Z" fill="#F4B998"/>
<path d="M76.4253 189.096C76.4253 189.096 92.958 196.212 103.74 209.827H113.084C113.084 209.827 127.101 188.478 138.242 186.002C138.242 186.002 134.289 166.818 108.412 167.746C108.412 167.746 80.3796 164.033 76.4253 189.096Z" fill="#442071"/>
<path d="M87.928 151.963C87.2544 154.658 77.9578 163.211 71.3442 171.791H140.343C134.431 163.075 126.474 154.515 125.83 151.963C124.741 147.649 126.541 144.056 126.541 144.056H126.725C126.725 144.056 127.239 142.095 128.049 138.835C113.694 138.694 99.0607 135.078 84.8464 134.788C85.554 137.889 86.3419 140.991 87.2249 144.056C87.2249 144.056 89.0057 147.651 87.928 151.963Z" fill="#F4B998"/>
<path d="M72.0893 170.843C67.7625 176.3 64.3516 181.854 64.7806 186.001L109.062 194.144L135.889 189.531C135.889 189.531 146.75 186.189 146.746 186.172C146.594 181.874 143.474 176.286 139.689 170.842H72.0893V170.843Z" fill="#442071"/>
<path d="M24.1646 202.665C24.1646 202.665 51.1316 219.624 94.6303 218.611C94.6303 218.611 104.166 218.514 107.87 208.701C107.87 208.701 111.369 201.845 103.32 196.359C103.32 196.359 56.7456 178.308 38.8803 179.628C21.014 180.946 17.4276 197.478 24.1646 202.665Z" fill="#442071"/>
<path d="M187.973 207.67C187.973 207.67 159.353 221.955 116.182 216.774C116.182 216.774 106.705 215.762 104.055 205.643C104.055 205.643 101.297 198.486 109.884 193.799C109.884 193.799 158.127 180.31 175.763 183.336C193.399 186.364 195.223 203.156 187.973 207.67Z" fill="#442071"/>
<path d="M53.1133 192.149C53.1133 192.149 71.9012 186.74 118.326 208.263L116.473 220.298C116.473 220.298 55.4794 222.264 35.3263 205.004C35.3263 205.004 30.2002 190.043 53.1133 192.149Z" fill="#442071"/>
<path opacity="0.48" d="M108.484 162.766C108.484 163.752 107.884 164.551 107.144 164.551C106.405 164.551 105.805 163.752 105.805 162.766C105.805 161.78 106.405 160.981 107.144 160.981C107.885 160.981 108.484 161.78 108.484 162.766Z" fill="#F4B998"/>
<g opacity="0.53">
<path d="M105.806 198.885C105.686 198.885 105.566 198.833 105.484 198.733C100.108 192.133 79.1397 186.875 78.9291 186.823C78.7073 186.767 78.5714 186.542 78.6257 186.321C78.6823 186.1 78.9008 185.966 79.1272 186.018C80.0012 186.235 100.578 191.397 106.127 198.208C106.272 198.386 106.245 198.647 106.068 198.792C105.99 198.854 105.897 198.885 105.806 198.885Z" fill="white"/>
</g>
<g opacity="0.53">
<path d="M118.326 208.677C118.266 208.677 118.205 208.665 118.149 208.638C94.0072 197.122 75.6812 193.385 64.5586 192.277C52.5394 191.077 46.1647 192.609 46.1013 192.625C45.8726 192.673 45.653 192.543 45.5998 192.321C45.5443 192.099 45.6802 191.874 45.9032 191.82C46.1658 191.755 52.4851 190.241 64.6424 191.453C75.8295 192.567 94.2562 196.323 118.505 207.889C118.712 207.989 118.799 208.236 118.701 208.442C118.63 208.59 118.481 208.677 118.326 208.677Z" fill="white"/>
</g>
<g opacity="0.53">
<path d="M112.948 205.132C112.765 205.132 112.597 205.01 112.547 204.826C112.488 204.605 112.62 204.377 112.839 204.317C114.811 203.788 161.25 191.36 171.484 193.152C171.709 193.19 171.861 193.405 171.82 193.631C171.782 193.854 171.569 194.005 171.341 193.967C161.28 192.228 113.536 204.988 113.056 205.118C113.018 205.128 112.983 205.132 112.948 205.132Z" fill="white"/>
</g>
<g opacity="0.53">
<path d="M141.51 175.23C141.508 175.23 141.504 175.23 141.502 175.23L70.5403 173.891C70.3116 173.886 70.1293 173.697 70.1339 173.468C70.1384 173.24 70.2924 173.07 70.5562 173.062L141.518 174.401C141.746 174.406 141.929 174.595 141.924 174.823C141.921 175.05 141.736 175.23 141.51 175.23Z" fill="white"/>
</g>
<path d="M106.699 174.922C106.634 174.922 106.568 174.911 106.504 174.887C106.303 174.812 101.578 173.015 100.663 170.481C100.394 169.734 100.461 168.998 100.863 168.295C101.335 167.466 101.922 167.324 102.337 167.357C104.389 167.499 106.586 172.605 107.21 174.166C107.292 174.369 107.245 174.601 107.092 174.757C106.988 174.863 106.845 174.922 106.699 174.922ZM102.247 168.457C102.111 168.457 101.969 168.586 101.824 168.842C101.586 169.256 101.548 169.669 101.705 170.104C102.167 171.386 104.157 172.591 105.645 173.31C104.517 170.832 103.062 168.514 102.261 168.458C102.257 168.457 102.252 168.457 102.247 168.457Z" fill="white"/>
<path d="M107.068 174.912C106.915 174.756 106.869 174.524 106.95 174.321C107.574 172.76 109.771 167.654 111.824 167.512C112.238 167.479 112.826 167.621 113.298 168.45C113.7 169.152 113.768 169.888 113.497 170.636C112.582 173.171 107.857 174.969 107.657 175.042C107.593 175.066 107.528 175.077 107.462 175.077C107.317 175.078 107.173 175.021 107.068 174.912ZM111.901 168.615C111.099 168.671 109.645 170.989 108.517 173.467C110.005 172.749 111.996 171.544 112.458 170.263C112.615 169.828 112.577 169.415 112.339 169C112.193 168.744 112.051 168.615 111.914 168.615C111.91 168.614 111.904 168.614 111.901 168.615Z" fill="white"/>
<path d="M104.843 179.635C104.58 179.635 104.347 179.446 104.301 179.179C103.78 176.229 106.487 173.987 106.602 173.893C106.84 173.701 107.188 173.737 107.378 173.972C107.571 174.209 107.535 174.556 107.3 174.749C107.276 174.768 104.981 176.681 105.388 178.987C105.441 179.287 105.239 179.574 104.939 179.627C104.908 179.633 104.876 179.635 104.843 179.635Z" fill="white"/>
<path d="M111.582 183.866C111.545 183.866 111.505 183.862 111.467 183.854C109.05 183.336 107.166 175.451 106.813 173.875C106.747 173.577 106.934 173.282 107.232 173.215C107.533 173.151 107.825 173.336 107.892 173.634C108.835 177.839 110.558 182.53 111.698 182.773C111.997 182.837 112.187 183.131 112.122 183.428C112.067 183.689 111.838 183.866 111.582 183.866Z" fill="white"/>
<path opacity="0.21" d="M22.5742 201.242C22.5742 201.242 54.1273 223.589 116.473 220.297L117.618 210.282C117.618 210.282 55.7235 220.714 22.5742 201.242Z" fill="#442071"/>
<path opacity="0.21" d="M149.841 217.469C149.841 217.469 190.641 212.601 191.8 202.169C191.8 202.169 144.741 217.932 131.528 213.76C131.528 213.76 144.51 219.555 149.841 217.469Z" fill="#442071"/>
<path d="M118.326 208.263C118.326 208.263 125.682 203.818 129.508 209.558C133.335 215.297 142.423 216.254 148.164 217.211C153.903 218.167 149.599 222.473 147.207 222.95C144.815 223.429 116.473 220.297 116.473 220.297L118.326 208.263Z" fill="#F4B998"/>
<path d="M149.002 221.071C147.224 221.071 144.877 220.178 144.757 220.131C144.544 220.049 144.438 219.81 144.52 219.596C144.601 219.383 144.838 219.274 145.055 219.358C145.969 219.709 148.594 220.532 149.782 220.143C149.999 220.066 150.233 220.188 150.305 220.405C150.377 220.623 150.26 220.856 150.042 220.928C149.741 221.03 149.384 221.071 149.002 221.071Z" fill="#E5937A"/>
<path d="M147.692 222.91C146.356 222.91 144.799 222.332 144.72 222.304C144.506 222.223 144.398 221.985 144.478 221.77C144.559 221.556 144.797 221.45 145.012 221.527C145.032 221.535 147.028 222.276 148.212 222.036C148.431 221.994 148.654 222.138 148.7 222.362C148.744 222.586 148.598 222.804 148.374 222.85C148.158 222.892 147.929 222.91 147.692 222.91Z" fill="#E5937A"/>
<path d="M91.5796 91.1342C91.5796 91.1342 69.9355 79.8373 45.3628 139.878C45.3628 139.878 50.9462 149.362 56.482 147.408L86.0245 108.479C86.0268 108.48 99.9037 93.9282 91.5796 91.1342Z" fill="#F4B998"/>
<path opacity="0.48" d="M87.9274 151.963C87.6478 153.082 85.8704 155.221 83.4263 157.942C86.8213 158.27 90.2187 158.595 93.6353 158.653C101.951 158.794 110.268 158.94 118.582 159.134C122.734 159.232 126.886 159.345 131.038 159.474C128.265 155.97 126.148 153.227 125.828 151.963C124.739 147.649 126.539 144.056 126.539 144.056H126.723C126.723 144.056 127.237 142.095 128.047 138.835C113.692 138.694 99.0591 135.078 84.8448 134.788C85.5523 137.889 86.3402 140.991 87.2232 144.056C87.2232 144.056 89.0051 147.651 87.9274 151.963Z" fill="#F4B998"/>
<path d="M25.3626 174.132L20 188.845C20 188.845 21.543 199.828 26.797 202.95C26.797 202.95 27.3574 199.049 27.2555 194.515C27.1536 189.981 27.0234 184.151 31.572 184.696C36.1207 185.242 41.3169 185.774 41.9067 183.168C42.4965 180.562 33.3267 179.429 33.3267 179.429C33.3267 179.429 29 169.178 25.3626 174.132Z" fill="#F4B998"/>
<path d="M164.478 129.799C164.478 129.799 179.809 147.372 189.95 174.133L181.985 179.432C181.985 179.432 153.366 151.095 152.852 136.504C152.852 136.504 160.357 125.331 164.478 129.799Z" fill="#F4B998"/>
<path d="M123.733 91.1342C123.733 91.1342 145.377 79.8373 169.95 139.878C169.95 139.878 164.366 149.362 158.83 147.408L129.288 108.479C129.288 108.479 115.41 93.9282 123.733 91.1342Z" fill="#F4B998"/>
<path opacity="0.33" d="M91.5797 91.1341C91.5797 91.1341 81.0764 85.6605 66.3979 102.627C69.1138 109.592 71.9677 116.505 74.6394 123.484L86.0269 108.48C86.0269 108.48 99.9038 93.9281 91.5797 91.1341Z" fill="#F4B998"/>
<path opacity="0.33" d="M150.441 104.452C134.969 85.2722 123.732 91.1341 123.732 91.1341C115.409 93.928 129.286 108.48 129.286 108.48L137.968 119.92C142.594 115.145 146.686 109.925 150.441 104.452Z" fill="#F4B998"/>
<path d="M189.95 174.132L195.312 188.845C195.312 188.845 193.769 199.828 188.515 202.95C188.515 202.95 187.955 199.049 188.057 194.515C188.159 189.981 188.289 184.151 183.74 184.696C179.192 185.242 173.996 185.774 173.406 183.168C172.816 180.562 181.986 179.429 181.986 179.429C181.986 179.429 186.312 169.178 189.95 174.132Z" fill="#F4B998"/>
<path d="M139.886 89.9884C139.341 89.7043 138.832 90.1447 138.362 91.056C138.23 89.8651 137.933 89.0353 137.408 88.7624C136.729 88.4092 136.109 89.1688 135.548 90.5771L121.48 84.7368H120.589C120.189 84.0632 119.929 83.6296 119.86 83.5266H95.6347C95.5657 83.6308 95.277 84.0632 94.8276 84.7368H93.597L78.0571 91.9481C77.5522 90.8579 76.9997 90.3111 76.4043 90.6202C75.8801 90.893 75.5824 91.7228 75.4499 92.9137C74.9801 92.0024 74.4718 91.562 73.9262 91.8462C70.6669 93.5409 76.1099 116.509 76.1099 116.509C76.1099 116.509 76.222 116.551 76.3975 116.569C76.2186 120.936 77.3213 126.374 82.1948 129.114C83.5975 140.276 84.7148 150.004 84.5495 151.449C97.2502 152.341 117.973 150.537 130.673 151.449C129.981 147.507 131.878 132.85 131.676 132.898C132.043 131.418 132.394 129.833 132.728 128.175C137.043 124.765 137.516 118.832 136.984 114.689C137.412 114.769 137.702 114.651 137.702 114.651C137.702 114.651 143.144 91.6843 139.886 89.9884Z" fill="#EE6EB0"/>
<path opacity="0.21" d="M131.68 133.281C124.694 137.875 116.502 140.853 108.905 141.828C101.433 142.79 93.3865 141.471 87.0266 137.25C85.4383 136.196 84.03 135 82.7632 133.694C83.8839 142.833 84.6911 150.206 84.5496 151.449C97.2503 152.341 117.973 150.537 130.674 151.449C130.049 147.892 131.534 135.597 131.68 133.281Z" fill="#442071"/>
<path d="M143.407 62.5323C139.99 57.6678 135.206 33.3476 133.838 29.914C132.471 26.4804 125.635 7.02351 102.737 12.4597C102.737 12.4597 85.6481 11.6016 80.521 32.4883C75.3949 53.3761 73.3436 56.2369 70.2678 58.2395C68.7168 59.2493 68.821 62.6591 72.0157 66.6349C73.3504 64.8542 75.7696 62.6388 74.9172 64.5893C74.2832 66.0384 74.1972 67.8112 74.2289 68.9908C77.7417 72.2523 83.3568 75.6462 91.7998 78.2692C112.99 84.85 144.432 70.2576 144.432 70.2576C144.432 70.2576 146.825 67.3968 143.407 62.5323Z" fill="#442071"/>
<path opacity="0.37" d="M129.378 47.3422C126.738 39.9294 123.216 32.811 119.347 25.9676C117.74 23.1284 116.034 20.3435 113.6 18.1257C111.733 16.4242 109.546 15.9046 107.356 15.0533C94.3606 21.0793 88.0855 40.0641 84.807 52.6573C82.9833 59.6648 81.8637 66.867 81.5693 74.0862C84.3893 75.5908 87.7686 77.0195 91.7987 78.2715C105.439 82.5077 123.318 77.9715 134.333 74.2006C134.232 65.2652 132.604 56.3999 129.378 47.3422Z" fill="#442071"/>
<path d="M97.5309 73.2211C97.5309 73.2211 97.2128 82.2483 96.5777 84.3879C95.9426 86.5264 110.551 96.885 118.808 84.3879L118.173 74.5524C118.173 74.5524 102.614 62.0542 97.5309 73.2211Z" fill="#F4B998"/>
<path opacity="0.48" d="M107.945 88.3639C114.795 88.528 117.055 80.8447 117.8 73.0413C112.982 70.1081 101.916 64.6402 97.5815 73.1239C98.6695 79.4183 101.023 88.1974 107.945 88.3639Z" fill="#F4B998"/>
<path d="M131.928 38.8597C131.928 25.1763 121.196 14.0843 107.957 14.0843C94.717 14.0843 83.985 25.1763 83.985 38.8597C83.985 39.1099 83.9963 39.3566 84.0031 39.6046C83.9748 39.6634 83.9385 39.72 83.9125 39.7789C83.9125 39.7789 81.0121 78.6508 108.098 80.778V80.8617C108.347 80.8549 108.588 80.8368 108.833 80.8233C109.099 80.838 109.363 80.8549 109.635 80.8617V80.7644C130.623 78.8455 131.825 50.4871 131.718 42.1008C131.851 41.04 131.928 39.96 131.928 38.8597Z" fill="#F4B998"/>
<path d="M87.728 48.9046C88.5069 53.0163 87.1733 56.7204 84.7495 57.18C82.3246 57.6396 79.7277 54.6793 78.9488 50.5687C78.1699 46.4582 79.5035 42.7529 81.9284 42.2933C84.3522 41.8325 86.9492 44.7929 87.728 48.9046Z" fill="#F4B998"/>
<path opacity="0.48" d="M86.2942 50.9299C86.8195 53.6978 86.2002 56.1408 84.9119 56.3853C83.6236 56.6298 82.1542 54.5831 81.6289 51.8152C81.1036 49.0472 81.7228 46.6042 83.0111 46.3608C84.2994 46.1152 85.7689 48.1619 86.2942 50.9299Z" fill="#F4B998"/>
<path d="M136.168 52.3914C135.514 56.5246 133.009 59.5631 130.572 59.1782C128.135 58.7933 126.688 55.1299 127.341 50.9979C127.994 46.8647 130.499 43.8262 132.937 44.2111C135.374 44.596 136.821 48.2582 136.168 52.3914Z" fill="#F4B998"/>
<path opacity="0.48" d="M134.41 54.1245C133.641 56.8505 131.961 58.7626 130.658 58.3947C129.355 58.0267 128.922 55.5181 129.692 52.792C130.462 50.0649 132.142 48.1539 133.445 48.5219C134.748 48.8886 135.18 51.3973 134.41 54.1245Z" fill="#F4B998"/>
<path d="M83.5966 42.0385C83.5966 42.0385 87.0143 51.6079 86.3305 54.3418C86.3305 54.3418 90.4321 50.2403 89.7483 43.063C89.0645 35.8856 92.8241 31.1015 94.8754 29.3921C96.9267 27.6827 111.964 44.0886 128.711 38.9615C128.711 38.9615 122.901 37.594 121.875 37.2532C120.85 36.9124 129.395 38.2788 132.128 34.8611C134.862 31.4434 128.369 14.3548 113.332 11.6209C113.332 11.6209 79.1543 7.86124 83.5966 42.0385Z" fill="#442071"/>
<path d="M130.078 34.5192C130.078 34.5192 132.129 43.4049 130.762 45.4562C129.395 47.5064 128.217 54.9757 129.395 57.0769C129.395 57.0769 131.787 44.4317 134.18 44.0898C136.572 43.7468 132.47 25.9755 130.078 34.5192Z" fill="#442071"/>
<path d="M93.7739 25.1321C94.4271 26.2257 95.1301 27.2751 95.9305 28.2498C96.3143 28.7468 96.7286 29.22 97.1305 29.7C97.5675 30.1506 97.9852 30.617 98.4335 31.0517C100.223 32.7917 102.212 34.3211 104.411 35.4701C106.591 36.6328 108.928 37.552 111.38 38.0286C113.817 38.6162 116.338 38.6898 118.888 38.7815C118.258 38.8641 117.626 38.9365 116.989 38.9965C116.353 39.0373 115.713 39.1777 115.074 39.138C113.796 39.0746 112.497 39.1211 111.228 38.8652C108.654 38.572 106.178 37.6392 103.884 36.4415C101.595 35.2132 99.5248 33.5796 97.8222 31.637C96.106 29.7102 94.6739 27.5219 93.7739 25.1321Z" fill="#442071"/>
<path d="M101.419 17.0368C101.419 17.0368 89.9329 1.44814 96.4966 3.08965C103.06 4.73002 103.47 11.2938 103.47 11.2938C103.47 11.2938 99.7785 -1.83372 104.701 0.217597C109.623 2.26891 107.162 16.216 107.162 16.216C107.162 16.216 102.649 20.3186 101.419 17.0368Z" fill="#442071"/>
<path d="M100.695 14.3164C99.5739 13.8092 98.5381 13.156 97.5554 12.427C96.5694 11.7013 95.6524 10.8772 94.8192 9.95002C94.0279 9.00134 93.2207 7.96552 92.9785 6.59571C92.8437 5.92666 93.0316 5.12174 93.5173 4.62703C93.9996 4.13231 94.6132 3.90251 95.212 3.78931C94.7003 4.12666 94.2113 4.48892 93.9498 4.95534C93.6781 5.41043 93.6645 5.91644 93.8218 6.41568C94.1456 7.4187 94.8894 8.35156 95.649 9.22099C97.1966 10.9791 98.9875 12.5662 100.695 14.3164Z" fill="#442071"/>
<path d="M86.6573 58.2895C86.6573 59.3185 85.8229 60.154 84.7927 60.154C83.7637 60.154 82.9282 59.3196 82.9282 58.2895C82.9282 57.2604 83.7626 56.4249 84.7927 56.4249C85.8229 56.4249 86.6573 57.2593 86.6573 58.2895Z" fill="white"/>
<path d="M130.191 61.2509C131.221 61.2509 132.056 60.4161 132.056 59.3864C132.056 58.3566 131.221 57.5219 130.191 57.5219C129.161 57.5219 128.327 58.3566 128.327 59.3864C128.327 60.4161 129.161 61.2509 130.191 61.2509Z" fill="white"/>
<path opacity="0.33" d="M95.21 21.7736C96.1507 22.6906 97.096 23.5974 98.0922 24.4476C99.0636 25.3227 100.063 26.1649 101.088 26.9743C103.13 28.5977 105.232 30.143 107.452 31.5026C109.644 32.9087 111.977 34.0668 114.366 35.0902C115.579 35.5543 116.79 36.0411 118.055 36.3547C119.291 36.7985 120.592 36.9411 121.875 37.2524C119.251 37.1053 116.636 36.5732 114.138 35.6845C111.656 34.7664 109.276 33.5777 107.015 32.2045C104.797 30.7645 102.657 29.2068 100.679 27.46C98.7081 25.7098 96.8345 23.8442 95.21 21.7736Z" fill="white"/>
<path opacity="0.33" d="M101.352 20.4568C103.446 22.2353 105.596 23.9334 107.808 25.5409C110.021 27.1428 112.281 28.6824 114.66 30.0092C117.01 31.3813 119.475 32.5564 122.05 33.4133C123.332 33.856 124.655 34.1854 125.998 34.3722C127.34 34.5896 128.709 34.6337 130.079 34.5194C127.377 35.0967 124.522 34.7854 121.863 34.0224C119.184 33.2707 116.667 32.0639 114.249 30.7269C111.868 29.3186 109.574 27.7711 107.424 26.0458C105.275 24.3194 103.213 22.4843 101.352 20.4568Z" fill="white"/>
<path opacity="0.33" d="M88.1926 22.8695C87.4896 24.2801 86.833 25.6963 86.2398 27.1363C85.6557 28.5797 85.1078 30.0332 84.6447 31.514C84.1534 32.9857 83.7776 34.4913 83.4436 36.0072L83.2036 37.1494L83.0293 38.3041C82.8617 39.0717 82.847 39.8528 82.71 40.6351C82.4168 37.4925 82.8866 34.2751 83.8557 31.2626C84.3492 29.7559 84.9311 28.2762 85.6636 26.8713C86.387 25.4642 87.1998 24.0989 88.1926 22.8695Z" fill="white"/>
<path opacity="0.33" d="M91.0435 27.4756C90.6258 28.4605 90.2035 29.4375 89.8367 30.4371C89.4439 31.4242 89.076 32.4204 88.7511 33.4291C88.1035 35.4431 87.5092 37.4774 87.2126 39.5514C87.0756 40.585 86.9578 41.6287 87.0224 42.6589C87.0405 43.6891 87.1865 44.7804 87.2092 45.8423C87.3009 47.9774 87.3677 50.1294 87.0971 52.2577C87.0665 51.1891 86.9918 50.1283 86.8854 49.0676C86.8016 48.0068 86.6963 46.9483 86.5741 45.891C86.4575 44.8246 86.3126 43.7989 86.2401 42.6985C86.1496 41.5982 86.2662 40.508 86.3952 39.4291C86.7247 37.2793 87.3575 35.2042 88.1579 33.2106C88.9548 31.2171 89.899 29.2846 91.0435 27.4756Z" fill="white"/>
<path opacity="0.33" d="M78.981 54.452C78.8848 56.0199 78.4716 57.5222 77.9112 58.9723C77.6203 59.6923 77.2818 60.401 76.8606 61.0655C76.4497 61.7267 75.9323 62.3753 75.252 62.7863C75.7014 62.1455 75.9833 61.4516 76.2889 60.7633C76.5776 60.0682 76.872 59.3742 77.1414 58.6667C77.7131 57.2606 78.2576 55.841 78.981 54.452Z" fill="white"/>
<path opacity="0.33" d="M80.9555 59.057L79.9423 64.6381C79.6151 66.4891 79.3875 68.3264 79.2008 70.2419C78.7309 68.3649 78.8125 66.3883 79.1261 64.4977C79.4691 62.6083 80.0193 60.7461 80.9555 59.057Z" fill="white"/>
<path opacity="0.33" d="M133.591 36.4679C134.434 38.9562 135.202 41.4626 135.966 43.9701L138.202 51.5063L140.371 59.0572C140.723 60.3183 141.1 61.5716 141.485 62.8225C141.88 64.0678 142.219 65.3391 142.801 66.5142C141.43 64.2557 140.648 61.7119 139.762 59.2497C138.912 56.7648 138.164 54.2482 137.406 51.7373C136.707 49.2082 135.99 46.6859 135.353 44.1399C134.717 41.595 134.104 39.0445 133.591 36.4679Z" fill="white"/>
<path opacity="0.33" d="M136.223 59.4951C136.517 61.0052 136.651 62.4871 136.833 63.9588C136.91 64.6958 137.02 65.4226 137.138 66.146C137.275 66.866 137.4 67.5871 137.758 68.2675C137.139 67.7863 136.757 67.038 136.513 66.3124C136.256 65.5777 136.105 64.8158 136.011 64.0562C135.849 62.5335 135.866 60.9973 136.223 59.4951Z" fill="white"/>
<path d="M94.5528 44.7963C94.5528 44.7963 98.72 43.1774 102.229 43.5374C102.229 43.5374 103.326 44.4363 102.449 45.1563C101.572 45.8762 94.3344 46.0551 93.457 46.7751C93.457 46.7751 92.36 46.0551 94.5528 44.7963Z" fill="#442071"/>
<path d="M124.446 44.7963C124.446 44.7963 120.279 43.1774 116.77 43.5374C116.77 43.5374 115.673 44.4363 116.55 45.1563C117.427 45.8762 124.665 46.0551 125.542 46.7751C125.542 46.7751 126.639 46.0551 124.446 44.7963Z" fill="#442071"/>
<path d="M97.7156 54.9259C95.3812 54.6734 93.7193 53.3161 93.6933 53.2945C93.459 53.0998 93.4284 52.7523 93.6231 52.5179C93.8156 52.2825 94.1654 52.2496 94.4009 52.4455C94.5378 52.5587 97.8016 55.1964 101.416 53.0048C101.677 52.8474 102.017 52.9289 102.176 53.1904C102.333 53.4508 102.251 53.7915 101.99 53.9489C100.468 54.8704 98.9914 55.0628 97.7156 54.9259Z" fill="#442071"/>
<path d="M120.517 54.6025C118.172 54.4779 116.438 53.2134 116.411 53.1942C116.166 53.0119 116.116 52.6666 116.299 52.4232C116.479 52.1776 116.825 52.1255 117.071 52.3089C117.213 52.4142 120.618 54.8697 124.105 52.4833C124.357 52.3123 124.701 52.3746 124.874 52.627C125.045 52.8783 124.982 53.2225 124.729 53.3946C123.263 54.3976 121.798 54.6704 120.517 54.6025Z" fill="#442071"/>
<path d="M109.688 61.7478C107.962 61.7478 106.442 60.9101 106.344 60.8546C106.079 60.7052 105.985 60.3689 106.133 60.1029C106.282 59.8357 106.618 59.7406 106.884 59.8912C106.917 59.9093 110.06 61.6301 111.926 59.7633C112.142 59.5471 112.491 59.5471 112.707 59.7633C112.923 59.9795 112.923 60.3282 112.707 60.5444C111.796 61.4569 110.706 61.7478 109.688 61.7478Z" fill="#442071"/>
<path d="M103.964 68.2914C103.964 68.2914 109.795 66.0487 114.548 68.7397C114.548 68.7397 108.898 75.557 103.964 68.2914Z" fill="#FE6EAF"/>
<path d="M111.003 69.4888C107.179 69.4888 103.347 68.316 103.117 68.2447C103.043 68.222 103.004 68.145 103.026 68.0715C103.049 67.9979 103.126 67.9594 103.198 67.9809C103.278 68.0047 111.269 70.4511 115.655 68.3466C115.719 68.3137 115.805 68.342 115.838 68.4111C115.871 68.4801 115.843 68.5628 115.773 68.5956C114.396 69.2568 112.7 69.4888 111.003 69.4888Z" fill="#442071"/>
<path opacity="0.48" d="M99.7501 56.1838C99.7501 56.7283 98.6056 57.171 97.1939 57.171C95.7822 57.171 94.6377 56.7294 94.6377 56.1838C94.6377 55.6381 95.7822 55.1978 97.1939 55.1978C98.6056 55.1978 99.7501 55.6393 99.7501 56.1838Z" fill="#F4B998"/>
<path opacity="0.48" d="M123.696 56.1838C123.696 56.7283 122.552 57.171 121.14 57.171C119.729 57.171 118.584 56.7294 118.584 56.1838C118.584 55.6381 119.729 55.1978 121.14 55.1978C122.552 55.1978 123.696 55.6393 123.696 56.1838Z" fill="#F4B998"/>
<mask id="mask0_378_67" style="mask-type:luminance" maskUnits="userSpaceOnUse" x="72" y="83" width="69" height="69">
<path d="M139.886 89.9884C139.341 89.7043 138.832 90.1447 138.362 91.056C138.23 89.8651 137.933 89.0353 137.408 88.7624C136.729 88.4092 136.109 89.1688 135.548 90.5771L121.48 84.7368H120.589C120.189 84.0632 119.929 83.6296 119.86 83.5266H95.6347C95.5657 83.6308 95.277 84.0632 94.8276 84.7368H93.597L78.0571 91.9481C77.5522 90.8579 76.9997 90.3111 76.4043 90.6202C75.8801 90.893 75.5824 91.7228 75.4499 92.9137C74.9801 92.0024 74.4718 91.562 73.9262 91.8462C70.6669 93.5409 76.1099 116.509 76.1099 116.509C76.1099 116.509 76.222 116.551 76.3975 116.569C76.2186 120.936 77.3213 126.374 82.1948 129.114C83.5975 140.276 84.7148 150.004 84.5495 151.449C97.2502 152.341 117.973 150.537 130.673 151.449C129.981 147.507 131.878 132.85 131.676 132.898C132.043 131.418 132.394 129.833 132.728 128.175C137.043 124.765 137.516 118.832 136.984 114.689C137.412 114.769 137.702 114.651 137.702 114.651C137.702 114.651 143.144 91.6843 139.886 89.9884Z" fill="white"/>
</mask>
<g mask="url(#mask0_378_67)">
<g opacity="0.61">
<g opacity="0.58">
<path d="M145.88 95.727C108.325 93.1877 68.751 95.5164 68.3559 95.5391L68.2891 94.4364C68.6864 94.4126 108.33 92.0806 145.956 94.6243L145.88 95.727Z" fill="white"/>
</g>
<g opacity="0.58">
<path d="M69.7619 109.094L69.6714 107.994C70.2476 107.946 127.404 103.334 142.99 105.659L142.828 106.75C127.358 104.453 70.3348 109.05 69.7619 109.094Z" fill="white"/>
</g>
<g opacity="0.58">
<path d="M72.4181 120.793L72.3638 119.691C72.9049 119.662 126.734 117.039 141.325 119.361L141.152 120.454C126.67 118.148 72.9592 120.767 72.4181 120.793Z" fill="white"/>
</g>
<g opacity="0.58">
<path d="M137.819 133.92C122.798 131.401 77.1765 133.043 76.718 133.06L76.6772 131.955C77.1391 131.938 122.873 130.292 138.003 132.829L137.819 133.92Z" fill="white"/>
</g>
<g opacity="0.58">
<path d="M138.823 146.619C123.801 144.101 78.1788 145.743 77.7214 145.761L77.6807 144.656C78.1414 144.639 123.874 142.991 139.006 145.529L138.823 146.619Z" fill="white"/>
</g>
</g>
</g>
<g opacity="0.66">
<g opacity="0.66">
<path d="M108.436 93.8702C100.006 93.8702 93.4398 85.4374 93.1602 85.0729L94.0364 84.4005C94.1032 84.4865 100.688 93.0132 108.78 92.7597C113.25 92.6261 117.369 89.8219 121.023 84.4276L121.937 85.0468C118.073 90.7547 113.654 93.7219 108.808 93.8645C108.684 93.8691 108.56 93.8702 108.436 93.8702Z" fill="#442071"/>
</g>
<g opacity="0.66">
<path d="M75.9713 92.8721L74.8711 92.9729L76.8228 114.284L77.9231 114.183L75.9713 92.8721Z" fill="#442071"/>
</g>
<g opacity="0.66">
<path d="M79.6201 94.15L78.5195 94.2477L79.8557 109.287L80.9563 109.19L79.6201 94.15Z" fill="#442071"/>
</g>
<g opacity="0.66">
<path d="M135.774 114.235L134.669 114.218C134.673 114.001 135.003 92.4779 134.995 90.5817L136.1 90.576C136.109 92.4836 135.789 113.348 135.774 114.235Z" fill="#442071"/>
</g>
<g opacity="0.66">
<path d="M137.803 91.0206L137.342 104.164L138.447 104.203L138.909 91.0594L137.803 91.0206Z" fill="#442071"/>
</g>
<g opacity="0.66">
<path d="M115.216 129.737C109.511 126.249 102.097 129.405 102.021 129.439L101.581 128.425C101.904 128.284 109.604 125.012 115.791 128.794L115.216 129.737Z" fill="#442071"/>
</g>
<g opacity="0.66">
<path d="M130.524 148.462L84.7349 149.085L84.7499 150.19L130.539 149.567L130.524 148.462Z" fill="#442071"/>
</g>
</g>
<path d="M57.6927 142.07C53.3524 138.527 48.9769 137.878 48.9351 137.873L49.0879 136.778C49.2792 136.805 53.8086 137.479 58.3924 141.214L57.6927 142.07Z" fill="#E5937A"/>
<path d="M166.098 135.176C160.798 136.994 157.939 140.369 157.912 140.402L157.062 139.694C157.187 139.546 160.147 136.054 165.739 134.13L166.098 135.176Z" fill="#E5937A"/>
</svg>
