<svg width="224" height="226" viewBox="0 0 224 226" fill="none" xmlns="http://www.w3.org/2000/svg">
<path d="M0 4H224V226H0V4Z" fill="white"/>
<path opacity="0.19" d="M111.656 206.464C159.367 206.464 198.043 167.787 198.043 120.077C198.043 72.3665 159.367 33.6897 111.656 33.6897C63.9459 33.6897 25.269 72.3665 25.269 120.077C25.269 167.787 63.9459 206.464 111.656 206.464Z" fill="#FF4800"/>
<path d="M57.8141 186.596C57.8141 186.596 20.9539 145.283 40.0123 134.578C59.0696 123.875 57.8141 186.596 57.8141 186.596Z" fill="#36B289"/>
<g opacity="0.66">
<path d="M57.7438 186.93C57.5966 186.899 57.4812 186.773 57.4721 186.615C56.8517 175.681 44.1318 142.519 44.0039 142.185C43.9359 142.008 44.0243 141.811 44.1997 141.743C44.3763 141.677 44.5744 141.764 44.6412 141.939C45.1676 143.306 57.5287 175.535 58.1548 186.577C58.1649 186.765 58.0212 186.927 57.8333 186.938C57.8027 186.938 57.7732 186.937 57.7438 186.93Z" fill="#442071"/>
</g>
<path d="M62.8286 183.7C62.8286 183.7 58.5992 128.496 80.2432 131.552C101.887 134.609 62.8286 183.7 62.8286 183.7Z" fill="#36B289"/>
<g opacity="0.66">
<path d="M62.5706 183.924C62.4721 183.81 62.4574 183.64 62.5457 183.509C68.6883 174.441 78.7015 140.363 78.8011 140.02C78.8543 139.839 79.0434 139.735 79.2245 139.788C79.4056 139.842 79.5097 140.032 79.4565 140.212C79.0456 141.616 69.3132 174.735 63.1106 183.891C63.0053 184.048 62.7925 184.088 62.6363 183.983C62.6125 183.965 62.5898 183.946 62.5706 183.924Z" fill="#442071"/>
</g>
<path d="M60.2785 173.976C60.2785 173.976 38.5767 123.04 60.0589 118.997C81.5411 114.954 60.2785 173.976 60.2785 173.976Z" fill="#36B289"/>
<g opacity="0.66">
<path d="M60.1056 174.27C59.9754 174.194 59.9075 174.037 59.9493 173.885C62.861 163.326 61.4222 127.838 61.4074 127.481C61.3995 127.291 61.5456 127.133 61.7346 127.125C61.9237 127.118 62.0822 127.264 62.0901 127.452C62.1512 128.915 63.5482 163.406 60.6082 174.066C60.5584 174.249 60.3705 174.355 60.1882 174.305C60.1588 174.296 60.1316 174.285 60.1056 174.27Z" fill="#442071"/>
</g>
<path d="M69.4435 193.821H50.0806L43.6255 167.285H74.4631L69.4435 193.821Z" fill="#E5937A"/>
<path opacity="0.31" d="M71.9895 180.364L74.4631 167.285H43.6255L46.8066 180.364H71.9895Z" fill="#442071"/>
<path d="M77.6911 164.416H40.3984V175.891H77.6911V164.416Z" fill="#E5937A"/>
<path d="M54.8354 129.799C54.8354 129.799 39.5049 147.372 29.3638 174.133L37.329 179.432C37.329 179.432 65.9478 151.095 66.4618 136.504C66.4618 136.504 58.9561 125.331 54.8354 129.799Z" fill="#F4B998"/>
<path d="M56.4009 213.448C56.4009 213.448 56.8798 217.274 61.6628 218.231C66.4458 219.187 74.0997 217.753 74.0997 217.753L56.4009 213.448Z" fill="#F4B998"/>
<path d="M80.4253 189.096C80.4253 189.096 96.958 196.212 107.74 209.827H117.084C117.084 209.827 131.101 188.478 142.242 186.002C142.242 186.002 138.289 166.818 112.412 167.746C112.412 167.746 84.3796 164.033 80.4253 189.096Z" fill="#442071"/>
<path d="M91.928 151.963C91.2544 154.658 81.9578 163.211 75.3442 171.791H144.343C138.431 163.075 130.474 154.515 129.83 151.963C128.741 147.649 130.541 144.056 130.541 144.056H130.725C130.725 144.056 131.239 142.095 132.049 138.835C117.694 138.694 103.061 135.078 88.8464 134.788C89.554 137.889 90.3419 140.991 91.2249 144.056C91.2249 144.056 93.0057 147.651 91.928 151.963Z" fill="#F4B998"/>
<path d="M76.0893 170.843C71.7625 176.3 68.3516 181.854 68.7806 186.001L113.062 194.144L139.889 189.531C139.889 189.531 150.75 186.189 150.746 186.172C150.594 181.874 147.474 176.286 143.689 170.842H76.0893V170.843Z" fill="#442071"/>
<path d="M28.1646 202.665C28.1646 202.665 55.1316 219.624 98.6303 218.611C98.6303 218.611 108.166 218.514 111.87 208.701C111.87 208.701 115.369 201.845 107.32 196.359C107.32 196.359 60.7456 178.308 42.8803 179.628C25.014 180.946 21.4276 197.478 28.1646 202.665Z" fill="#442071"/>
<path d="M191.973 207.67C191.973 207.67 163.353 221.955 120.182 216.774C120.182 216.774 110.705 215.762 108.055 205.643C108.055 205.643 105.297 198.486 113.884 193.799C113.884 193.799 162.127 180.31 179.763 183.336C197.399 186.364 199.223 203.156 191.973 207.67Z" fill="#442071"/>
<path d="M57.1133 192.149C57.1133 192.149 75.9012 186.74 122.326 208.263L120.473 220.298C120.473 220.298 59.4794 222.264 39.3263 205.004C39.3263 205.004 34.2002 190.043 57.1133 192.149Z" fill="#442071"/>
<path opacity="0.48" d="M112.484 162.766C112.484 163.752 111.884 164.551 111.144 164.551C110.405 164.551 109.805 163.752 109.805 162.766C109.805 161.78 110.405 160.981 111.144 160.981C111.885 160.981 112.484 161.78 112.484 162.766Z" fill="#F4B998"/>
<g opacity="0.53">
<path d="M109.806 198.885C109.686 198.885 109.566 198.833 109.484 198.733C104.108 192.133 83.1397 186.875 82.9291 186.823C82.7073 186.767 82.5714 186.542 82.6257 186.321C82.6823 186.1 82.9008 185.966 83.1272 186.018C84.0012 186.235 104.578 191.397 110.127 198.208C110.272 198.386 110.245 198.647 110.068 198.792C109.99 198.854 109.897 198.885 109.806 198.885Z" fill="white"/>
</g>
<g opacity="0.53">
<path d="M122.326 208.677C122.266 208.677 122.205 208.665 122.149 208.638C98.0072 197.122 79.6812 193.385 68.5586 192.277C56.5394 191.077 50.1647 192.609 50.1013 192.625C49.8726 192.673 49.653 192.543 49.5998 192.321C49.5443 192.099 49.6802 191.874 49.9032 191.82C50.1658 191.755 56.4851 190.241 68.6424 191.453C79.8295 192.567 98.2562 196.323 122.505 207.889C122.712 207.989 122.799 208.236 122.701 208.442C122.63 208.59 122.481 208.677 122.326 208.677Z" fill="white"/>
</g>
<g opacity="0.53">
<path d="M116.948 205.132C116.765 205.132 116.597 205.01 116.547 204.826C116.488 204.605 116.62 204.377 116.839 204.317C118.811 203.788 165.25 191.36 175.484 193.152C175.709 193.19 175.861 193.405 175.82 193.631C175.782 193.854 175.569 194.005 175.341 193.967C165.28 192.228 117.536 204.988 117.056 205.118C117.018 205.128 116.983 205.132 116.948 205.132Z" fill="white"/>
</g>
<g opacity="0.53">
<path d="M145.51 175.23C145.508 175.23 145.504 175.23 145.502 175.23L74.5403 173.891C74.3116 173.886 74.1293 173.697 74.1339 173.468C74.1384 173.24 74.2924 173.07 74.5562 173.062L145.518 174.401C145.746 174.406 145.929 174.595 145.924 174.823C145.921 175.05 145.736 175.23 145.51 175.23Z" fill="white"/>
</g>
<path d="M110.699 174.922C110.634 174.922 110.568 174.911 110.504 174.887C110.303 174.812 105.578 173.015 104.663 170.481C104.394 169.734 104.461 168.998 104.863 168.295C105.335 167.466 105.922 167.324 106.337 167.357C108.389 167.499 110.586 172.605 111.21 174.166C111.292 174.369 111.245 174.601 111.092 174.757C110.988 174.863 110.845 174.922 110.699 174.922ZM106.247 168.457C106.111 168.457 105.969 168.586 105.824 168.842C105.586 169.256 105.548 169.669 105.705 170.104C106.167 171.386 108.157 172.591 109.645 173.31C108.517 170.832 107.062 168.514 106.261 168.458C106.257 168.457 106.252 168.457 106.247 168.457Z" fill="white"/>
<path d="M111.068 174.912C110.915 174.756 110.869 174.524 110.95 174.321C111.574 172.76 113.771 167.654 115.824 167.512C116.238 167.479 116.826 167.621 117.298 168.45C117.7 169.152 117.768 169.888 117.497 170.636C116.582 173.171 111.857 174.969 111.657 175.042C111.593 175.066 111.528 175.077 111.462 175.077C111.317 175.078 111.173 175.021 111.068 174.912ZM115.901 168.615C115.099 168.671 113.645 170.989 112.517 173.467C114.005 172.749 115.996 171.544 116.458 170.263C116.615 169.828 116.577 169.415 116.339 169C116.193 168.744 116.051 168.615 115.914 168.615C115.91 168.614 115.904 168.614 115.901 168.615Z" fill="white"/>
<path d="M108.843 179.635C108.58 179.635 108.347 179.446 108.301 179.179C107.78 176.229 110.487 173.987 110.602 173.893C110.84 173.701 111.188 173.737 111.378 173.972C111.571 174.209 111.535 174.556 111.3 174.749C111.276 174.768 108.981 176.681 109.388 178.987C109.441 179.287 109.239 179.574 108.939 179.627C108.908 179.633 108.876 179.635 108.843 179.635Z" fill="white"/>
<path d="M115.582 183.866C115.545 183.866 115.505 183.862 115.467 183.854C113.05 183.336 111.166 175.451 110.813 173.875C110.747 173.577 110.934 173.282 111.232 173.215C111.533 173.151 111.825 173.336 111.892 173.634C112.835 177.839 114.558 182.53 115.698 182.773C115.997 182.837 116.187 183.131 116.122 183.428C116.067 183.689 115.838 183.866 115.582 183.866Z" fill="white"/>
<path opacity="0.21" d="M26.5742 201.242C26.5742 201.242 58.1273 223.589 120.473 220.297L121.618 210.282C121.618 210.282 59.7235 220.714 26.5742 201.242Z" fill="#442071"/>
<path opacity="0.21" d="M153.841 217.469C153.841 217.469 194.641 212.601 195.8 202.169C195.8 202.169 148.741 217.932 135.528 213.76C135.528 213.76 148.51 219.555 153.841 217.469Z" fill="#442071"/>
<path d="M122.326 208.263C122.326 208.263 129.682 203.818 133.508 209.558C137.335 215.297 146.423 216.254 152.164 217.211C157.903 218.167 153.599 222.473 151.207 222.95C148.815 223.429 120.473 220.297 120.473 220.297L122.326 208.263Z" fill="#F4B998"/>
<path d="M153.002 221.071C151.224 221.071 148.877 220.178 148.757 220.131C148.544 220.049 148.438 219.81 148.52 219.596C148.601 219.383 148.838 219.274 149.055 219.358C149.969 219.709 152.594 220.532 153.782 220.143C153.999 220.066 154.233 220.188 154.305 220.405C154.377 220.623 154.26 220.856 154.042 220.928C153.741 221.03 153.384 221.071 153.002 221.071Z" fill="#E5937A"/>
<path d="M151.692 222.91C150.356 222.91 148.799 222.332 148.72 222.304C148.506 222.223 148.398 221.985 148.478 221.77C148.559 221.556 148.797 221.45 149.012 221.527C149.032 221.535 151.028 222.276 152.212 222.036C152.431 221.994 152.654 222.138 152.7 222.362C152.744 222.586 152.598 222.804 152.374 222.85C152.158 222.892 151.929 222.91 151.692 222.91Z" fill="#E5937A"/>
<path d="M95.5796 91.1342C95.5796 91.1342 73.9355 79.8373 49.3628 139.878C49.3628 139.878 54.9462 149.362 60.482 147.408L90.0245 108.479C90.0268 108.48 103.904 93.9282 95.5796 91.1342Z" fill="#F4B998"/>
<path opacity="0.48" d="M91.9274 151.963C91.6478 153.082 89.8704 155.221 87.4263 157.942C90.8213 158.27 94.2187 158.595 97.6353 158.653C105.951 158.794 114.268 158.94 122.582 159.134C126.734 159.232 130.886 159.345 135.038 159.474C132.265 155.97 130.148 153.227 129.828 151.963C128.739 147.649 130.539 144.056 130.539 144.056H130.723C130.723 144.056 131.237 142.095 132.047 138.835C117.692 138.694 103.059 135.078 88.8448 134.788C89.5523 137.889 90.3402 140.991 91.2232 144.056C91.2232 144.056 93.0051 147.651 91.9274 151.963Z" fill="#F4B998"/>
<path d="M29.3626 174.132L24 188.845C24 188.845 25.543 199.828 30.797 202.95C30.797 202.95 31.3574 199.049 31.2555 194.515C31.1536 189.981 31.0234 184.151 35.572 184.696C40.1207 185.242 45.3169 185.774 45.9067 183.168C46.4965 180.562 37.3267 179.429 37.3267 179.429C37.3267 179.429 33 169.178 29.3626 174.132Z" fill="#F4B998"/>
<path d="M168.478 129.799C168.478 129.799 183.809 147.372 193.95 174.133L185.985 179.432C185.985 179.432 157.366 151.095 156.852 136.504C156.852 136.504 164.357 125.331 168.478 129.799Z" fill="#F4B998"/>
<path d="M127.733 91.1342C127.733 91.1342 149.377 79.8373 173.95 139.878C173.95 139.878 168.366 149.362 162.83 147.408L133.288 108.479C133.288 108.479 119.41 93.9282 127.733 91.1342Z" fill="#F4B998"/>
<path opacity="0.33" d="M95.5797 91.1341C95.5797 91.1341 85.0764 85.6605 70.3979 102.627C73.1138 109.592 75.9677 116.505 78.6394 123.484L90.0269 108.48C90.0269 108.48 103.904 93.9281 95.5797 91.1341Z" fill="#F4B998"/>
<path opacity="0.33" d="M154.441 104.452C138.969 85.2722 127.732 91.1341 127.732 91.1341C119.409 93.928 133.286 108.48 133.286 108.48L141.968 119.92C146.594 115.145 150.686 109.925 154.441 104.452Z" fill="#F4B998"/>
<path d="M193.95 174.132L199.312 188.845C199.312 188.845 197.769 199.828 192.515 202.95C192.515 202.95 191.955 199.049 192.057 194.515C192.159 189.981 192.289 184.151 187.74 184.696C183.192 185.242 177.996 185.774 177.406 183.168C176.816 180.562 185.986 179.429 185.986 179.429C185.986 179.429 190.312 169.178 193.95 174.132Z" fill="#F4B998"/>
<path d="M143.886 89.9884C143.341 89.7043 142.832 90.1447 142.362 91.056C142.23 89.8651 141.933 89.0353 141.408 88.7624C140.729 88.4092 140.109 89.1688 139.548 90.5771L125.48 84.7368H124.589C124.189 84.0632 123.929 83.6296 123.86 83.5266H99.6347C99.5657 83.6308 99.277 84.0632 98.8276 84.7368H97.597L82.0571 91.9481C81.5522 90.8579 80.9997 90.3111 80.4043 90.6202C79.8801 90.893 79.5824 91.7228 79.4499 92.9137C78.9801 92.0024 78.4718 91.562 77.9262 91.8462C74.6669 93.5409 80.1099 116.509 80.1099 116.509C80.1099 116.509 80.222 116.551 80.3975 116.569C80.2186 120.936 81.3213 126.374 86.1948 129.114C87.5975 140.276 88.7148 150.004 88.5495 151.449C101.25 152.341 121.973 150.537 134.673 151.449C133.981 147.507 135.878 132.85 135.676 132.898C136.043 131.418 136.394 129.833 136.728 128.175C141.043 124.765 141.516 118.832 140.984 114.689C141.412 114.769 141.702 114.651 141.702 114.651C141.702 114.651 147.144 91.6843 143.886 89.9884Z" fill="#EE6EB0"/>
<path opacity="0.21" d="M135.68 133.281C128.694 137.875 120.502 140.853 112.905 141.828C105.433 142.79 97.3865 141.471 91.0266 137.25C89.4383 136.196 88.03 135 86.7632 133.694C87.8839 142.833 88.6911 150.206 88.5496 151.449C101.25 152.341 121.973 150.537 134.674 151.449C134.049 147.892 135.534 135.597 135.68 133.281Z" fill="#442071"/>
<path d="M147.407 62.5323C143.99 57.6678 139.206 33.3476 137.838 29.914C136.471 26.4804 129.635 7.02351 106.737 12.4597C106.737 12.4597 89.6481 11.6016 84.521 32.4883C79.3949 53.3761 77.3436 56.2369 74.2678 58.2395C72.7168 59.2493 72.821 62.6591 76.0157 66.6349C77.3504 64.8542 79.7696 62.6388 78.9172 64.5893C78.2832 66.0384 78.1972 67.8112 78.2289 68.9908C81.7417 72.2523 87.3568 75.6462 95.7998 78.2692C116.99 84.85 148.432 70.2576 148.432 70.2576C148.432 70.2576 150.825 67.3968 147.407 62.5323Z" fill="#442071"/>
<path opacity="0.37" d="M133.378 47.3422C130.738 39.9294 127.216 32.811 123.347 25.9676C121.74 23.1284 120.034 20.3435 117.6 18.1257C115.733 16.4242 113.546 15.9046 111.356 15.0533C98.3606 21.0793 92.0855 40.0641 88.807 52.6573C86.9833 59.6648 85.8637 66.867 85.5693 74.0862C88.3893 75.5908 91.7686 77.0195 95.7987 78.2715C109.439 82.5077 127.318 77.9715 138.333 74.2006C138.232 65.2652 136.604 56.3999 133.378 47.3422Z" fill="#442071"/>
<path d="M101.531 73.2211C101.531 73.2211 101.213 82.2483 100.578 84.3879C99.9426 86.5264 114.551 96.885 122.808 84.3879L122.173 74.5524C122.173 74.5524 106.614 62.0542 101.531 73.2211Z" fill="#F4B998"/>
<path opacity="0.48" d="M111.945 88.3639C118.795 88.528 121.055 80.8447 121.8 73.0413C116.982 70.1081 105.916 64.6402 101.582 73.1239C102.669 79.4183 105.023 88.1974 111.945 88.3639Z" fill="#F4B998"/>
<path d="M135.928 38.8597C135.928 25.1763 125.196 14.0843 111.957 14.0843C98.717 14.0843 87.985 25.1763 87.985 38.8597C87.985 39.1099 87.9963 39.3566 88.0031 39.6046C87.9748 39.6634 87.9385 39.72 87.9125 39.7789C87.9125 39.7789 85.0121 78.6508 112.098 80.778V80.8617C112.347 80.8549 112.588 80.8368 112.833 80.8233C113.099 80.838 113.363 80.8549 113.635 80.8617V80.7644C134.623 78.8455 135.825 50.4871 135.718 42.1008C135.851 41.04 135.928 39.96 135.928 38.8597Z" fill="#F4B998"/>
<path d="M91.728 48.9046C92.5069 53.0163 91.1733 56.7204 88.7495 57.18C86.3246 57.6396 83.7277 54.6793 82.9488 50.5687C82.1699 46.4582 83.5035 42.7529 85.9284 42.2933C88.3522 41.8325 90.9492 44.7929 91.728 48.9046Z" fill="#F4B998"/>
<path opacity="0.48" d="M90.2942 50.9299C90.8195 53.6978 90.2002 56.1408 88.9119 56.3853C87.6236 56.6298 86.1542 54.5831 85.6289 51.8152C85.1036 49.0472 85.7228 46.6042 87.0111 46.3608C88.2994 46.1152 89.7689 48.1619 90.2942 50.9299Z" fill="#F4B998"/>
<path d="M140.168 52.3914C139.514 56.5246 137.009 59.5631 134.572 59.1782C132.135 58.7933 130.688 55.1299 131.341 50.9979C131.994 46.8647 134.499 43.8262 136.937 44.2111C139.374 44.596 140.821 48.2582 140.168 52.3914Z" fill="#F4B998"/>
<path opacity="0.48" d="M138.41 54.1245C137.641 56.8505 135.961 58.7626 134.658 58.3947C133.355 58.0267 132.922 55.5181 133.692 52.792C134.462 50.0649 136.142 48.1539 137.445 48.5219C138.748 48.8886 139.18 51.3973 138.41 54.1245Z" fill="#F4B998"/>
<path d="M87.5966 42.0385C87.5966 42.0385 91.0143 51.6079 90.3305 54.3418C90.3305 54.3418 94.4321 50.2403 93.7483 43.063C93.0645 35.8856 96.8241 31.1015 98.8754 29.3921C100.927 27.6827 115.964 44.0886 132.711 38.9615C132.711 38.9615 126.901 37.594 125.875 37.2532C124.85 36.9124 133.395 38.2788 136.128 34.8611C138.862 31.4434 132.369 14.3548 117.332 11.6209C117.332 11.6209 83.1543 7.86124 87.5966 42.0385Z" fill="#442071"/>
<path d="M134.078 34.5192C134.078 34.5192 136.129 43.4049 134.762 45.4562C133.395 47.5064 132.217 54.9757 133.395 57.0769C133.395 57.0769 135.787 44.4317 138.18 44.0898C140.572 43.7468 136.47 25.9755 134.078 34.5192Z" fill="#442071"/>
<path d="M97.7739 25.1321C98.4271 26.2257 99.1301 27.2751 99.9305 28.2498C100.314 28.7468 100.729 29.22 101.131 29.7C101.567 30.1506 101.985 30.617 102.434 31.0517C104.223 32.7917 106.212 34.3211 108.411 35.4701C110.591 36.6328 112.928 37.552 115.38 38.0286C117.817 38.6162 120.338 38.6898 122.888 38.7815C122.258 38.8641 121.626 38.9365 120.989 38.9965C120.353 39.0373 119.713 39.1777 119.074 39.138C117.796 39.0746 116.497 39.1211 115.228 38.8652C112.654 38.572 110.178 37.6392 107.884 36.4415C105.595 35.2132 103.525 33.5796 101.822 31.637C100.106 29.7102 98.6739 27.5219 97.7739 25.1321Z" fill="#442071"/>
<path d="M105.419 17.0368C105.419 17.0368 93.9329 1.44814 100.497 3.08965C107.06 4.73002 107.47 11.2938 107.47 11.2938C107.47 11.2938 103.778 -1.83372 108.701 0.217597C113.623 2.26891 111.162 16.216 111.162 16.216C111.162 16.216 106.649 20.3186 105.419 17.0368Z" fill="#442071"/>
<path d="M104.695 14.3164C103.574 13.8092 102.538 13.156 101.555 12.427C100.569 11.7013 99.6524 10.8772 98.8192 9.95002C98.0279 9.00134 97.2207 7.96552 96.9785 6.59571C96.8437 5.92666 97.0316 5.12174 97.5173 4.62703C97.9996 4.13231 98.6132 3.90251 99.212 3.78931C98.7003 4.12666 98.2113 4.48892 97.9498 4.95534C97.6781 5.41043 97.6645 5.91644 97.8218 6.41568C98.1456 7.4187 98.8894 8.35156 99.649 9.22099C101.197 10.9791 102.987 12.5662 104.695 14.3164Z" fill="#442071"/>
<path d="M90.6573 58.2895C90.6573 59.3185 89.8229 60.154 88.7927 60.154C87.7637 60.154 86.9282 59.3196 86.9282 58.2895C86.9282 57.2604 87.7626 56.4249 88.7927 56.4249C89.8229 56.4249 90.6573 57.2593 90.6573 58.2895Z" fill="white"/>
<path d="M134.191 61.2509C135.221 61.2509 136.056 60.4161 136.056 59.3864C136.056 58.3566 135.221 57.5219 134.191 57.5219C133.161 57.5219 132.327 58.3566 132.327 59.3864C132.327 60.4161 133.161 61.2509 134.191 61.2509Z" fill="white"/>
<path opacity="0.33" d="M99.21 21.7736C100.151 22.6906 101.096 23.5974 102.092 24.4476C103.064 25.3227 104.063 26.1649 105.088 26.9743C107.13 28.5977 109.232 30.143 111.452 31.5026C113.644 32.9087 115.977 34.0668 118.366 35.0902C119.579 35.5543 120.79 36.0411 122.055 36.3547C123.291 36.7985 124.592 36.9411 125.875 37.2524C123.251 37.1053 120.636 36.5732 118.138 35.6845C115.656 34.7664 113.276 33.5777 111.015 32.2045C108.797 30.7645 106.657 29.2068 104.679 27.46C102.708 25.7098 100.834 23.8442 99.21 21.7736Z" fill="white"/>
<path opacity="0.33" d="M105.352 20.4568C107.446 22.2353 109.596 23.9334 111.808 25.5409C114.021 27.1428 116.281 28.6824 118.66 30.0092C121.01 31.3813 123.475 32.5564 126.05 33.4133C127.332 33.856 128.655 34.1854 129.998 34.3722C131.34 34.5896 132.709 34.6337 134.079 34.5194C131.377 35.0967 128.522 34.7854 125.863 34.0224C123.184 33.2707 120.667 32.0639 118.249 30.7269C115.868 29.3186 113.574 27.7711 111.424 26.0458C109.275 24.3194 107.213 22.4843 105.352 20.4568Z" fill="white"/>
<path opacity="0.33" d="M92.1926 22.8695C91.4896 24.2801 90.833 25.6963 90.2398 27.1363C89.6557 28.5797 89.1078 30.0332 88.6447 31.514C88.1534 32.9857 87.7776 34.4913 87.4436 36.0072L87.2036 37.1494L87.0293 38.3041C86.8617 39.0717 86.847 39.8528 86.71 40.6351C86.4168 37.4925 86.8866 34.2751 87.8557 31.2626C88.3492 29.7559 88.9311 28.2762 89.6636 26.8713C90.387 25.4642 91.1998 24.0989 92.1926 22.8695Z" fill="white"/>
<path opacity="0.33" d="M95.0435 27.4756C94.6258 28.4605 94.2035 29.4375 93.8367 30.4371C93.4439 31.4242 93.076 32.4204 92.7511 33.4291C92.1035 35.4431 91.5092 37.4774 91.2126 39.5514C91.0756 40.585 90.9578 41.6287 91.0224 42.6589C91.0405 43.6891 91.1865 44.7804 91.2092 45.8423C91.3009 47.9774 91.3677 50.1294 91.0971 52.2577C91.0665 51.1891 90.9918 50.1283 90.8854 49.0676C90.8016 48.0068 90.6963 46.9483 90.5741 45.891C90.4575 44.8246 90.3126 43.7989 90.2401 42.6985C90.1496 41.5982 90.2662 40.508 90.3952 39.4291C90.7247 37.2793 91.3575 35.2042 92.1579 33.2106C92.9548 31.2171 93.899 29.2846 95.0435 27.4756Z" fill="white"/>
<path opacity="0.33" d="M82.981 54.452C82.8848 56.0199 82.4716 57.5222 81.9112 58.9723C81.6203 59.6923 81.2818 60.401 80.8606 61.0655C80.4497 61.7267 79.9323 62.3753 79.252 62.7863C79.7014 62.1455 79.9833 61.4516 80.2889 60.7633C80.5776 60.0682 80.872 59.3742 81.1414 58.6667C81.7131 57.2606 82.2576 55.841 82.981 54.452Z" fill="white"/>
<path opacity="0.33" d="M84.9555 59.057L83.9423 64.6381C83.6151 66.4891 83.3875 68.3264 83.2008 70.2419C82.7309 68.3649 82.8125 66.3883 83.1261 64.4977C83.4691 62.6083 84.0193 60.7461 84.9555 59.057Z" fill="white"/>
<path opacity="0.33" d="M137.591 36.4679C138.434 38.9562 139.202 41.4626 139.966 43.9701L142.202 51.5063L144.371 59.0572C144.723 60.3183 145.1 61.5716 145.485 62.8225C145.88 64.0678 146.219 65.3391 146.801 66.5142C145.43 64.2557 144.648 61.7119 143.762 59.2497C142.912 56.7648 142.164 54.2482 141.406 51.7373C140.707 49.2082 139.99 46.6859 139.353 44.1399C138.717 41.595 138.104 39.0445 137.591 36.4679Z" fill="white"/>
<path opacity="0.33" d="M140.223 59.4951C140.517 61.0052 140.651 62.4871 140.833 63.9588C140.91 64.6958 141.02 65.4226 141.138 66.146C141.275 66.866 141.4 67.5871 141.758 68.2675C141.139 67.7863 140.757 67.038 140.513 66.3124C140.256 65.5777 140.105 64.8158 140.011 64.0562C139.849 62.5335 139.866 60.9973 140.223 59.4951Z" fill="white"/>
<path d="M98.5528 44.7963C98.5528 44.7963 102.72 43.1774 106.229 43.5374C106.229 43.5374 107.326 44.4363 106.449 45.1563C105.572 45.8762 98.3344 46.0551 97.457 46.7751C97.457 46.7751 96.36 46.0551 98.5528 44.7963Z" fill="#442071"/>
<path d="M128.446 44.7963C128.446 44.7963 124.279 43.1774 120.77 43.5374C120.77 43.5374 119.673 44.4363 120.55 45.1563C121.427 45.8762 128.665 46.0551 129.542 46.7751C129.542 46.7751 130.639 46.0551 128.446 44.7963Z" fill="#442071"/>
<path d="M101.716 54.9259C99.3812 54.6734 97.7193 53.3161 97.6933 53.2945C97.459 53.0998 97.4284 52.7523 97.6231 52.5179C97.8156 52.2825 98.1654 52.2496 98.4009 52.4455C98.5378 52.5587 101.802 55.1964 105.416 53.0048C105.677 52.8474 106.017 52.9289 106.176 53.1904C106.333 53.4508 106.251 53.7915 105.99 53.9489C104.468 54.8704 102.991 55.0628 101.716 54.9259Z" fill="#442071"/>
<path d="M124.517 54.6025C122.172 54.4779 120.438 53.2134 120.411 53.1942C120.166 53.0119 120.116 52.6666 120.299 52.4232C120.479 52.1776 120.825 52.1255 121.071 52.3089C121.213 52.4142 124.618 54.8697 128.105 52.4833C128.357 52.3123 128.701 52.3746 128.874 52.627C129.045 52.8783 128.982 53.2225 128.729 53.3946C127.263 54.3976 125.798 54.6704 124.517 54.6025Z" fill="#442071"/>
<path d="M113.688 61.7478C111.962 61.7478 110.442 60.9101 110.344 60.8546C110.079 60.7052 109.985 60.3689 110.133 60.1029C110.282 59.8357 110.618 59.7406 110.884 59.8912C110.917 59.9093 114.06 61.6301 115.926 59.7633C116.142 59.5471 116.491 59.5471 116.707 59.7633C116.923 59.9795 116.923 60.3282 116.707 60.5444C115.796 61.4569 114.706 61.7478 113.688 61.7478Z" fill="#442071"/>
<path d="M107.964 68.2914C107.964 68.2914 113.795 66.0487 118.548 68.7397C118.548 68.7397 112.898 75.557 107.964 68.2914Z" fill="#FE6EAF"/>
<path d="M115.003 69.4888C111.179 69.4888 107.347 68.316 107.117 68.2447C107.043 68.222 107.004 68.145 107.026 68.0715C107.049 67.9979 107.126 67.9594 107.198 67.9809C107.278 68.0047 115.269 70.4511 119.655 68.3466C119.719 68.3137 119.805 68.342 119.838 68.4111C119.871 68.4801 119.843 68.5628 119.773 68.5956C118.396 69.2568 116.7 69.4888 115.003 69.4888Z" fill="#442071"/>
<path opacity="0.48" d="M103.75 56.1838C103.75 56.7283 102.606 57.171 101.194 57.171C99.7822 57.171 98.6377 56.7294 98.6377 56.1838C98.6377 55.6381 99.7822 55.1978 101.194 55.1978C102.606 55.1978 103.75 55.6393 103.75 56.1838Z" fill="#F4B998"/>
<path opacity="0.48" d="M127.696 56.1838C127.696 56.7283 126.552 57.171 125.14 57.171C123.729 57.171 122.584 56.7294 122.584 56.1838C122.584 55.6381 123.729 55.1978 125.14 55.1978C126.552 55.1978 127.696 55.6393 127.696 56.1838Z" fill="#F4B998"/>
<mask id="mask0_378_68" style="mask-type:luminance" maskUnits="userSpaceOnUse" x="76" y="83" width="69" height="69">
<path d="M143.886 89.9884C143.341 89.7043 142.832 90.1447 142.362 91.056C142.23 89.8651 141.933 89.0353 141.408 88.7624C140.729 88.4092 140.109 89.1688 139.548 90.5771L125.48 84.7368H124.589C124.189 84.0632 123.929 83.6296 123.86 83.5266H99.6347C99.5657 83.6308 99.277 84.0632 98.8276 84.7368H97.597L82.0571 91.9481C81.5522 90.8579 80.9997 90.3111 80.4043 90.6202C79.8801 90.893 79.5824 91.7228 79.4499 92.9137C78.9801 92.0024 78.4718 91.562 77.9262 91.8462C74.6669 93.5409 80.1099 116.509 80.1099 116.509C80.1099 116.509 80.222 116.551 80.3975 116.569C80.2186 120.936 81.3213 126.374 86.1948 129.114C87.5975 140.276 88.7148 150.004 88.5495 151.449C101.25 152.341 121.973 150.537 134.673 151.449C133.981 147.507 135.878 132.85 135.676 132.898C136.043 131.418 136.394 129.833 136.728 128.175C141.043 124.765 141.516 118.832 140.984 114.689C141.412 114.769 141.702 114.651 141.702 114.651C141.702 114.651 147.144 91.6843 143.886 89.9884Z" fill="white"/>
</mask>
<g mask="url(#mask0_378_68)">
<g opacity="0.61">
<g opacity="0.58">
<path d="M149.88 95.727C112.325 93.1877 72.751 95.5164 72.3559 95.5391L72.2891 94.4364C72.6864 94.4126 112.33 92.0806 149.956 94.6243L149.88 95.727Z" fill="white"/>
</g>
<g opacity="0.58">
<path d="M73.7619 109.094L73.6714 107.994C74.2476 107.946 131.404 103.334 146.99 105.659L146.828 106.75C131.358 104.453 74.3348 109.05 73.7619 109.094Z" fill="white"/>
</g>
<g opacity="0.58">
<path d="M76.4181 120.793L76.3638 119.691C76.9049 119.662 130.734 117.039 145.325 119.361L145.152 120.454C130.67 118.148 76.9592 120.767 76.4181 120.793Z" fill="white"/>
</g>
<g opacity="0.58">
<path d="M141.819 133.92C126.798 131.401 81.1765 133.043 80.718 133.06L80.6772 131.955C81.1391 131.938 126.873 130.292 142.003 132.829L141.819 133.92Z" fill="white"/>
</g>
<g opacity="0.58">
<path d="M142.823 146.619C127.801 144.101 82.1788 145.743 81.7214 145.761L81.6807 144.656C82.1414 144.639 127.874 142.991 143.006 145.529L142.823 146.619Z" fill="white"/>
</g>
</g>
</g>
<g opacity="0.66">
<g opacity="0.66">
<path d="M112.436 93.8702C104.006 93.8702 97.4398 85.4374 97.1602 85.0729L98.0364 84.4005C98.1032 84.4865 104.688 93.0132 112.78 92.7597C117.25 92.6261 121.369 89.8219 125.023 84.4276L125.937 85.0468C122.073 90.7547 117.654 93.7219 112.808 93.8645C112.684 93.8691 112.56 93.8702 112.436 93.8702Z" fill="#442071"/>
</g>
<g opacity="0.66">
<path d="M79.9713 92.8721L78.8711 92.9729L80.8228 114.284L81.9231 114.183L79.9713 92.8721Z" fill="#442071"/>
</g>
<g opacity="0.66">
<path d="M83.6201 94.15L82.5195 94.2477L83.8557 109.287L84.9563 109.19L83.6201 94.15Z" fill="#442071"/>
</g>
<g opacity="0.66">
<path d="M139.774 114.235L138.669 114.218C138.673 114.001 139.003 92.4779 138.995 90.5817L140.1 90.576C140.109 92.4836 139.789 113.348 139.774 114.235Z" fill="#442071"/>
</g>
<g opacity="0.66">
<path d="M141.803 91.0206L141.342 104.164L142.447 104.203L142.909 91.0594L141.803 91.0206Z" fill="#442071"/>
</g>
<g opacity="0.66">
<path d="M119.216 129.737C113.511 126.249 106.097 129.405 106.021 129.439L105.581 128.425C105.904 128.284 113.604 125.012 119.791 128.794L119.216 129.737Z" fill="#442071"/>
</g>
<g opacity="0.66">
<path d="M134.524 148.462L88.7349 149.085L88.7499 150.19L134.539 149.567L134.524 148.462Z" fill="#442071"/>
</g>
</g>
<path d="M61.6927 142.07C57.3524 138.527 52.9769 137.878 52.9351 137.873L53.0879 136.778C53.2792 136.805 57.8086 137.479 62.3924 141.214L61.6927 142.07Z" fill="#E5937A"/>
<path d="M170.098 135.176C164.798 136.994 161.939 140.369 161.912 140.402L161.062 139.694C161.187 139.546 164.147 136.054 169.739 134.13L170.098 135.176Z" fill="#E5937A"/>
<path fill-rule="evenodd" clip-rule="evenodd" d="M42.2933 143.78C43.0425 143.697 43.7818 143.634 44.524 143.496C51.0958 142.276 57.4055 139.666 63.4354 136.521C70.0355 133.079 76.2465 128.719 81.8802 123.705C89.7771 116.676 96.7717 108.471 101.773 99.4275C103.979 95.4381 105.637 91.2518 107.088 87.0605C107.148 86.9193 107.081 86.7566 106.94 86.6968C106.799 86.637 106.636 86.7034 106.576 86.8446C104.619 90.7516 102.238 94.4729 99.7943 98.2406C94.3015 106.707 87.8089 114.849 80.1425 121.765C74.6762 126.697 68.7302 131.065 62.429 134.682C56.6383 138.006 50.5035 140.482 44.2874 142.588C43.5793 142.828 42.9031 143.113 42.1982 143.362C42.0831 143.389 42.0109 143.504 42.0372 143.619C42.0635 143.734 42.1784 143.806 42.2933 143.78Z" fill="black"/>
<path fill-rule="evenodd" clip-rule="evenodd" d="M106.576 86.8444C106.813 90.4407 106.785 95.2197 106.828 96.5638L106.994 101.387C107.136 103.186 107.457 104.649 108.5 104.325C109.773 104.37 109.369 101.934 109.446 101.328L109.516 96.5319C109.53 94.9689 109.666 87.163 109.465 83.9616C109.36 82.2864 108.571 81.397 108.381 81.2967C107.923 81.0547 107.08 80.9376 106.166 81.6089C105.063 82.4183 102.949 85.3122 102.642 85.6528C100.986 87.5895 99.2244 89.4078 97.467 91.2322C94.8003 94.001 92.1179 96.7163 89.2384 99.2942C88.9686 99.5046 88.9211 99.8939 89.1305 100.163C89.3408 100.433 89.7308 100.482 89.9997 100.271C92.1921 98.8345 94.3542 97.4113 96.4067 95.8028C99.4909 93.3859 102.312 90.6652 105.045 87.8236C105.18 87.6766 105.942 87.2135 106.576 86.8444Z" fill="black"/>
<path fill-rule="evenodd" clip-rule="evenodd" d="M186.59 142.78C185.841 142.697 185.102 142.634 184.36 142.496C177.788 141.276 171.478 138.666 165.448 135.521C158.848 132.079 152.637 127.719 147.004 122.705C139.107 115.676 132.112 107.471 127.111 98.4275C124.905 94.4381 123.246 90.2518 121.796 86.0605C121.736 85.9193 121.802 85.7566 121.944 85.6968C122.085 85.637 122.248 85.7034 122.307 85.8446C124.265 89.7516 126.646 93.4729 129.089 97.2406C134.582 105.707 141.075 113.849 148.741 120.765C154.208 125.697 160.154 130.065 166.455 133.682C172.245 137.006 178.38 139.482 184.596 141.588C185.305 141.828 185.981 142.113 186.686 142.362C186.801 142.389 186.873 142.504 186.847 142.619C186.82 142.734 186.705 142.806 186.59 142.78Z" fill="black"/>
<path fill-rule="evenodd" clip-rule="evenodd" d="M122.308 85.8444C122.071 89.4407 122.099 94.2197 122.055 95.5638L121.889 100.387C121.748 102.186 121.427 103.649 120.384 103.325C119.11 103.37 119.515 100.934 119.437 100.328L119.368 95.5319C119.354 93.9689 119.218 86.163 119.418 82.9616C119.524 81.2864 120.313 80.397 120.503 80.2967C120.961 80.0547 121.803 79.9376 122.718 80.6089C123.821 81.4183 125.935 84.3122 126.242 84.6528C127.897 86.5895 129.659 88.4078 131.417 90.2322C134.083 93.001 136.766 95.7163 139.645 98.2942C139.915 98.5046 139.963 98.8939 139.753 99.1635C139.543 99.4332 139.153 99.4816 138.884 99.271C136.692 97.8345 134.53 96.4113 132.477 94.8028C129.393 92.3859 126.572 89.6652 123.839 86.8236C123.704 86.6766 122.942 86.2135 122.308 85.8444Z" fill="black"/>
</svg>
