<svg width="224" height="223" viewBox="0 0 224 223" fill="none" xmlns="http://www.w3.org/2000/svg">
<path d="M0 1H224V223H0V1Z" fill="white"/>
<path opacity="0.19" d="M112.656 206.464C160.367 206.464 199.043 167.787 199.043 120.077C199.043 72.3665 160.367 33.6897 112.656 33.6897C64.9459 33.6897 26.269 72.3665 26.269 120.077C26.269 167.787 64.9459 206.464 112.656 206.464Z" fill="#007C14"/>
<path d="M58.8141 186.596C58.8141 186.596 21.9539 145.283 41.0123 134.578C60.0696 123.875 58.8141 186.596 58.8141 186.596Z" fill="#7F6868"/>
<g opacity="0.66">
<path d="M58.7438 186.93C58.5966 186.899 58.4812 186.773 58.4721 186.615C57.8517 175.681 45.1318 142.519 45.0039 142.185C44.9359 142.008 45.0243 141.811 45.1997 141.743C45.3763 141.677 45.5744 141.764 45.6412 141.939C46.1676 143.306 58.5287 175.535 59.1548 186.577C59.1649 186.765 59.0212 186.927 58.8333 186.938C58.8027 186.938 58.7732 186.937 58.7438 186.93Z" fill="#442071"/>
</g>
<path d="M63.8286 183.7C63.8286 183.7 59.5992 128.496 81.2432 131.552C102.887 134.609 63.8286 183.7 63.8286 183.7Z" fill="#7F6868"/>
<g opacity="0.66">
<path d="M63.5706 183.924C63.4721 183.81 63.4574 183.64 63.5457 183.509C69.6883 174.441 79.7015 140.363 79.8011 140.02C79.8543 139.839 80.0434 139.735 80.2245 139.788C80.4056 139.843 80.5097 140.032 80.4565 140.212C80.0456 141.616 70.3132 174.735 64.1106 183.891C64.0053 184.048 63.7925 184.088 63.6363 183.983C63.6125 183.965 63.5898 183.946 63.5706 183.924Z" fill="#442071"/>
</g>
<path d="M61.2785 173.976C61.2785 173.976 39.5767 123.04 61.0589 118.997C82.5411 114.954 61.2785 173.976 61.2785 173.976Z" fill="#7F6868"/>
<g opacity="0.66">
<path d="M61.1056 174.27C60.9754 174.194 60.9075 174.037 60.9493 173.885C63.861 163.326 62.4222 127.838 62.4074 127.48C62.3995 127.291 62.5456 127.133 62.7346 127.125C62.9237 127.118 63.0822 127.264 63.0901 127.452C63.1512 128.915 64.5482 163.406 61.6082 174.066C61.5584 174.249 61.3705 174.355 61.1882 174.305C61.1588 174.296 61.1316 174.285 61.1056 174.27Z" fill="#442071"/>
</g>
<path d="M70.4435 193.821H51.0806L44.6255 167.285H75.4631L70.4435 193.821Z" fill="#C15A4B"/>
<path opacity="0.31" d="M72.9895 180.364L75.4631 167.285H44.6255L47.8066 180.364H72.9895Z" fill="#442071"/>
<path d="M78.6911 164.416H41.3984V175.891H78.6911V164.416Z" fill="#C15A4B"/>
<path d="M55.8354 129.799C55.8354 129.799 40.5049 147.372 30.3638 174.133L38.329 179.432C38.329 179.432 66.9478 151.095 67.4618 136.504C67.4618 136.504 59.9561 125.331 55.8354 129.799Z" fill="#F4B998"/>
<path d="M57.4009 213.448C57.4009 213.448 57.8798 217.274 62.6628 218.231C67.4458 219.187 75.0997 217.753 75.0997 217.753L57.4009 213.448Z" fill="#F4B998"/>
<path d="M81.4253 189.096C81.4253 189.096 97.958 196.212 108.74 209.827H118.084C118.084 209.827 132.101 188.478 143.242 186.002C143.242 186.002 139.289 166.818 113.412 167.746C113.412 167.746 85.3796 164.033 81.4253 189.096Z" fill="#442071"/>
<path d="M92.928 151.963C92.2544 154.658 82.9578 163.211 76.3442 171.791H145.343C139.431 163.075 131.474 154.515 130.83 151.963C129.741 147.649 131.541 144.056 131.541 144.056H131.725C131.725 144.056 132.239 142.095 133.049 138.835C118.694 138.694 104.061 135.078 89.8464 134.788C90.554 137.889 91.3419 140.991 92.2249 144.056C92.2249 144.056 94.0057 147.651 92.928 151.963Z" fill="#F4B998"/>
<path d="M77.0893 170.843C72.7625 176.3 69.3516 181.854 69.7806 186.001L114.062 194.144L140.889 189.531C140.889 189.531 151.75 186.189 151.746 186.172C151.594 181.874 148.474 176.286 144.689 170.842H77.0893V170.843Z" fill="#442071"/>
<path d="M29.1646 202.665C29.1646 202.665 56.1316 219.624 99.6303 218.611C99.6303 218.611 109.166 218.514 112.87 208.701C112.87 208.701 116.369 201.845 108.32 196.359C108.32 196.359 61.7456 178.308 43.8803 179.628C26.014 180.946 22.4276 197.478 29.1646 202.665Z" fill="#442071"/>
<path d="M192.973 207.67C192.973 207.67 164.353 221.955 121.182 216.774C121.182 216.774 111.705 215.762 109.055 205.643C109.055 205.643 106.297 198.486 114.884 193.799C114.884 193.799 163.127 180.31 180.763 183.336C198.399 186.364 200.223 203.156 192.973 207.67Z" fill="#442071"/>
<path d="M58.1133 192.149C58.1133 192.149 76.9012 186.74 123.326 208.263L121.473 220.298C121.473 220.298 60.4794 222.264 40.3263 205.004C40.3263 205.004 35.2002 190.043 58.1133 192.149Z" fill="#442071"/>
<path opacity="0.48" d="M113.484 162.766C113.484 163.752 112.884 164.551 112.144 164.551C111.405 164.551 110.805 163.752 110.805 162.766C110.805 161.78 111.405 160.981 112.144 160.981C112.885 160.981 113.484 161.78 113.484 162.766Z" fill="#F4B998"/>
<g opacity="0.53">
<path d="M110.806 198.885C110.686 198.885 110.566 198.833 110.484 198.733C105.108 192.133 84.1397 186.875 83.9291 186.823C83.7073 186.767 83.5714 186.542 83.6257 186.321C83.6823 186.1 83.9008 185.966 84.1272 186.018C85.0012 186.235 105.578 191.397 111.127 198.208C111.272 198.386 111.245 198.647 111.068 198.792C110.99 198.854 110.897 198.885 110.806 198.885Z" fill="white"/>
</g>
<g opacity="0.53">
<path d="M123.326 208.677C123.266 208.677 123.205 208.665 123.149 208.638C99.0072 197.122 80.6812 193.385 69.5586 192.277C57.5394 191.077 51.1647 192.609 51.1013 192.625C50.8726 192.673 50.653 192.543 50.5998 192.321C50.5443 192.099 50.6802 191.874 50.9032 191.82C51.1658 191.755 57.4851 190.241 69.6424 191.453C80.8295 192.567 99.2562 196.323 123.505 207.889C123.712 207.989 123.799 208.236 123.701 208.442C123.63 208.59 123.481 208.677 123.326 208.677Z" fill="white"/>
</g>
<g opacity="0.53">
<path d="M117.948 205.132C117.765 205.132 117.597 205.01 117.547 204.826C117.488 204.605 117.62 204.377 117.839 204.317C119.811 203.787 166.25 191.36 176.484 193.152C176.709 193.19 176.861 193.405 176.82 193.631C176.782 193.854 176.569 194.005 176.341 193.967C166.28 192.228 118.536 204.987 118.056 205.118C118.018 205.128 117.983 205.132 117.948 205.132Z" fill="white"/>
</g>
<g opacity="0.53">
<path d="M146.51 175.23C146.508 175.23 146.504 175.23 146.502 175.23L75.5403 173.891C75.3116 173.886 75.1293 173.697 75.1339 173.468C75.1384 173.24 75.2924 173.07 75.5562 173.062L146.518 174.401C146.746 174.406 146.929 174.595 146.924 174.824C146.921 175.05 146.736 175.23 146.51 175.23Z" fill="white"/>
</g>
<path d="M111.699 174.922C111.634 174.922 111.568 174.911 111.504 174.887C111.303 174.812 106.578 173.015 105.663 170.481C105.394 169.734 105.461 168.998 105.863 168.295C106.335 167.466 106.922 167.324 107.337 167.357C109.389 167.499 111.586 172.605 112.21 174.166C112.292 174.369 112.245 174.601 112.092 174.757C111.988 174.863 111.845 174.922 111.699 174.922ZM107.247 168.457C107.111 168.457 106.969 168.586 106.824 168.842C106.586 169.256 106.548 169.669 106.705 170.104C107.167 171.386 109.157 172.591 110.645 173.31C109.517 170.832 108.062 168.514 107.261 168.458C107.257 168.457 107.252 168.457 107.247 168.457Z" fill="white"/>
<path d="M112.068 174.912C111.915 174.756 111.869 174.524 111.95 174.321C112.574 172.76 114.771 167.654 116.824 167.512C117.238 167.479 117.826 167.621 118.298 168.45C118.7 169.152 118.768 169.888 118.497 170.636C117.582 173.171 112.857 174.969 112.657 175.042C112.593 175.066 112.528 175.077 112.462 175.077C112.317 175.078 112.173 175.021 112.068 174.912ZM116.901 168.615C116.099 168.671 114.645 170.989 113.517 173.467C115.005 172.749 116.996 171.544 117.458 170.263C117.615 169.828 117.577 169.415 117.339 169C117.193 168.744 117.051 168.615 116.914 168.615C116.91 168.614 116.904 168.614 116.901 168.615Z" fill="white"/>
<path d="M109.843 179.635C109.58 179.635 109.347 179.446 109.301 179.179C108.78 176.228 111.487 173.987 111.602 173.893C111.84 173.701 112.188 173.737 112.378 173.972C112.571 174.209 112.535 174.556 112.3 174.749C112.276 174.768 109.981 176.681 110.388 178.987C110.441 179.287 110.239 179.574 109.939 179.627C109.908 179.633 109.876 179.635 109.843 179.635Z" fill="white"/>
<path d="M116.582 183.866C116.545 183.866 116.505 183.862 116.467 183.854C114.05 183.336 112.166 175.451 111.813 173.875C111.747 173.577 111.934 173.282 112.232 173.215C112.533 173.151 112.825 173.336 112.892 173.634C113.835 177.839 115.558 182.53 116.698 182.773C116.997 182.837 117.187 183.131 117.122 183.428C117.067 183.689 116.838 183.866 116.582 183.866Z" fill="white"/>
<path opacity="0.21" d="M27.5742 201.242C27.5742 201.242 59.1273 223.589 121.473 220.297L122.618 210.282C122.618 210.282 60.7235 220.714 27.5742 201.242Z" fill="#442071"/>
<path opacity="0.21" d="M154.841 217.469C154.841 217.469 195.641 212.601 196.8 202.169C196.8 202.169 149.741 217.932 136.528 213.76C136.528 213.76 149.51 219.555 154.841 217.469Z" fill="#442071"/>
<path d="M123.326 208.263C123.326 208.263 130.682 203.818 134.508 209.558C138.335 215.297 147.423 216.254 153.164 217.211C158.903 218.167 154.599 222.473 152.207 222.95C149.815 223.429 121.473 220.297 121.473 220.297L123.326 208.263Z" fill="#F4B998"/>
<path d="M154.002 221.071C152.224 221.071 149.877 220.178 149.757 220.131C149.544 220.049 149.438 219.81 149.52 219.596C149.601 219.383 149.838 219.274 150.055 219.358C150.969 219.709 153.594 220.532 154.782 220.143C154.999 220.066 155.233 220.188 155.305 220.405C155.377 220.623 155.26 220.856 155.042 220.928C154.741 221.03 154.384 221.071 154.002 221.071Z" fill="#C15A4B"/>
<path d="M152.692 222.91C151.356 222.91 149.799 222.332 149.72 222.304C149.506 222.223 149.398 221.985 149.478 221.77C149.559 221.556 149.797 221.45 150.012 221.527C150.032 221.535 152.028 222.276 153.212 222.036C153.431 221.994 153.654 222.138 153.7 222.362C153.744 222.586 153.598 222.804 153.374 222.85C153.158 222.892 152.929 222.91 152.692 222.91Z" fill="#C15A4B"/>
<path d="M96.5796 91.1342C96.5796 91.1342 74.9355 79.8373 50.3628 139.878C50.3628 139.878 55.9462 149.362 61.482 147.408L91.0245 108.479C91.0268 108.48 104.904 93.9282 96.5796 91.1342Z" fill="#F4B998"/>
<path opacity="0.48" d="M92.9274 151.963C92.6478 153.082 90.8704 155.221 88.4263 157.942C91.8213 158.27 95.2187 158.595 98.6353 158.653C106.951 158.794 115.268 158.94 123.582 159.134C127.734 159.232 131.886 159.345 136.038 159.474C133.265 155.97 131.148 153.227 130.828 151.963C129.739 147.649 131.539 144.056 131.539 144.056H131.723C131.723 144.056 132.237 142.095 133.047 138.835C118.692 138.694 104.059 135.078 89.8448 134.788C90.5523 137.889 91.3402 140.991 92.2232 144.056C92.2232 144.056 94.0051 147.651 92.9274 151.963Z" fill="#F4B998"/>
<path d="M30.3626 174.132L25 188.845C25 188.845 26.543 199.828 31.797 202.95C31.797 202.95 32.3574 199.049 32.2555 194.515C32.1536 189.981 32.0234 184.151 36.572 184.696C41.1207 185.242 46.3169 185.774 46.9067 183.168C47.4965 180.562 38.3267 179.429 38.3267 179.429C38.3267 179.429 34 169.178 30.3626 174.132Z" fill="#F4B998"/>
<path d="M169.478 129.799C169.478 129.799 184.809 147.372 194.95 174.133L186.985 179.432C186.985 179.432 158.366 151.095 157.852 136.504C157.852 136.504 165.357 125.331 169.478 129.799Z" fill="#F4B998"/>
<path d="M128.733 91.1342C128.733 91.1342 150.377 79.8373 174.95 139.878C174.95 139.878 169.366 149.362 163.83 147.408L134.288 108.479C134.288 108.479 120.41 93.9282 128.733 91.1342Z" fill="#F4B998"/>
<path opacity="0.33" d="M96.5797 91.1341C96.5797 91.1341 86.0764 85.6605 71.3979 102.627C74.1138 109.592 76.9677 116.505 79.6394 123.484L91.0269 108.48C91.0269 108.48 104.904 93.9281 96.5797 91.1341Z" fill="#F4B998"/>
<path opacity="0.33" d="M155.441 104.452C139.969 85.2722 128.732 91.1341 128.732 91.1341C120.409 93.928 134.286 108.48 134.286 108.48L142.968 119.92C147.594 115.145 151.686 109.925 155.441 104.452Z" fill="#F4B998"/>
<path d="M194.95 174.132L200.312 188.845C200.312 188.845 198.769 199.828 193.515 202.95C193.515 202.95 192.955 199.049 193.057 194.515C193.159 189.981 193.289 184.151 188.74 184.696C184.192 185.242 178.996 185.774 178.406 183.168C177.816 180.562 186.986 179.429 186.986 179.429C186.986 179.429 191.312 169.178 194.95 174.132Z" fill="#F4B998"/>
<path d="M144.886 89.9884C144.341 89.7043 143.832 90.1447 143.362 91.056C143.23 89.8651 142.933 89.0353 142.408 88.7624C141.729 88.4092 141.109 89.1688 140.548 90.5771L126.48 84.7368H125.589C125.189 84.0632 124.929 83.6296 124.86 83.5266H100.635C100.566 83.6308 100.277 84.0632 99.8276 84.7368H98.597L83.0571 91.9481C82.5522 90.8579 81.9997 90.3111 81.4043 90.6202C80.8801 90.893 80.5824 91.7228 80.4499 92.9137C79.9801 92.0024 79.4718 91.562 78.9262 91.8462C75.6669 93.5409 81.1099 116.509 81.1099 116.509C81.1099 116.509 81.222 116.551 81.3975 116.569C81.2186 120.936 82.3213 126.374 87.1948 129.114C88.5975 140.276 89.7148 150.004 89.5495 151.449C102.25 152.341 122.973 150.537 135.673 151.449C134.981 147.507 136.878 132.85 136.676 132.898C137.043 131.418 137.394 129.833 137.728 128.175C142.043 124.765 142.516 118.832 141.984 114.689C142.412 114.769 142.702 114.651 142.702 114.651C142.702 114.651 148.144 91.6843 144.886 89.9884Z" fill="#EE6EB0"/>
<path opacity="0.21" d="M136.68 133.281C129.694 137.875 121.502 140.853 113.905 141.828C106.433 142.79 98.3865 141.471 92.0266 137.25C90.4383 136.196 89.03 135 87.7632 133.694C88.8839 142.833 89.6911 150.206 89.5496 151.449C102.25 152.341 122.973 150.537 135.674 151.449C135.049 147.892 136.534 135.597 136.68 133.281Z" fill="#442071"/>
<path d="M148.407 62.5324C144.99 57.6679 140.206 33.3476 138.838 29.914C137.471 26.4805 130.635 7.02357 107.737 12.4598C107.737 12.4598 90.6481 11.6017 85.521 32.4884C80.3949 53.3762 78.3436 56.2369 75.2678 58.2396C73.7168 59.2494 73.821 62.6592 77.0157 66.635C78.3504 64.8542 80.7696 62.6388 79.9172 64.5894C79.2832 66.0384 79.1972 67.8112 79.2289 68.9909C82.7417 72.2524 88.3568 75.6463 96.7998 78.2693C117.99 84.85 149.432 70.2576 149.432 70.2576C149.432 70.2576 151.825 67.3969 148.407 62.5324Z" fill="#442071"/>
<path opacity="0.37" d="M134.378 47.3423C131.738 39.9295 128.216 32.811 124.347 25.9677C122.74 23.1284 121.034 20.3435 118.6 18.1258C116.733 16.4243 114.546 15.9047 112.356 15.0533C99.3606 21.0794 93.0855 40.0642 89.807 52.6573C87.9833 59.6649 86.8637 66.8671 86.5693 74.0863C89.3893 75.5908 92.7686 77.0195 96.7987 78.2716C110.439 82.5078 128.318 77.9716 139.333 74.2006C139.232 65.2652 137.604 56.4 134.378 47.3423Z" fill="#442071"/>
<path d="M102.531 73.2211C102.531 73.2211 102.213 82.2483 101.578 84.388C100.943 86.5265 115.551 96.885 123.808 84.388L123.173 74.5524C123.173 74.5524 107.614 62.0543 102.531 73.2211Z" fill="#F4B998"/>
<path opacity="0.48" d="M112.945 88.3639C119.795 88.528 122.055 80.8447 122.8 73.0413C117.982 70.1081 106.916 64.6402 102.582 73.1239C103.669 79.4183 106.023 88.1974 112.945 88.3639Z" fill="#F4B998"/>
<path d="M136.928 38.8597C136.928 25.1764 126.196 14.0844 112.957 14.0844C99.717 14.0844 88.985 25.1764 88.985 38.8597C88.985 39.1099 88.9963 39.3567 89.0031 39.6046C88.9748 39.6635 88.9385 39.7201 88.9125 39.7789C88.9125 39.7789 86.0121 78.6509 113.098 80.778V80.8618C113.347 80.855 113.588 80.8369 113.833 80.8233C114.099 80.838 114.363 80.855 114.635 80.8618V80.7644C135.623 78.8456 136.825 50.4872 136.718 42.1008C136.851 41.0401 136.928 39.9601 136.928 38.8597Z" fill="#F4B998"/>
<path d="M92.728 48.9045C93.5069 53.0162 92.1733 56.7203 89.7495 57.18C87.3246 57.6396 84.7277 54.6792 83.9488 50.5687C83.1699 46.4581 84.5035 42.7529 86.9284 42.2932C89.3522 41.8325 91.9492 44.7928 92.728 48.9045Z" fill="#F4B998"/>
<path opacity="0.48" d="M91.2942 50.9299C91.8195 53.6978 91.2002 56.1408 89.9119 56.3853C88.6236 56.6298 87.1542 54.5831 86.6289 51.8152C86.1036 49.0472 86.7228 46.6042 88.0111 46.3608C89.2994 46.1152 90.7689 48.1619 91.2942 50.9299Z" fill="#F4B998"/>
<path d="M141.168 52.3914C140.514 56.5246 138.009 59.5631 135.572 59.1782C133.135 58.7933 131.688 55.1299 132.341 50.9979C132.994 46.8647 135.499 43.8262 137.937 44.2111C140.374 44.596 141.821 48.2582 141.168 52.3914Z" fill="#F4B998"/>
<path opacity="0.48" d="M139.41 54.1244C138.641 56.8504 136.961 58.7625 135.658 58.3946C134.355 58.0267 133.922 55.518 134.692 52.792C135.462 50.0648 137.142 48.1539 138.445 48.5218C139.748 48.8886 140.18 51.3973 139.41 54.1244Z" fill="#F4B998"/>
<path d="M88.5966 42.0384C88.5966 42.0384 92.0143 51.6078 91.3305 54.3417C91.3305 54.3417 95.4321 50.2402 94.7483 43.0629C94.0645 35.8856 97.8241 31.1015 99.8754 29.392C101.927 27.6826 116.964 44.0886 133.711 38.9614C133.711 38.9614 127.901 37.5939 126.875 37.2531C125.85 36.9124 134.395 38.2788 137.128 34.8611C139.862 31.4433 133.369 14.3547 118.332 11.6208C118.332 11.6208 84.1543 7.86118 88.5966 42.0384Z" fill="#442071"/>
<path d="M135.078 34.5193C135.078 34.5193 137.129 43.4049 135.762 45.4562C134.395 47.5064 133.217 54.9758 134.395 57.0769C134.395 57.0769 136.787 44.4317 139.18 44.0898C141.572 43.7468 137.47 25.9756 135.078 34.5193Z" fill="#442071"/>
<path d="M98.7739 25.1321C99.4271 26.2257 100.13 27.2751 100.931 28.2498C101.314 28.7468 101.729 29.22 102.131 29.7C102.567 30.1506 102.985 30.617 103.434 31.0517C105.223 32.7917 107.212 34.3211 109.411 35.4701C111.591 36.6328 113.928 37.552 116.38 38.0286C118.817 38.6162 121.338 38.6898 123.888 38.7815C123.258 38.8641 122.626 38.9365 121.989 38.9965C121.353 39.0373 120.713 39.1777 120.074 39.138C118.796 39.0746 117.497 39.1211 116.228 38.8652C113.654 38.572 111.178 37.6392 108.884 36.4415C106.595 35.2132 104.525 33.5796 102.822 31.637C101.106 29.7102 99.6739 27.5219 98.7739 25.1321Z" fill="#442071"/>
<path d="M106.419 17.0368C106.419 17.0368 94.9329 1.44814 101.497 3.08965C108.06 4.73002 108.47 11.2938 108.47 11.2938C108.47 11.2938 104.778 -1.83372 109.701 0.217597C114.623 2.26891 112.162 16.216 112.162 16.216C112.162 16.216 107.649 20.3186 106.419 17.0368Z" fill="#442071"/>
<path d="M105.695 14.3164C104.574 13.8092 103.538 13.156 102.555 12.427C101.569 11.7013 100.652 10.8772 99.8192 9.95002C99.0279 9.00134 98.2207 7.96552 97.9785 6.59571C97.8437 5.92666 98.0316 5.12174 98.5173 4.62703C98.9996 4.13231 99.6132 3.90251 100.212 3.78931C99.7003 4.12666 99.2113 4.48892 98.9498 4.95534C98.6781 5.41043 98.6645 5.91644 98.8218 6.41568C99.1456 7.4187 99.8894 8.35156 100.649 9.22099C102.197 10.9791 103.987 12.5662 105.695 14.3164Z" fill="#442071"/>
<path d="M91.6573 58.2895C91.6573 59.3185 90.8229 60.154 89.7927 60.154C88.7637 60.154 87.9282 59.3196 87.9282 58.2895C87.9282 57.2604 88.7626 56.4249 89.7927 56.4249C90.8229 56.4249 91.6573 57.2593 91.6573 58.2895Z" fill="white"/>
<path d="M135.191 61.2509C136.221 61.2509 137.056 60.4161 137.056 59.3864C137.056 58.3566 136.221 57.5219 135.191 57.5219C134.161 57.5219 133.327 58.3566 133.327 59.3864C133.327 60.4161 134.161 61.2509 135.191 61.2509Z" fill="white"/>
<path opacity="0.33" d="M100.21 21.7736C101.151 22.6905 102.096 23.5973 103.092 24.4475C104.064 25.3226 105.063 26.1649 106.088 26.9743C108.13 28.5977 110.232 30.143 112.452 31.5026C114.644 32.9086 116.977 34.0667 119.366 35.0901C120.579 35.5543 121.79 36.0411 123.055 36.3546C124.291 36.7984 125.592 36.941 126.875 37.2524C124.251 37.1052 121.636 36.5731 119.138 35.6844C116.656 34.7663 114.276 33.5776 112.015 32.2044C109.797 30.7645 107.657 29.2067 105.679 27.46C103.708 25.7098 101.834 23.8441 100.21 21.7736Z" fill="white"/>
<path opacity="0.33" d="M106.352 20.4568C108.446 22.2353 110.596 23.9334 112.808 25.5409C115.021 27.1428 117.281 28.6824 119.66 30.0092C122.01 31.3813 124.475 32.5564 127.05 33.4133C128.332 33.856 129.655 34.1854 130.998 34.3722C132.34 34.5896 133.709 34.6337 135.079 34.5194C132.377 35.0967 129.522 34.7854 126.863 34.0224C124.184 33.2707 121.667 32.0639 119.249 30.7269C116.868 29.3186 114.574 27.7711 112.424 26.0458C110.275 24.3194 108.213 22.4843 106.352 20.4568Z" fill="white"/>
<path opacity="0.33" d="M93.1926 22.8695C92.4896 24.2801 91.833 25.6963 91.2398 27.1363C90.6557 28.5797 90.1078 30.0332 89.6447 31.514C89.1534 32.9857 88.7776 34.4913 88.4436 36.0072L88.2036 37.1494L88.0293 38.3041C87.8617 39.0717 87.847 39.8528 87.71 40.6351C87.4168 37.4925 87.8866 34.2751 88.8557 31.2626C89.3492 29.7559 89.9311 28.2762 90.6636 26.8713C91.387 25.4642 92.1998 24.0989 93.1926 22.8695Z" fill="white"/>
<path opacity="0.33" d="M96.0435 27.4756C95.6258 28.4605 95.2035 29.4375 94.8367 30.4371C94.4439 31.4242 94.076 32.4204 93.7511 33.4291C93.1035 35.4431 92.5092 37.4774 92.2126 39.5514C92.0756 40.585 91.9578 41.6287 92.0224 42.6589C92.0405 43.6891 92.1865 44.7804 92.2092 45.8423C92.3009 47.9774 92.3677 50.1294 92.0971 52.2577C92.0665 51.1891 91.9918 50.1283 91.8854 49.0676C91.8016 48.0068 91.6963 46.9483 91.5741 45.891C91.4575 44.8246 91.3126 43.7989 91.2401 42.6985C91.1496 41.5982 91.2662 40.508 91.3952 39.4291C91.7247 37.2793 92.3575 35.2042 93.1579 33.2106C93.9548 31.2171 94.899 29.2846 96.0435 27.4756Z" fill="white"/>
<path opacity="0.33" d="M83.981 54.4519C83.8848 56.0198 83.4716 57.5221 82.9112 58.9723C82.6203 59.6923 82.2818 60.4009 81.8606 61.0655C81.4497 61.7266 80.9323 62.3753 80.252 62.7862C80.7014 62.1455 80.9833 61.4515 81.2889 60.7632C81.5776 60.0681 81.872 59.3741 82.1414 58.6666C82.7131 57.2606 83.2576 55.841 83.981 54.4519Z" fill="white"/>
<path opacity="0.33" d="M85.9555 59.057L84.9423 64.6381C84.6151 66.4891 84.3875 68.3264 84.2008 70.2419C83.7309 68.3649 83.8125 66.3883 84.1261 64.4977C84.4691 62.6083 85.0193 60.7461 85.9555 59.057Z" fill="white"/>
<path opacity="0.33" d="M138.591 36.4679C139.434 38.9562 140.202 41.4626 140.966 43.9701L143.202 51.5063L145.371 59.0572C145.723 60.3183 146.1 61.5716 146.485 62.8225C146.88 64.0678 147.219 65.3391 147.801 66.5142C146.43 64.2557 145.648 61.7119 144.762 59.2497C143.912 56.7648 143.164 54.2482 142.406 51.7373C141.707 49.2082 140.99 46.6859 140.353 44.1399C139.717 41.595 139.104 39.0445 138.591 36.4679Z" fill="white"/>
<path opacity="0.33" d="M141.223 59.495C141.517 61.0052 141.651 62.4871 141.833 63.9587C141.91 64.6957 142.02 65.4225 142.138 66.1459C142.275 66.8659 142.4 67.587 142.758 68.2674C142.139 67.7863 141.757 67.038 141.513 66.3123C141.256 65.5776 141.105 64.8157 141.011 64.0561C140.849 62.5335 140.866 60.9973 141.223 59.495Z" fill="white"/>
<path d="M99.5528 44.7963C99.5528 44.7963 103.72 43.1775 107.229 43.5375C107.229 43.5375 108.326 44.4363 107.449 45.1563C106.572 45.8763 99.3344 46.0552 98.457 46.7752C98.457 46.7752 97.36 46.0552 99.5528 44.7963Z" fill="#442071"/>
<path d="M129.446 44.7963C129.446 44.7963 125.279 43.1775 121.77 43.5375C121.77 43.5375 120.673 44.4363 121.55 45.1563C122.427 45.8763 129.665 46.0552 130.542 46.7752C130.542 46.7752 131.639 46.0552 129.446 44.7963Z" fill="#442071"/>
<path d="M102.716 54.9258C100.381 54.6734 98.7193 53.316 98.6933 53.2945C98.459 53.0998 98.4284 52.7522 98.6231 52.5179C98.8156 52.2824 99.1654 52.2496 99.4009 52.4454C99.5378 52.5586 102.802 55.1964 106.416 53.0047C106.677 52.8473 107.017 52.9288 107.176 53.1904C107.333 53.4507 107.251 53.7915 106.99 53.9488C105.468 54.8703 103.991 55.0628 102.716 54.9258Z" fill="#442071"/>
<path d="M125.517 54.6024C123.172 54.4779 121.438 53.2134 121.411 53.1941C121.166 53.0119 121.116 52.6666 121.299 52.4232C121.479 52.1775 121.825 52.1254 122.071 52.3088C122.213 52.4141 125.618 54.8696 129.105 52.4832C129.357 52.3123 129.701 52.3745 129.874 52.6269C130.045 52.8783 129.982 53.2224 129.729 53.3945C128.263 54.3975 126.798 54.6703 125.517 54.6024Z" fill="#442071"/>
<path d="M114.688 61.7479C112.962 61.7479 111.442 60.9101 111.344 60.8547C111.079 60.7052 110.985 60.369 111.133 60.103C111.282 59.8358 111.618 59.7407 111.884 59.8913C111.917 59.9094 115.06 61.6302 116.926 59.7634C117.142 59.5471 117.491 59.5471 117.707 59.7634C117.923 59.9796 117.923 60.3283 117.707 60.5445C116.796 61.4569 115.706 61.7479 114.688 61.7479Z" fill="#442071"/>
<path d="M108.964 68.2914C108.964 68.2914 114.795 66.0487 119.548 68.7397C119.548 68.7397 113.898 75.557 108.964 68.2914Z" fill="#FE6EAF"/>
<path d="M116.003 69.4888C112.179 69.4888 108.347 68.316 108.117 68.2447C108.043 68.222 108.004 68.145 108.026 68.0715C108.049 67.9979 108.126 67.9594 108.198 67.9809C108.278 68.0047 116.269 70.4511 120.655 68.3466C120.719 68.3137 120.805 68.342 120.838 68.4111C120.871 68.4801 120.843 68.5628 120.773 68.5956C119.396 69.2568 117.7 69.4888 116.003 69.4888Z" fill="#442071"/>
<path opacity="0.48" d="M104.75 56.1838C104.75 56.7283 103.606 57.171 102.194 57.171C100.782 57.171 99.6377 56.7294 99.6377 56.1838C99.6377 55.6381 100.782 55.1978 102.194 55.1978C103.606 55.1978 104.75 55.6393 104.75 56.1838Z" fill="#F4B998"/>
<path opacity="0.48" d="M128.696 56.1838C128.696 56.7283 127.552 57.171 126.14 57.171C124.729 57.171 123.584 56.7294 123.584 56.1838C123.584 55.6381 124.729 55.1978 126.14 55.1978C127.552 55.1978 128.696 55.6393 128.696 56.1838Z" fill="#F4B998"/>
<mask id="mask0_378_72" style="mask-type:luminance" maskUnits="userSpaceOnUse" x="77" y="83" width="69" height="69">
<path d="M144.886 89.9884C144.341 89.7043 143.832 90.1447 143.362 91.056C143.23 89.8651 142.933 89.0353 142.408 88.7624C141.729 88.4092 141.109 89.1688 140.548 90.5771L126.48 84.7368H125.589C125.189 84.0632 124.929 83.6296 124.86 83.5266H100.635C100.566 83.6308 100.277 84.0632 99.8276 84.7368H98.597L83.0571 91.9481C82.5522 90.8579 81.9997 90.3111 81.4043 90.6202C80.8801 90.893 80.5824 91.7228 80.4499 92.9137C79.9801 92.0024 79.4718 91.562 78.9262 91.8462C75.6669 93.5409 81.1099 116.509 81.1099 116.509C81.1099 116.509 81.222 116.551 81.3975 116.569C81.2186 120.936 82.3213 126.374 87.1948 129.114C88.5975 140.276 89.7148 150.004 89.5495 151.449C102.25 152.341 122.973 150.537 135.673 151.449C134.981 147.507 136.878 132.85 136.676 132.898C137.043 131.418 137.394 129.833 137.728 128.175C142.043 124.765 142.516 118.832 141.984 114.689C142.412 114.769 142.702 114.651 142.702 114.651C142.702 114.651 148.144 91.6843 144.886 89.9884Z" fill="white"/>
</mask>
<g mask="url(#mask0_378_72)">
<g opacity="0.61">
<g opacity="0.58">
<path d="M150.88 95.7269C113.325 93.1877 73.751 95.5164 73.3559 95.539L73.2891 94.4364C73.6864 94.4126 113.33 92.0805 150.956 94.6243L150.88 95.7269Z" fill="white"/>
</g>
<g opacity="0.58">
<path d="M74.7619 109.094L74.6714 107.994C75.2476 107.946 132.404 103.334 147.99 105.658L147.828 106.75C132.358 104.453 75.3348 109.05 74.7619 109.094Z" fill="white"/>
</g>
<g opacity="0.58">
<path d="M77.4181 120.793L77.3638 119.691C77.9049 119.662 131.734 117.039 146.325 119.361L146.152 120.454C131.67 118.148 77.9592 120.767 77.4181 120.793Z" fill="white"/>
</g>
<g opacity="0.58">
<path d="M142.819 133.92C127.798 131.401 82.1765 133.043 81.718 133.06L81.6772 131.955C82.1391 131.938 127.873 130.292 143.003 132.829L142.819 133.92Z" fill="white"/>
</g>
<g opacity="0.58">
<path d="M143.823 146.619C128.801 144.101 83.1788 145.743 82.7214 145.761L82.6807 144.656C83.1414 144.639 128.874 142.991 144.006 145.529L143.823 146.619Z" fill="white"/>
</g>
</g>
</g>
<g opacity="0.66">
<g opacity="0.66">
<path d="M113.436 93.8702C105.006 93.8702 98.4398 85.4374 98.1602 85.0728L99.0364 84.4004C99.1032 84.4864 105.688 93.0132 113.78 92.7596C118.25 92.626 122.369 89.8219 126.023 84.4275L126.937 85.0468C123.073 90.7547 118.654 93.7218 113.808 93.8645C113.684 93.869 113.56 93.8702 113.436 93.8702Z" fill="#442071"/>
</g>
<g opacity="0.66">
<path d="M80.9713 92.8721L79.8711 92.9729L81.8228 114.284L82.9231 114.183L80.9713 92.8721Z" fill="#442071"/>
</g>
<g opacity="0.66">
<path d="M84.6201 94.1499L83.5195 94.2477L84.8557 109.287L85.9563 109.189L84.6201 94.1499Z" fill="#442071"/>
</g>
<g opacity="0.66">
<path d="M140.774 114.235L139.669 114.218C139.673 114.001 140.003 92.4779 139.995 90.5817L141.1 90.576C141.109 92.4836 140.789 113.348 140.774 114.235Z" fill="#442071"/>
</g>
<g opacity="0.66">
<path d="M142.803 91.0207L142.342 104.164L143.447 104.203L143.909 91.0595L142.803 91.0207Z" fill="#442071"/>
</g>
<g opacity="0.66">
<path d="M120.216 129.737C114.511 126.249 107.097 129.405 107.021 129.439L106.581 128.425C106.904 128.284 114.604 125.012 120.791 128.794L120.216 129.737Z" fill="#442071"/>
</g>
<g opacity="0.66">
<path d="M135.524 148.462L89.7349 149.085L89.7499 150.19L135.539 149.567L135.524 148.462Z" fill="#442071"/>
</g>
</g>
<path d="M62.6927 142.07C58.3524 138.527 53.9769 137.878 53.9351 137.873L54.0879 136.778C54.2792 136.805 58.8086 137.479 63.3924 141.214L62.6927 142.07Z" fill="#C15A4B"/>
<path d="M171.098 135.176C165.798 136.995 162.939 140.369 162.912 140.402L162.062 139.695C162.187 139.546 165.147 136.054 170.739 134.13L171.098 135.176Z" fill="#C15A4B"/>
</svg>
