<svg width="224" height="226" viewBox="0 0 224 226" fill="none" xmlns="http://www.w3.org/2000/svg">
<path d="M0 4H224V226H0V4Z" fill="white"/>
<path opacity="0.19" d="M115.656 206.464C163.367 206.464 202.043 167.787 202.043 120.077C202.043 72.3665 163.367 33.6897 115.656 33.6897C67.9459 33.6897 29.269 72.3665 29.269 120.077C29.269 167.787 67.9459 206.464 115.656 206.464Z" fill="#007C14"/>
<path d="M61.8141 186.596C61.8141 186.596 24.9539 145.283 44.0123 134.578C63.0696 123.875 61.8141 186.596 61.8141 186.596Z" fill="#7F6868"/>
<g opacity="0.66">
<path d="M61.7438 186.93C61.5966 186.899 61.4812 186.773 61.4721 186.615C60.8517 175.681 48.1318 142.519 48.0039 142.185C47.9359 142.008 48.0243 141.811 48.1997 141.743C48.3763 141.677 48.5744 141.764 48.6412 141.939C49.1676 143.306 61.5287 175.535 62.1548 186.577C62.1649 186.765 62.0212 186.927 61.8333 186.938C61.8027 186.938 61.7732 186.937 61.7438 186.93Z" fill="#442071"/>
</g>
<path d="M66.8286 183.7C66.8286 183.7 62.5992 128.496 84.2432 131.552C105.887 134.609 66.8286 183.7 66.8286 183.7Z" fill="#7F6868"/>
<g opacity="0.66">
<path d="M66.5706 183.924C66.4721 183.81 66.4574 183.64 66.5457 183.509C72.6883 174.441 82.7015 140.363 82.8011 140.02C82.8543 139.839 83.0434 139.735 83.2245 139.788C83.4056 139.843 83.5097 140.032 83.4565 140.212C83.0456 141.616 73.3132 174.735 67.1106 183.891C67.0053 184.048 66.7925 184.088 66.6363 183.983C66.6125 183.965 66.5898 183.946 66.5706 183.924Z" fill="#442071"/>
</g>
<path d="M64.2785 173.976C64.2785 173.976 42.5767 123.04 64.0589 118.997C85.5411 114.954 64.2785 173.976 64.2785 173.976Z" fill="#7F6868"/>
<g opacity="0.66">
<path d="M64.1056 174.27C63.9754 174.194 63.9075 174.037 63.9493 173.885C66.861 163.326 65.4222 127.838 65.4074 127.48C65.3995 127.291 65.5456 127.133 65.7346 127.125C65.9237 127.118 66.0822 127.264 66.0901 127.452C66.1512 128.915 67.5482 163.406 64.6082 174.066C64.5584 174.249 64.3705 174.355 64.1882 174.305C64.1588 174.296 64.1316 174.285 64.1056 174.27Z" fill="#442071"/>
</g>
<path d="M73.4435 193.821H54.0806L47.6255 167.285H78.4631L73.4435 193.821Z" fill="#C15A4B"/>
<path opacity="0.31" d="M75.9895 180.364L78.4631 167.285H47.6255L50.8066 180.364H75.9895Z" fill="#442071"/>
<path d="M81.6911 164.416H44.3984V175.891H81.6911V164.416Z" fill="#C15A4B"/>
<path d="M58.8354 129.799C58.8354 129.799 43.5049 147.372 33.3638 174.133L41.329 179.432C41.329 179.432 69.9478 151.095 70.4618 136.504C70.4618 136.504 62.9561 125.331 58.8354 129.799Z" fill="#F4B998"/>
<path d="M60.4009 213.448C60.4009 213.448 60.8798 217.274 65.6628 218.231C70.4458 219.187 78.0997 217.753 78.0997 217.753L60.4009 213.448Z" fill="#F4B998"/>
<path d="M84.4253 189.096C84.4253 189.096 100.958 196.212 111.74 209.827H121.084C121.084 209.827 135.101 188.478 146.242 186.002C146.242 186.002 142.289 166.818 116.412 167.746C116.412 167.746 88.3796 164.033 84.4253 189.096Z" fill="#442071"/>
<path d="M95.928 151.963C95.2544 154.658 85.9578 163.211 79.3442 171.791H148.343C142.431 163.075 134.474 154.515 133.83 151.963C132.741 147.649 134.541 144.056 134.541 144.056H134.725C134.725 144.056 135.239 142.095 136.049 138.835C121.694 138.694 107.061 135.078 92.8464 134.788C93.554 137.889 94.3419 140.991 95.2249 144.056C95.2249 144.056 97.0057 147.651 95.928 151.963Z" fill="#F4B998"/>
<path d="M80.0893 170.843C75.7625 176.3 72.3516 181.854 72.7806 186.001L117.062 194.144L143.889 189.531C143.889 189.531 154.75 186.189 154.746 186.172C154.594 181.874 151.474 176.286 147.689 170.842H80.0893V170.843Z" fill="#442071"/>
<path d="M32.1646 202.665C32.1646 202.665 59.1316 219.624 102.63 218.611C102.63 218.611 112.166 218.514 115.87 208.701C115.87 208.701 119.369 201.845 111.32 196.359C111.32 196.359 64.7456 178.308 46.8803 179.628C29.014 180.946 25.4276 197.478 32.1646 202.665Z" fill="#442071"/>
<path d="M195.973 207.67C195.973 207.67 167.353 221.955 124.182 216.774C124.182 216.774 114.705 215.762 112.055 205.643C112.055 205.643 109.297 198.486 117.884 193.799C117.884 193.799 166.127 180.31 183.763 183.336C201.399 186.364 203.223 203.156 195.973 207.67Z" fill="#442071"/>
<path d="M61.1133 192.149C61.1133 192.149 79.9012 186.74 126.326 208.263L124.473 220.298C124.473 220.298 63.4794 222.264 43.3263 205.004C43.3263 205.004 38.2002 190.043 61.1133 192.149Z" fill="#442071"/>
<path opacity="0.48" d="M116.484 162.766C116.484 163.752 115.884 164.551 115.144 164.551C114.405 164.551 113.805 163.752 113.805 162.766C113.805 161.78 114.405 160.981 115.144 160.981C115.885 160.981 116.484 161.78 116.484 162.766Z" fill="#F4B998"/>
<g opacity="0.53">
<path d="M113.806 198.885C113.686 198.885 113.566 198.833 113.484 198.733C108.108 192.133 87.1397 186.875 86.9291 186.823C86.7073 186.767 86.5714 186.542 86.6257 186.321C86.6823 186.1 86.9008 185.966 87.1272 186.018C88.0012 186.235 108.578 191.397 114.127 198.208C114.272 198.386 114.245 198.647 114.068 198.792C113.99 198.854 113.897 198.885 113.806 198.885Z" fill="white"/>
</g>
<g opacity="0.53">
<path d="M126.326 208.677C126.266 208.677 126.205 208.665 126.149 208.638C102.007 197.122 83.6812 193.385 72.5586 192.277C60.5394 191.077 54.1647 192.609 54.1013 192.625C53.8726 192.673 53.653 192.543 53.5998 192.321C53.5443 192.099 53.6802 191.874 53.9032 191.82C54.1658 191.755 60.4851 190.241 72.6424 191.453C83.8295 192.567 102.256 196.323 126.505 207.889C126.712 207.989 126.799 208.236 126.701 208.442C126.63 208.59 126.481 208.677 126.326 208.677Z" fill="white"/>
</g>
<g opacity="0.53">
<path d="M120.948 205.132C120.765 205.132 120.597 205.01 120.547 204.826C120.488 204.605 120.62 204.377 120.839 204.317C122.811 203.787 169.25 191.36 179.484 193.152C179.709 193.19 179.861 193.405 179.82 193.631C179.782 193.854 179.569 194.005 179.341 193.967C169.28 192.228 121.536 204.987 121.056 205.118C121.018 205.128 120.983 205.132 120.948 205.132Z" fill="white"/>
</g>
<g opacity="0.53">
<path d="M149.51 175.23C149.508 175.23 149.504 175.23 149.502 175.23L78.5403 173.891C78.3116 173.886 78.1293 173.697 78.1339 173.468C78.1384 173.24 78.2924 173.07 78.5562 173.062L149.518 174.401C149.746 174.406 149.929 174.595 149.924 174.824C149.921 175.05 149.736 175.23 149.51 175.23Z" fill="white"/>
</g>
<path d="M114.699 174.922C114.634 174.922 114.568 174.911 114.504 174.887C114.303 174.812 109.578 173.015 108.663 170.481C108.394 169.734 108.461 168.998 108.863 168.295C109.335 167.466 109.922 167.324 110.337 167.357C112.389 167.499 114.586 172.605 115.21 174.166C115.292 174.369 115.245 174.601 115.092 174.757C114.988 174.863 114.845 174.922 114.699 174.922ZM110.247 168.457C110.111 168.457 109.969 168.586 109.824 168.842C109.586 169.256 109.548 169.669 109.705 170.104C110.167 171.386 112.157 172.591 113.645 173.31C112.517 170.832 111.062 168.514 110.261 168.458C110.257 168.457 110.252 168.457 110.247 168.457Z" fill="white"/>
<path d="M115.068 174.912C114.915 174.756 114.869 174.524 114.95 174.321C115.574 172.76 117.771 167.654 119.824 167.512C120.238 167.479 120.826 167.621 121.298 168.45C121.7 169.152 121.768 169.888 121.497 170.636C120.582 173.171 115.857 174.969 115.657 175.042C115.593 175.066 115.528 175.077 115.462 175.077C115.317 175.078 115.173 175.021 115.068 174.912ZM119.901 168.615C119.099 168.671 117.645 170.989 116.517 173.467C118.005 172.749 119.996 171.544 120.458 170.263C120.615 169.828 120.577 169.415 120.339 169C120.193 168.744 120.051 168.615 119.914 168.615C119.91 168.614 119.904 168.614 119.901 168.615Z" fill="white"/>
<path d="M112.843 179.635C112.58 179.635 112.347 179.446 112.301 179.179C111.78 176.228 114.487 173.987 114.602 173.893C114.84 173.701 115.188 173.737 115.378 173.972C115.571 174.209 115.535 174.556 115.3 174.749C115.276 174.768 112.981 176.681 113.388 178.987C113.441 179.287 113.239 179.574 112.939 179.627C112.908 179.633 112.876 179.635 112.843 179.635Z" fill="white"/>
<path d="M119.582 183.866C119.545 183.866 119.505 183.862 119.467 183.854C117.05 183.336 115.166 175.451 114.813 173.875C114.747 173.577 114.934 173.282 115.232 173.215C115.533 173.151 115.825 173.336 115.892 173.634C116.835 177.839 118.558 182.53 119.698 182.773C119.997 182.837 120.187 183.131 120.122 183.428C120.067 183.689 119.838 183.866 119.582 183.866Z" fill="white"/>
<path opacity="0.21" d="M30.5742 201.242C30.5742 201.242 62.1273 223.589 124.473 220.297L125.618 210.282C125.618 210.282 63.7235 220.714 30.5742 201.242Z" fill="#442071"/>
<path opacity="0.21" d="M157.841 217.469C157.841 217.469 198.641 212.601 199.8 202.169C199.8 202.169 152.741 217.932 139.528 213.76C139.528 213.76 152.51 219.555 157.841 217.469Z" fill="#442071"/>
<path d="M126.326 208.263C126.326 208.263 133.682 203.818 137.508 209.558C141.335 215.297 150.423 216.254 156.164 217.211C161.903 218.167 157.599 222.473 155.207 222.95C152.815 223.429 124.473 220.297 124.473 220.297L126.326 208.263Z" fill="#F4B998"/>
<path d="M157.002 221.071C155.224 221.071 152.877 220.178 152.757 220.131C152.544 220.049 152.438 219.81 152.52 219.596C152.601 219.383 152.838 219.274 153.055 219.358C153.969 219.709 156.594 220.532 157.782 220.143C157.999 220.066 158.233 220.188 158.305 220.405C158.377 220.623 158.26 220.856 158.042 220.928C157.741 221.03 157.384 221.071 157.002 221.071Z" fill="#C15A4B"/>
<path d="M155.692 222.91C154.356 222.91 152.799 222.332 152.72 222.304C152.506 222.223 152.398 221.985 152.478 221.77C152.559 221.556 152.797 221.45 153.012 221.527C153.032 221.535 155.028 222.276 156.212 222.036C156.431 221.994 156.654 222.138 156.7 222.362C156.744 222.586 156.598 222.804 156.374 222.85C156.158 222.892 155.929 222.91 155.692 222.91Z" fill="#C15A4B"/>
<path d="M99.5796 91.1342C99.5796 91.1342 77.9355 79.8373 53.3628 139.878C53.3628 139.878 58.9462 149.362 64.482 147.408L94.0245 108.479C94.0268 108.48 107.904 93.9282 99.5796 91.1342Z" fill="#F4B998"/>
<path opacity="0.48" d="M95.9274 151.963C95.6478 153.082 93.8704 155.221 91.4263 157.942C94.8213 158.27 98.2187 158.595 101.635 158.653C109.951 158.794 118.268 158.94 126.582 159.134C130.734 159.232 134.886 159.345 139.038 159.474C136.265 155.97 134.148 153.227 133.828 151.963C132.739 147.649 134.539 144.056 134.539 144.056H134.723C134.723 144.056 135.237 142.095 136.047 138.835C121.692 138.694 107.059 135.078 92.8448 134.788C93.5523 137.889 94.3402 140.991 95.2232 144.056C95.2232 144.056 97.0051 147.651 95.9274 151.963Z" fill="#F4B998"/>
<path d="M33.3626 174.132L28 188.845C28 188.845 29.543 199.828 34.797 202.95C34.797 202.95 35.3574 199.049 35.2555 194.515C35.1536 189.981 35.0234 184.151 39.572 184.696C44.1207 185.242 49.3169 185.774 49.9067 183.168C50.4965 180.562 41.3267 179.429 41.3267 179.429C41.3267 179.429 37 169.178 33.3626 174.132Z" fill="#F4B998"/>
<path d="M172.478 129.799C172.478 129.799 187.809 147.372 197.95 174.133L189.985 179.432C189.985 179.432 161.366 151.095 160.852 136.504C160.852 136.504 168.357 125.331 172.478 129.799Z" fill="#F4B998"/>
<path d="M131.733 91.1342C131.733 91.1342 153.377 79.8373 177.95 139.878C177.95 139.878 172.366 149.362 166.83 147.408L137.288 108.479C137.288 108.479 123.41 93.9282 131.733 91.1342Z" fill="#F4B998"/>
<path opacity="0.33" d="M99.5797 91.1341C99.5797 91.1341 89.0764 85.6605 74.3979 102.627C77.1138 109.592 79.9677 116.505 82.6394 123.484L94.0269 108.48C94.0269 108.48 107.904 93.9281 99.5797 91.1341Z" fill="#F4B998"/>
<path opacity="0.33" d="M158.441 104.452C142.969 85.2722 131.732 91.1341 131.732 91.1341C123.409 93.928 137.286 108.48 137.286 108.48L145.968 119.92C150.594 115.145 154.686 109.925 158.441 104.452Z" fill="#F4B998"/>
<path d="M197.95 174.132L203.312 188.845C203.312 188.845 201.769 199.828 196.515 202.95C196.515 202.95 195.955 199.049 196.057 194.515C196.159 189.981 196.289 184.151 191.74 184.696C187.192 185.242 181.996 185.774 181.406 183.168C180.816 180.562 189.986 179.429 189.986 179.429C189.986 179.429 194.312 169.178 197.95 174.132Z" fill="#F4B998"/>
<path d="M147.886 89.9884C147.341 89.7043 146.832 90.1447 146.362 91.056C146.23 89.8651 145.933 89.0353 145.408 88.7624C144.729 88.4092 144.109 89.1688 143.548 90.5771L129.48 84.7368H128.589C128.189 84.0632 127.929 83.6296 127.86 83.5266H103.635C103.566 83.6308 103.277 84.0632 102.828 84.7368H101.597L86.0571 91.9481C85.5522 90.8579 84.9997 90.3111 84.4043 90.6202C83.8801 90.893 83.5824 91.7228 83.4499 92.9137C82.9801 92.0024 82.4718 91.562 81.9262 91.8462C78.6669 93.5409 84.1099 116.509 84.1099 116.509C84.1099 116.509 84.222 116.551 84.3975 116.569C84.2186 120.936 85.3213 126.374 90.1948 129.114C91.5975 140.276 92.7148 150.004 92.5495 151.449C105.25 152.341 125.973 150.537 138.673 151.449C137.981 147.507 139.878 132.85 139.676 132.898C140.043 131.418 140.394 129.833 140.728 128.175C145.043 124.765 145.516 118.832 144.984 114.689C145.412 114.769 145.702 114.651 145.702 114.651C145.702 114.651 151.144 91.6843 147.886 89.9884Z" fill="#EE6EB0"/>
<path opacity="0.21" d="M139.68 133.281C132.694 137.875 124.502 140.853 116.905 141.828C109.433 142.79 101.387 141.471 95.0266 137.25C93.4383 136.196 92.03 135 90.7632 133.694C91.8839 142.833 92.6911 150.206 92.5496 151.449C105.25 152.341 125.973 150.537 138.674 151.449C138.049 147.892 139.534 135.597 139.68 133.281Z" fill="#442071"/>
<path d="M151.407 62.5324C147.99 57.6679 143.206 33.3476 141.838 29.914C140.471 26.4805 133.635 7.02357 110.737 12.4598C110.737 12.4598 93.6481 11.6017 88.521 32.4884C83.3949 53.3762 81.3436 56.2369 78.2678 58.2396C76.7168 59.2494 76.821 62.6592 80.0157 66.635C81.3504 64.8542 83.7696 62.6388 82.9172 64.5894C82.2832 66.0384 82.1972 67.8112 82.2289 68.9909C85.7417 72.2524 91.3568 75.6463 99.7998 78.2693C120.99 84.85 152.432 70.2576 152.432 70.2576C152.432 70.2576 154.825 67.3969 151.407 62.5324Z" fill="#442071"/>
<path opacity="0.37" d="M137.378 47.3423C134.738 39.9295 131.216 32.811 127.347 25.9677C125.74 23.1284 124.034 20.3435 121.6 18.1258C119.733 16.4243 117.546 15.9047 115.356 15.0533C102.361 21.0794 96.0855 40.0642 92.807 52.6573C90.9833 59.6649 89.8637 66.8671 89.5693 74.0863C92.3893 75.5908 95.7686 77.0195 99.7987 78.2716C113.439 82.5078 131.318 77.9716 142.333 74.2006C142.232 65.2652 140.604 56.4 137.378 47.3423Z" fill="#442071"/>
<path d="M105.531 73.2211C105.531 73.2211 105.213 82.2483 104.578 84.388C103.943 86.5265 118.551 96.885 126.808 84.388L126.173 74.5524C126.173 74.5524 110.614 62.0543 105.531 73.2211Z" fill="#F4B998"/>
<path opacity="0.48" d="M115.945 88.3639C122.795 88.528 125.055 80.8447 125.8 73.0413C120.982 70.1081 109.916 64.6402 105.582 73.1239C106.669 79.4183 109.023 88.1974 115.945 88.3639Z" fill="#F4B998"/>
<path d="M139.928 38.8597C139.928 25.1764 129.196 14.0844 115.957 14.0844C102.717 14.0844 91.985 25.1764 91.985 38.8597C91.985 39.1099 91.9963 39.3567 92.0031 39.6046C91.9748 39.6635 91.9385 39.7201 91.9125 39.7789C91.9125 39.7789 89.0121 78.6509 116.098 80.778V80.8618C116.347 80.855 116.588 80.8369 116.833 80.8233C117.099 80.838 117.363 80.855 117.635 80.8618V80.7644C138.623 78.8456 139.825 50.4872 139.718 42.1008C139.851 41.0401 139.928 39.9601 139.928 38.8597Z" fill="#F4B998"/>
<path d="M95.728 48.9045C96.5069 53.0162 95.1733 56.7203 92.7495 57.18C90.3246 57.6396 87.7277 54.6792 86.9488 50.5687C86.1699 46.4581 87.5035 42.7529 89.9284 42.2932C92.3522 41.8325 94.9492 44.7928 95.728 48.9045Z" fill="#F4B998"/>
<path opacity="0.48" d="M94.2942 50.9299C94.8195 53.6978 94.2002 56.1408 92.9119 56.3853C91.6236 56.6298 90.1542 54.5831 89.6289 51.8152C89.1036 49.0472 89.7228 46.6042 91.0111 46.3608C92.2994 46.1152 93.7689 48.1619 94.2942 50.9299Z" fill="#F4B998"/>
<path d="M144.168 52.3914C143.514 56.5246 141.009 59.5631 138.572 59.1782C136.135 58.7933 134.688 55.1299 135.341 50.9979C135.994 46.8647 138.499 43.8262 140.937 44.2111C143.374 44.596 144.821 48.2582 144.168 52.3914Z" fill="#F4B998"/>
<path opacity="0.48" d="M142.41 54.1244C141.641 56.8504 139.961 58.7625 138.658 58.3946C137.355 58.0267 136.922 55.518 137.692 52.792C138.462 50.0648 140.142 48.1539 141.445 48.5218C142.748 48.8886 143.18 51.3973 142.41 54.1244Z" fill="#F4B998"/>
<path d="M91.5966 42.0384C91.5966 42.0384 95.0143 51.6078 94.3305 54.3417C94.3305 54.3417 98.4321 50.2402 97.7483 43.0629C97.0645 35.8856 100.824 31.1015 102.875 29.392C104.927 27.6826 119.964 44.0886 136.711 38.9614C136.711 38.9614 130.901 37.5939 129.875 37.2531C128.85 36.9124 137.395 38.2788 140.128 34.8611C142.862 31.4433 136.369 14.3547 121.332 11.6208C121.332 11.6208 87.1543 7.86118 91.5966 42.0384Z" fill="#442071"/>
<path d="M138.078 34.5193C138.078 34.5193 140.129 43.4049 138.762 45.4562C137.395 47.5064 136.217 54.9758 137.395 57.0769C137.395 57.0769 139.787 44.4317 142.18 44.0898C144.572 43.7468 140.47 25.9756 138.078 34.5193Z" fill="#442071"/>
<path d="M101.774 25.1321C102.427 26.2257 103.13 27.2751 103.931 28.2498C104.314 28.7468 104.729 29.22 105.131 29.7C105.567 30.1506 105.985 30.617 106.434 31.0517C108.223 32.7917 110.212 34.3211 112.411 35.4701C114.591 36.6328 116.928 37.552 119.38 38.0286C121.817 38.6162 124.338 38.6898 126.888 38.7815C126.258 38.8641 125.626 38.9365 124.989 38.9965C124.353 39.0373 123.713 39.1777 123.074 39.138C121.796 39.0746 120.497 39.1211 119.228 38.8652C116.654 38.572 114.178 37.6392 111.884 36.4415C109.595 35.2132 107.525 33.5796 105.822 31.637C104.106 29.7102 102.674 27.5219 101.774 25.1321Z" fill="#442071"/>
<path d="M109.419 17.0368C109.419 17.0368 97.9329 1.44814 104.497 3.08965C111.06 4.73002 111.47 11.2938 111.47 11.2938C111.47 11.2938 107.778 -1.83372 112.701 0.217597C117.623 2.26891 115.162 16.216 115.162 16.216C115.162 16.216 110.649 20.3186 109.419 17.0368Z" fill="#442071"/>
<path d="M108.695 14.3164C107.574 13.8092 106.538 13.156 105.555 12.427C104.569 11.7013 103.652 10.8772 102.819 9.95002C102.028 9.00134 101.221 7.96552 100.978 6.59571C100.844 5.92666 101.032 5.12174 101.517 4.62703C102 4.13231 102.613 3.90251 103.212 3.78931C102.7 4.12666 102.211 4.48892 101.95 4.95534C101.678 5.41043 101.664 5.91644 101.822 6.41568C102.146 7.4187 102.889 8.35156 103.649 9.22099C105.197 10.9791 106.987 12.5662 108.695 14.3164Z" fill="#442071"/>
<path d="M94.6573 58.2895C94.6573 59.3185 93.8229 60.154 92.7927 60.154C91.7637 60.154 90.9282 59.3196 90.9282 58.2895C90.9282 57.2604 91.7626 56.4249 92.7927 56.4249C93.8229 56.4249 94.6573 57.2593 94.6573 58.2895Z" fill="white"/>
<path d="M138.191 61.2509C139.221 61.2509 140.056 60.4161 140.056 59.3864C140.056 58.3566 139.221 57.5219 138.191 57.5219C137.161 57.5219 136.327 58.3566 136.327 59.3864C136.327 60.4161 137.161 61.2509 138.191 61.2509Z" fill="white"/>
<path opacity="0.33" d="M103.21 21.7736C104.151 22.6905 105.096 23.5973 106.092 24.4475C107.064 25.3226 108.063 26.1649 109.088 26.9743C111.13 28.5977 113.232 30.143 115.452 31.5026C117.644 32.9086 119.977 34.0667 122.366 35.0901C123.579 35.5543 124.79 36.0411 126.055 36.3546C127.291 36.7984 128.592 36.941 129.875 37.2524C127.251 37.1052 124.636 36.5731 122.138 35.6844C119.656 34.7663 117.276 33.5776 115.015 32.2044C112.797 30.7645 110.657 29.2067 108.679 27.46C106.708 25.7098 104.834 23.8441 103.21 21.7736Z" fill="white"/>
<path opacity="0.33" d="M109.352 20.4568C111.446 22.2353 113.596 23.9334 115.808 25.5409C118.021 27.1428 120.281 28.6824 122.66 30.0092C125.01 31.3813 127.475 32.5564 130.05 33.4133C131.332 33.856 132.655 34.1854 133.998 34.3722C135.34 34.5896 136.709 34.6337 138.079 34.5194C135.377 35.0967 132.522 34.7854 129.863 34.0224C127.184 33.2707 124.667 32.0639 122.249 30.7269C119.868 29.3186 117.574 27.7711 115.424 26.0458C113.275 24.3194 111.213 22.4843 109.352 20.4568Z" fill="white"/>
<path opacity="0.33" d="M96.1926 22.8695C95.4896 24.2801 94.833 25.6963 94.2398 27.1363C93.6557 28.5797 93.1078 30.0332 92.6447 31.514C92.1534 32.9857 91.7776 34.4913 91.4436 36.0072L91.2036 37.1494L91.0293 38.3041C90.8617 39.0717 90.847 39.8528 90.71 40.6351C90.4168 37.4925 90.8866 34.2751 91.8557 31.2626C92.3492 29.7559 92.9311 28.2762 93.6636 26.8713C94.387 25.4642 95.1998 24.0989 96.1926 22.8695Z" fill="white"/>
<path opacity="0.33" d="M99.0435 27.4756C98.6258 28.4605 98.2035 29.4375 97.8367 30.4371C97.4439 31.4242 97.076 32.4204 96.7511 33.4291C96.1035 35.4431 95.5092 37.4774 95.2126 39.5514C95.0756 40.585 94.9578 41.6287 95.0224 42.6589C95.0405 43.6891 95.1865 44.7804 95.2092 45.8423C95.3009 47.9774 95.3677 50.1294 95.0971 52.2577C95.0665 51.1891 94.9918 50.1283 94.8854 49.0676C94.8016 48.0068 94.6963 46.9483 94.5741 45.891C94.4575 44.8246 94.3126 43.7989 94.2401 42.6985C94.1496 41.5982 94.2662 40.508 94.3952 39.4291C94.7247 37.2793 95.3575 35.2042 96.1579 33.2106C96.9548 31.2171 97.899 29.2846 99.0435 27.4756Z" fill="white"/>
<path opacity="0.33" d="M86.981 54.4519C86.8848 56.0198 86.4716 57.5221 85.9112 58.9723C85.6203 59.6923 85.2818 60.4009 84.8606 61.0655C84.4497 61.7266 83.9323 62.3753 83.252 62.7862C83.7014 62.1455 83.9833 61.4515 84.2889 60.7632C84.5776 60.0681 84.872 59.3741 85.1414 58.6666C85.7131 57.2606 86.2576 55.841 86.981 54.4519Z" fill="white"/>
<path opacity="0.33" d="M88.9555 59.057L87.9423 64.6381C87.6151 66.4891 87.3875 68.3264 87.2008 70.2419C86.7309 68.3649 86.8125 66.3883 87.1261 64.4977C87.4691 62.6083 88.0193 60.7461 88.9555 59.057Z" fill="white"/>
<path opacity="0.33" d="M141.591 36.4679C142.434 38.9562 143.202 41.4626 143.966 43.9701L146.202 51.5063L148.371 59.0572C148.723 60.3183 149.1 61.5716 149.485 62.8225C149.88 64.0678 150.219 65.3391 150.801 66.5142C149.43 64.2557 148.648 61.7119 147.762 59.2497C146.912 56.7648 146.164 54.2482 145.406 51.7373C144.707 49.2082 143.99 46.6859 143.353 44.1399C142.717 41.595 142.104 39.0445 141.591 36.4679Z" fill="white"/>
<path opacity="0.33" d="M144.223 59.495C144.517 61.0052 144.651 62.4871 144.833 63.9587C144.91 64.6957 145.02 65.4225 145.138 66.1459C145.275 66.8659 145.4 67.587 145.758 68.2674C145.139 67.7863 144.757 67.038 144.513 66.3123C144.256 65.5776 144.105 64.8157 144.011 64.0561C143.849 62.5335 143.866 60.9973 144.223 59.495Z" fill="white"/>
<path d="M102.553 44.7963C102.553 44.7963 106.72 43.1775 110.229 43.5375C110.229 43.5375 111.326 44.4363 110.449 45.1563C109.572 45.8763 102.334 46.0552 101.457 46.7752C101.457 46.7752 100.36 46.0552 102.553 44.7963Z" fill="#442071"/>
<path d="M132.446 44.7963C132.446 44.7963 128.279 43.1775 124.77 43.5375C124.77 43.5375 123.673 44.4363 124.55 45.1563C125.427 45.8763 132.665 46.0552 133.542 46.7752C133.542 46.7752 134.639 46.0552 132.446 44.7963Z" fill="#442071"/>
<path d="M105.716 54.9258C103.381 54.6734 101.719 53.316 101.693 53.2945C101.459 53.0998 101.428 52.7522 101.623 52.5179C101.816 52.2824 102.165 52.2496 102.401 52.4454C102.538 52.5586 105.802 55.1964 109.416 53.0047C109.677 52.8473 110.017 52.9288 110.176 53.1904C110.333 53.4507 110.251 53.7915 109.99 53.9488C108.468 54.8703 106.991 55.0628 105.716 54.9258Z" fill="#442071"/>
<path d="M128.517 54.6024C126.172 54.4779 124.438 53.2134 124.411 53.1941C124.166 53.0119 124.116 52.6666 124.299 52.4232C124.479 52.1775 124.825 52.1254 125.071 52.3088C125.213 52.4141 128.618 54.8696 132.105 52.4832C132.357 52.3123 132.701 52.3745 132.874 52.6269C133.045 52.8783 132.982 53.2224 132.729 53.3945C131.263 54.3975 129.798 54.6703 128.517 54.6024Z" fill="#442071"/>
<path d="M117.688 61.7479C115.962 61.7479 114.442 60.9101 114.344 60.8547C114.079 60.7052 113.985 60.369 114.133 60.103C114.282 59.8358 114.618 59.7407 114.884 59.8913C114.917 59.9094 118.06 61.6302 119.926 59.7634C120.142 59.5471 120.491 59.5471 120.707 59.7634C120.923 59.9796 120.923 60.3283 120.707 60.5445C119.796 61.4569 118.706 61.7479 117.688 61.7479Z" fill="#442071"/>
<path d="M111.964 68.2914C111.964 68.2914 117.795 66.0487 122.548 68.7397C122.548 68.7397 116.898 75.557 111.964 68.2914Z" fill="#FE6EAF"/>
<path d="M119.003 69.4888C115.179 69.4888 111.347 68.316 111.117 68.2447C111.043 68.222 111.004 68.145 111.026 68.0715C111.049 67.9979 111.126 67.9594 111.198 67.9809C111.278 68.0047 119.269 70.4511 123.655 68.3466C123.719 68.3137 123.805 68.342 123.838 68.4111C123.871 68.4801 123.843 68.5628 123.773 68.5956C122.396 69.2568 120.7 69.4888 119.003 69.4888Z" fill="#442071"/>
<path opacity="0.48" d="M107.75 56.1838C107.75 56.7283 106.606 57.171 105.194 57.171C103.782 57.171 102.638 56.7294 102.638 56.1838C102.638 55.6381 103.782 55.1978 105.194 55.1978C106.606 55.1978 107.75 55.6393 107.75 56.1838Z" fill="#F4B998"/>
<path opacity="0.48" d="M131.696 56.1838C131.696 56.7283 130.552 57.171 129.14 57.171C127.729 57.171 126.584 56.7294 126.584 56.1838C126.584 55.6381 127.729 55.1978 129.14 55.1978C130.552 55.1978 131.696 55.6393 131.696 56.1838Z" fill="#F4B998"/>
<mask id="mask0_378_74" style="mask-type:luminance" maskUnits="userSpaceOnUse" x="80" y="83" width="69" height="69">
<path d="M147.886 89.9884C147.341 89.7043 146.832 90.1447 146.362 91.056C146.23 89.8651 145.933 89.0353 145.408 88.7624C144.729 88.4092 144.109 89.1688 143.548 90.5771L129.48 84.7368H128.589C128.189 84.0632 127.929 83.6296 127.86 83.5266H103.635C103.566 83.6308 103.277 84.0632 102.828 84.7368H101.597L86.0571 91.9481C85.5522 90.8579 84.9997 90.3111 84.4043 90.6202C83.8801 90.893 83.5824 91.7228 83.4499 92.9137C82.9801 92.0024 82.4718 91.562 81.9262 91.8462C78.6669 93.5409 84.1099 116.509 84.1099 116.509C84.1099 116.509 84.222 116.551 84.3975 116.569C84.2186 120.936 85.3213 126.374 90.1948 129.114C91.5975 140.276 92.7148 150.004 92.5495 151.449C105.25 152.341 125.973 150.537 138.673 151.449C137.981 147.507 139.878 132.85 139.676 132.898C140.043 131.418 140.394 129.833 140.728 128.175C145.043 124.765 145.516 118.832 144.984 114.689C145.412 114.769 145.702 114.651 145.702 114.651C145.702 114.651 151.144 91.6843 147.886 89.9884Z" fill="white"/>
</mask>
<g mask="url(#mask0_378_74)">
<g opacity="0.61">
<g opacity="0.58">
<path d="M153.88 95.7269C116.325 93.1877 76.751 95.5164 76.3559 95.539L76.2891 94.4364C76.6864 94.4126 116.33 92.0805 153.956 94.6243L153.88 95.7269Z" fill="white"/>
</g>
<g opacity="0.58">
<path d="M77.7619 109.094L77.6714 107.994C78.2476 107.946 135.404 103.334 150.99 105.658L150.828 106.75C135.358 104.453 78.3348 109.05 77.7619 109.094Z" fill="white"/>
</g>
<g opacity="0.58">
<path d="M80.4181 120.793L80.3638 119.691C80.9049 119.662 134.734 117.039 149.325 119.361L149.152 120.454C134.67 118.148 80.9592 120.767 80.4181 120.793Z" fill="white"/>
</g>
<g opacity="0.58">
<path d="M145.819 133.92C130.798 131.401 85.1765 133.043 84.718 133.06L84.6772 131.955C85.1391 131.938 130.873 130.292 146.003 132.829L145.819 133.92Z" fill="white"/>
</g>
<g opacity="0.58">
<path d="M146.823 146.619C131.801 144.101 86.1788 145.743 85.7214 145.761L85.6807 144.656C86.1414 144.639 131.874 142.991 147.006 145.529L146.823 146.619Z" fill="white"/>
</g>
</g>
</g>
<g opacity="0.66">
<g opacity="0.66">
<path d="M116.436 93.8702C108.006 93.8702 101.44 85.4374 101.16 85.0728L102.036 84.4004C102.103 84.4864 108.688 93.0132 116.78 92.7596C121.25 92.626 125.369 89.8219 129.023 84.4275L129.937 85.0468C126.073 90.7547 121.654 93.7218 116.808 93.8645C116.684 93.869 116.56 93.8702 116.436 93.8702Z" fill="#442071"/>
</g>
<g opacity="0.66">
<path d="M83.9713 92.8721L82.8711 92.9729L84.8228 114.284L85.9231 114.183L83.9713 92.8721Z" fill="#442071"/>
</g>
<g opacity="0.66">
<path d="M87.6201 94.1499L86.5195 94.2477L87.8557 109.287L88.9563 109.189L87.6201 94.1499Z" fill="#442071"/>
</g>
<g opacity="0.66">
<path d="M143.774 114.235L142.669 114.218C142.673 114.001 143.003 92.4779 142.995 90.5817L144.1 90.576C144.109 92.4836 143.789 113.348 143.774 114.235Z" fill="#442071"/>
</g>
<g opacity="0.66">
<path d="M145.803 91.0207L145.342 104.164L146.447 104.203L146.909 91.0595L145.803 91.0207Z" fill="#442071"/>
</g>
<g opacity="0.66">
<path d="M123.216 129.737C117.511 126.249 110.097 129.405 110.021 129.439L109.581 128.425C109.904 128.284 117.604 125.012 123.791 128.794L123.216 129.737Z" fill="#442071"/>
</g>
<g opacity="0.66">
<path d="M138.524 148.462L92.7349 149.085L92.7499 150.19L138.539 149.567L138.524 148.462Z" fill="#442071"/>
</g>
</g>
<path d="M65.6927 142.07C61.3524 138.527 56.9769 137.878 56.9351 137.873L57.0879 136.778C57.2792 136.805 61.8086 137.479 66.3924 141.214L65.6927 142.07Z" fill="#C15A4B"/>
<path d="M174.098 135.176C168.798 136.995 165.939 140.369 165.912 140.402L165.062 139.695C165.187 139.546 168.147 136.054 173.739 134.13L174.098 135.176Z" fill="#C15A4B"/>
</svg>
