<svg width="224" height="222" viewBox="0 0 224 222" fill="none" xmlns="http://www.w3.org/2000/svg">
<path d="M0 0H224V222H0V0Z" fill="white"/>
<path opacity="0.19" d="M112.309 207.052C159.424 207.052 197.618 168.858 197.618 121.743C197.618 74.628 159.424 36.4338 112.309 36.4338C65.1941 36.4338 27 74.628 27 121.743C27 168.858 65.1941 207.052 112.309 207.052Z" fill="#FFBA00"/>
<path d="M87.6649 191.582H52.0137C43.9847 191.582 37.4146 185.013 37.4146 176.983V142.086C37.4146 134.057 43.9847 127.487 52.0137 127.487H87.6638C95.6928 127.487 102.263 134.056 102.263 142.086V176.983C102.264 185.012 95.694 191.582 87.6649 191.582Z" fill="#FFBA00"/>
<path opacity="0.46" d="M86.4696 129.33H53.2086C45.5317 129.33 39.2847 135.577 39.2847 143.255V175.812C39.2847 183.49 45.5317 189.737 53.2086 189.737H86.4685C94.1477 189.737 100.394 183.49 100.394 175.812V143.255C100.395 135.577 94.1477 129.33 86.4696 129.33ZM99.7865 143.255V147.997H84.7558V129.94H86.4685C93.8123 129.938 99.7865 135.913 99.7865 143.255ZM56.2628 169.72V148.605H84.1477V169.72H56.2628ZM84.1477 170.33V189.129H56.2628V170.33H84.1477ZM55.6536 169.72H39.8928V148.605H55.6536V169.72ZM56.2628 147.997V129.94H84.1477V147.997H56.2628ZM84.7558 148.605H99.7865V169.72H84.7558V148.605ZM53.2086 129.938H55.6536V147.995H39.8928V143.254C39.8928 135.913 45.8671 129.938 53.2086 129.938ZM39.8928 175.812V170.33H55.6536V189.129H53.2086C45.8671 189.129 39.8928 183.155 39.8928 175.812ZM86.4696 189.129H84.7569V170.33H99.7877V175.812C99.7866 183.155 93.8123 189.129 86.4696 189.129Z" fill="#442071"/>
<path d="M120.369 88.8375C120.369 88.8375 137.761 72.1388 177.669 122.255C177.669 122.255 175 132.79 169.212 132.471L130.434 103.743C130.434 103.743 113.252 93.79 120.369 88.8375Z" fill="#F4B998"/>
<path d="M58.9072 210.784C58.9072 210.784 59.3801 214.562 64.1034 215.507C68.8267 216.452 76.3851 215.035 76.3851 215.035L58.9072 210.784Z" fill="#F4B998"/>
<path d="M82.6318 186.736C82.6318 186.736 98.9583 193.763 109.606 207.209H118.833C118.833 207.209 132.675 186.125 143.677 183.68C143.677 183.68 139.773 164.736 114.219 165.652C114.219 165.652 86.5357 161.986 82.6318 186.736Z" fill="#442071"/>
<path d="M93.989 150.066C93.3238 152.728 84.1433 161.174 77.6123 169.647H145.75C139.912 161.04 132.054 152.587 131.418 150.066C130.342 145.807 132.12 142.258 132.12 142.258H132.302C132.302 142.258 132.81 140.322 133.609 137.102C119.433 136.963 104.983 133.392 90.946 133.106C91.6447 136.168 92.4228 139.231 93.2948 142.258C93.2948 142.258 95.0544 145.808 93.989 150.066Z" fill="#F4B998"/>
<path d="M78.3487 168.711C74.0759 174.099 70.7075 179.584 71.1312 183.68L115.164 189.06L141.502 186.511C141.502 186.511 152.078 183.867 152.074 183.85C151.924 179.605 148.843 174.087 145.104 168.711H78.3487Z" fill="#442071"/>
<path d="M31.0234 200.135C31.0234 200.135 57.6539 216.883 100.61 215.883C100.61 215.883 110.026 215.787 113.684 206.096C113.684 206.096 117.14 199.326 109.191 193.908C109.191 193.908 63.1978 176.083 45.5555 177.386C27.9122 178.688 24.3705 195.013 31.0234 200.135Z" fill="#442071"/>
<path d="M192.787 205.078C192.787 205.078 164.524 219.185 121.892 214.068C121.892 214.068 112.534 213.069 109.917 203.077C109.917 203.077 107.193 196.009 115.673 191.381C115.673 191.381 163.313 178.059 180.729 181.048C198.145 184.038 199.946 200.62 192.787 205.078Z" fill="#442071"/>
<path d="M59.6098 189.751C59.6098 189.751 78.1632 184.409 124.009 205.663L122.179 217.548C122.179 217.548 61.9475 219.49 42.0447 202.446C42.0447 202.446 36.9827 187.671 59.6098 189.751Z" fill="#442071"/>
<path opacity="0.48" d="M114.29 160.735C114.29 161.708 113.697 162.498 112.967 162.498C112.237 162.498 111.645 161.708 111.645 160.735C111.645 159.761 112.236 158.972 112.967 158.972C113.698 158.972 114.29 159.761 114.29 160.735Z" fill="#F4B998"/>
<g opacity="0.53">
<path d="M111.645 196.403C111.526 196.403 111.408 196.351 111.327 196.253C106.018 189.735 85.3118 184.542 85.1039 184.491C84.8848 184.436 84.7506 184.214 84.8043 183.996C84.8591 183.778 85.076 183.645 85.2995 183.696C86.1626 183.911 106.482 189.008 111.962 195.734C112.106 195.91 112.079 196.168 111.904 196.311C111.827 196.372 111.736 196.403 111.645 196.403Z" fill="white"/>
</g>
<g opacity="0.53">
<path d="M124.009 206.073C123.95 206.073 123.89 206.06 123.834 206.034C99.9936 194.662 81.8963 190.972 70.9126 189.877C59.0434 188.692 52.7482 190.205 52.6856 190.22C52.4598 190.268 52.2429 190.14 52.1904 189.921C52.1356 189.702 52.2709 189.479 52.49 189.426C52.7494 189.362 58.9897 187.867 70.9953 189.063C82.0428 190.163 100.24 193.873 124.186 205.295C124.39 205.393 124.477 205.637 124.379 205.84C124.309 205.987 124.161 206.073 124.009 206.073Z" fill="white"/>
</g>
<g opacity="0.53">
<path d="M118.697 202.572C118.516 202.572 118.35 202.452 118.301 202.269C118.243 202.051 118.373 201.827 118.589 201.767C120.537 201.244 166.396 188.971 176.502 190.741C176.725 190.779 176.874 190.992 176.834 191.214C176.796 191.434 176.586 191.584 176.361 191.546C166.425 189.829 119.277 202.429 118.803 202.558C118.767 202.568 118.733 202.572 118.697 202.572Z" fill="white"/>
</g>
<g opacity="0.53">
<path d="M146.903 173.043C146.901 173.043 146.898 173.043 146.895 173.043L76.8194 171.72C76.5936 171.716 76.4136 171.529 76.4181 171.303C76.4225 171.078 76.5746 170.91 76.835 170.902L146.911 172.225C147.137 172.229 147.317 172.416 147.312 172.642C147.308 172.865 147.126 173.043 146.903 173.043Z" fill="white"/>
</g>
<path d="M112.527 172.739C112.463 172.739 112.398 172.728 112.335 172.704C112.137 172.63 107.471 170.855 106.567 168.353C106.301 167.615 106.367 166.889 106.764 166.195C107.23 165.376 107.81 165.235 108.22 165.268C110.246 165.409 112.416 170.451 113.032 171.992C113.113 172.192 113.067 172.421 112.916 172.576C112.813 172.681 112.671 172.739 112.527 172.739ZM108.131 166.354C107.997 166.354 107.856 166.482 107.712 166.734C107.477 167.144 107.439 167.552 107.595 167.981C108.051 169.246 110.016 170.437 111.485 171.147C110.372 168.7 108.935 166.41 108.144 166.355C108.14 166.354 108.136 166.354 108.131 166.354Z" fill="white"/>
<path d="M112.891 172.729C112.74 172.575 112.695 172.345 112.775 172.145C113.391 170.604 115.561 165.562 117.588 165.421C117.997 165.389 118.577 165.529 119.043 166.348C119.44 167.041 119.507 167.768 119.24 168.506C118.337 171.01 113.671 172.785 113.473 172.858C113.41 172.881 113.345 172.892 113.281 172.892C113.137 172.893 112.995 172.836 112.891 172.729ZM117.663 166.511C116.871 166.566 115.435 168.855 114.321 171.302C115.79 170.593 117.757 169.403 118.212 168.138C118.367 167.708 118.329 167.3 118.094 166.891C117.95 166.638 117.809 166.511 117.675 166.511C117.673 166.51 117.667 166.51 117.663 166.511Z" fill="white"/>
<path d="M110.694 177.393C110.435 177.393 110.206 177.206 110.159 176.942C109.645 174.029 112.318 171.816 112.432 171.723C112.666 171.533 113.009 171.569 113.197 171.801C113.389 172.035 113.353 172.378 113.12 172.568C113.097 172.587 110.831 174.476 111.232 176.754C111.285 177.05 111.086 177.333 110.791 177.385C110.758 177.391 110.726 177.393 110.694 177.393Z" fill="white"/>
<path d="M117.35 181.572C117.313 181.572 117.274 181.567 117.236 181.56C114.849 181.048 112.989 173.261 112.64 171.705C112.575 171.411 112.76 171.119 113.054 171.053C113.351 170.991 113.639 171.173 113.705 171.467C114.637 175.62 116.338 180.252 117.464 180.492C117.759 180.556 117.947 180.845 117.883 181.139C117.828 181.396 117.602 181.572 117.35 181.572Z" fill="white"/>
<path opacity="0.21" d="M29.4526 198.73C29.4526 198.73 60.6119 220.798 122.179 217.547L123.311 207.658C123.311 207.658 62.1882 217.96 29.4526 198.73Z" fill="#442071"/>
<path opacity="0.21" d="M155.13 214.755C155.13 214.755 195.421 209.948 196.566 199.646C196.566 199.646 150.094 215.212 137.045 211.092C137.045 211.092 149.865 216.815 155.13 214.755Z" fill="#442071"/>
<path d="M124.009 205.664C124.009 205.664 131.274 201.275 135.052 206.942C138.831 212.61 147.806 213.555 153.475 214.5C159.143 215.444 154.892 219.696 152.53 220.168C150.168 220.641 122.179 217.547 122.179 217.547L124.009 205.664Z" fill="#F4B998"/>
<path d="M154.301 218.312C152.546 218.312 150.228 217.43 150.11 217.384C149.898 217.302 149.794 217.067 149.875 216.855C149.955 216.645 150.189 216.538 150.404 216.62C151.306 216.967 153.898 217.78 155.071 217.395C155.286 217.319 155.517 217.44 155.588 217.655C155.659 217.869 155.544 218.099 155.328 218.171C155.032 218.272 154.68 218.312 154.301 218.312Z" fill="#E5937A"/>
<path d="M153.008 220.128C151.688 220.128 150.15 219.557 150.073 219.53C149.862 219.449 149.754 219.214 149.833 219.002C149.913 218.791 150.148 218.687 150.36 218.763C150.379 218.77 152.35 219.502 153.52 219.265C153.737 219.223 153.957 219.365 154.001 219.587C154.045 219.808 153.902 220.024 153.68 220.068C153.469 220.11 153.242 220.128 153.008 220.128Z" fill="#E5937A"/>
<path d="M105.393 91.1328C105.393 91.1328 88.2717 74.1568 47.563 123.625C47.563 123.625 50.0616 134.201 55.8547 133.976L95.09 105.875C95.09 105.875 112.429 96.1982 105.393 91.1328Z" fill="#F4B998"/>
<path opacity="0.48" d="M93.9889 150.066C93.7127 151.172 91.9576 153.283 89.5439 155.971C92.8967 156.295 96.2516 156.616 99.6255 156.673C107.838 156.812 116.05 156.956 124.261 157.148C128.361 157.244 132.462 157.356 136.561 157.484C133.823 154.024 131.733 151.315 131.416 150.066C130.341 145.807 132.119 142.258 132.119 142.258H132.301C132.301 142.258 132.808 140.322 133.608 137.102C119.432 136.963 104.982 133.392 90.9447 133.106C91.6434 136.168 92.4215 139.231 93.2935 142.258C93.2935 142.258 95.0543 145.808 93.9889 150.066Z" fill="#F4B998"/>
<path d="M145.299 88.8654C144.76 88.5848 144.258 89.0197 143.794 89.9197C143.664 88.7436 143.371 87.9242 142.852 87.6547C142.181 87.3059 141.569 88.0561 141.015 89.4468L127.123 83.6793H126.242C125.847 83.0142 125.59 82.586 125.522 82.4843H101.599C101.531 82.5871 101.246 83.0142 100.802 83.6793H99.5866L84.2406 90.8006C83.742 89.724 83.1976 89.1841 82.6084 89.4893C82.0897 89.7587 81.7968 90.5781 81.666 91.7542C81.202 90.8543 80.7001 90.4194 80.1612 90.7C76.9427 92.3736 82.3177 115.055 82.3177 115.055C82.3177 115.055 82.4284 115.097 82.6017 115.115C82.4251 119.427 83.5139 124.797 88.3267 127.503C89.7118 138.526 90.8152 148.132 90.652 149.558C103.194 150.439 123.658 148.659 136.2 149.558C135.516 145.666 137.39 131.192 137.191 131.24C137.553 129.778 137.9 128.213 138.229 126.576C142.49 123.208 142.957 117.349 142.431 113.258C142.853 113.337 143.14 113.22 143.14 113.22C143.14 113.22 148.518 90.5401 145.299 88.8654Z" fill="#EE6EB0"/>
<path opacity="0.21" d="M137.196 131.618C130.298 136.154 122.208 139.095 114.706 140.058C107.327 141.007 99.3809 139.705 93.1003 135.537C91.5318 134.496 90.1411 133.315 88.8901 132.026C89.9969 141.05 90.794 148.331 90.6543 149.558C103.196 150.439 123.66 148.659 136.203 149.558C135.584 146.046 137.052 133.905 137.196 131.618Z" fill="#442071"/>
<path d="M148.777 61.752C145.402 56.9482 140.677 32.9315 139.327 29.5408C137.977 26.15 131.227 6.93598 108.614 12.3043C108.614 12.3043 91.7389 11.4569 86.6757 32.0829C81.6137 52.7101 79.588 55.5351 76.5505 57.5128C75.019 58.51 75.1218 61.8772 78.2766 65.8034C79.5947 64.0449 81.9849 61.8571 81.1419 63.7833C80.5159 65.2143 80.4309 66.965 80.4622 68.1299C83.9323 71.3507 89.4762 74.7022 97.8138 77.2925C118.739 83.7911 149.789 69.3808 149.789 69.3808C149.789 69.3808 152.152 66.5558 148.777 61.752Z" fill="#442071"/>
<path opacity="0.37" d="M134.923 46.7514C132.316 39.4311 128.838 32.4015 125.017 25.6435C123.431 22.8397 121.745 20.0896 119.342 17.8996C117.499 16.2193 115.339 15.7061 113.176 14.8654C100.343 20.8163 94.1462 39.5641 90.9097 52.0001C89.1087 58.9202 88.0031 66.0325 87.7124 73.1616C90.4972 74.6474 93.8343 76.0582 97.8141 77.2947C111.284 81.478 128.94 76.9984 139.817 73.2746C139.717 64.4506 138.109 55.696 134.923 46.7514Z" fill="#442071"/>
<path d="M103.474 72.3074C103.474 72.3074 103.16 81.2219 102.532 83.3349C101.905 85.4467 116.331 95.676 124.486 83.3349L123.858 73.6221C123.858 73.6221 108.493 61.2799 103.474 72.3074Z" fill="#F4B998"/>
<path opacity="0.48" d="M113.757 87.2612C120.522 87.4233 122.754 79.8359 123.491 72.1299C118.733 69.2333 107.805 63.8337 103.524 72.2115C104.598 78.4273 106.922 87.0969 113.757 87.2612Z" fill="#F4B998"/>
<path d="M137.442 38.3748C137.442 24.8622 126.843 13.9086 113.769 13.9086C100.695 13.9086 90.0967 24.8622 90.0967 38.3748C90.0967 38.6218 90.1079 38.8655 90.1146 39.1104C90.0866 39.1685 90.0509 39.2244 90.0251 39.2825C90.0251 39.2825 87.161 77.6693 113.909 79.7699V79.8526C114.155 79.8459 114.393 79.828 114.634 79.8146C114.897 79.8291 115.158 79.8459 115.427 79.8526V79.7565C136.154 77.8616 137.34 49.8571 137.234 41.5754C137.365 40.5279 137.442 39.4614 137.442 38.3748Z" fill="#F4B998"/>
<path d="M93.7921 48.2942C94.5612 52.3546 93.2443 56.0125 90.8497 56.4663C88.455 56.9202 85.8905 53.9968 85.1213 49.9376C84.3522 45.8783 85.6691 42.2193 88.0626 41.7654C90.4584 41.3104 93.0229 44.2338 93.7921 48.2942Z" fill="#F4B998"/>
<path opacity="0.48" d="M92.3772 50.2943C92.8959 53.0277 92.2844 55.4402 91.0122 55.6817C89.7399 55.9232 88.2888 53.9019 87.7701 51.1686C87.2514 48.4352 87.8629 46.0227 89.1351 45.7823C90.4073 45.5397 91.8584 47.561 92.3772 50.2943Z" fill="#F4B998"/>
<path d="M141.628 51.7376C140.983 55.8192 138.509 58.8197 136.102 58.4396C133.695 58.0595 132.267 54.4419 132.912 50.3614C133.557 46.2798 136.031 43.2792 138.438 43.6593C140.845 44.0394 142.273 47.656 141.628 51.7376Z" fill="#F4B998"/>
<path opacity="0.48" d="M139.893 53.449C139.133 56.141 137.474 58.0292 136.187 57.6659C134.9 57.3026 134.473 54.8252 135.234 52.1332C135.994 49.4401 137.653 47.553 138.94 47.9163C140.226 48.2785 140.653 50.7559 139.893 53.449Z" fill="#F4B998"/>
<path d="M89.7134 41.514C89.7134 41.514 93.0885 50.964 92.4132 53.6638C92.4132 53.6638 96.4635 49.6135 95.7883 42.5257C95.1131 35.438 98.8257 30.7136 100.85 29.0255C102.875 27.3385 117.726 43.5386 134.263 38.4754C134.263 38.4754 128.526 37.125 127.513 36.7885C126.5 36.452 134.939 37.8013 137.638 34.4262C140.338 31.0512 133.926 14.1759 119.075 11.476C119.075 11.476 85.3255 7.76332 89.7134 41.514Z" fill="#442071"/>
<path d="M135.615 34.0885C135.615 34.0885 137.64 42.8632 136.29 44.8889C134.94 46.9135 133.777 54.2897 134.94 56.3646C134.94 56.3646 137.302 43.8772 139.665 43.5396C142.028 43.2008 137.977 25.6514 135.615 34.0885Z" fill="#442071"/>
<path d="M99.7622 24.8186C100.407 25.8986 101.1 26.9349 101.891 27.8974C102.27 28.3882 102.68 28.8555 103.076 29.3295C103.507 29.7745 103.92 30.2351 104.363 30.6644C106.13 32.3826 108.094 33.893 110.265 35.0277C112.418 36.1758 114.726 37.0836 117.146 37.5542C119.553 38.1344 122.044 38.2071 124.56 38.2977C123.939 38.3793 123.314 38.4508 122.686 38.51C122.057 38.5503 121.426 38.6889 120.794 38.6498C119.532 38.5872 118.25 38.633 116.996 38.3804C114.454 38.0908 112.009 37.1696 109.744 35.9869C107.484 34.7739 105.439 33.1607 103.758 31.2423C102.065 29.3396 100.652 27.1786 99.7622 24.8186Z" fill="#442071"/>
<path d="M107.312 16.8243C107.312 16.8243 95.9695 1.43025 102.451 3.05127C108.933 4.67116 109.338 11.153 109.338 11.153C109.338 11.153 105.692 -1.81065 110.553 0.215064C115.414 2.24077 112.983 16.0138 112.983 16.0138C112.983 16.0138 108.527 20.0652 107.312 16.8243Z" fill="#442071"/>
<path d="M106.596 14.1378C105.49 13.637 104.466 12.9919 103.496 12.272C102.523 11.5554 101.617 10.7415 100.794 9.82595C100.013 8.88911 99.2157 7.86622 98.9765 6.51351C98.8434 5.8528 99.029 5.05793 99.5086 4.56939C99.9849 4.08085 100.591 3.85392 101.182 3.74213C100.677 4.07527 100.194 4.43301 99.9357 4.8936C99.6673 5.34302 99.6539 5.84271 99.8093 6.33572C100.129 7.32622 100.864 8.24744 101.614 9.10601C103.143 10.8422 104.912 12.4095 106.596 14.1378Z" fill="#442071"/>
<path d="M92.7357 57.5621C92.7357 58.5783 91.9118 59.4034 90.8945 59.4034C89.8771 59.4034 89.0532 58.5795 89.0532 57.5621C89.0532 56.5459 89.8771 55.7209 90.8945 55.7209C91.9107 55.7209 92.7357 56.5448 92.7357 57.5621Z" fill="white"/>
<path d="M135.726 60.4866C136.743 60.4866 137.568 59.6623 137.568 58.6454C137.568 57.6285 136.743 56.8041 135.726 56.8041C134.71 56.8041 133.885 57.6285 133.885 58.6454C133.885 59.6623 134.71 60.4866 135.726 60.4866Z" fill="white"/>
<path opacity="0.33" d="M101.182 21.5019C102.111 22.4074 103.045 23.3029 104.028 24.1424C104.988 25.0066 105.975 25.8383 106.986 26.6377C109.004 28.2408 111.08 29.7668 113.272 31.1094C115.436 32.4979 117.74 33.6416 120.099 34.6522C121.296 35.1106 122.492 35.5913 123.742 35.901C124.963 36.3392 126.247 36.48 127.514 36.7875C124.923 36.6421 122.34 36.1167 119.874 35.2391C117.422 34.3325 115.073 33.1586 112.84 31.8026C110.65 30.3805 108.536 28.8423 106.583 27.1173C104.637 25.389 102.785 23.5466 101.182 21.5019Z" fill="white"/>
<path opacity="0.33" d="M107.247 20.2016C109.315 21.9579 111.438 23.6348 113.623 25.2223C115.808 26.8042 118.04 28.3245 120.388 29.6348C122.709 30.9897 125.144 32.1502 127.686 32.9964C128.953 33.4336 130.259 33.7589 131.586 33.9433C132.911 34.158 134.261 34.2016 135.616 34.0887C132.947 34.6588 130.128 34.3514 127.502 33.5979C124.857 32.8556 122.371 31.6638 119.983 30.3436C117.632 28.9528 115.367 27.4246 113.244 25.7209C111.121 24.016 109.084 22.2038 107.247 20.2016Z" fill="white"/>
<path opacity="0.33" d="M94.252 22.584C93.5578 23.977 92.9094 25.3755 92.3236 26.7975C91.7467 28.2229 91.2056 29.6584 90.7484 31.1206C90.2632 32.574 89.892 34.0608 89.5623 35.5577L89.3253 36.6857L89.1531 37.826C88.9876 38.584 88.9731 39.3554 88.8378 40.1279C88.5483 37.0245 89.0122 33.8473 89.9692 30.8724C90.4566 29.3845 91.0312 27.9233 91.7545 26.5359C92.4689 25.1463 93.2716 23.7981 94.252 22.584Z" fill="white"/>
<path opacity="0.33" d="M97.0674 27.1328C96.6538 28.1054 96.2379 29.0702 95.8757 30.0573C95.4878 31.0322 95.1244 32.0159 94.8036 33.012C94.1641 35.0008 93.5772 37.0098 93.2843 39.0579C93.149 40.0785 93.0328 41.1093 93.0954 42.1266C93.1133 43.1439 93.2575 44.2216 93.2798 45.2703C93.3704 47.3787 93.4363 49.5039 93.1692 51.6056C93.139 50.5503 93.0652 49.5028 92.9601 48.4553C92.8774 47.4078 92.7734 46.3625 92.6527 45.3183C92.5375 44.2652 92.3944 43.2524 92.3218 42.1657C92.2323 41.0791 92.3475 40.0025 92.4749 38.9371C92.8002 36.8141 93.4252 34.7649 94.2156 32.7963C95.0037 30.8276 95.9372 28.9193 97.0674 27.1328Z" fill="white"/>
<path opacity="0.33" d="M85.1557 53.7723C85.0606 55.3207 84.6526 56.8042 84.0992 58.2363C83.8119 58.9473 83.4776 59.6471 83.0617 60.3034C82.6559 60.9562 82.145 61.5968 81.4731 62.0026C81.917 61.3699 82.1953 60.6846 82.4972 60.0049C82.7823 59.3185 83.0729 58.6331 83.3401 57.9344C83.9036 56.5459 84.4413 55.1441 85.1557 53.7723Z" fill="white"/>
<path opacity="0.33" d="M87.1047 58.32L86.1042 63.8315C85.7811 65.6593 85.5564 67.4737 85.3719 69.3652C84.908 67.5117 84.9885 65.5598 85.2981 63.6928C85.6369 61.827 86.1791 59.9879 87.1047 58.32Z" fill="white"/>
<path opacity="0.33" d="M139.086 36.0133C139.918 38.4705 140.677 40.9456 141.432 43.4219L143.64 50.864L145.782 58.3207C146.131 59.566 146.502 60.8036 146.882 62.039C147.272 63.2687 147.607 64.5241 148.182 65.6845C146.828 63.4543 146.056 60.9422 145.18 58.5107C144.341 56.0568 143.604 53.5717 142.854 51.0921C142.164 48.5946 141.455 46.1038 140.828 43.5895C140.199 41.0764 139.593 38.5577 139.086 36.0133Z" fill="white"/>
<path opacity="0.33" d="M141.685 58.7531C141.976 60.2444 142.108 61.7078 142.288 63.1611C142.364 63.8889 142.472 64.6067 142.589 65.321C142.724 66.032 142.847 66.7442 143.201 67.416C142.59 66.9409 142.213 66.202 141.971 65.4854C141.718 64.7598 141.569 64.0074 141.476 63.2573C141.316 61.7537 141.332 60.2366 141.685 58.7531Z" fill="white"/>
<path d="M100.533 44.2373C100.533 44.2373 104.648 42.6387 108.114 42.9942C108.114 42.9942 109.197 43.8818 108.33 44.5928C107.464 45.3038 100.317 45.4805 99.4506 46.1915C99.4506 46.1915 98.3674 45.4805 100.533 44.2373Z" fill="#442071"/>
<path d="M130.053 44.2373C130.053 44.2373 125.938 42.6387 122.473 42.9942C122.473 42.9942 121.389 43.8818 122.256 44.5928C123.122 45.3038 130.269 45.4805 131.136 46.1915C131.136 46.1915 132.219 45.4805 130.053 44.2373Z" fill="#442071"/>
<path d="M103.656 54.2405C101.351 53.9912 99.7097 52.6508 99.684 52.6296C99.4526 52.4373 99.4224 52.0941 99.6147 51.8627C99.8047 51.6301 100.15 51.5977 100.383 51.7911C100.518 51.9029 103.741 54.5077 107.311 52.3434C107.568 52.188 107.904 52.2685 108.061 52.5268C108.216 52.7839 108.135 53.1204 107.877 53.2758C106.374 54.1858 104.915 54.3758 103.656 54.2405Z" fill="#442071"/>
<path d="M126.173 53.921C123.857 53.798 122.145 52.5493 122.119 52.5303C121.877 52.3503 121.828 52.0093 122.008 51.769C122.185 51.5264 122.528 51.475 122.771 51.6561C122.912 51.76 126.273 54.1849 129.718 51.8283C129.966 51.6594 130.306 51.7209 130.476 51.9702C130.644 52.2184 130.582 52.5583 130.332 52.7282C128.884 53.7187 127.438 53.9881 126.173 53.921Z" fill="#442071"/>
<path d="M115.48 60.9773C113.775 60.9773 112.274 60.1501 112.177 60.0953C111.916 59.9477 111.823 59.6157 111.969 59.353C112.117 59.0891 112.448 58.9952 112.711 59.1439C112.743 59.1618 115.847 60.8611 117.69 59.0176C117.903 58.8041 118.248 58.8041 118.461 59.0176C118.675 59.2311 118.675 59.5755 118.461 59.789C117.56 60.69 116.485 60.9773 115.48 60.9773Z" fill="#442071"/>
<path d="M109.827 67.439C109.827 67.439 115.585 65.2244 120.279 67.8817C120.279 67.8817 114.699 74.614 109.827 67.439Z" fill="#FE6EAF"/>
<path d="M116.777 68.6218C113.001 68.6218 109.217 67.4636 108.99 67.3931C108.917 67.3708 108.878 67.2948 108.9 67.2221C108.923 67.1494 108.999 67.1115 109.07 67.1327C109.15 67.1562 117.04 69.572 121.371 67.4938C121.435 67.4614 121.52 67.4893 121.552 67.5575C121.586 67.6257 121.557 67.7073 121.488 67.7397C120.128 68.3926 118.453 68.6218 116.777 68.6218Z" fill="#442071"/>
<path opacity="0.48" d="M105.664 55.4828C105.664 56.0205 104.534 56.4576 103.14 56.4576C101.745 56.4576 100.615 56.0216 100.615 55.4828C100.615 54.9439 101.745 54.509 103.14 54.509C104.535 54.509 105.664 54.945 105.664 55.4828Z" fill="#F4B998"/>
<path opacity="0.48" d="M129.313 55.4828C129.313 56.0205 128.183 56.4576 126.788 56.4576C125.394 56.4576 124.264 56.0216 124.264 55.4828C124.264 54.9439 125.394 54.509 126.788 54.509C128.183 54.509 129.313 54.945 129.313 55.4828Z" fill="#F4B998"/>
<mask id="mask0_286_5204" style="mask-type:luminance" maskUnits="userSpaceOnUse" x="79" y="82" width="68" height="68">
<path d="M145.299 88.8654C144.76 88.5848 144.258 89.0197 143.794 89.9197C143.664 88.7436 143.371 87.9242 142.852 87.6547C142.181 87.3059 141.569 88.0561 141.015 89.4468L127.123 83.6793H126.242C125.847 83.0142 125.59 82.586 125.522 82.4843H101.599C101.531 82.5871 101.246 83.0142 100.802 83.6793H99.5866L84.2406 90.8006C83.742 89.724 83.1976 89.1841 82.6084 89.4893C82.0897 89.7587 81.7968 90.5781 81.666 91.7542C81.202 90.8543 80.7001 90.4194 80.1612 90.7C76.9427 92.3736 82.3177 115.055 82.3177 115.055C82.3177 115.055 82.4284 115.097 82.6017 115.115C82.4251 119.427 83.5139 124.797 88.3267 127.503C89.7118 138.526 90.8152 148.132 90.652 149.558C103.194 150.439 123.658 148.659 136.2 149.558C135.516 145.666 137.39 131.192 137.191 131.24C137.553 129.778 137.9 128.213 138.229 126.576C142.49 123.208 142.957 117.349 142.431 113.258C142.853 113.337 143.14 113.22 143.14 113.22C143.14 113.22 148.518 90.5401 145.299 88.8654Z" fill="white"/>
</mask>
<g mask="url(#mask0_286_5204)">
<g opacity="0.61">
<g opacity="0.58">
<path d="M151.22 94.5322C114.133 92.0247 75.0533 94.3243 74.6631 94.3467L74.5972 93.2578C74.9896 93.2343 114.138 90.9314 151.295 93.4434L151.22 94.5322Z" fill="white"/>
</g>
<g opacity="0.58">
<path d="M76.0518 107.733L75.9624 106.646C76.5314 106.599 132.973 102.045 148.366 104.34L148.206 105.418C132.928 103.149 76.6175 107.689 76.0518 107.733Z" fill="white"/>
</g>
<g opacity="0.58">
<path d="M78.6733 119.286L78.6196 118.197C79.1551 118.169 132.311 115.579 146.72 117.871L146.55 118.95C132.248 116.673 79.2088 119.26 78.6733 119.286Z" fill="white"/>
</g>
<g opacity="0.58">
<path d="M143.259 132.248C128.425 129.761 83.3734 131.383 82.9206 131.4L82.8804 130.309C83.3365 130.292 128.499 128.666 143.44 131.172L143.259 132.248Z" fill="white"/>
</g>
<g opacity="0.58">
<path d="M144.25 144.789C129.417 142.303 84.3635 143.924 83.9118 143.942L83.8716 142.851C84.3266 142.834 129.488 141.206 144.432 143.713L144.25 144.789Z" fill="white"/>
</g>
</g>
</g>
<g opacity="0.66">
<g opacity="0.66">
<path d="M114.242 92.6987C105.917 92.6987 99.4329 84.3712 99.1567 84.0112L100.022 83.3472C100.088 83.4321 106.591 91.8525 114.582 91.6021C118.997 91.4701 123.064 88.701 126.672 83.374L127.575 83.9855C123.758 89.6222 119.396 92.5523 114.609 92.6931C114.487 92.6976 114.364 92.6987 114.242 92.6987Z" fill="#442071"/>
</g>
<g opacity="0.66">
<path d="M82.1896 91.7017L81.103 91.8012L83.0304 112.846L84.1169 112.747L82.1896 91.7017Z" fill="#442071"/>
</g>
<g opacity="0.66">
<path d="M85.7792 92.9663L84.6924 93.0629L86.0119 107.915L87.0988 107.818L85.7792 92.9663Z" fill="#442071"/>
</g>
<g opacity="0.66">
<path d="M141.24 112.809L140.148 112.793C140.152 112.578 140.479 91.3238 140.47 89.4512L141.562 89.4456C141.57 91.3293 141.254 111.933 141.24 112.809Z" fill="#442071"/>
</g>
<g opacity="0.66">
<path d="M143.248 89.8878L142.792 102.867L143.883 102.905L144.339 89.9261L143.248 89.8878Z" fill="#442071"/>
</g>
<g opacity="0.66">
<path d="M120.938 128.117C115.303 124.673 107.982 127.79 107.907 127.823L107.472 126.822C107.792 126.683 115.395 123.452 121.507 127.186L120.938 128.117Z" fill="#442071"/>
</g>
<g opacity="0.66">
<path d="M136.054 146.602L90.8369 147.222L90.8519 148.313L136.069 147.693L136.054 146.602Z" fill="#442071"/>
</g>
</g>
<path d="M125.939 120.672L113.109 119.072C110.881 119.028 104.949 118.899 104.35 118.77C103.611 118.61 103.47 117.782 103.47 117.782C103.211 115.975 111.071 116.446 112.169 116.52C112.144 116.336 112.123 116.148 112.104 115.954C108.518 115.742 101.692 115.32 100.948 115.155C99.9353 114.929 99.8269 113.974 99.8269 113.974C99.6581 111.923 110.263 112.866 112.007 113.035C112.011 112.709 112.02 112.381 112.033 112.054C108.205 111.563 99.9342 110.489 99.079 110.25C97.9622 109.94 97.9253 108.979 97.9253 108.979C97.9175 106.736 111.943 109.117 111.943 109.117C112.038 109.135 112.128 109.155 112.215 109.176C112.246 108.816 112.279 108.47 112.312 108.143C108.903 107.345 101.896 105.69 101.173 105.392C100.214 104.997 100.268 104.038 100.268 104.038C100.467 101.803 112.665 105.249 112.665 105.249L120.125 104.957C120.23 104.347 119.882 103.573 118.615 102.627C116.157 100.793 116.399 100.226 116.399 100.226C117.706 97.6557 121.524 101.129 125.419 103.517C128.34 105.308 129.616 108.23 130.072 109.58C130.264 110.02 130.284 110.305 130.284 110.305L135.341 112.818L133.679 122.429L125.939 120.672Z" fill="#F4B998"/>
<path d="M173.536 135.155C173.004 135.265 172.466 135.339 171.927 135.411C153.758 132.043 128.836 120.427 128.836 120.427L128.408 110.463C146.917 111.728 164.214 115.831 175.262 118.974C180.093 124.514 183.166 133.148 173.536 135.155Z" fill="#F4B998"/>
<path d="M97.8602 134.507L110.701 136.017C112.875 136.507 118.666 137.798 119.279 137.815C120.035 137.836 120.369 137.066 120.369 137.066C121.052 135.373 113.307 133.953 112.224 133.763C112.292 133.591 112.358 133.412 112.421 133.229C115.955 133.878 122.684 135.1 123.445 135.117C124.483 135.139 124.816 134.238 124.816 134.238C125.47 132.286 114.947 130.671 113.213 130.418C113.287 130.1 113.356 129.78 113.422 129.459C117.255 129.897 125.544 130.829 126.431 130.802C127.59 130.767 127.855 129.843 127.855 129.843C128.398 127.666 114.209 126.628 114.209 126.628C114.113 126.624 114.021 126.622 113.931 126.622C113.987 126.265 114.037 125.921 114.083 125.595C117.583 125.635 124.782 125.701 125.556 125.584C126.582 125.43 126.758 124.485 126.758 124.485C127.099 122.268 114.43 122.701 114.43 122.701L107.255 120.636C107.299 120.019 107.822 119.351 109.279 118.735C112.104 117.541 112.004 116.931 112.004 116.931C111.349 114.124 106.812 116.585 102.459 117.973C99.1951 119.014 97.2588 121.547 96.4941 122.749C96.2023 123.13 96.114 123.403 96.114 123.403L90.6048 124.636L89.9229 134.366L97.8602 134.507Z" fill="#F4B998"/>
<path d="M48.1815 137.204C48.6722 137.439 49.1764 137.639 49.6817 137.837C68.13 138.906 95.1037 133.577 95.1037 133.577L97.8986 124.004C79.6236 120.813 61.8472 120.667 50.367 121.079C44.3559 125.306 39.3095 132.956 48.1815 137.204Z" fill="#F4B998"/>
<path d="M59.5041 124.568C59.2794 124.568 59.0681 124.428 58.9898 124.204C58.8892 123.92 59.039 123.608 59.323 123.508C59.7869 123.344 70.7271 119.516 74.7763 120.183C75.0736 120.233 75.2738 120.513 75.2246 120.811C75.1743 121.109 74.8903 121.311 74.5974 121.259C70.8087 120.633 59.7959 124.496 59.6852 124.537C59.6259 124.558 59.5656 124.568 59.5041 124.568Z" fill="#E5937A"/>
<path d="M167.099 120.607C166.997 120.607 166.894 120.578 166.802 120.519C160.362 116.332 143.393 112.71 143.222 112.674C142.927 112.612 142.739 112.322 142.802 112.028C142.865 111.733 143.161 111.552 143.448 111.608C144.153 111.756 160.785 115.309 167.397 119.607C167.649 119.771 167.721 120.109 167.557 120.361C167.452 120.52 167.277 120.607 167.099 120.607Z" fill="#E5937A"/>
</svg>
