<svg width="224" height="222" viewBox="0 0 224 222" fill="none" xmlns="http://www.w3.org/2000/svg">
<path d="M0 0H224V222H0V0Z" fill="white"/>
<path opacity="0.19" d="M112.309 207.052C159.424 207.052 197.618 168.858 197.618 121.743C197.618 74.628 159.424 36.4338 112.309 36.4338C65.1941 36.4338 27 74.628 27 121.743C27 168.858 65.1941 207.052 112.309 207.052Z" fill="#FFBA00"/>
<path d="M87.6654 191.582H52.0142C43.9852 191.582 37.415 185.013 37.415 176.983V142.086C37.415 134.057 43.9852 127.487 52.0142 127.487H87.6643C95.6933 127.487 102.263 134.056 102.263 142.086V176.983C102.265 185.012 95.6944 191.582 87.6654 191.582Z" fill="#FFBA00"/>
<path opacity="0.46" d="M86.4701 129.33H53.2091C45.5322 129.33 39.2852 135.577 39.2852 143.255V175.812C39.2852 183.49 45.5322 189.737 53.2091 189.737H86.469C94.1481 189.737 100.394 183.49 100.394 175.812V143.255C100.395 135.577 94.1481 129.33 86.4701 129.33ZM99.787 143.255V147.997H84.7563V129.94H86.469C93.8128 129.938 99.787 135.913 99.787 143.255ZM56.2633 169.72V148.605H84.1482V169.72H56.2633ZM84.1482 170.33V189.129H56.2633V170.33H84.1482ZM55.6541 169.72H39.8933V148.605H55.6541V169.72ZM56.2633 147.997V129.94H84.1482V147.997H56.2633ZM84.7563 148.605H99.787V169.72H84.7563V148.605ZM53.2091 129.938H55.6541V147.995H39.8933V143.254C39.8933 135.913 45.8676 129.938 53.2091 129.938ZM39.8933 175.812V170.33H55.6541V189.129H53.2091C45.8676 189.129 39.8933 183.155 39.8933 175.812ZM86.4701 189.129H84.7574V170.33H99.7882V175.812C99.787 183.155 93.8128 189.129 86.4701 189.129Z" fill="#442071"/>
<path d="M120.369 88.8375C120.369 88.8375 137.761 72.1388 177.669 122.255C177.669 122.255 175.001 132.79 169.212 132.471L130.434 103.743C130.434 103.743 113.253 93.79 120.369 88.8375Z" fill="#F4B998"/>
<path d="M58.9072 210.784C58.9072 210.784 59.3801 214.562 64.1034 215.507C68.8267 216.452 76.3851 215.035 76.3851 215.035L58.9072 210.784Z" fill="#F4B998"/>
<path d="M82.6318 186.736C82.6318 186.736 98.9583 193.763 109.606 207.209H118.833C118.833 207.209 132.675 186.125 143.677 183.68C143.677 183.68 139.773 164.736 114.219 165.652C114.219 165.652 86.5357 161.986 82.6318 186.736Z" fill="#442071"/>
<path d="M93.989 150.066C93.3238 152.728 84.1433 161.174 77.6123 169.647H145.75C139.912 161.04 132.054 152.587 131.418 150.066C130.342 145.807 132.12 142.258 132.12 142.258H132.302C132.302 142.258 132.81 140.322 133.609 137.102C119.433 136.963 104.983 133.392 90.946 133.106C91.6447 136.168 92.4228 139.231 93.2948 142.258C93.2948 142.258 95.0544 145.808 93.989 150.066Z" fill="#F4B998"/>
<path d="M78.3492 168.711C74.0764 174.099 70.708 179.584 71.1317 183.68L115.164 189.06L141.503 186.511C141.503 186.511 152.079 183.867 152.074 183.85C151.924 179.605 148.843 174.087 145.105 168.711H78.3492Z" fill="#442071"/>
<path d="M31.0234 200.135C31.0234 200.135 57.6539 216.883 100.61 215.883C100.61 215.883 110.026 215.787 113.684 206.096C113.684 206.096 117.14 199.326 109.191 193.908C109.191 193.908 63.1978 176.083 45.5555 177.386C27.9122 178.688 24.3705 195.013 31.0234 200.135Z" fill="#442071"/>
<path d="M192.787 205.078C192.787 205.078 164.524 219.185 121.892 214.068C121.892 214.068 112.534 213.069 109.917 203.077C109.917 203.077 107.193 196.009 115.673 191.381C115.673 191.381 163.313 178.059 180.729 181.048C198.145 184.038 199.946 200.62 192.787 205.078Z" fill="#442071"/>
<path d="M59.6103 189.751C59.6103 189.751 78.1637 184.409 124.009 205.663L122.179 217.548C122.179 217.548 61.9479 219.49 42.0452 202.446C42.0452 202.446 36.9832 187.671 59.6103 189.751Z" fill="#442071"/>
<path opacity="0.48" d="M114.29 160.735C114.29 161.708 113.697 162.498 112.967 162.498C112.237 162.498 111.645 161.708 111.645 160.735C111.645 159.761 112.236 158.972 112.967 158.972C113.698 158.972 114.29 159.761 114.29 160.735Z" fill="#F4B998"/>
<g opacity="0.53">
<path d="M111.644 196.403C111.526 196.403 111.407 196.351 111.327 196.253C106.018 189.735 85.3114 184.542 85.1034 184.491C84.8843 184.436 84.7501 184.214 84.8038 183.996C84.8586 183.778 85.0755 183.645 85.2991 183.696C86.1621 183.911 106.482 189.008 111.962 195.734C112.105 195.91 112.078 196.168 111.904 196.311C111.827 196.372 111.735 196.403 111.644 196.403Z" fill="white"/>
</g>
<g opacity="0.53">
<path d="M124.01 206.073C123.95 206.073 123.89 206.06 123.834 206.034C99.9941 194.662 81.8968 190.972 70.9131 189.877C59.0439 188.692 52.7487 190.205 52.6861 190.22C52.4603 190.268 52.2434 190.14 52.1909 189.921C52.1361 189.702 52.2714 189.479 52.4905 189.426C52.7499 189.362 58.9902 187.867 70.9958 189.063C82.0433 190.163 100.24 193.873 124.186 205.295C124.391 205.393 124.477 205.637 124.38 205.84C124.309 205.987 124.162 206.073 124.01 206.073Z" fill="white"/>
</g>
<g opacity="0.53">
<path d="M118.697 202.572C118.516 202.572 118.35 202.452 118.301 202.269C118.243 202.051 118.373 201.827 118.589 201.767C120.537 201.244 166.396 188.971 176.502 190.741C176.725 190.779 176.874 190.992 176.834 191.214C176.796 191.434 176.586 191.584 176.361 191.546C166.425 189.829 119.277 202.429 118.803 202.558C118.767 202.568 118.733 202.572 118.697 202.572Z" fill="white"/>
</g>
<g opacity="0.53">
<path d="M146.903 173.043C146.901 173.043 146.898 173.043 146.895 173.043L76.8194 171.72C76.5936 171.716 76.4136 171.529 76.4181 171.303C76.4225 171.078 76.5746 170.91 76.835 170.902L146.911 172.225C147.137 172.229 147.317 172.416 147.312 172.642C147.308 172.865 147.126 173.043 146.903 173.043Z" fill="white"/>
</g>
<path d="M112.527 172.739C112.463 172.739 112.398 172.728 112.335 172.704C112.137 172.63 107.471 170.855 106.567 168.353C106.301 167.615 106.367 166.889 106.764 166.195C107.23 165.376 107.81 165.235 108.22 165.268C110.246 165.409 112.416 170.451 113.032 171.992C113.113 172.192 113.067 172.421 112.916 172.576C112.813 172.681 112.671 172.739 112.527 172.739ZM108.131 166.354C107.997 166.354 107.856 166.482 107.712 166.734C107.477 167.144 107.439 167.552 107.595 167.981C108.051 169.246 110.016 170.437 111.485 171.147C110.372 168.7 108.935 166.41 108.144 166.355C108.14 166.354 108.136 166.354 108.131 166.354Z" fill="white"/>
<path d="M112.892 172.729C112.741 172.575 112.695 172.345 112.776 172.145C113.391 170.604 115.561 165.562 117.588 165.421C117.997 165.389 118.578 165.529 119.044 166.348C119.441 167.041 119.508 167.768 119.241 168.506C118.337 171.01 113.671 172.785 113.473 172.858C113.411 172.881 113.346 172.892 113.282 172.892C113.138 172.893 112.996 172.836 112.892 172.729ZM117.663 166.511C116.872 166.566 115.435 168.855 114.322 171.302C115.791 170.593 117.757 169.403 118.212 168.138C118.367 167.708 118.329 167.3 118.095 166.891C117.95 166.638 117.81 166.511 117.675 166.511C117.673 166.51 117.668 166.51 117.663 166.511Z" fill="white"/>
<path d="M110.695 177.393C110.436 177.393 110.206 177.206 110.159 176.942C109.645 174.029 112.318 171.816 112.432 171.723C112.667 171.533 113.009 171.569 113.198 171.801C113.389 172.035 113.353 172.378 113.121 172.568C113.097 172.587 110.831 174.476 111.233 176.754C111.285 177.05 111.086 177.333 110.791 177.385C110.759 177.391 110.726 177.393 110.695 177.393Z" fill="white"/>
<path d="M117.35 181.572C117.313 181.572 117.274 181.567 117.236 181.56C114.849 181.048 112.989 173.261 112.64 171.705C112.575 171.411 112.76 171.119 113.054 171.053C113.351 170.991 113.639 171.173 113.705 171.467C114.637 175.62 116.338 180.252 117.464 180.492C117.759 180.556 117.947 180.845 117.883 181.139C117.828 181.396 117.602 181.572 117.35 181.572Z" fill="white"/>
<path opacity="0.21" d="M29.4521 198.73C29.4521 198.73 60.6114 220.798 122.179 217.547L123.31 207.658C123.31 207.658 62.1877 217.96 29.4521 198.73Z" fill="#442071"/>
<path opacity="0.21" d="M155.13 214.755C155.13 214.755 195.42 209.948 196.565 199.646C196.565 199.646 150.094 215.212 137.045 211.092C137.045 211.092 149.864 216.815 155.13 214.755Z" fill="#442071"/>
<path d="M124.009 205.664C124.009 205.664 131.273 201.275 135.052 206.942C138.83 212.61 147.805 213.555 153.474 214.5C159.142 215.444 154.892 219.696 152.53 220.168C150.167 220.641 122.179 217.547 122.179 217.547L124.009 205.664Z" fill="#F4B998"/>
<path d="M154.301 218.312C152.546 218.312 150.228 217.43 150.11 217.384C149.898 217.302 149.794 217.067 149.875 216.855C149.955 216.645 150.189 216.538 150.404 216.62C151.306 216.967 153.898 217.78 155.071 217.395C155.286 217.319 155.517 217.44 155.588 217.655C155.659 217.869 155.544 218.099 155.328 218.171C155.032 218.272 154.68 218.312 154.301 218.312Z" fill="#E5937A"/>
<path d="M153.007 220.128C151.688 220.128 150.15 219.557 150.073 219.53C149.861 219.449 149.754 219.214 149.832 219.002C149.913 218.791 150.147 218.687 150.36 218.763C150.379 218.77 152.35 219.502 153.519 219.265C153.736 219.223 153.956 219.365 154.001 219.587C154.045 219.808 153.902 220.024 153.679 220.068C153.469 220.11 153.242 220.128 153.007 220.128Z" fill="#E5937A"/>
<path d="M105.392 91.1328C105.392 91.1328 88.2712 74.1568 47.5625 123.625C47.5625 123.625 50.0611 134.201 55.8543 133.976L95.0895 105.875C95.0895 105.875 112.429 96.1982 105.392 91.1328Z" fill="#F4B998"/>
<path opacity="0.48" d="M93.9889 150.066C93.7127 151.172 91.9576 153.283 89.5439 155.971C92.8967 156.295 96.2516 156.616 99.6255 156.673C107.838 156.812 116.05 156.956 124.261 157.148C128.361 157.244 132.462 157.356 136.561 157.484C133.823 154.024 131.733 151.315 131.416 150.066C130.341 145.807 132.119 142.258 132.119 142.258H132.301C132.301 142.258 132.808 140.322 133.608 137.102C119.432 136.963 104.982 133.392 90.9447 133.106C91.6434 136.168 92.4215 139.231 93.2935 142.258C93.2935 142.258 95.0543 145.808 93.9889 150.066Z" fill="#F4B998"/>
<path d="M145.3 88.8654C144.761 88.5848 144.259 89.0197 143.795 89.9197C143.664 88.7436 143.371 87.9242 142.853 87.6547C142.182 87.3059 141.569 88.0561 141.016 89.4468L127.123 83.6793H126.242C125.848 83.0142 125.59 82.586 125.522 82.4843H101.599C101.531 82.5871 101.246 83.0142 100.802 83.6793H99.5871L84.2411 90.8006C83.7425 89.724 83.1981 89.1841 82.6089 89.4893C82.0902 89.7587 81.7973 90.5781 81.6665 91.7542C81.2025 90.8543 80.7006 90.4194 80.1617 90.7C76.9432 92.3736 82.3182 115.055 82.3182 115.055C82.3182 115.055 82.4289 115.097 82.6022 115.115C82.4256 119.427 83.5144 124.797 88.3272 127.503C89.7123 138.526 90.8157 148.132 90.6525 149.558C103.195 150.439 123.659 148.659 136.201 149.558C135.517 145.666 137.39 131.192 137.191 131.24C137.553 129.778 137.9 128.213 138.23 126.576C142.49 123.208 142.958 117.349 142.431 113.258C142.854 113.337 143.141 113.22 143.141 113.22C143.141 113.22 148.518 90.5401 145.3 88.8654Z" fill="#EE6EB0"/>
<path opacity="0.21" d="M137.197 131.618C130.298 136.154 122.209 139.095 114.706 140.058C107.328 141.007 99.3814 139.705 93.1008 135.537C91.5323 134.496 90.1416 133.315 88.8906 132.026C89.9974 141.05 90.7945 148.331 90.6547 149.558C103.197 150.439 123.661 148.659 136.203 149.558C135.585 146.046 137.053 133.905 137.197 131.618Z" fill="#442071"/>
<path d="M148.777 61.752C145.402 56.9482 140.677 32.9315 139.327 29.5408C137.977 26.15 131.227 6.93598 108.614 12.3043C108.614 12.3043 91.7389 11.4569 86.6757 32.0829C81.6137 52.7101 79.588 55.5351 76.5505 57.5128C75.019 58.51 75.1218 61.8772 78.2766 65.8034C79.5947 64.0449 81.9849 61.8571 81.1419 63.7833C80.5159 65.2143 80.4309 66.965 80.4622 68.1299C83.9323 71.3507 89.4762 74.7022 97.8138 77.2925C118.739 83.7911 149.789 69.3808 149.789 69.3808C149.789 69.3808 152.152 66.5558 148.777 61.752Z" fill="#442071"/>
<path opacity="0.37" d="M134.923 46.7514C132.316 39.4311 128.838 32.4015 125.017 25.6435C123.43 22.8397 121.744 20.0896 119.342 17.8996C117.498 16.2193 115.338 15.7061 113.175 14.8654C100.342 20.8163 94.1457 39.5641 90.9092 52.0001C89.1082 58.9202 88.0026 66.0325 87.7119 73.1616C90.4967 74.6474 93.8338 76.0582 97.8136 77.2947C111.284 81.478 128.939 76.9984 139.817 73.2746C139.716 64.4506 138.109 55.696 134.923 46.7514Z" fill="#442071"/>
<path d="M103.474 72.3074C103.474 72.3074 103.16 81.2219 102.532 83.3349C101.905 85.4467 116.331 95.676 124.486 83.3349L123.858 73.6221C123.858 73.6221 108.493 61.2799 103.474 72.3074Z" fill="#F4B998"/>
<path opacity="0.48" d="M113.757 87.2612C120.522 87.4233 122.754 79.8359 123.491 72.1299C118.733 69.2333 107.805 63.8337 103.524 72.2115C104.598 78.4273 106.922 87.0969 113.757 87.2612Z" fill="#F4B998"/>
<path d="M137.442 38.3748C137.442 24.8622 126.844 13.9086 113.77 13.9086C100.695 13.9086 90.0972 24.8622 90.0972 38.3748C90.0972 38.6218 90.1084 38.8655 90.1151 39.1104C90.0871 39.1685 90.0513 39.2244 90.0256 39.2825C90.0256 39.2825 87.1615 77.6693 113.909 79.7699V79.8526C114.155 79.8459 114.393 79.828 114.635 79.8146C114.898 79.8291 115.158 79.8459 115.428 79.8526V79.7565C136.154 77.8616 137.34 49.8571 137.234 41.5754C137.366 40.5279 137.442 39.4614 137.442 38.3748Z" fill="#F4B998"/>
<path d="M93.7926 48.2942C94.5617 52.3546 93.2448 56.0125 90.8501 56.4663C88.4555 56.9202 85.891 53.9968 85.1218 49.9376C84.3527 45.8783 85.6696 42.2193 88.0631 41.7654C90.4589 41.3104 93.0234 44.2338 93.7926 48.2942Z" fill="#F4B998"/>
<path opacity="0.48" d="M92.3776 50.2943C92.8964 53.0277 92.2849 55.4402 91.0126 55.6817C89.7404 55.9232 88.2893 53.9019 87.7706 51.1686C87.2519 48.4352 87.8634 46.0227 89.1356 45.7823C90.4078 45.5397 91.8589 47.561 92.3776 50.2943Z" fill="#F4B998"/>
<path d="M141.628 51.7376C140.983 55.8192 138.509 58.8197 136.102 58.4396C133.695 58.0595 132.267 54.4419 132.912 50.3614C133.557 46.2798 136.031 43.2792 138.438 43.6593C140.845 44.0394 142.273 47.656 141.628 51.7376Z" fill="#F4B998"/>
<path opacity="0.48" d="M139.893 53.449C139.132 56.141 137.473 58.0292 136.187 57.6659C134.9 57.3026 134.473 54.8252 135.233 52.1332C135.993 49.4401 137.652 47.553 138.939 47.9163C140.226 48.2785 140.653 50.7559 139.893 53.449Z" fill="#F4B998"/>
<path d="M89.7129 41.514C89.7129 41.514 93.088 50.964 92.4128 53.6638C92.4128 53.6638 96.463 49.6135 95.7878 42.5257C95.1126 35.438 98.8253 30.7136 100.85 29.0255C102.874 27.3385 117.725 43.5386 134.263 38.4754C134.263 38.4754 128.526 37.125 127.513 36.7885C126.5 36.452 134.938 37.8013 137.638 34.4262C140.338 31.0512 133.925 14.1759 119.075 11.476C119.075 11.476 85.325 7.76332 89.7129 41.514Z" fill="#442071"/>
<path d="M135.615 34.0885C135.615 34.0885 137.64 42.8632 136.29 44.8889C134.94 46.9135 133.777 54.2897 134.94 56.3646C134.94 56.3646 137.302 43.8772 139.665 43.5396C142.028 43.2008 137.977 25.6514 135.615 34.0885Z" fill="#442071"/>
<path d="M99.7627 24.8186C100.408 25.8986 101.101 26.9349 101.891 27.8974C102.27 28.3882 102.681 28.8555 103.076 29.3295C103.508 29.7745 103.92 30.2351 104.363 30.6644C106.13 32.3826 108.095 33.893 110.266 35.0277C112.419 36.1758 114.726 37.0836 117.147 37.5542C119.554 38.1344 122.044 38.2071 124.561 38.2977C123.939 38.3793 123.314 38.4508 122.686 38.51C122.058 38.5503 121.426 38.6889 120.795 38.6498C119.532 38.5872 118.25 38.633 116.997 38.3804C114.455 38.0908 112.01 37.1696 109.745 35.9869C107.484 34.7739 105.44 33.1607 103.758 31.2423C102.066 29.3396 100.653 27.1786 99.7627 24.8186Z" fill="#442071"/>
<path d="M107.312 16.8243C107.312 16.8243 95.969 1.43025 102.451 3.05127C108.933 4.67116 109.337 11.153 109.337 11.153C109.337 11.153 105.692 -1.81065 110.553 0.215064C115.413 2.24077 112.983 16.0138 112.983 16.0138C112.983 16.0138 108.527 20.0652 107.312 16.8243Z" fill="#442071"/>
<path d="M106.596 14.1378C105.49 13.637 104.466 12.9919 103.496 12.272C102.523 11.5554 101.617 10.7415 100.794 9.82595C100.013 8.88911 99.2157 7.86622 98.9765 6.51351C98.8434 5.8528 99.029 5.05793 99.5086 4.56939C99.9849 4.08085 100.591 3.85392 101.182 3.74213C100.677 4.07527 100.194 4.43301 99.9357 4.8936C99.6673 5.34302 99.6539 5.84271 99.8093 6.33572C100.129 7.32622 100.864 8.24744 101.614 9.10601C103.143 10.8422 104.912 12.4095 106.596 14.1378Z" fill="#442071"/>
<path d="M92.7362 57.5621C92.7362 58.5783 91.9123 59.4034 90.895 59.4034C89.8776 59.4034 89.0537 58.5795 89.0537 57.5621C89.0537 56.5459 89.8776 55.7209 90.895 55.7209C91.9112 55.7209 92.7362 56.5448 92.7362 57.5621Z" fill="white"/>
<path d="M135.726 60.4866C136.743 60.4866 137.567 59.6623 137.567 58.6454C137.567 57.6285 136.743 56.8041 135.726 56.8041C134.709 56.8041 133.885 57.6285 133.885 58.6454C133.885 59.6623 134.709 60.4866 135.726 60.4866Z" fill="white"/>
<path opacity="0.33" d="M101.182 21.5019C102.111 22.4074 103.044 23.3029 104.028 24.1424C104.987 25.0066 105.974 25.8383 106.986 26.6377C109.004 28.2408 111.08 29.7668 113.271 31.1094C115.435 32.4979 117.739 33.6416 120.098 34.6522C121.296 35.1106 122.492 35.5913 123.742 35.901C124.962 36.3392 126.247 36.48 127.514 36.7875C124.922 36.6421 122.34 36.1167 119.874 35.2391C117.422 34.3325 115.072 33.1586 112.84 31.8026C110.649 30.3805 108.535 28.8423 106.582 27.1173C104.636 25.389 102.785 23.5466 101.182 21.5019Z" fill="white"/>
<path opacity="0.33" d="M107.247 20.2016C109.315 21.9579 111.438 23.6348 113.623 25.2223C115.808 26.8042 118.04 28.3245 120.388 29.6348C122.709 30.9897 125.144 32.1502 127.686 32.9964C128.953 33.4336 130.259 33.7589 131.586 33.9433C132.911 34.158 134.261 34.2016 135.616 34.0887C132.947 34.6588 130.128 34.3514 127.502 33.5979C124.857 32.8556 122.371 31.6638 119.983 30.3436C117.632 28.9528 115.367 27.4246 113.244 25.7209C111.121 24.016 109.084 22.2038 107.247 20.2016Z" fill="white"/>
<path opacity="0.33" d="M94.2515 22.584C93.5573 23.977 92.9089 25.3755 92.3231 26.7975C91.7462 28.2229 91.2051 29.6584 90.7479 31.1206C90.2627 32.574 89.8916 34.0608 89.5618 35.5577L89.3248 36.6857L89.1526 37.826C88.9871 38.584 88.9726 39.3554 88.8373 40.1279C88.5478 37.0245 89.0117 33.8473 89.9687 30.8724C90.4561 29.3845 91.0308 27.9233 91.7541 26.5359C92.4684 25.1463 93.2711 23.7981 94.2515 22.584Z" fill="white"/>
<path opacity="0.33" d="M97.0664 27.1328C96.6528 28.1054 96.2369 29.0702 95.8747 30.0573C95.4868 31.0322 95.1235 32.0159 94.8026 33.012C94.1632 35.0008 93.5762 37.0098 93.2833 39.0579C93.1481 40.0785 93.0318 41.1093 93.0944 42.1266C93.1123 43.1439 93.2565 44.2216 93.2789 45.2703C93.3694 47.3787 93.4354 49.5039 93.1682 51.6056C93.138 50.5503 93.0642 49.5028 92.9591 48.4553C92.8764 47.4078 92.7724 46.3625 92.6517 45.3183C92.5365 44.2652 92.3935 43.2524 92.3208 42.1657C92.2314 41.0791 92.3465 40.0025 92.4739 38.9371C92.7993 36.8141 93.4242 34.7649 94.2146 32.7963C95.0027 30.8276 95.9362 28.9193 97.0664 27.1328Z" fill="white"/>
<path opacity="0.33" d="M85.1552 53.7723C85.0601 55.3207 84.6521 56.8042 84.0987 58.2363C83.8114 58.9473 83.4771 59.6471 83.0613 60.3034C82.6554 60.9562 82.1445 61.5968 81.4727 62.0026C81.9165 61.3699 82.1948 60.6846 82.4967 60.0049C82.7818 59.3185 83.0724 58.6331 83.3396 57.9344C83.9031 56.5459 84.4408 55.1441 85.1552 53.7723Z" fill="white"/>
<path opacity="0.33" d="M87.1047 58.32L86.1042 63.8315C85.7811 65.6593 85.5564 67.4737 85.3719 69.3652C84.908 67.5117 84.9885 65.5598 85.2981 63.6928C85.6369 61.827 86.1791 59.9879 87.1047 58.32Z" fill="white"/>
<path opacity="0.33" d="M139.086 36.0133C139.918 38.4706 140.677 40.9457 141.431 43.4219L143.639 50.8641L145.781 58.3207C146.13 59.5661 146.501 60.8037 146.881 62.039C147.271 63.2687 147.607 64.5242 148.182 65.6846C146.828 63.4543 146.055 60.9423 145.18 58.5108C144.34 56.0569 143.604 53.5717 142.853 51.0921C142.164 48.5947 141.455 46.1039 140.828 43.5896C140.198 41.0765 139.592 38.5578 139.086 36.0133Z" fill="white"/>
<path opacity="0.33" d="M141.685 58.7532C141.976 60.2445 142.108 61.7079 142.288 63.1612C142.364 63.889 142.472 64.6067 142.589 65.3211C142.724 66.0321 142.847 66.7442 143.201 67.4161C142.59 66.941 142.213 66.202 141.971 65.4854C141.718 64.7599 141.569 64.0075 141.476 63.2574C141.316 61.7537 141.332 60.2367 141.685 58.7532Z" fill="white"/>
<path d="M100.533 44.2373C100.533 44.2373 104.648 42.6387 108.114 42.9942C108.114 42.9942 109.197 43.8818 108.33 44.5928C107.464 45.3038 100.317 45.4805 99.4506 46.1915C99.4506 46.1915 98.3674 45.4805 100.533 44.2373Z" fill="#442071"/>
<path d="M130.053 44.2373C130.053 44.2373 125.938 42.6387 122.473 42.9942C122.473 42.9942 121.389 43.8818 122.256 44.5928C123.122 45.3038 130.269 45.4805 131.136 46.1915C131.136 46.1915 132.219 45.4805 130.053 44.2373Z" fill="#442071"/>
<path d="M103.656 54.2405C101.351 53.9912 99.7097 52.6508 99.684 52.6296C99.4526 52.4373 99.4224 52.0941 99.6147 51.8627C99.8047 51.6301 100.15 51.5977 100.383 51.7911C100.518 51.9029 103.741 54.5077 107.311 52.3434C107.568 52.188 107.904 52.2685 108.061 52.5268C108.216 52.7839 108.135 53.1204 107.877 53.2758C106.374 54.1858 104.915 54.3758 103.656 54.2405Z" fill="#442071"/>
<path d="M126.173 53.921C123.858 53.798 122.145 52.5493 122.119 52.5303C121.878 52.3503 121.829 52.0093 122.009 51.769C122.185 51.5264 122.529 51.475 122.771 51.6561C122.912 51.76 126.274 54.1849 129.718 51.8283C129.966 51.6594 130.306 51.7209 130.476 51.9702C130.645 52.2184 130.582 52.5583 130.333 52.7282C128.884 53.7187 127.439 53.9881 126.173 53.921Z" fill="#442071"/>
<path d="M115.479 60.9773C113.774 60.9773 112.274 60.1501 112.177 60.0953C111.915 59.9477 111.822 59.6157 111.969 59.353C112.116 59.0891 112.447 58.9952 112.71 59.1439C112.742 59.1618 115.847 60.8611 117.689 59.0176C117.903 58.8041 118.247 58.8041 118.461 59.0176C118.674 59.2311 118.674 59.5755 118.461 59.789C117.56 60.69 116.484 60.9773 115.479 60.9773Z" fill="#442071"/>
<path d="M109.827 67.439C109.827 67.439 115.585 65.2244 120.279 67.8817C120.279 67.8817 114.699 74.614 109.827 67.439Z" fill="#FE6EAF"/>
<path d="M116.778 68.6218C113.001 68.6218 109.217 67.4636 108.99 67.3931C108.918 67.3708 108.878 67.2948 108.901 67.2221C108.923 67.1494 108.999 67.1115 109.071 67.1327C109.15 67.1562 117.041 69.572 121.371 67.4938C121.435 67.4614 121.52 67.4893 121.553 67.5575C121.586 67.6257 121.557 67.7073 121.489 67.7397C120.128 68.3926 118.454 68.6218 116.778 68.6218Z" fill="#442071"/>
<path opacity="0.48" d="M105.664 55.4828C105.664 56.0205 104.534 56.4576 103.14 56.4576C101.745 56.4576 100.615 56.0216 100.615 55.4828C100.615 54.9439 101.745 54.509 103.14 54.509C104.535 54.509 105.664 54.945 105.664 55.4828Z" fill="#F4B998"/>
<path opacity="0.48" d="M129.313 55.4828C129.313 56.0205 128.183 56.4576 126.789 56.4576C125.395 56.4576 124.265 56.0216 124.265 55.4828C124.265 54.9439 125.395 54.509 126.789 54.509C128.183 54.509 129.313 54.945 129.313 55.4828Z" fill="#F4B998"/>
<mask id="mask0_286_5489" style="mask-type:luminance" maskUnits="userSpaceOnUse" x="79" y="82" width="68" height="68">
<path d="M145.3 88.8654C144.761 88.5848 144.259 89.0197 143.795 89.9197C143.664 88.7436 143.371 87.9242 142.853 87.6547C142.182 87.3059 141.569 88.0561 141.016 89.4468L127.123 83.6793H126.242C125.848 83.0142 125.59 82.586 125.522 82.4843H101.599C101.531 82.5871 101.246 83.0142 100.802 83.6793H99.5871L84.2411 90.8006C83.7425 89.724 83.1981 89.1841 82.6089 89.4893C82.0902 89.7587 81.7973 90.5781 81.6665 91.7542C81.2025 90.8543 80.7006 90.4194 80.1617 90.7C76.9432 92.3736 82.3182 115.055 82.3182 115.055C82.3182 115.055 82.4289 115.097 82.6022 115.115C82.4256 119.427 83.5144 124.797 88.3272 127.503C89.7123 138.526 90.8157 148.132 90.6525 149.558C103.195 150.439 123.659 148.659 136.201 149.558C135.517 145.666 137.39 131.192 137.191 131.24C137.553 129.778 137.9 128.213 138.23 126.576C142.49 123.208 142.958 117.349 142.431 113.258C142.854 113.337 143.141 113.22 143.141 113.22C143.141 113.22 148.518 90.5401 145.3 88.8654Z" fill="white"/>
</mask>
<g mask="url(#mask0_286_5489)">
<g opacity="0.61">
<g opacity="0.58">
<path d="M151.22 94.5322C114.134 92.0247 75.0538 94.3243 74.6636 94.3467L74.5977 93.2578C74.9901 93.2343 114.138 90.9314 151.295 93.4434L151.22 94.5322Z" fill="white"/>
</g>
<g opacity="0.58">
<path d="M76.0523 107.733L75.9629 106.646C76.5319 106.599 132.973 102.045 148.366 104.34L148.207 105.418C132.929 103.149 76.618 107.689 76.0523 107.733Z" fill="white"/>
</g>
<g opacity="0.58">
<path d="M78.6738 119.286L78.6201 118.197C79.1556 118.169 132.311 115.579 146.721 117.871L146.551 118.95C132.249 116.673 79.2093 119.26 78.6738 119.286Z" fill="white"/>
</g>
<g opacity="0.58">
<path d="M143.26 132.248C128.426 129.761 83.3739 131.383 82.9211 131.4L82.8809 130.309C83.337 130.292 128.5 128.666 143.441 131.172L143.26 132.248Z" fill="white"/>
</g>
<g opacity="0.58">
<path d="M144.251 144.789C129.417 142.303 84.364 143.924 83.9123 143.942L83.8721 142.851C84.3271 142.834 129.489 141.206 144.432 143.713L144.251 144.789Z" fill="white"/>
</g>
</g>
</g>
<g opacity="0.66">
<g opacity="0.66">
<path d="M114.242 92.6987C105.916 92.6987 99.4324 84.3712 99.1562 84.0112L100.022 83.3472C100.087 83.4321 106.591 91.8525 114.582 91.6021C118.996 91.4701 123.063 88.701 126.671 83.374L127.574 83.9855C123.758 89.6222 119.395 92.5523 114.608 92.6931C114.487 92.6976 114.364 92.6987 114.242 92.6987Z" fill="#442071"/>
</g>
<g opacity="0.66">
<path d="M82.1891 91.7017L81.1025 91.8012L83.0299 112.846L84.1164 112.747L82.1891 91.7017Z" fill="#442071"/>
</g>
<g opacity="0.66">
<path d="M85.7792 92.9663L84.6924 93.0629L86.0119 107.915L87.0988 107.818L85.7792 92.9663Z" fill="#442071"/>
</g>
<g opacity="0.66">
<path d="M141.24 112.809L140.148 112.793C140.152 112.578 140.479 91.3238 140.47 89.4512L141.562 89.4456C141.57 91.3293 141.254 111.933 141.24 112.809Z" fill="#442071"/>
</g>
<g opacity="0.66">
<path d="M143.248 89.8878L142.792 102.867L143.882 102.905L144.338 89.9261L143.248 89.8878Z" fill="#442071"/>
</g>
<g opacity="0.66">
<path d="M120.937 128.117C115.303 124.673 107.981 127.79 107.907 127.823L107.472 126.822C107.791 126.683 115.395 123.452 121.506 127.186L120.937 128.117Z" fill="#442071"/>
</g>
<g opacity="0.66">
<path d="M136.053 146.602L90.8359 147.222L90.8509 148.313L136.068 147.693L136.053 146.602Z" fill="#442071"/>
</g>
</g>
<path d="M125.939 120.672L113.11 119.072C110.882 119.028 104.95 118.899 104.351 118.77C103.612 118.61 103.471 117.782 103.471 117.782C103.211 115.975 111.072 116.446 112.169 116.52C112.145 116.336 112.124 116.148 112.105 115.954C108.518 115.742 101.692 115.32 100.949 115.155C99.9358 114.929 99.8274 113.974 99.8274 113.974C99.6586 111.923 110.263 112.866 112.007 113.035C112.012 112.709 112.021 112.381 112.033 112.054C108.205 111.563 99.9347 110.489 99.0795 110.25C97.9627 109.94 97.9258 108.979 97.9258 108.979C97.918 106.736 111.944 109.117 111.944 109.117C112.039 109.135 112.128 109.155 112.215 109.176C112.247 108.816 112.279 108.47 112.313 108.143C108.904 107.345 101.897 105.69 101.173 105.392C100.214 104.997 100.269 104.038 100.269 104.038C100.468 101.803 112.666 105.249 112.666 105.249L120.126 104.957C120.231 104.347 119.882 103.573 118.616 102.627C116.157 100.793 116.4 100.226 116.4 100.226C117.707 97.6557 121.524 101.129 125.419 103.517C128.34 105.308 129.616 108.23 130.072 109.58C130.264 110.02 130.285 110.305 130.285 110.305L135.341 112.818L133.68 122.429L125.939 120.672Z" fill="#F4B998"/>
<path d="M173.537 135.155C173.005 135.265 172.467 135.339 171.928 135.411C153.758 132.043 128.837 120.427 128.837 120.427L128.409 110.463C146.918 111.728 164.215 115.831 175.263 118.974C180.094 124.514 183.167 133.148 173.537 135.155Z" fill="#F4B998"/>
<path d="M97.8602 134.507L110.701 136.017C112.875 136.507 118.666 137.798 119.279 137.815C120.035 137.836 120.369 137.066 120.369 137.066C121.052 135.373 113.307 133.953 112.224 133.763C112.292 133.591 112.358 133.412 112.421 133.229C115.955 133.878 122.684 135.1 123.445 135.117C124.483 135.139 124.816 134.238 124.816 134.238C125.47 132.286 114.947 130.671 113.213 130.418C113.287 130.1 113.356 129.78 113.422 129.459C117.255 129.897 125.544 130.829 126.431 130.802C127.59 130.767 127.855 129.843 127.855 129.843C128.398 127.666 114.209 126.628 114.209 126.628C114.113 126.624 114.021 126.622 113.931 126.622C113.987 126.265 114.037 125.921 114.083 125.595C117.583 125.635 124.782 125.701 125.556 125.584C126.582 125.43 126.758 124.485 126.758 124.485C127.099 122.268 114.43 122.701 114.43 122.701L107.255 120.636C107.299 120.019 107.822 119.351 109.279 118.735C112.104 117.541 112.004 116.931 112.004 116.931C111.349 114.124 106.812 116.585 102.459 117.973C99.1951 119.014 97.2588 121.547 96.4941 122.749C96.2023 123.13 96.114 123.403 96.114 123.403L90.6048 124.636L89.9229 134.366L97.8602 134.507Z" fill="#F4B998"/>
<path d="M48.1815 137.204C48.6722 137.439 49.1764 137.639 49.6817 137.837C68.13 138.906 95.1037 133.577 95.1037 133.577L97.8986 124.004C79.6236 120.813 61.8472 120.667 50.367 121.079C44.3559 125.306 39.3095 132.956 48.1815 137.204Z" fill="#F4B998"/>
<path d="M59.5046 124.568C59.2799 124.568 59.0686 124.428 58.9903 124.204C58.8897 123.92 59.0395 123.608 59.3235 123.508C59.7874 123.344 70.7276 119.516 74.7768 120.183C75.0741 120.233 75.2743 120.513 75.2251 120.811C75.1748 121.109 74.8908 121.311 74.5979 121.259C70.8092 120.633 59.7963 124.496 59.6857 124.537C59.6264 124.558 59.5661 124.568 59.5046 124.568Z" fill="#E5937A"/>
<path d="M167.099 120.607C166.997 120.607 166.894 120.578 166.802 120.519C160.362 116.332 143.393 112.71 143.222 112.674C142.927 112.612 142.739 112.322 142.802 112.028C142.865 111.733 143.161 111.552 143.448 111.608C144.153 111.756 160.785 115.309 167.397 119.607C167.649 119.771 167.721 120.109 167.557 120.361C167.452 120.52 167.277 120.607 167.099 120.607Z" fill="#E5937A"/>
</svg>
