<svg width="224" height="222" viewBox="0 0 224 222" fill="none" xmlns="http://www.w3.org/2000/svg">
<path d="M0 0H224V222H0V0Z" fill="white"/>
<path opacity="0.19" d="M115 220.725C169.124 220.725 213 171.761 213 111.362C213 50.9632 169.124 2 115 2C60.8761 2 17 50.9632 17 111.362C17 171.761 60.8761 220.725 115 220.725Z" fill="#AD00FF"/>
<path opacity="0.19" fill-rule="evenodd" clip-rule="evenodd" d="M115 219.725C168.471 219.725 212 171.315 212 111.362C212 51.4095 168.471 3 115 3C61.5287 3 18 51.4095 18 111.362C18 171.315 61.5287 219.725 115 219.725ZM213 111.362C213 171.761 169.124 220.725 115 220.725C60.8761 220.725 17 171.761 17 111.362C17 50.9632 60.8761 2 115 2C169.124 2 213 50.9632 213 111.362Z" fill="black"/>
<path d="M84.1637 15.4382C84.1637 15.4382 97.7731 11.7448 117.555 12.5093C137.336 13.2737 143.982 13.4004 145.882 14.2915C145.882 14.2915 148.731 8.56138 153.637 10.3437C153.637 10.3437 155.061 14.9282 148.89 16.7105C148.89 16.7105 152.055 26.3886 151.897 37.2133C151.74 48.038 149.365 55.296 149.365 55.296C149.365 55.296 154.271 56.8238 153.637 59.7528C153.637 59.7528 148.415 60.8984 145.091 57.715C145.091 57.715 117.081 63.1907 84.4812 60.5161C84.4812 60.5161 81.9488 63.3173 77.8353 62.6807C77.8353 62.6807 76.5691 59.7517 82.1076 56.8227C82.1076 56.8227 75.9353 44.2157 76.8853 33.6465C77.8353 23.0774 81.1576 17.8561 81.1576 17.8561C81.1576 17.8561 74.6691 17.9839 74.9853 13.2716C74.9853 13.2716 79.2576 10.217 84.1637 15.4382Z" fill="#7867E0"/>
<path d="M124.676 18.7913C124.676 18.7913 118.979 13.4434 109.061 18.7913C99.1437 24.1392 97.9843 34.4969 98.0897 39.7611C98.1951 45.0242 96.3031 48.2957 95.5573 49.6088C93.3424 53.5137 94.7661 58.0134 97.7721 59.2449C100.933 60.5387 109.905 61.4094 119.295 61.2398C128.684 61.0702 137.336 59.1172 139.129 53.6844C140.922 48.2516 137.336 45.8735 137.441 39.2522C137.548 32.6287 135.544 16.6686 124.676 18.7913Z" fill="#874B2E"/>
<path d="M127.209 73.2055C125.943 78.4729 116.03 81.5286 116.03 81.5286C116.03 81.5286 113.701 80.8457 109.067 77.9629C104.421 75.0801 102.94 63.5275 102.94 63.5275C103.572 62.5085 111.384 60.8175 112.233 59.7986C112.74 59.177 112.701 57.2819 112.6 55.9066C112.537 55.0305 112.436 54.3583 112.436 54.3583L119.462 54.2767C119.462 54.2767 119.323 55.1829 119.285 56.3038C119.234 57.6792 119.335 59.3906 120.032 60.1347C121.298 61.4896 127.995 62.0501 127.995 62.0501C127.995 62.0501 128.475 67.9488 127.209 73.2055Z" fill="#FFC990"/>
<path d="M119.46 54.278C119.46 54.278 119.322 55.1841 119.283 56.305C118.346 56.7334 117.295 57.0491 116.295 56.9568C115.169 56.8451 113.802 56.3963 112.598 55.9078C112.535 55.0317 112.434 54.3596 112.434 54.3596L119.46 54.278Z" fill="#F7A386"/>
<path d="M133.754 40.3312C133.957 43.9677 127.526 46.8924 127.526 46.8924C127.526 47.6568 124.348 55.9799 115.815 55.6739C107.486 55.3787 105.055 47.5752 105.055 47.5752C105.055 47.5752 100.092 45.3645 99.6735 42.0534C98.9143 36.145 104.105 39.5066 104.105 39.5066C104.105 39.5066 105.332 36.8482 109.193 34.2907L109.205 34.2811C109.662 33.9751 110.155 33.6798 110.686 33.3942C111.914 32.7017 113.358 32.05 115.029 31.4896C122.461 28.9836 123.41 25.0712 123.41 25.0712C123.41 25.0712 125.106 28.5144 126.992 31.1836C130.473 36.1138 129.74 39.2522 129.74 39.2522C129.74 39.2522 133.538 36.7044 133.754 40.3312Z" fill="#FFC990"/>
<path d="M103.998 70.4925C104.621 77.948 99.3558 87.0044 98.7754 88.5752C98.195 90.146 95.6105 98.7632 94.7139 100.078C93.8173 101.394 94.2389 104.45 92.6044 108.526C90.97 112.602 84.9551 122.237 84.3747 125.463C83.7943 128.69 85.3994 130.541 85.6409 132.679C85.9051 135.013 84.5855 137.518 83.5315 137.433C82.4761 137.349 82.1078 135.863 82.5295 134.802C82.9511 133.741 82.8991 132.51 82.3187 132.425C81.7382 132.34 80.1038 134.335 79.6288 135.439C79.1538 136.542 80.3666 140.745 79.3646 141.89C78.3626 143.036 77.1497 140.956 77.1497 140.956C76.3585 141.975 75.4619 139.64 75.4619 139.64C74.8295 139.852 74.9869 139.046 74.2491 135.522C73.5112 131.999 74.5132 130.004 75.9369 128.476C77.3605 126.948 79.418 123.976 79.6288 119.902C79.8396 115.827 83.6382 102.838 86.6977 97.7432C89.7571 92.6498 88.3855 82.9717 90.1788 74.6519C91.972 66.332 98.2497 64.7612 101.731 63.8271C101.731 63.8271 103.576 65.4409 103.998 70.4925Z" fill="#FFC990"/>
<path d="M129.741 62.3005C129.741 62.3005 126.396 73.7168 129.899 80.7655C132.748 86.4956 133.38 87.5145 135.438 92.9902C136.503 95.8258 137.179 95.7914 137.336 98.0837C137.494 100.376 138.342 108.511 142.4 117.525C143.685 120.379 145.629 121.978 145.881 126.099C145.992 127.92 143.349 130.599 144.193 133.4C145.038 136.201 146.303 136.796 146.515 134.588C146.727 132.381 146.409 131.277 147.359 131.447C148.309 131.617 149.047 132.211 149.574 133.909C150.101 135.606 149.258 139.512 150.207 139.767C151.155 140.021 151.789 138.578 151.789 138.578C151.789 138.578 152.422 140.191 153.477 138.748C154.532 137.305 156.009 131.447 155.376 129.409C154.742 127.371 151.577 125.504 151.155 123.636C150.734 121.768 149.257 109.119 146.303 100.035C143.349 90.9503 142.927 85.6872 142.716 79.6596C142.505 73.6342 140.712 64.3802 129.741 62.3005Z" fill="#FFC990"/>
<path d="M113.282 188.498C111.536 196.853 109.484 200.978 110.27 201.742C111.068 202.507 112.498 204.543 110.118 207.223C107.737 209.892 108.535 212.694 106.801 214.477C105.054 216.259 105.294 215.373 104.66 216.259C104.027 217.145 104.268 219.255 102.672 219.509C101.102 219.764 100.546 219.183 100.622 218.674C100.622 218.674 99.1152 218.806 99.0392 217.92C99.0392 217.92 97.773 217.788 98.0131 217.085C98.0131 217.085 96.2666 217.085 96.5828 215.882C96.5828 215.882 94.9243 215.556 96.5828 214.028C98.2413 212.5 100.064 210.462 101.178 208.558C102.28 206.642 104.267 203.658 104.343 201.742C104.419 199.827 102.203 167.359 100.62 162.011C99.709 158.945 99.0632 153.636 98.6709 149.653C98.6336 149.235 98.5949 148.827 98.5575 148.441C98.3547 146.087 98.2413 144.437 98.2413 144.437L114.699 147.626C114.699 147.626 114.586 149.307 114.408 151.436C114.383 151.661 114.371 151.885 114.346 152.119C114.131 154.778 113.839 157.875 113.599 159.21C113.13 161.757 116.447 173.339 113.282 188.498Z" fill="#FFC990"/>
<path d="M98.2417 144.437L114.7 147.626C114.7 147.626 114.586 149.307 114.409 151.436L98.5579 148.441C98.3564 146.087 98.2417 144.437 98.2417 144.437Z" fill="#F7A386"/>
<path d="M135.907 215.882C136.223 217.085 134.489 217.085 134.489 217.085C134.729 217.788 133.463 217.92 133.463 217.92C133.375 218.807 131.88 218.685 131.88 218.685C131.956 219.193 131.398 219.765 129.816 219.51C128.234 219.256 128.474 217.157 127.841 216.26C127.209 215.373 127.449 216.26 125.701 214.478C123.967 212.696 124.751 209.893 122.384 207.215C120.004 204.545 121.434 202.508 122.22 201.744C123.018 200.98 120.954 196.855 119.219 188.5C116.055 173.341 119.371 161.759 118.903 159.211C118.65 157.906 118.371 154.881 118.156 152.252C118.119 151.835 118.08 151.427 118.055 151.04C117.89 149.104 117.789 147.617 117.789 147.617L129.336 145.386L134.248 144.439C134.248 144.439 134.198 145.265 134.071 146.568C134.058 146.854 134.034 147.17 134.008 147.495C133.971 147.79 133.946 148.117 133.92 148.442C133.565 152.496 132.882 158.63 131.881 162.012C130.299 167.36 128.083 199.838 128.159 201.743C128.235 203.659 130.21 206.643 131.324 208.559C132.425 210.463 134.248 212.501 135.907 214.029C137.577 215.556 135.907 215.882 135.907 215.882Z" fill="#FFC990"/>
<path d="M135.995 147.045L134.007 147.494L118.055 151.039C117.89 149.103 117.789 147.616 117.789 147.616L129.336 145.385L134.071 146.567L135.995 147.045Z" fill="#F7A386"/>
<path d="M100.465 63.8284C100.465 63.8284 103.155 62.1728 104.632 62.3424C104.632 62.3424 105.264 71.8508 107.796 74.2279C110.329 76.605 114.337 79.3214 117.08 79.6617C117.08 79.6617 123.833 75.2468 125.521 71.1722C127.209 67.0977 126.576 61.9183 126.576 61.9183C126.576 61.9183 128.634 61.5361 130.216 62.3005C130.216 62.3005 129.741 71.5115 130.586 72.8697C131.43 74.2279 136.283 77.2846 135.861 82.5478C135.44 87.8109 131.641 89.1701 131.641 89.1701C131.641 89.1701 130.586 98.1696 131.43 100.376C131.43 100.376 138.815 115.488 139.026 125.505C139.237 135.522 138.182 145.711 138.182 145.711C138.182 145.711 115.605 152.162 93.2384 146.729C93.2384 146.729 90.2844 120.242 95.3479 110.734C100.411 101.225 100.624 100.546 100.624 98.6785C100.624 96.8114 99.779 89.5094 99.779 89.5094C99.779 89.5094 93.4492 85.7741 96.1925 80.1707C98.9357 74.5672 101.256 74.7368 101.256 72.3597C101.256 69.9826 100.465 63.8284 100.465 63.8284Z" fill="#E52968"/>
<path d="M123.603 33.6206C122.563 33.524 121.443 33.976 120.931 34.7093C120.771 34.938 121.132 35.142 121.366 34.9799C122.034 34.5182 122.791 34.2788 123.669 34.5021C124.41 34.6911 124.651 35.2096 125.222 35.5564C125.507 35.7304 125.87 35.4899 125.883 35.2504C125.937 34.3786 124.556 33.7097 123.603 33.6206Z" fill="#874B2E"/>
<path d="M112.878 38.6864C112.104 38.9773 111.419 39.3703 110.547 39.439C109.495 39.5227 108.604 39.1373 107.755 38.6885C107.494 38.55 107.199 38.8184 107.34 39.0224C108.477 40.6501 112.415 40.9249 113.208 38.8914C113.273 38.7282 113.044 38.6241 112.878 38.6864Z" fill="#CC765E"/>
<path d="M125.853 38.7948C125.04 39.2651 124.454 39.8545 123.367 39.9017C122.203 39.9522 121.632 39.3102 120.642 39.0374C120.508 38.9999 120.349 39.0997 120.357 39.2125C120.434 40.3269 122.343 40.8262 123.514 40.7328C124.684 40.6394 126.082 39.9801 126.225 38.9666C126.245 38.8216 125.997 38.7111 125.853 38.7948Z" fill="#CC765E"/>
<path d="M117.501 45.5333C117.433 45.4141 117.206 45.4292 117.132 45.5333C116.907 45.8554 116.732 46.2258 116.28 46.3826C115.733 46.5726 115.076 46.2956 114.857 45.8672C114.717 45.5934 114.193 45.689 114.289 45.9928C114.517 46.7143 115.368 47.2233 116.306 47.059C117.131 46.9162 117.885 46.2097 117.501 45.5333Z" fill="#CC765E"/>
<path d="M119.283 49.5219C116.893 50.4506 114.973 50.4979 112.432 49.9546C112.158 49.8955 112.006 50.1983 112.242 50.3186C114.376 51.4073 117.628 51.2118 119.632 50.0018C119.983 49.7892 119.691 49.363 119.283 49.5219Z" fill="#CC765E"/>
<path d="M132.941 40.8864C131.908 39.6474 129.031 41.0067 129.631 42.3531C129.685 42.4765 129.927 42.5334 130.012 42.3928C130.266 41.973 130.398 41.5532 130.937 41.2977C131.501 41.0303 132.122 41.1914 132.731 41.1806C132.906 41.1774 133.048 41.0131 132.941 40.8864Z" fill="#CC765E"/>
<path d="M102.539 40.781C102.041 40.4492 101.146 40.2206 100.638 40.6393C100.505 40.7477 100.579 40.9045 100.742 40.9549C101.175 41.0881 101.63 41.0151 102.037 41.2427C102.499 41.5014 102.675 41.9438 102.616 42.3818C102.582 42.6331 103.09 42.6825 103.161 42.4409C103.339 41.8257 103.163 41.1976 102.539 40.781Z" fill="#CC765E"/>
<path d="M112.841 34.9316C112.043 34.5343 111.334 34.1672 110.359 34.1264C109.928 34.106 109.561 34.1768 109.208 34.2788C109.664 33.9728 110.158 33.6776 110.689 33.392C111.664 33.6368 112.829 34.0952 113.196 34.6449C113.321 34.8189 113.068 35.0433 112.841 34.9316Z" fill="#874B2E"/>
</svg>
