<svg width="224" height="222" viewBox="0 0 224 222" fill="none" xmlns="http://www.w3.org/2000/svg">
<path d="M0 0H224V222H0V0Z" fill="white"/>
<path opacity="0.19" d="M108 221.725C162.124 221.725 206 172.761 206 112.362C206 51.9632 162.124 3 108 3C53.8761 3 10 51.9632 10 112.362C10 172.761 53.8761 221.725 108 221.725Z" fill="#AD00FF"/>
<path opacity="0.19" fill-rule="evenodd" clip-rule="evenodd" d="M108 220.725C161.471 220.725 205 172.315 205 112.362C205 52.4095 161.471 4 108 4C54.5287 4 11 52.4095 11 112.362C11 172.315 54.5287 220.725 108 220.725ZM206 112.362C206 172.761 162.124 221.725 108 221.725C53.8761 221.725 10 172.761 10 112.362C10 51.9632 53.8761 3 108 3C162.124 3 206 51.9632 206 112.362Z" fill="black"/>
<path d="M77.1637 16.4382C77.1637 16.4382 90.7731 12.7448 110.555 13.5093C130.336 14.2737 136.982 14.4004 138.882 15.2915C138.882 15.2915 141.731 9.56138 146.637 11.3437C146.637 11.3437 148.061 15.9282 141.89 17.7105C141.89 17.7105 145.055 27.3886 144.897 38.2133C144.74 49.038 142.365 56.296 142.365 56.296C142.365 56.296 147.271 57.8238 146.637 60.7528C146.637 60.7528 141.415 61.8984 138.091 58.715C138.091 58.715 110.081 64.1907 77.4812 61.5161C77.4812 61.5161 74.9488 64.3173 70.8353 63.6807C70.8353 63.6807 69.5691 60.7517 75.1076 57.8227C75.1076 57.8227 68.9353 45.2157 69.8853 34.6465C70.8353 24.0774 74.1576 18.8561 74.1576 18.8561C74.1576 18.8561 67.6691 18.9839 67.9853 14.2716C67.9853 14.2716 72.2576 11.217 77.1637 16.4382Z" fill="#7867E0"/>
<path d="M117.676 19.7913C117.676 19.7913 111.979 14.4434 102.061 19.7913C92.1437 25.1392 90.9843 35.4969 91.0897 40.7611C91.1951 46.0242 89.3031 49.2957 88.5573 50.6088C86.3424 54.5137 87.7661 59.0134 90.7721 60.2449C93.933 61.5387 102.905 62.4094 112.295 62.2398C121.684 62.0702 130.336 60.1172 132.129 54.6844C133.922 49.2516 130.336 46.8735 130.441 40.2522C130.548 33.6287 128.544 17.6686 117.676 19.7913Z" fill="#874B2E"/>
<path d="M120.209 74.2055C118.943 79.4729 109.03 82.5286 109.03 82.5286C109.03 82.5286 106.701 81.8457 102.067 78.9629C97.421 76.0801 95.9399 64.5275 95.9399 64.5275C96.5724 63.5085 104.384 61.8175 105.233 60.7986C105.74 60.177 105.701 58.2819 105.6 56.9066C105.537 56.0305 105.436 55.3583 105.436 55.3583L112.462 55.2767C112.462 55.2767 112.323 56.1829 112.285 57.3038C112.234 58.6792 112.335 60.3906 113.032 61.1347C114.298 62.4896 120.995 63.0501 120.995 63.0501C120.995 63.0501 121.475 68.9488 120.209 74.2055Z" fill="#FFC990"/>
<path d="M112.46 55.278C112.46 55.278 112.322 56.1841 112.283 57.305C111.346 57.7334 110.295 58.0491 109.295 57.9568C108.169 57.8451 106.802 57.3963 105.598 56.9078C105.535 56.0317 105.434 55.3596 105.434 55.3596L112.46 55.278Z" fill="#F7A386"/>
<path d="M126.754 41.3312C126.957 44.9677 120.526 47.8924 120.526 47.8924C120.526 48.6568 117.348 56.9799 108.815 56.6739C100.486 56.3787 98.0546 48.5752 98.0546 48.5752C98.0546 48.5752 93.0925 46.3645 92.6735 43.0534C91.9143 37.145 97.1046 40.5066 97.1046 40.5066C97.1046 40.5066 98.3321 37.8482 102.193 35.2907L102.205 35.2811C102.662 34.9751 103.155 34.6798 103.686 34.3942C104.914 33.7017 106.358 33.05 108.029 32.4896C115.461 29.9836 116.41 26.0712 116.41 26.0712C116.41 26.0712 118.106 29.5144 119.992 32.1836C123.473 37.1138 122.74 40.2522 122.74 40.2522C122.74 40.2522 126.538 37.7044 126.754 41.3312Z" fill="#FFC990"/>
<path d="M96.9976 71.4925C97.6207 78.948 92.3558 88.0044 91.7754 89.5752C91.195 91.146 88.6105 99.7632 87.7139 101.078C86.8173 102.394 87.2389 105.45 85.6044 109.526C83.97 113.602 77.9551 123.237 77.3747 126.463C76.7943 129.69 78.3994 131.541 78.6409 133.679C78.9051 136.013 77.5855 138.518 76.5315 138.433C75.4761 138.349 75.1078 136.863 75.5295 135.802C75.9511 134.741 75.8991 133.51 75.3187 133.425C74.7382 133.34 73.1038 135.335 72.6288 136.439C72.1538 137.542 73.3666 141.745 72.3646 142.89C71.3626 144.036 70.1497 141.956 70.1497 141.956C69.3585 142.975 68.4619 140.64 68.4619 140.64C67.8295 140.852 67.9869 140.046 67.2491 136.522C66.5112 132.999 67.5132 131.004 68.9369 129.476C70.3605 127.948 72.418 124.976 72.6288 120.902C72.8396 116.827 76.6382 103.838 79.6977 98.7432C82.7571 93.6498 81.3855 83.9717 83.1788 75.6519C84.972 67.332 91.2497 65.7612 94.7307 64.8271C94.7307 64.8271 96.576 66.4409 96.9976 71.4925Z" fill="#FFC990"/>
<path d="M122.741 63.3005C122.741 63.3005 119.396 74.7168 122.899 81.7655C125.748 87.4956 126.38 88.5145 128.438 93.9902C129.503 96.8258 130.179 96.7914 130.336 99.0837C130.494 101.376 131.342 109.511 135.4 118.525C136.685 121.379 138.629 122.978 138.881 127.099C138.992 128.92 136.349 131.599 137.193 134.4C138.038 137.201 139.303 137.796 139.515 135.588C139.727 133.381 139.409 132.277 140.359 132.447C141.309 132.617 142.047 133.211 142.574 134.909C143.101 136.606 142.258 140.512 143.207 140.767C144.155 141.021 144.789 139.578 144.789 139.578C144.789 139.578 145.422 141.191 146.477 139.748C147.532 138.305 149.009 132.447 148.376 130.409C147.742 128.371 144.577 126.504 144.155 124.636C143.734 122.768 142.257 110.119 139.303 101.035C136.349 91.9503 135.927 86.6872 135.716 80.6596C135.505 74.6342 133.712 65.3802 122.741 63.3005Z" fill="#FFC990"/>
<path d="M106.282 189.498C104.536 197.853 102.484 201.978 103.27 202.742C104.068 203.507 105.498 205.543 103.118 208.223C100.737 210.892 101.535 213.694 99.8005 215.477C98.054 217.259 98.2942 216.373 97.6604 217.259C97.0266 218.145 97.2681 220.255 95.6724 220.509C94.1019 220.764 93.5455 220.183 93.6216 219.674C93.6216 219.674 92.1152 219.806 92.0392 218.92C92.0392 218.92 90.773 218.788 91.0131 218.085C91.0131 218.085 89.2666 218.085 89.5828 216.882C89.5828 216.882 87.9243 216.556 89.5828 215.028C91.2413 213.5 93.0639 211.462 94.178 209.558C95.2801 207.642 97.2668 204.658 97.3428 202.742C97.4189 200.827 95.2027 168.359 93.6203 163.011C92.709 159.945 92.0632 154.636 91.6709 150.653C91.6336 150.235 91.5949 149.827 91.5575 149.441C91.3547 147.087 91.2413 145.437 91.2413 145.437L107.699 148.626C107.699 148.626 107.586 150.307 107.408 152.436C107.383 152.661 107.371 152.885 107.346 153.119C107.131 155.778 106.839 158.875 106.599 160.21C106.13 162.757 109.447 174.339 106.282 189.498Z" fill="#FFC990"/>
<path d="M91.2417 145.437L107.7 148.626C107.7 148.626 107.586 150.307 107.409 152.436L91.5579 149.441C91.3564 147.087 91.2417 145.437 91.2417 145.437Z" fill="#F7A386"/>
<path d="M128.907 216.882C129.223 218.085 127.489 218.085 127.489 218.085C127.729 218.788 126.463 218.92 126.463 218.92C126.375 219.807 124.88 219.685 124.88 219.685C124.956 220.193 124.398 220.765 122.816 220.51C121.234 220.256 121.474 218.157 120.841 217.26C120.209 216.373 120.449 217.26 118.701 215.478C116.967 213.696 117.751 210.893 115.384 208.215C113.004 205.545 114.434 203.508 115.22 202.744C116.018 201.98 113.954 197.855 112.219 189.5C109.055 174.341 112.371 162.759 111.903 160.211C111.65 158.906 111.371 155.881 111.156 153.252C111.119 152.835 111.08 152.427 111.055 152.04C110.89 150.104 110.789 148.617 110.789 148.617L122.336 146.386L127.248 145.439C127.248 145.439 127.198 146.265 127.071 147.568C127.058 147.854 127.034 148.17 127.008 148.495C126.971 148.79 126.946 149.117 126.92 149.442C126.565 153.496 125.882 159.63 124.881 163.012C123.299 168.36 121.083 200.838 121.159 202.743C121.235 204.659 123.21 207.643 124.324 209.559C125.425 211.463 127.248 213.501 128.907 215.029C130.577 216.556 128.907 216.882 128.907 216.882Z" fill="#FFC990"/>
<path d="M128.995 148.045L127.007 148.494L111.055 152.039C110.89 150.103 110.789 148.616 110.789 148.616L122.336 146.385L127.071 147.567L128.995 148.045Z" fill="#F7A386"/>
<path d="M93.4648 64.8284C93.4648 64.8284 96.1546 63.1728 97.6316 63.3424C97.6316 63.3424 98.2641 72.8508 100.796 75.2279C103.329 77.605 107.337 80.3214 110.08 80.6617C110.08 80.6617 116.833 76.2468 118.521 72.1722C120.209 68.0977 119.576 62.9183 119.576 62.9183C119.576 62.9183 121.634 62.5361 123.216 63.3005C123.216 63.3005 122.741 72.5115 123.586 73.8697C124.43 75.2279 129.283 78.2846 128.861 83.5478C128.44 88.8109 124.641 90.1701 124.641 90.1701C124.641 90.1701 123.586 99.1696 124.43 101.376C124.43 101.376 131.815 116.488 132.026 126.505C132.237 136.522 131.182 146.711 131.182 146.711C131.182 146.711 108.605 153.162 86.2384 147.729C86.2384 147.729 83.2844 121.242 88.3479 111.734C93.4114 102.225 93.6235 101.546 93.6235 99.6785C93.6235 97.8114 92.779 90.5094 92.779 90.5094C92.779 90.5094 86.4492 86.7741 89.1925 81.1707C91.9357 75.5672 94.256 75.7368 94.256 73.3597C94.256 70.9826 93.4648 64.8284 93.4648 64.8284Z" fill="#E52968"/>
<path d="M116.603 34.6206C115.563 34.524 114.443 34.976 113.931 35.7093C113.771 35.938 114.132 36.142 114.366 35.9799C115.034 35.5182 115.791 35.2788 116.669 35.5021C117.41 35.6911 117.651 36.2096 118.222 36.5564C118.507 36.7304 118.87 36.4899 118.883 36.2504C118.937 35.3786 117.556 34.7097 116.603 34.6206Z" fill="#874B2E"/>
<path d="M105.878 39.6864C105.104 39.9773 104.419 40.3703 103.547 40.439C102.495 40.5227 101.604 40.1373 100.755 39.6885C100.494 39.55 100.199 39.8184 100.34 40.0224C101.477 41.6501 105.415 41.9249 106.208 39.8914C106.273 39.7282 106.044 39.6241 105.878 39.6864Z" fill="#CC765E"/>
<path d="M118.853 39.7948C118.04 40.2651 117.454 40.8545 116.367 40.9017C115.203 40.9522 114.632 40.3102 113.642 40.0374C113.508 39.9999 113.349 40.0997 113.357 40.2125C113.434 41.3269 115.343 41.8262 116.514 41.7328C117.684 41.6394 119.082 40.9801 119.225 39.9666C119.245 39.8216 118.997 39.7111 118.853 39.7948Z" fill="#CC765E"/>
<path d="M110.501 46.5333C110.433 46.4141 110.206 46.4292 110.132 46.5333C109.907 46.8554 109.732 47.2258 109.28 47.3826C108.733 47.5726 108.076 47.2956 107.857 46.8672C107.717 46.5934 107.193 46.689 107.289 46.9928C107.517 47.7143 108.368 48.2233 109.306 48.059C110.131 47.9162 110.885 47.2097 110.501 46.5333Z" fill="#CC765E"/>
<path d="M112.283 50.5219C109.893 51.4506 107.973 51.4979 105.432 50.9546C105.158 50.8955 105.006 51.1983 105.242 51.3186C107.376 52.4073 110.628 52.2118 112.632 51.0018C112.983 50.7892 112.691 50.363 112.283 50.5219Z" fill="#CC765E"/>
<path d="M125.941 41.8864C124.908 40.6474 122.031 42.0067 122.631 43.3531C122.685 43.4765 122.927 43.5334 123.012 43.3928C123.266 42.973 123.398 42.5532 123.937 42.2977C124.501 42.0303 125.122 42.1914 125.731 42.1806C125.906 42.1774 126.048 42.0131 125.941 41.8864Z" fill="#CC765E"/>
<path d="M95.5388 41.781C95.0412 41.4492 94.1459 41.2206 93.6375 41.6393C93.5054 41.7477 93.5788 41.9045 93.7416 41.9549C94.1752 42.0881 94.6302 42.0151 95.0372 42.2427C95.4988 42.5014 95.6749 42.9438 95.6162 43.3818C95.5815 43.6331 96.0899 43.6825 96.1606 43.4409C96.3394 42.8257 96.1633 42.1976 95.5388 41.781Z" fill="#CC765E"/>
<path d="M105.841 35.9316C105.043 35.5343 104.334 35.1672 103.359 35.1264C102.928 35.106 102.561 35.1768 102.208 35.2788C102.664 34.9728 103.158 34.6776 103.689 34.392C104.664 34.6368 105.829 35.0952 106.196 35.6449C106.321 35.8189 106.068 36.0433 105.841 35.9316Z" fill="#874B2E"/>
<path fill-rule="evenodd" clip-rule="evenodd" d="M37.2933 129.78C38.0425 129.697 38.7818 129.634 39.524 129.496C46.0958 128.276 52.4055 125.666 58.4354 122.521C65.0355 119.079 71.2465 114.719 76.8802 109.705C84.7771 102.677 91.7717 94.4713 96.7731 85.4275C98.9791 81.4382 100.637 77.2519 102.088 73.0606C102.148 72.9194 102.081 72.7566 101.94 72.6968C101.799 72.637 101.636 72.7035 101.576 72.8447C99.6192 76.7517 97.2382 80.473 94.7943 84.2406C89.3015 92.7075 82.8089 100.849 75.1425 107.765C69.6762 112.697 63.7302 117.065 57.429 120.682C51.6383 124.006 45.5035 126.482 39.2874 128.588C38.5793 128.828 37.9031 129.113 37.1982 129.362C37.0831 129.389 37.0109 129.504 37.0372 129.619C37.0635 129.734 37.1784 129.806 37.2933 129.78Z" fill="black"/>
<path fill-rule="evenodd" clip-rule="evenodd" d="M101.576 72.8445C101.813 76.4407 101.785 81.2197 101.828 82.5639L101.994 87.3872C102.136 89.1856 102.457 90.6495 103.5 90.3246C104.773 90.3704 104.369 87.934 104.446 87.328L104.516 82.5319C104.53 80.9689 104.666 73.1631 104.465 69.9616C104.36 68.2865 103.571 67.3971 103.381 67.2968C102.923 67.0548 102.08 66.9377 101.166 67.609C100.063 68.4184 97.9491 71.3123 97.6421 71.6529C95.9865 73.5896 94.2244 75.4079 92.467 77.2322C89.8003 80.0011 87.1179 82.7164 84.2384 85.2943C83.9686 85.5047 83.9211 85.894 84.1305 86.1635C84.3408 86.4332 84.7308 86.4817 84.9997 86.2711C87.1921 84.8345 89.3542 83.4114 91.4067 81.8029C94.4909 79.3859 97.312 76.6653 100.045 73.8237C100.18 73.6766 100.942 73.2136 101.576 72.8445Z" fill="black"/>
<path fill-rule="evenodd" clip-rule="evenodd" d="M181.59 128.78C180.841 128.697 180.102 128.634 179.36 128.496C172.788 127.276 166.478 124.666 160.448 121.521C153.848 118.079 147.637 113.719 142.004 108.705C134.107 101.677 127.112 93.4713 122.111 84.4275C119.905 80.4382 118.246 76.2519 116.796 72.0606C116.736 71.9194 116.802 71.7566 116.944 71.6968C117.085 71.637 117.248 71.7035 117.307 71.8447C119.265 75.7517 121.646 79.473 124.089 83.2406C129.582 91.7075 136.075 99.8495 143.741 106.765C149.208 111.697 155.154 116.065 161.455 119.682C167.245 123.006 173.38 125.482 179.596 127.588C180.305 127.828 180.981 128.113 181.686 128.362C181.801 128.389 181.873 128.504 181.847 128.619C181.82 128.734 181.705 128.806 181.59 128.78Z" fill="black"/>
<path fill-rule="evenodd" clip-rule="evenodd" d="M117.308 71.8445C117.071 75.4407 117.099 80.2197 117.055 81.5639L116.889 86.3872C116.748 88.1856 116.427 89.6495 115.384 89.3246C114.11 89.3704 114.515 86.934 114.437 86.328L114.368 81.5319C114.354 79.9689 114.218 72.1631 114.418 68.9616C114.524 67.2865 115.313 66.3971 115.503 66.2968C115.961 66.0548 116.803 65.9377 117.718 66.609C118.821 67.4184 120.935 70.3123 121.242 70.6529C122.897 72.5896 124.659 74.4079 126.417 76.2322C129.083 79.0011 131.766 81.7164 134.645 84.2943C134.915 84.5047 134.963 84.894 134.753 85.1635C134.543 85.4332 134.153 85.4817 133.884 85.2711C131.692 83.8345 129.53 82.4114 127.477 80.8029C124.393 78.3859 121.572 75.6653 118.839 72.8237C118.704 72.6766 117.942 72.2136 117.308 71.8445Z" fill="black"/>
</svg>
