<svg width="224" height="222" viewBox="0 0 224 222" fill="none" xmlns="http://www.w3.org/2000/svg">
<path d="M0 0H224V222H0V0Z" fill="white"/>
<path opacity="0.19" d="M112 220.725C166.124 220.725 210 171.761 210 111.362C210 50.9632 166.124 2 112 2C57.8761 2 14 50.9632 14 111.362C14 171.761 57.8761 220.725 112 220.725Z" fill="#AD00FF"/>
<path opacity="0.19" fill-rule="evenodd" clip-rule="evenodd" d="M112 219.725C165.471 219.725 209 171.315 209 111.362C209 51.4095 165.471 3 112 3C58.5287 3 15 51.4095 15 111.362C15 171.315 58.5287 219.725 112 219.725ZM210 111.362C210 171.761 166.124 220.725 112 220.725C57.8761 220.725 14 171.761 14 111.362C14 50.9632 57.8761 2 112 2C166.124 2 210 50.9632 210 111.362Z" fill="black"/>
<path d="M81.1637 15.4382C81.1637 15.4382 94.7731 11.7448 114.555 12.5093C134.336 13.2737 140.982 13.4004 142.882 14.2915C142.882 14.2915 145.731 8.56138 150.637 10.3437C150.637 10.3437 152.061 14.9282 145.89 16.7105C145.89 16.7105 149.055 26.3886 148.897 37.2133C148.74 48.038 146.365 55.296 146.365 55.296C146.365 55.296 151.271 56.8238 150.637 59.7528C150.637 59.7528 145.415 60.8984 142.091 57.715C142.091 57.715 114.081 63.1907 81.4812 60.5161C81.4812 60.5161 78.9488 63.3173 74.8353 62.6807C74.8353 62.6807 73.5691 59.7517 79.1076 56.8227C79.1076 56.8227 72.9353 44.2157 73.8853 33.6465C74.8353 23.0774 78.1576 17.8561 78.1576 17.8561C78.1576 17.8561 71.6691 17.9839 71.9853 13.2716C71.9853 13.2716 76.2576 10.217 81.1637 15.4382Z" fill="#7867E0"/>
<path d="M121.676 18.7913C121.676 18.7913 115.979 13.4434 106.061 18.7913C96.1437 24.1392 94.9843 34.4969 95.0897 39.7611C95.1951 45.0242 93.3031 48.2957 92.5573 49.6088C90.3424 53.5137 91.7661 58.0134 94.7721 59.2449C97.933 60.5387 106.905 61.4094 116.295 61.2398C125.684 61.0702 134.336 59.1172 136.129 53.6844C137.922 48.2516 134.336 45.8735 134.441 39.2522C134.548 32.6287 132.544 16.6686 121.676 18.7913Z" fill="#874B2E"/>
<path d="M124.209 73.2055C122.943 78.4729 113.03 81.5286 113.03 81.5286C113.03 81.5286 110.701 80.8457 106.067 77.9629C101.421 75.0801 99.9399 63.5275 99.9399 63.5275C100.572 62.5085 108.384 60.8175 109.233 59.7986C109.74 59.177 109.701 57.2819 109.6 55.9066C109.537 55.0305 109.436 54.3583 109.436 54.3583L116.462 54.2767C116.462 54.2767 116.323 55.1829 116.285 56.3038C116.234 57.6792 116.335 59.3906 117.032 60.1347C118.298 61.4896 124.995 62.0501 124.995 62.0501C124.995 62.0501 125.475 67.9488 124.209 73.2055Z" fill="#FFC990"/>
<path d="M116.46 54.278C116.46 54.278 116.322 55.1841 116.283 56.305C115.346 56.7334 114.295 57.0491 113.295 56.9568C112.169 56.8451 110.802 56.3963 109.598 55.9078C109.535 55.0317 109.434 54.3596 109.434 54.3596L116.46 54.278Z" fill="#F7A386"/>
<path d="M130.754 40.3312C130.957 43.9677 124.526 46.8924 124.526 46.8924C124.526 47.6568 121.348 55.9799 112.815 55.6739C104.486 55.3787 102.055 47.5752 102.055 47.5752C102.055 47.5752 97.0925 45.3645 96.6735 42.0534C95.9143 36.145 101.105 39.5066 101.105 39.5066C101.105 39.5066 102.332 36.8482 106.193 34.2907L106.205 34.2811C106.662 33.9751 107.155 33.6798 107.686 33.3942C108.914 32.7017 110.358 32.05 112.029 31.4896C119.461 28.9836 120.41 25.0712 120.41 25.0712C120.41 25.0712 122.106 28.5144 123.992 31.1836C127.473 36.1138 126.74 39.2522 126.74 39.2522C126.74 39.2522 130.538 36.7044 130.754 40.3312Z" fill="#FFC990"/>
<path d="M100.998 70.4925C101.621 77.948 96.3558 87.0044 95.7754 88.5752C95.195 90.146 92.6105 98.7632 91.7139 100.078C90.8173 101.394 91.2389 104.45 89.6044 108.526C87.97 112.602 81.9551 122.237 81.3747 125.463C80.7943 128.69 82.3994 130.541 82.6409 132.679C82.9051 135.013 81.5855 137.518 80.5315 137.433C79.4761 137.349 79.1078 135.863 79.5295 134.802C79.9511 133.741 79.8991 132.51 79.3187 132.425C78.7382 132.34 77.1038 134.335 76.6288 135.439C76.1538 136.542 77.3666 140.745 76.3646 141.89C75.3626 143.036 74.1497 140.956 74.1497 140.956C73.3585 141.975 72.4619 139.64 72.4619 139.64C71.8295 139.852 71.9869 139.046 71.2491 135.522C70.5112 131.999 71.5132 130.004 72.9369 128.476C74.3605 126.948 76.418 123.976 76.6288 119.902C76.8396 115.827 80.6382 102.838 83.6977 97.7432C86.7571 92.6498 85.3855 82.9717 87.1788 74.6519C88.972 66.332 95.2497 64.7612 98.7307 63.8271C98.7307 63.8271 100.576 65.4409 100.998 70.4925Z" fill="#FFC990"/>
<path d="M126.741 62.3005C126.741 62.3005 123.396 73.7168 126.899 80.7655C129.748 86.4956 130.38 87.5145 132.438 92.9902C133.503 95.8258 134.179 95.7914 134.336 98.0837C134.494 100.376 135.342 108.511 139.4 117.525C140.685 120.379 142.629 121.978 142.881 126.099C142.992 127.92 140.349 130.599 141.193 133.4C142.038 136.201 143.303 136.796 143.515 134.588C143.727 132.381 143.409 131.277 144.359 131.447C145.309 131.617 146.047 132.211 146.574 133.909C147.101 135.606 146.258 139.512 147.207 139.767C148.155 140.021 148.789 138.578 148.789 138.578C148.789 138.578 149.422 140.191 150.477 138.748C151.532 137.305 153.009 131.447 152.376 129.409C151.742 127.371 148.577 125.504 148.155 123.636C147.734 121.768 146.257 109.119 143.303 100.035C140.349 90.9503 139.927 85.6872 139.716 79.6596C139.505 73.6342 137.712 64.3802 126.741 62.3005Z" fill="#FFC990"/>
<path d="M110.282 188.498C108.536 196.853 106.484 200.978 107.27 201.742C108.068 202.507 109.498 204.543 107.118 207.223C104.737 209.892 105.535 212.694 103.801 214.477C102.054 216.259 102.294 215.373 101.66 216.259C101.027 217.145 101.268 219.255 99.6724 219.509C98.1019 219.764 97.5455 219.183 97.6216 218.674C97.6216 218.674 96.1152 218.806 96.0392 217.92C96.0392 217.92 94.773 217.788 95.0131 217.085C95.0131 217.085 93.2666 217.085 93.5828 215.882C93.5828 215.882 91.9243 215.556 93.5828 214.028C95.2413 212.5 97.0639 210.462 98.178 208.558C99.2801 206.642 101.267 203.658 101.343 201.742C101.419 199.827 99.2027 167.359 97.6203 162.011C96.709 158.945 96.0632 153.636 95.6709 149.653C95.6336 149.235 95.5949 148.827 95.5575 148.441C95.3547 146.087 95.2413 144.437 95.2413 144.437L111.699 147.626C111.699 147.626 111.586 149.307 111.408 151.436C111.383 151.661 111.371 151.885 111.346 152.119C111.131 154.778 110.839 157.875 110.599 159.21C110.13 161.757 113.447 173.339 110.282 188.498Z" fill="#FFC990"/>
<path d="M95.2417 144.437L111.7 147.626C111.7 147.626 111.586 149.307 111.409 151.436L95.5579 148.441C95.3564 146.087 95.2417 144.437 95.2417 144.437Z" fill="#F7A386"/>
<path d="M132.907 215.882C133.223 217.085 131.489 217.085 131.489 217.085C131.729 217.788 130.463 217.92 130.463 217.92C130.375 218.807 128.88 218.685 128.88 218.685C128.956 219.193 128.398 219.765 126.816 219.51C125.234 219.256 125.474 217.157 124.841 216.26C124.209 215.373 124.449 216.26 122.701 214.478C120.967 212.696 121.751 209.893 119.384 207.215C117.004 204.545 118.434 202.508 119.22 201.744C120.018 200.98 117.954 196.855 116.219 188.5C113.055 173.341 116.371 161.759 115.903 159.211C115.65 157.906 115.371 154.881 115.156 152.252C115.119 151.835 115.08 151.427 115.055 151.04C114.89 149.104 114.789 147.617 114.789 147.617L126.336 145.386L131.248 144.439C131.248 144.439 131.198 145.265 131.071 146.568C131.058 146.854 131.034 147.17 131.008 147.495C130.971 147.79 130.946 148.117 130.92 148.442C130.565 152.496 129.882 158.63 128.881 162.012C127.299 167.36 125.083 199.838 125.159 201.743C125.235 203.659 127.21 206.643 128.324 208.559C129.425 210.463 131.248 212.501 132.907 214.029C134.577 215.556 132.907 215.882 132.907 215.882Z" fill="#FFC990"/>
<path d="M132.995 147.045L131.007 147.494L115.055 151.039C114.89 149.103 114.789 147.616 114.789 147.616L126.336 145.385L131.071 146.567L132.995 147.045Z" fill="#F7A386"/>
<path d="M97.4648 63.8284C97.4648 63.8284 100.155 62.1728 101.632 62.3424C101.632 62.3424 102.264 71.8508 104.796 74.2279C107.329 76.605 111.337 79.3214 114.08 79.6617C114.08 79.6617 120.833 75.2468 122.521 71.1722C124.209 67.0977 123.576 61.9183 123.576 61.9183C123.576 61.9183 125.634 61.5361 127.216 62.3005C127.216 62.3005 126.741 71.5115 127.586 72.8697C128.43 74.2279 133.283 77.2846 132.861 82.5478C132.44 87.8109 128.641 89.1701 128.641 89.1701C128.641 89.1701 127.586 98.1696 128.43 100.376C128.43 100.376 135.815 115.488 136.026 125.505C136.237 135.522 135.182 145.711 135.182 145.711C135.182 145.711 112.605 152.162 90.2384 146.729C90.2384 146.729 87.2844 120.242 92.3479 110.734C97.4114 101.225 97.6235 100.546 97.6235 98.6785C97.6235 96.8114 96.779 89.5094 96.779 89.5094C96.779 89.5094 90.4492 85.7741 93.1925 80.1707C95.9357 74.5672 98.256 74.7368 98.256 72.3597C98.256 69.9826 97.4648 63.8284 97.4648 63.8284Z" fill="#E52968"/>
<path d="M120.603 33.6206C119.563 33.524 118.443 33.976 117.931 34.7093C117.771 34.938 118.132 35.142 118.366 34.9799C119.034 34.5182 119.791 34.2788 120.669 34.5021C121.41 34.6911 121.651 35.2096 122.222 35.5564C122.507 35.7304 122.87 35.4899 122.883 35.2504C122.937 34.3786 121.556 33.7097 120.603 33.6206Z" fill="#874B2E"/>
<path d="M109.878 38.6864C109.104 38.9773 108.419 39.3703 107.547 39.439C106.495 39.5227 105.604 39.1373 104.755 38.6885C104.494 38.55 104.199 38.8184 104.34 39.0224C105.477 40.6501 109.415 40.9249 110.208 38.8914C110.273 38.7282 110.044 38.6241 109.878 38.6864Z" fill="#CC765E"/>
<path d="M122.853 38.7948C122.04 39.2651 121.454 39.8545 120.367 39.9017C119.203 39.9522 118.632 39.3102 117.642 39.0374C117.508 38.9999 117.349 39.0997 117.357 39.2125C117.434 40.3269 119.343 40.8262 120.514 40.7328C121.684 40.6394 123.082 39.9801 123.225 38.9666C123.245 38.8216 122.997 38.7111 122.853 38.7948Z" fill="#CC765E"/>
<path d="M114.501 45.5333C114.433 45.4141 114.206 45.4292 114.132 45.5333C113.907 45.8554 113.732 46.2258 113.28 46.3826C112.733 46.5726 112.076 46.2956 111.857 45.8672C111.717 45.5934 111.193 45.689 111.289 45.9928C111.517 46.7143 112.368 47.2233 113.306 47.059C114.131 46.9162 114.885 46.2097 114.501 45.5333Z" fill="#CC765E"/>
<path d="M116.283 49.5219C113.893 50.4506 111.973 50.4979 109.432 49.9546C109.158 49.8955 109.006 50.1983 109.242 50.3186C111.376 51.4073 114.628 51.2118 116.632 50.0018C116.983 49.7892 116.691 49.363 116.283 49.5219Z" fill="#CC765E"/>
<path d="M129.941 40.8864C128.908 39.6474 126.031 41.0067 126.631 42.3531C126.685 42.4765 126.927 42.5334 127.012 42.3928C127.266 41.973 127.398 41.5532 127.937 41.2977C128.501 41.0303 129.122 41.1914 129.731 41.1806C129.906 41.1774 130.048 41.0131 129.941 40.8864Z" fill="#CC765E"/>
<path d="M99.5388 40.781C99.0412 40.4492 98.1459 40.2206 97.6375 40.6393C97.5054 40.7477 97.5788 40.9045 97.7416 40.9549C98.1752 41.0881 98.6302 41.0151 99.0372 41.2427C99.4988 41.5014 99.6749 41.9438 99.6162 42.3818C99.5815 42.6331 100.09 42.6825 100.161 42.4409C100.339 41.8257 100.163 41.1976 99.5388 40.781Z" fill="#CC765E"/>
<path d="M109.841 34.9316C109.043 34.5343 108.334 34.1672 107.359 34.1264C106.928 34.106 106.561 34.1768 106.208 34.2788C106.664 33.9728 107.158 33.6776 107.689 33.392C108.664 33.6368 109.829 34.0952 110.196 34.6449C110.321 34.8189 110.068 35.0433 109.841 34.9316Z" fill="#874B2E"/>
</svg>
