<svg width="224" height="222" viewBox="0 0 224 222" fill="none" xmlns="http://www.w3.org/2000/svg">
<path d="M0 0H224V222H0V0Z" fill="white"/>
<path opacity="0.19" d="M112 218.725C166.124 218.725 210 169.761 210 109.362C210 48.9632 166.124 0 112 0C57.8761 0 14 48.9632 14 109.362C14 169.761 57.8761 218.725 112 218.725Z" fill="#AD00FF"/>
<path opacity="0.19" fill-rule="evenodd" clip-rule="evenodd" d="M112 217.725C165.471 217.725 209 169.315 209 109.362C209 49.4095 165.471 1 112 1C58.5287 1 15 49.4095 15 109.362C15 169.315 58.5287 217.725 112 217.725ZM210 109.362C210 169.761 166.124 218.725 112 218.725C57.8761 218.725 14 169.761 14 109.362C14 48.9632 57.8761 0 112 0C166.124 0 210 48.9632 210 109.362Z" fill="black"/>
<path d="M81.1642 13.4382C81.1642 13.4382 94.7736 9.74481 114.555 10.5093C134.337 11.2737 140.983 11.4004 142.883 12.2915C142.883 12.2915 145.732 6.56138 150.638 8.34367C150.638 8.34367 152.061 12.9282 145.89 14.7105C145.89 14.7105 149.055 24.3886 148.898 35.2133C148.74 46.038 146.365 53.296 146.365 53.296C146.365 53.296 151.271 54.8238 150.638 57.7528C150.638 57.7528 145.415 58.8984 142.092 55.715C142.092 55.715 114.082 61.1907 81.4817 58.5161C81.4817 58.5161 78.9493 61.3173 74.8358 60.6807C74.8358 60.6807 73.5696 57.7517 79.1081 54.8227C79.1081 54.8227 72.9358 42.2157 73.8858 31.6465C74.8358 21.0774 78.1581 15.8561 78.1581 15.8561C78.1581 15.8561 71.6696 15.9839 71.9858 11.2716C71.9858 11.2716 76.2581 8.21697 81.1642 13.4382Z" fill="#7867E0"/>
<path d="M121.677 16.7913C121.677 16.7913 115.979 11.4434 106.062 16.7913C96.1442 22.1392 94.9848 32.4969 95.0902 37.7611C95.1956 43.0242 93.3036 46.2957 92.5577 47.6088C90.3429 51.5137 91.7665 56.0134 94.7726 57.2449C97.9335 58.5387 106.905 59.4094 116.296 59.2398C125.685 59.0702 134.336 57.1172 136.129 51.6844C137.922 46.2516 134.336 43.8735 134.441 37.2522C134.548 30.6287 132.544 14.6686 121.677 16.7913Z" fill="#874B2E"/>
<path d="M124.209 71.2055C122.943 76.4729 113.031 79.5286 113.031 79.5286C113.031 79.5286 110.701 78.8457 106.067 75.9629C101.421 73.0801 99.9404 61.5275 99.9404 61.5275C100.573 60.5085 108.385 58.8175 109.234 57.7986C109.741 57.177 109.702 55.2819 109.6 53.9066C109.538 53.0305 109.436 52.3583 109.436 52.3583L116.463 52.2767C116.463 52.2767 116.324 53.1829 116.285 54.3038C116.234 55.6792 116.336 57.3906 117.032 58.1347C118.298 59.4896 124.995 60.0501 124.995 60.0501C124.995 60.0501 125.475 65.9488 124.209 71.2055Z" fill="#FFC990"/>
<path d="M116.46 52.278C116.46 52.278 116.321 53.1841 116.282 54.305C115.346 54.7334 114.294 55.0491 113.295 54.9568C112.169 54.8451 110.801 54.3963 109.598 53.9078C109.535 53.0317 109.434 52.3596 109.434 52.3596L116.46 52.278Z" fill="#F7A386"/>
<path d="M130.754 38.3312C130.957 41.9677 124.526 44.8924 124.526 44.8924C124.526 45.6568 121.348 53.9799 112.815 53.6739C104.486 53.3787 102.055 45.5752 102.055 45.5752C102.055 45.5752 97.0925 43.3645 96.6735 40.0534C95.9143 34.145 101.105 37.5066 101.105 37.5066C101.105 37.5066 102.332 34.8482 106.193 32.2907L106.205 32.2811C106.662 31.9751 107.155 31.6798 107.686 31.3942C108.914 30.7017 110.358 30.05 112.029 29.4896C119.461 26.9836 120.41 23.0712 120.41 23.0712C120.41 23.0712 122.106 26.5144 123.992 29.1836C127.473 34.1138 126.74 37.2522 126.74 37.2522C126.74 37.2522 130.538 34.7044 130.754 38.3312Z" fill="#FFC990"/>
<path d="M100.998 68.4925C101.621 75.948 96.3558 85.0044 95.7754 86.5752C95.195 88.146 92.6105 96.7632 91.7139 98.0784C90.8173 99.3937 91.2389 102.45 89.6044 106.526C87.97 110.602 81.9551 120.237 81.3747 123.463C80.7943 126.69 82.3994 128.541 82.6409 130.679C82.9051 133.013 81.5855 135.518 80.5315 135.433C79.4761 135.349 79.1078 133.863 79.5295 132.802C79.9511 131.741 79.8991 130.51 79.3187 130.425C78.7382 130.34 77.1038 132.335 76.6288 133.439C76.1538 134.542 77.3666 138.745 76.3646 139.89C75.3626 141.036 74.1497 138.956 74.1497 138.956C73.3585 139.975 72.4619 137.64 72.4619 137.64C71.8295 137.852 71.9869 137.046 71.2491 133.522C70.5112 129.999 71.5132 128.004 72.9369 126.476C74.3605 124.948 76.418 121.976 76.6288 117.902C76.8396 113.827 80.6382 100.838 83.6977 95.7432C86.7571 90.6498 85.3855 80.9717 87.1788 72.6519C88.972 64.332 95.2497 62.7612 98.7307 61.8271C98.7307 61.8271 100.576 63.4409 100.998 68.4925Z" fill="#FFC990"/>
<path d="M126.741 60.3005C126.741 60.3005 123.396 71.7168 126.899 78.7655C129.748 84.4956 130.38 85.5145 132.438 90.9902C133.503 93.8258 134.179 93.7914 134.336 96.0837C134.494 98.376 135.342 106.511 139.4 115.525C140.685 118.379 142.629 119.978 142.881 124.099C142.992 125.92 140.349 128.599 141.193 131.4C142.038 134.201 143.303 134.796 143.515 132.588C143.727 130.381 143.409 129.277 144.359 129.447C145.309 129.617 146.047 130.211 146.574 131.909C147.101 133.606 146.258 137.512 147.207 137.767C148.155 138.021 148.789 136.578 148.789 136.578C148.789 136.578 149.422 138.191 150.477 136.748C151.532 135.305 153.009 129.447 152.376 127.409C151.742 125.371 148.577 123.504 148.155 121.636C147.734 119.768 146.257 107.119 143.303 98.0346C140.349 88.9503 139.927 83.6872 139.716 77.6596C139.505 71.6342 137.712 62.3802 126.741 60.3005Z" fill="#FFC990"/>
<path d="M110.282 186.498C108.536 194.853 106.484 198.978 107.27 199.742C108.068 200.507 109.498 202.543 107.118 205.223C104.737 207.892 105.535 210.694 103.801 212.477C102.054 214.259 102.294 213.373 101.66 214.259C101.027 215.145 101.268 217.255 99.6724 217.509C98.1019 217.764 97.5455 217.183 97.6216 216.674C97.6216 216.674 96.1152 216.806 96.0392 215.92C96.0392 215.92 94.773 215.788 95.0131 215.085C95.0131 215.085 93.2666 215.085 93.5828 213.882C93.5828 213.882 91.9243 213.556 93.5828 212.028C95.2413 210.5 97.0639 208.462 98.178 206.558C99.2801 204.642 101.267 201.658 101.343 199.742C101.419 197.827 99.2027 165.359 97.6203 160.011C96.709 156.945 96.0632 151.636 95.6709 147.653C95.6336 147.235 95.5949 146.827 95.5575 146.441C95.3547 144.087 95.2413 142.437 95.2413 142.437L111.699 145.626C111.699 145.626 111.586 147.307 111.408 149.436C111.383 149.661 111.371 149.885 111.346 150.119C111.131 152.778 110.839 155.875 110.599 157.21C110.13 159.757 113.447 171.339 110.282 186.498Z" fill="#FFC990"/>
<path d="M95.2422 142.437L111.7 145.626C111.7 145.626 111.587 147.307 111.409 149.436L95.5584 146.441C95.3569 144.087 95.2422 142.437 95.2422 142.437Z" fill="#F7A386"/>
<path d="M132.907 213.882C133.223 215.085 131.489 215.085 131.489 215.085C131.729 215.788 130.463 215.92 130.463 215.92C130.375 216.807 128.88 216.685 128.88 216.685C128.956 217.193 128.398 217.765 126.816 217.51C125.234 217.256 125.474 215.157 124.841 214.26C124.209 213.373 124.449 214.26 122.701 212.478C120.967 210.696 121.751 207.893 119.384 205.215C117.004 202.545 118.434 200.508 119.22 199.744C120.018 198.98 117.954 194.855 116.219 186.5C113.055 171.341 116.371 159.759 115.903 157.211C115.65 155.906 115.371 152.881 115.156 150.252C115.119 149.835 115.08 149.427 115.055 149.04C114.89 147.104 114.789 145.617 114.789 145.617L126.336 143.386L131.248 142.439C131.248 142.439 131.198 143.265 131.071 144.568C131.058 144.854 131.034 145.17 131.008 145.495C130.971 145.79 130.946 146.117 130.92 146.442C130.565 150.496 129.882 156.63 128.881 160.012C127.299 165.36 125.083 197.838 125.159 199.743C125.235 201.659 127.21 204.643 128.324 206.559C129.425 208.463 131.248 210.501 132.907 212.029C134.577 213.556 132.907 213.882 132.907 213.882Z" fill="#FFC990"/>
<path d="M132.995 145.045L131.007 145.494L115.055 149.039C114.89 147.103 114.789 145.616 114.789 145.616L126.336 143.385L131.071 144.567L132.995 145.045Z" fill="#F7A386"/>
<path d="M97.4648 61.8284C97.4648 61.8284 100.155 60.1728 101.632 60.3424C101.632 60.3424 102.264 69.8508 104.796 72.2279C107.329 74.605 111.337 77.3214 114.08 77.6617C114.08 77.6617 120.833 73.2468 122.521 69.1722C124.209 65.0977 123.576 59.9183 123.576 59.9183C123.576 59.9183 125.634 59.5361 127.216 60.3005C127.216 60.3005 126.741 69.5115 127.586 70.8697C128.43 72.2279 133.283 75.2846 132.861 80.5478C132.44 85.8109 128.641 87.1701 128.641 87.1701C128.641 87.1701 127.586 96.1696 128.43 98.376C128.43 98.376 135.815 113.488 136.026 123.505C136.237 133.522 135.182 143.711 135.182 143.711C135.182 143.711 112.605 150.162 90.2384 144.729C90.2384 144.729 87.2844 118.242 92.3479 108.734C97.4114 99.2253 97.6235 98.5456 97.6235 96.6785C97.6235 94.8114 96.779 87.5094 96.779 87.5094C96.779 87.5094 90.4492 83.7741 93.1925 78.1707C95.9357 72.5672 98.256 72.7368 98.256 70.3597C98.256 67.9826 97.4648 61.8284 97.4648 61.8284Z" fill="#E52968"/>
<path d="M120.603 31.6206C119.562 31.524 118.443 31.976 117.93 32.7093C117.77 32.938 118.132 33.142 118.365 32.9799C119.034 32.5182 119.79 32.2788 120.668 32.5021C121.41 32.6911 121.65 33.2096 122.221 33.5564C122.507 33.7304 122.87 33.4899 122.883 33.2504C122.936 32.3786 121.555 31.7097 120.603 31.6206Z" fill="#874B2E"/>
<path d="M109.878 36.6864C109.104 36.9773 108.419 37.3703 107.547 37.439C106.495 37.5227 105.604 37.1373 104.755 36.6885C104.494 36.55 104.199 36.8184 104.34 37.0224C105.477 38.6501 109.415 38.9249 110.208 36.8914C110.273 36.7282 110.044 36.6241 109.878 36.6864Z" fill="#CC765E"/>
<path d="M122.853 36.7948C122.04 37.2651 121.454 37.8545 120.367 37.9017C119.203 37.9522 118.632 37.3102 117.642 37.0374C117.508 36.9999 117.349 37.0997 117.357 37.2125C117.434 38.3269 119.343 38.8262 120.514 38.7328C121.684 38.6394 123.082 37.9801 123.225 36.9666C123.245 36.8216 122.997 36.7111 122.853 36.7948Z" fill="#CC765E"/>
<path d="M114.501 43.5333C114.433 43.4141 114.206 43.4292 114.132 43.5333C113.907 43.8554 113.732 44.2258 113.28 44.3826C112.733 44.5726 112.076 44.2956 111.857 43.8672C111.717 43.5934 111.193 43.689 111.289 43.9928C111.517 44.7143 112.368 45.2233 113.306 45.059C114.131 44.9162 114.885 44.2097 114.501 43.5333Z" fill="#CC765E"/>
<path d="M116.283 47.5219C113.893 48.4506 111.973 48.4979 109.432 47.9546C109.158 47.8955 109.006 48.1983 109.242 48.3186C111.376 49.4073 114.628 49.2118 116.632 48.0018C116.983 47.7892 116.691 47.363 116.283 47.5219Z" fill="#CC765E"/>
<path d="M129.94 38.8864C128.908 37.6474 126.031 39.0067 126.63 40.3531C126.685 40.4765 126.926 40.5334 127.012 40.3928C127.265 39.973 127.397 39.5532 127.936 39.2977C128.501 39.0303 129.121 39.1914 129.731 39.1806C129.906 39.1774 130.047 39.0131 129.94 38.8864Z" fill="#CC765E"/>
<path d="M99.5388 38.781C99.0412 38.4492 98.1459 38.2206 97.6375 38.6393C97.5054 38.7477 97.5788 38.9045 97.7416 38.9549C98.1752 39.0881 98.6302 39.0151 99.0372 39.2427C99.4988 39.5014 99.6749 39.9438 99.6162 40.3818C99.5815 40.6331 100.09 40.6825 100.161 40.4409C100.339 39.8257 100.163 39.1976 99.5388 38.781Z" fill="#CC765E"/>
<path d="M109.84 32.9316C109.042 32.5343 108.334 32.1672 107.358 32.1264C106.928 32.106 106.561 32.1768 106.207 32.2788C106.663 31.9728 107.157 31.6776 107.688 31.392C108.663 31.6368 109.828 32.0952 110.195 32.6449C110.321 32.8189 110.067 33.0433 109.84 32.9316Z" fill="#874B2E"/>
<path fill-rule="evenodd" clip-rule="evenodd" d="M110.178 62.4202C110.065 63.1654 109.972 63.9016 109.804 64.6375C108.318 71.1545 105.454 77.3531 102.067 83.2504C98.3602 89.7055 93.7527 95.7346 88.5138 101.16C81.1709 108.766 72.6887 115.422 63.4495 120.052C59.374 122.095 55.1239 123.582 50.8772 124.861C50.7337 124.915 50.5737 124.842 50.5197 124.698C50.4657 124.555 50.5387 124.395 50.6822 124.341C54.6653 122.544 58.4802 120.316 62.3438 118.027C71.0265 112.882 79.4252 106.725 86.6459 99.3454C91.7952 94.0835 96.401 88.3196 100.271 82.1703C103.827 76.5192 106.55 70.4899 108.906 64.3643C109.175 63.6665 109.487 63.0025 109.764 62.3083C109.796 62.1944 109.914 62.1269 110.028 62.1578C110.141 62.1888 110.209 62.3064 110.178 62.4202Z" fill="black"/>
<path fill-rule="evenodd" clip-rule="evenodd" d="M50.6814 124.34C54.265 124.723 59.0412 124.889 60.3825 124.987L65.1952 125.349C66.9863 125.563 68.4359 125.943 68.069 126.972C68.0631 128.246 65.6452 127.744 65.0365 127.796L60.2416 127.671C58.6793 127.622 50.8744 127.441 47.6837 127.111C46.0142 126.938 45.1576 126.113 45.065 125.919C44.8418 125.451 44.7589 124.605 45.4668 123.719C46.3203 122.649 49.2975 120.655 49.6503 120.362C51.6526 118.786 53.5408 117.099 55.435 115.417C58.3097 112.865 61.1315 110.295 63.8241 107.522C64.0453 107.261 64.4362 107.23 64.697 107.45C64.958 107.671 64.9906 108.062 64.7693 108.323C63.2449 110.455 61.7353 112.557 60.0448 114.543C57.5048 117.527 54.672 120.235 51.7218 122.851C51.5694 122.979 51.0759 123.722 50.6814 124.34Z" fill="black"/>
<path fill-rule="evenodd" clip-rule="evenodd" d="M116.789 62.2945C116.902 63.0397 116.995 63.7758 117.163 64.5118C118.648 71.0288 121.513 77.2273 124.899 83.1247C128.607 89.5798 133.214 95.6088 138.453 101.035C145.796 108.64 154.278 115.296 163.517 119.926C167.593 121.969 171.843 123.456 176.09 124.735C176.233 124.789 176.393 124.716 176.447 124.573C176.501 124.429 176.428 124.269 176.285 124.215C172.301 122.418 168.487 120.19 164.623 117.901C155.94 112.756 147.542 106.599 140.321 99.2196C135.172 93.9578 130.566 88.1939 126.696 82.0446C123.14 76.3935 120.417 70.3642 118.061 64.2386C117.792 63.5408 117.48 62.8767 117.202 62.1825C117.171 62.0686 117.053 62.0012 116.939 62.032C116.826 62.063 116.758 62.1807 116.789 62.2945Z" fill="black"/>
<path fill-rule="evenodd" clip-rule="evenodd" d="M176.285 124.214C172.702 124.598 167.926 124.763 166.584 124.861L161.772 125.223C159.981 125.437 158.531 125.818 158.898 126.846C158.904 128.121 161.322 127.618 161.93 127.67L166.725 127.546C168.288 127.496 176.092 127.315 179.283 126.985C180.953 126.812 181.809 125.987 181.902 125.793C182.125 125.326 182.208 124.479 181.5 123.593C180.647 122.523 177.669 120.529 177.316 120.236C175.314 118.66 173.426 116.973 171.532 115.291C168.657 112.739 165.835 110.169 163.143 107.397C162.921 107.135 162.531 107.104 162.27 107.324C162.009 107.545 161.976 107.937 162.198 108.197C163.722 110.329 165.231 112.432 166.922 114.417C169.462 117.401 172.295 120.109 175.245 122.725C175.397 122.853 175.891 123.596 176.285 124.214Z" fill="black"/>
</svg>
