<svg width="314" height="46" viewBox="0 0 314 46" fill="none" xmlns="http://www.w3.org/2000/svg">
<path d="M8.24209 17.36C7.26609 17.36 6.44209 17.208 5.77009 16.904C5.11409 16.6 4.56209 16.096 4.11409 15.392L3.92209 17H1.30609V4.544C1.30609 4.224 1.24209 3.984 1.11409 3.824C0.986094 3.664 0.754094 3.584 0.418094 3.584H0.0100938V1.112H4.76209V6.44C5.27409 5.976 5.82609 5.64 6.41809 5.432C7.01009 5.224 7.69809 5.12 8.48209 5.12C10.1621 5.12 11.4261 5.656 12.2741 6.728C13.1381 7.8 13.5701 9.344 13.5701 11.36C13.5701 13.264 13.0821 14.744 12.1061 15.8C11.1461 16.84 9.85809 17.36 8.24209 17.36ZM7.42609 15.2C8.30609 15.2 8.92209 14.896 9.27409 14.288C9.64209 13.664 9.82609 12.672 9.82609 11.312C9.82609 9.952 9.64209 8.976 9.27409 8.384C8.92209 7.776 8.29009 7.472 7.37809 7.472C6.62609 7.472 6.03409 7.752 5.60209 8.312C5.18609 8.856 4.97809 9.624 4.97809 10.616V11.936C4.97809 12.864 5.19409 13.64 5.62609 14.264C6.07409 14.888 6.67409 15.2 7.42609 15.2ZM19.337 17.36C16.585 17.36 15.209 16.016 15.209 13.328V8.816C15.209 8.224 14.897 7.928 14.273 7.928H13.721V5.48H19.001V13.304C19.001 13.912 19.129 14.352 19.385 14.624C19.657 14.896 20.065 15.032 20.609 15.032C21.169 15.032 21.601 14.88 21.905 14.576C22.225 14.272 22.385 13.808 22.385 13.184V8.816C22.385 8.512 22.321 8.288 22.193 8.144C22.081 8 21.873 7.928 21.569 7.928H21.065V5.48H27.593V7.928H26.993C26.689 7.928 26.473 8 26.345 8.144C26.233 8.288 26.177 8.512 26.177 8.816V13.64C26.177 13.944 26.249 14.176 26.393 14.336C26.537 14.48 26.777 14.552 27.113 14.552H27.593V17H23.801L23.633 15.464C23.057 16.152 22.441 16.64 21.785 16.928C21.145 17.216 20.329 17.36 19.337 17.36ZM34.1503 17.36C32.5183 17.36 31.2943 17.008 30.4783 16.304C29.6783 15.6 29.2783 14.584 29.2783 13.256V7.856H27.5023V5.48H29.2783V3.104L33.0703 2.072V5.48H36.2143V7.856H33.0703V13.592C33.0703 14.088 33.1743 14.456 33.3823 14.696C33.6063 14.92 33.9343 15.032 34.3663 15.032C34.8943 15.032 35.3103 14.888 35.6143 14.6V13.568H38.6623V15.8C37.4783 16.84 35.9743 17.36 34.1503 17.36ZM46.1647 14.576H46.8127C47.2287 14.576 47.5247 14.528 47.7007 14.432C47.8767 14.32 48.0287 14.088 48.1567 13.736L52.4287 1.472H56.1007L60.3007 13.736C60.4127 14.088 60.5567 14.32 60.7327 14.432C60.9247 14.528 61.2367 14.576 61.6687 14.576H62.2927V17H55.8127V14.576H56.8207L56.1487 12.368H52.3807L51.6607 14.576H52.6687V17H46.1647V14.576ZM55.5727 10.424L54.3007 6.296L52.9567 10.424H55.5727ZM67.0987 17.336C65.4827 17.336 64.2107 16.84 63.2827 15.848C62.3547 14.856 61.8907 13.416 61.8907 11.528C61.8907 9.464 62.3467 7.88 63.2587 6.776C64.1707 5.672 65.4987 5.12 67.2427 5.12C68.0267 5.12 68.6747 5.216 69.1867 5.408C69.6987 5.6 70.1947 5.928 70.6747 6.392V4.544C70.6747 4.224 70.6027 3.984 70.4587 3.824C70.3307 3.664 70.0987 3.584 69.7627 3.584H69.4027V1.112H74.1547V13.76C74.1547 14.112 74.2107 14.352 74.3227 14.48C74.4507 14.608 74.6747 14.672 74.9947 14.672H75.2827V17H71.5387L71.3467 15.464C70.8187 16.104 70.2187 16.576 69.5467 16.88C68.8907 17.184 68.0747 17.336 67.0987 17.336ZM68.0587 15.152C68.8587 15.152 69.4667 14.84 69.8827 14.216C70.2987 13.576 70.5067 12.776 70.5067 11.816V10.688C70.5067 9.664 70.3067 8.864 69.9067 8.288C69.5067 7.712 68.8987 7.424 68.0827 7.424C67.1867 7.424 66.5547 7.76 66.1867 8.432C65.8187 9.088 65.6347 10.096 65.6347 11.456C65.6347 12.8 65.8107 13.752 66.1627 14.312C66.5147 14.872 67.1467 15.152 68.0587 15.152ZM77.271 0.967999H81.159V3.848H77.271V0.967999ZM75.807 14.552H76.383C76.719 14.552 76.959 14.48 77.103 14.336C77.263 14.176 77.343 13.936 77.343 13.616V8.888C77.343 8.568 77.271 8.328 77.127 8.168C76.983 8.008 76.743 7.928 76.407 7.928H75.807V5.48H81.135V13.664C81.135 14.256 81.447 14.552 82.071 14.552H82.647V17H75.807V14.552ZM89.205 17.36C87.573 17.36 86.349 17.008 85.533 16.304C84.733 15.6 84.333 14.584 84.333 13.256V7.856H82.557V5.48H84.333V3.104L88.125 2.072V5.48H91.269V7.856H88.125V13.592C88.125 14.088 88.229 14.456 88.437 14.696C88.661 14.92 88.989 15.032 89.421 15.032C89.949 15.032 90.365 14.888 90.669 14.6V13.568H93.717V15.8C92.533 16.84 91.029 17.36 89.205 17.36ZM100.074 21.8C98.986 21.8 98.002 21.648 97.122 21.344C96.258 21.056 95.538 20.64 94.962 20.096V18.224H98.13V18.944C98.354 19.168 98.61 19.32 98.898 19.4C99.186 19.496 99.546 19.544 99.978 19.544C101.258 19.544 101.898 18.8 101.898 17.312V16.136C101.466 16.376 101.002 16.56 100.506 16.688C100.01 16.816 99.53 16.88 99.066 16.88C97.562 16.88 96.37 16.512 95.49 15.776C94.626 15.04 94.194 14.008 94.194 12.68V8.816C94.194 8.224 93.874 7.928 93.234 7.928H92.682V5.48H98.01V12.824C98.01 13.976 98.586 14.552 99.738 14.552C100.97 14.552 101.586 13.928 101.586 12.68V8.816C101.586 8.512 101.522 8.288 101.394 8.144C101.282 8 101.066 7.928 100.746 7.928H100.266V5.48H105.426V16.472C105.426 18.088 104.946 19.376 103.986 20.336C103.026 21.312 101.722 21.8 100.074 21.8ZM110.826 17.36C109.45 17.36 108.41 17.08 107.706 16.52C107.018 15.944 106.674 15.136 106.674 14.096C106.674 12.912 107.066 12.032 107.85 11.456C108.634 10.864 109.786 10.52 111.306 10.424L113.85 10.256V8.912C113.85 8.416 113.738 8.064 113.514 7.856C113.29 7.632 112.922 7.52 112.41 7.52C111.85 7.52 111.346 7.672 110.898 7.976V8.84H107.73V6.464C109.202 5.568 110.81 5.12 112.554 5.12C114.282 5.12 115.562 5.496 116.394 6.248C117.242 7 117.666 8.016 117.666 9.296V13.76C117.666 14.064 117.722 14.288 117.834 14.432C117.962 14.56 118.162 14.624 118.434 14.624H118.794V17H115.602L115.266 15.488C114.69 16.176 114.074 16.664 113.418 16.952C112.778 17.224 111.914 17.36 110.826 17.36ZM111.69 15.008C112.394 15.008 112.93 14.856 113.298 14.552C113.666 14.232 113.85 13.768 113.85 13.16V12.248L111.69 12.416C111.13 12.464 110.73 12.592 110.49 12.8C110.266 13.008 110.154 13.336 110.154 13.784C110.154 14.6 110.666 15.008 111.69 15.008ZM130.678 17.36C129.302 17.36 128.262 17.08 127.558 16.52C126.87 15.944 126.526 15.136 126.526 14.096C126.526 12.912 126.918 12.032 127.702 11.456C128.486 10.864 129.638 10.52 131.158 10.424L133.702 10.256V8.912C133.702 8.416 133.59 8.064 133.366 7.856C133.142 7.632 132.774 7.52 132.262 7.52C131.702 7.52 131.198 7.672 130.75 7.976V8.84H127.582V6.464C129.054 5.568 130.662 5.12 132.406 5.12C134.134 5.12 135.414 5.496 136.246 6.248C137.094 7 137.518 8.016 137.518 9.296V13.76C137.518 14.064 137.574 14.288 137.686 14.432C137.814 14.56 138.014 14.624 138.286 14.624H138.646V17H135.454L135.118 15.488C134.542 16.176 133.926 16.664 133.27 16.952C132.63 17.224 131.766 17.36 130.678 17.36ZM131.542 15.008C132.246 15.008 132.782 14.856 133.15 14.552C133.518 14.232 133.702 13.768 133.702 13.16V12.248L131.542 12.416C130.982 12.464 130.582 12.592 130.342 12.8C130.118 13.008 130.006 13.336 130.006 13.784C130.006 14.6 130.518 15.008 131.542 15.008ZM139.422 14.552H139.878C140.518 14.552 140.838 14.248 140.838 13.64V8.84C140.838 8.536 140.766 8.312 140.622 8.168C140.478 8.024 140.246 7.952 139.926 7.952H139.422V5.48H143.214L143.382 7.04C144.39 5.76 145.854 5.12 147.774 5.12C149.166 5.12 150.182 5.464 150.822 6.152C151.478 6.824 151.806 7.824 151.806 9.152V13.664C151.806 14.256 152.118 14.552 152.742 14.552H153.294V17H148.014V9.176C148.014 8.568 147.886 8.136 147.63 7.88C147.39 7.608 146.998 7.472 146.454 7.472C145.878 7.472 145.43 7.624 145.11 7.928C144.79 8.232 144.63 8.696 144.63 9.32V13.664C144.63 13.968 144.694 14.192 144.822 14.336C144.95 14.48 145.166 14.552 145.47 14.552H145.95V17H139.422V14.552ZM159.278 17.336C157.662 17.336 156.39 16.84 155.462 15.848C154.534 14.856 154.07 13.416 154.07 11.528C154.07 9.464 154.526 7.88 155.438 6.776C156.35 5.672 157.678 5.12 159.422 5.12C160.206 5.12 160.854 5.216 161.366 5.408C161.878 5.6 162.374 5.928 162.854 6.392V4.544C162.854 4.224 162.782 3.984 162.638 3.824C162.51 3.664 162.278 3.584 161.942 3.584H161.582V1.112H166.334V13.76C166.334 14.112 166.39 14.352 166.502 14.48C166.63 14.608 166.854 14.672 167.174 14.672H167.462V17H163.718L163.526 15.464C162.998 16.104 162.398 16.576 161.726 16.88C161.07 17.184 160.254 17.336 159.278 17.336ZM160.238 15.152C161.038 15.152 161.646 14.84 162.062 14.216C162.478 13.576 162.686 12.776 162.686 11.816V10.688C162.686 9.664 162.486 8.864 162.086 8.288C161.686 7.712 161.078 7.424 160.262 7.424C159.366 7.424 158.734 7.76 158.366 8.432C157.998 9.088 157.814 10.096 157.814 11.456C157.814 12.8 157.99 13.752 158.342 14.312C158.694 14.872 159.326 15.152 160.238 15.152ZM175.446 14.576H176.094C176.51 14.576 176.806 14.528 176.982 14.432C177.158 14.32 177.31 14.088 177.438 13.736L181.71 1.472H185.382L189.582 13.736C189.694 14.088 189.838 14.32 190.014 14.432C190.206 14.528 190.518 14.576 190.95 14.576H191.574V17H185.094V14.576H186.102L185.43 12.368H181.662L180.942 14.576H181.95V17H175.446V14.576ZM184.854 10.424L183.582 6.296L182.238 10.424H184.854ZM192.602 14.552H193.058C193.698 14.552 194.018 14.248 194.018 13.64V8.84C194.018 8.536 193.946 8.312 193.802 8.168C193.658 8.024 193.426 7.952 193.106 7.952H192.602V5.48H196.394L196.562 7.04C197.57 5.76 199.034 5.12 200.954 5.12C202.346 5.12 203.362 5.464 204.002 6.152C204.658 6.824 204.986 7.824 204.986 9.152V13.664C204.986 14.256 205.298 14.552 205.922 14.552H206.474V17H201.194V9.176C201.194 8.568 201.066 8.136 200.81 7.88C200.57 7.608 200.178 7.472 199.634 7.472C199.058 7.472 198.61 7.624 198.29 7.928C197.97 8.232 197.81 8.696 197.81 9.32V13.664C197.81 13.968 197.874 14.192 198.002 14.336C198.13 14.48 198.346 14.552 198.65 14.552H199.13V17H192.602V14.552ZM212.017 17.36C209.265 17.36 207.889 16.016 207.889 13.328V8.816C207.889 8.224 207.577 7.928 206.953 7.928H206.401V5.48H211.681V13.304C211.681 13.912 211.809 14.352 212.065 14.624C212.337 14.896 212.745 15.032 213.289 15.032C213.849 15.032 214.281 14.88 214.585 14.576C214.905 14.272 215.065 13.808 215.065 13.184V8.816C215.065 8.512 215.001 8.288 214.873 8.144C214.761 8 214.553 7.928 214.249 7.928H213.745V5.48H220.273V7.928H219.673C219.369 7.928 219.153 8 219.025 8.144C218.913 8.288 218.857 8.512 218.857 8.816V13.64C218.857 13.944 218.929 14.176 219.073 14.336C219.217 14.48 219.457 14.552 219.793 14.552H220.273V17H216.481L216.313 15.464C215.737 16.152 215.121 16.64 214.465 16.928C213.825 17.216 213.009 17.36 212.017 17.36ZM226.287 17.36C224.143 17.36 222.391 16.848 221.031 15.824V13.76H224.463V14.576C224.847 14.832 225.383 14.96 226.071 14.96C226.599 14.96 226.991 14.896 227.247 14.768C227.519 14.624 227.655 14.384 227.655 14.048C227.655 13.728 227.543 13.488 227.319 13.328C227.111 13.168 226.671 12.952 225.999 12.68C226.063 12.712 225.631 12.528 224.703 12.128C223.887 11.776 223.239 11.456 222.759 11.168C222.279 10.88 221.887 10.52 221.583 10.088C221.295 9.656 221.151 9.12 221.151 8.48C221.151 7.376 221.591 6.544 222.471 5.984C223.367 5.408 224.575 5.12 226.095 5.12C227.119 5.12 228.071 5.248 228.951 5.504C229.847 5.76 230.623 6.144 231.279 6.656V8.648H227.967V7.928C227.583 7.656 227.095 7.52 226.503 7.52C225.511 7.52 225.015 7.84 225.015 8.48C225.015 8.848 225.207 9.144 225.591 9.368C225.975 9.592 226.591 9.864 227.439 10.184L228.015 10.4C229.231 10.864 230.119 11.352 230.679 11.864C231.239 12.376 231.519 13.104 231.519 14.048C231.519 16.256 229.775 17.36 226.287 17.36ZM232.516 14.552H232.972C233.612 14.552 233.932 14.248 233.932 13.64V4.52C233.932 4.2 233.86 3.96 233.716 3.8C233.572 3.64 233.332 3.56 232.996 3.56H232.516V1.112H237.268V6.464C237.876 5.952 238.468 5.6 239.044 5.408C239.636 5.216 240.34 5.12 241.156 5.12C242.468 5.12 243.42 5.464 244.012 6.152C244.62 6.824 244.924 7.824 244.924 9.152V13.664C244.924 14.256 245.236 14.552 245.86 14.552H246.412V17H241.132V9.176C241.132 8.584 241.004 8.152 240.748 7.88C240.492 7.608 240.1 7.472 239.572 7.472C238.996 7.472 238.54 7.624 238.204 7.928C237.884 8.232 237.724 8.696 237.724 9.32V13.664C237.724 13.968 237.788 14.192 237.916 14.336C238.044 14.48 238.26 14.552 238.564 14.552H239.044V17H232.516V14.552ZM247.188 14.648H247.764C248.068 14.648 248.284 14.584 248.412 14.456C248.54 14.312 248.604 14.088 248.604 13.784V4.328C248.604 4.008 248.54 3.784 248.412 3.656C248.3 3.512 248.092 3.44 247.788 3.44H247.188V1.112H253.572V3.44H252.972C252.668 3.44 252.452 3.512 252.324 3.656C252.212 3.784 252.156 4.008 252.156 4.328V9.824L254.484 7.808H253.596V5.48H260.028V7.808H258.756C258.5 7.808 258.3 7.84 258.156 7.904C258.028 7.952 257.884 8.04 257.724 8.168L255.924 9.704L258.468 14.144C258.58 14.336 258.7 14.472 258.828 14.552C258.972 14.616 259.172 14.648 259.428 14.648H260.556V17H256.596L253.5 11.648L252.156 12.776V13.808C252.156 14.096 252.22 14.312 252.348 14.456C252.476 14.584 252.684 14.648 252.972 14.648H253.644V17H247.188V14.648ZM264.389 17.36C263.013 17.36 261.973 17.08 261.269 16.52C260.581 15.944 260.237 15.136 260.237 14.096C260.237 12.912 260.629 12.032 261.413 11.456C262.197 10.864 263.349 10.52 264.869 10.424L267.413 10.256V8.912C267.413 8.416 267.301 8.064 267.077 7.856C266.853 7.632 266.485 7.52 265.973 7.52C265.413 7.52 264.909 7.672 264.461 7.976V8.84H261.293V6.464C262.765 5.568 264.373 5.12 266.117 5.12C267.845 5.12 269.125 5.496 269.957 6.248C270.805 7 271.229 8.016 271.229 9.296V13.76C271.229 14.064 271.285 14.288 271.397 14.432C271.525 14.56 271.725 14.624 271.997 14.624H272.357V17H269.165L268.829 15.488C268.253 16.176 267.637 16.664 266.981 16.952C266.341 17.224 265.477 17.36 264.389 17.36ZM265.253 15.008C265.957 15.008 266.493 14.856 266.861 14.552C267.229 14.232 267.413 13.768 267.413 13.16V12.248L265.253 12.416C264.693 12.464 264.293 12.592 264.053 12.8C263.829 13.008 263.717 13.336 263.717 13.784C263.717 14.6 264.229 15.008 265.253 15.008ZM284.24 17.36C282.864 17.36 281.824 17.08 281.12 16.52C280.432 15.944 280.088 15.136 280.088 14.096C280.088 12.912 280.48 12.032 281.264 11.456C282.048 10.864 283.2 10.52 284.72 10.424L287.264 10.256V8.912C287.264 8.416 287.152 8.064 286.928 7.856C286.704 7.632 286.336 7.52 285.824 7.52C285.264 7.52 284.76 7.672 284.312 7.976V8.84H281.144V6.464C282.616 5.568 284.224 5.12 285.968 5.12C287.696 5.12 288.976 5.496 289.808 6.248C290.656 7 291.08 8.016 291.08 9.296V13.76C291.08 14.064 291.136 14.288 291.248 14.432C291.376 14.56 291.576 14.624 291.848 14.624H292.208V17H289.016L288.68 15.488C288.104 16.176 287.488 16.664 286.832 16.952C286.192 17.224 285.328 17.36 284.24 17.36ZM285.104 15.008C285.808 15.008 286.344 14.856 286.712 14.552C287.08 14.232 287.264 13.768 287.264 13.16V12.248L285.104 12.416C284.544 12.464 284.144 12.592 283.904 12.8C283.68 13.008 283.568 13.336 283.568 13.784C283.568 14.6 284.08 15.008 285.104 15.008ZM292.984 14.552H293.44C293.776 14.552 294.016 14.48 294.16 14.336C294.32 14.176 294.4 13.944 294.4 13.64V8.816C294.4 8.528 294.328 8.312 294.184 8.168C294.056 8.008 293.832 7.928 293.512 7.928H293.008V5.48H297.52L297.808 6.704C298.096 6.272 298.496 5.96 299.008 5.768C299.52 5.576 300.064 5.48 300.64 5.48H302.032V7.928H300.088C299.416 7.928 298.928 8.088 298.624 8.408C298.336 8.712 298.192 9.192 298.192 9.848V13.664C298.192 13.968 298.256 14.192 298.384 14.336C298.528 14.48 298.76 14.552 299.08 14.552H299.536V17H292.984V14.552ZM308.135 17.36C306.119 17.36 304.543 16.856 303.407 15.848C302.287 14.824 301.727 13.32 301.727 11.336C301.727 9.256 302.255 7.704 303.311 6.68C304.383 5.64 305.903 5.12 307.871 5.12C309.791 5.12 311.247 5.648 312.239 6.704C313.247 7.744 313.751 9.144 313.751 10.904V12.056H305.495C305.495 13.096 305.711 13.848 306.143 14.312C306.575 14.776 307.255 15.008 308.183 15.008C308.967 15.008 309.631 14.888 310.175 14.648V13.76H313.343V15.728C312.735 16.272 312.007 16.68 311.159 16.952C310.327 17.224 309.319 17.36 308.135 17.36ZM310.007 10.016C310.007 9.184 309.823 8.56 309.455 8.144C309.087 7.712 308.543 7.496 307.823 7.496C307.055 7.496 306.471 7.712 306.071 8.144C305.687 8.576 305.495 9.2 305.495 10.016H310.007ZM66.6944 41.36C65.4624 41.36 64.3584 41.136 63.3824 40.688C62.4064 40.224 61.6384 39.544 61.0784 38.648C60.5184 37.752 60.2384 36.664 60.2384 35.384C60.2384 33.352 60.8144 31.8 61.9664 30.728C63.1184 29.656 64.7024 29.12 66.7184 29.12C67.8224 29.12 68.7424 29.248 69.4784 29.504C70.2304 29.744 70.9664 30.144 71.6864 30.704V33.44H68.5184V32.096C68.2624 31.936 67.9984 31.824 67.7264 31.76C67.4544 31.696 67.1104 31.664 66.6944 31.664C65.8784 31.664 65.2224 31.976 64.7264 32.6C64.2304 33.224 63.9824 34.152 63.9824 35.384C63.9824 36.552 64.2784 37.416 64.8704 37.976C65.4784 38.536 66.3344 38.816 67.4384 38.816C68.6864 38.816 69.7344 38.512 70.5824 37.904L71.8064 39.872C71.0544 40.432 70.3104 40.816 69.5744 41.024C68.8544 41.248 67.8944 41.36 66.6944 41.36ZM72.8243 38.552H73.2803C73.9203 38.552 74.2403 38.248 74.2403 37.64V28.52C74.2403 28.2 74.1683 27.96 74.0243 27.8C73.8803 27.64 73.6403 27.56 73.3043 27.56H72.8243V25.112H77.5763V30.464C78.1843 29.952 78.7763 29.6 79.3523 29.408C79.9443 29.216 80.6483 29.12 81.4643 29.12C82.7763 29.12 83.7283 29.464 84.3203 30.152C84.9283 30.824 85.2323 31.824 85.2323 33.152V37.664C85.2323 38.256 85.5443 38.552 86.1683 38.552H86.7203V41H81.4403V33.176C81.4403 32.584 81.3123 32.152 81.0563 31.88C80.8003 31.608 80.4083 31.472 79.8803 31.472C79.3043 31.472 78.8483 31.624 78.5123 31.928C78.1923 32.232 78.0323 32.696 78.0323 33.32V37.664C78.0323 37.968 78.0963 38.192 78.2243 38.336C78.3523 38.48 78.5683 38.552 78.8723 38.552H79.3523V41H72.8243V38.552ZM93.9042 41.36C91.8882 41.36 90.3122 40.856 89.1762 39.848C88.0562 38.824 87.4962 37.32 87.4962 35.336C87.4962 33.256 88.0242 31.704 89.0802 30.68C90.1522 29.64 91.6722 29.12 93.6402 29.12C95.5602 29.12 97.0162 29.648 98.0082 30.704C99.0162 31.744 99.5202 33.144 99.5202 34.904V36.056H91.2642C91.2642 37.096 91.4802 37.848 91.9122 38.312C92.3442 38.776 93.0242 39.008 93.9522 39.008C94.7362 39.008 95.4002 38.888 95.9442 38.648V37.76H99.1122V39.728C98.5042 40.272 97.7762 40.68 96.9282 40.952C96.0962 41.224 95.0882 41.36 93.9042 41.36ZM95.7762 34.016C95.7762 33.184 95.5922 32.56 95.2242 32.144C94.8562 31.712 94.3122 31.496 93.5922 31.496C92.8242 31.496 92.2402 31.712 91.8402 32.144C91.4562 32.576 91.2642 33.2 91.2642 34.016H95.7762ZM104.205 41.36C102.829 41.36 101.789 41.08 101.085 40.52C100.397 39.944 100.053 39.136 100.053 38.096C100.053 36.912 100.445 36.032 101.229 35.456C102.013 34.864 103.165 34.52 104.685 34.424L107.229 34.256V32.912C107.229 32.416 107.117 32.064 106.893 31.856C106.669 31.632 106.301 31.52 105.789 31.52C105.229 31.52 104.725 31.672 104.277 31.976V32.84H101.109V30.464C102.581 29.568 104.189 29.12 105.933 29.12C107.661 29.12 108.941 29.496 109.773 30.248C110.621 31 111.045 32.016 111.045 33.296V37.76C111.045 38.064 111.101 38.288 111.213 38.432C111.341 38.56 111.541 38.624 111.813 38.624H112.173V41H108.981L108.645 39.488C108.069 40.176 107.453 40.664 106.797 40.952C106.157 41.224 105.293 41.36 104.205 41.36ZM105.069 39.008C105.773 39.008 106.309 38.856 106.677 38.552C107.045 38.232 107.229 37.768 107.229 37.16V36.248L105.069 36.416C104.509 36.464 104.109 36.592 103.869 36.8C103.645 37.008 103.533 37.336 103.533 37.784C103.533 38.6 104.045 39.008 105.069 39.008ZM118.045 41.36C116.413 41.36 115.189 41.008 114.373 40.304C113.573 39.6 113.173 38.584 113.173 37.256V31.856H111.397V29.48H113.173V27.104L116.965 26.072V29.48H120.109V31.856H116.965V37.592C116.965 38.088 117.069 38.456 117.277 38.696C117.501 38.92 117.829 39.032 118.261 39.032C118.789 39.032 119.205 38.888 119.509 38.6V37.568H122.557V39.8C121.373 40.84 119.869 41.36 118.045 41.36ZM124.064 24.968H127.952V27.848H124.064V24.968ZM122.6 38.552H123.176C123.512 38.552 123.752 38.48 123.896 38.336C124.056 38.176 124.136 37.936 124.136 37.616V32.888C124.136 32.568 124.064 32.328 123.92 32.168C123.776 32.008 123.536 31.928 123.2 31.928H122.6V29.48H127.928V37.664C127.928 38.256 128.24 38.552 128.864 38.552H129.44V41H122.6V38.552ZM130.199 38.552H130.655C131.295 38.552 131.615 38.248 131.615 37.64V32.84C131.615 32.536 131.543 32.312 131.399 32.168C131.255 32.024 131.023 31.952 130.703 31.952H130.199V29.48H133.991L134.159 31.04C135.167 29.76 136.631 29.12 138.551 29.12C139.943 29.12 140.959 29.464 141.599 30.152C142.255 30.824 142.583 31.824 142.583 33.152V37.664C142.583 38.256 142.895 38.552 143.519 38.552H144.071V41H138.791V33.176C138.791 32.568 138.663 32.136 138.407 31.88C138.167 31.608 137.775 31.472 137.231 31.472C136.655 31.472 136.207 31.624 135.887 31.928C135.567 32.232 135.407 32.696 135.407 33.32V37.664C135.407 37.968 135.471 38.192 135.599 38.336C135.727 38.48 135.943 38.552 136.247 38.552H136.727V41H130.199V38.552ZM151.952 45.8C150.848 45.8 149.888 45.656 149.072 45.368C148.272 45.08 147.56 44.664 146.936 44.12V42.248H150.104V43.064C150.552 43.352 151.144 43.496 151.88 43.496C153.064 43.496 153.656 42.864 153.656 41.6V39.824C153.208 40.256 152.712 40.576 152.168 40.784C151.624 40.976 150.968 41.072 150.2 41.072C148.488 41.072 147.168 40.576 146.24 39.584C145.312 38.576 144.848 37.072 144.848 35.072C144.848 33.808 145.08 32.728 145.544 31.832C146.008 30.936 146.648 30.264 147.464 29.816C148.296 29.352 149.248 29.12 150.32 29.12C151.28 29.12 152.064 29.272 152.672 29.576C153.28 29.88 153.824 30.384 154.304 31.088L154.496 29.48H158.216V31.856H157.88C157.576 31.856 157.368 31.936 157.256 32.096C157.16 32.24 157.112 32.496 157.112 32.864V40.928C157.112 42.416 156.664 43.6 155.768 44.48C154.872 45.36 153.6 45.8 151.952 45.8ZM151.064 38.84C151.88 38.84 152.48 38.552 152.864 37.976C153.248 37.4 153.44 36.6 153.44 35.576V34.688C153.44 33.696 153.24 32.888 152.84 32.264C152.456 31.624 151.856 31.304 151.04 31.304C150.144 31.304 149.512 31.6 149.144 32.192C148.776 32.784 148.592 33.744 148.592 35.072C148.592 36.432 148.776 37.4 149.144 37.976C149.512 38.552 150.152 38.84 151.064 38.84ZM167.4 24.968H171.288V27.848H167.4V24.968ZM165.936 38.552H166.512C166.848 38.552 167.088 38.48 167.232 38.336C167.392 38.176 167.472 37.936 167.472 37.616V32.888C167.472 32.568 167.4 32.328 167.256 32.168C167.112 32.008 166.872 31.928 166.536 31.928H165.936V29.48H171.264V37.664C171.264 38.256 171.576 38.552 172.2 38.552H172.776V41H165.936V38.552ZM173.535 38.552H173.991C174.631 38.552 174.951 38.248 174.951 37.64V32.84C174.951 32.536 174.879 32.312 174.735 32.168C174.591 32.024 174.359 31.952 174.039 31.952H173.535V29.48H177.327L177.495 31.04C178.503 29.76 179.967 29.12 181.887 29.12C183.279 29.12 184.295 29.464 184.935 30.152C185.591 30.824 185.919 31.824 185.919 33.152V37.664C185.919 38.256 186.231 38.552 186.855 38.552H187.407V41H182.127V33.176C182.127 32.568 181.999 32.136 181.743 31.88C181.503 31.608 181.111 31.472 180.567 31.472C179.991 31.472 179.543 31.624 179.223 31.928C178.903 32.232 178.743 32.696 178.743 33.32V37.664C178.743 37.968 178.807 38.192 178.935 38.336C179.063 38.48 179.279 38.552 179.583 38.552H180.063V41H173.535V38.552ZM201.787 41.36C199.771 41.36 198.195 40.856 197.059 39.848C195.939 38.824 195.379 37.32 195.379 35.336C195.379 33.256 195.907 31.704 196.963 30.68C198.035 29.64 199.555 29.12 201.523 29.12C203.443 29.12 204.899 29.648 205.891 30.704C206.899 31.744 207.403 33.144 207.403 34.904V36.056H199.147C199.147 37.096 199.363 37.848 199.795 38.312C200.227 38.776 200.907 39.008 201.835 39.008C202.619 39.008 203.283 38.888 203.827 38.648V37.76H206.995V39.728C206.387 40.272 205.659 40.68 204.811 40.952C203.979 41.224 202.971 41.36 201.787 41.36ZM203.659 34.016C203.659 33.184 203.475 32.56 203.107 32.144C202.739 31.712 202.195 31.496 201.475 31.496C200.707 31.496 200.123 31.712 199.723 32.144C199.339 32.576 199.147 33.2 199.147 34.016H203.659ZM208.17 38.912H208.77C209.154 38.912 209.45 38.864 209.658 38.768C209.866 38.656 210.074 38.464 210.282 38.192L212.562 35.216L210.282 32.264C210.074 31.992 209.866 31.808 209.658 31.712C209.45 31.616 209.154 31.568 208.77 31.568H208.266V29.48H213.81V31.568H213.234L214.578 33.44L215.946 31.568H215.37V29.48H220.914V31.568H220.386C220.018 31.568 219.722 31.616 219.498 31.712C219.29 31.808 219.082 31.992 218.874 32.264L216.594 35.216L218.874 38.192C219.082 38.464 219.29 38.656 219.498 38.768C219.722 38.864 220.018 38.912 220.386 38.912H221.01V41H215.37V38.912H215.946L214.578 37.04L213.234 38.912H213.81V41H208.17V38.912ZM225.072 41.36C223.696 41.36 222.656 41.08 221.952 40.52C221.264 39.944 220.92 39.136 220.92 38.096C220.92 36.912 221.312 36.032 222.096 35.456C222.88 34.864 224.032 34.52 225.552 34.424L228.096 34.256V32.912C228.096 32.416 227.984 32.064 227.76 31.856C227.536 31.632 227.168 31.52 226.656 31.52C226.096 31.52 225.592 31.672 225.144 31.976V32.84H221.976V30.464C223.448 29.568 225.056 29.12 226.8 29.12C228.528 29.12 229.808 29.496 230.64 30.248C231.488 31 231.912 32.016 231.912 33.296V37.76C231.912 38.064 231.968 38.288 232.08 38.432C232.208 38.56 232.408 38.624 232.68 38.624H233.04V41H229.848L229.512 39.488C228.936 40.176 228.32 40.664 227.664 40.952C227.024 41.224 226.16 41.36 225.072 41.36ZM225.936 39.008C226.64 39.008 227.176 38.856 227.544 38.552C227.912 38.232 228.096 37.768 228.096 37.16V36.248L225.936 36.416C225.376 36.464 224.976 36.592 224.736 36.8C224.512 37.008 224.4 37.336 224.4 37.784C224.4 38.6 224.912 39.008 225.936 39.008ZM233.817 38.552H234.273C234.913 38.552 235.233 38.248 235.233 37.64V32.84C235.233 32.232 234.921 31.928 234.297 31.928H233.817V29.48H237.513L237.705 31.112C238.649 29.784 240.065 29.12 241.953 29.12C243.265 29.12 244.297 29.656 245.049 30.728C245.465 30.168 245.961 29.76 246.536 29.504C247.128 29.248 247.809 29.12 248.577 29.12C249.969 29.12 250.977 29.456 251.601 30.128C252.225 30.8 252.537 31.808 252.537 33.152V37.664C252.537 38.256 252.841 38.552 253.449 38.552H254.001V41H248.793V33.152C248.793 32.544 248.673 32.112 248.433 31.856C248.193 31.6 247.817 31.472 247.305 31.472C246.745 31.472 246.321 31.616 246.033 31.904C245.761 32.192 245.625 32.64 245.625 33.248V37.664C245.625 37.968 245.689 38.192 245.817 38.336C245.945 38.48 246.169 38.552 246.489 38.552H247.041V41H242.121V33.176C242.121 32.584 242.001 32.152 241.761 31.88C241.521 31.608 241.153 31.472 240.657 31.472C240.081 31.472 239.649 31.624 239.361 31.928C239.073 32.216 238.929 32.68 238.929 33.32V37.664C238.929 37.968 238.993 38.192 239.121 38.336C239.249 38.48 239.465 38.552 239.769 38.552H240.273V41H233.817V38.552Z" fill="black"/>
</svg>
