<svg width="200" height="200" viewBox="0 0 200 200" fill="none" xmlns="http://www.w3.org/2000/svg">
<rect width="200" height="200" rx="100" fill="#FCA06C"/>
<path d="M63.4588 68.96V83H60.0388V68.96H63.4588ZM86.1955 71.84L83.1755 83H79.3955L77.6355 75.76L75.8155 83H72.0555L69.0155 71.84H72.4355L74.0155 79.82L75.8955 71.84H79.5155L81.4155 79.78L82.9755 71.84H86.1955ZM89.2198 70.68C88.6198 70.68 88.1264 70.5067 87.7398 70.16C87.3664 69.8 87.1798 69.36 87.1798 68.84C87.1798 68.3067 87.3664 67.8667 87.7398 67.52C88.1264 67.16 88.6198 66.98 89.2198 66.98C89.8064 66.98 90.2864 67.16 90.6598 67.52C91.0464 67.8667 91.2398 68.3067 91.2398 68.84C91.2398 69.36 91.0464 69.8 90.6598 70.16C90.2864 70.5067 89.8064 70.68 89.2198 70.68ZM90.9198 71.84V83H87.4998V71.84H90.9198ZM96.8182 68.2V83H93.3982V68.2H96.8182ZM102.717 68.2V83H99.2966V68.2H102.717ZM119.533 68.96V71.7H115.813V83H112.393V71.7H108.673V68.96H119.533ZM124.67 73.7C125.07 73.0867 125.57 72.6067 126.17 72.26C126.77 71.9 127.436 71.72 128.17 71.72V75.34H127.23C126.376 75.34 125.736 75.5267 125.31 75.9C124.883 76.26 124.67 76.9 124.67 77.82V83H121.25V71.84H124.67V73.7ZM141.204 71.84L134.204 88.3H130.524L133.084 82.62L128.544 71.84H132.364L134.944 78.82L137.504 71.84H141.204ZM62.4918 92.96V107H59.0718V101.22H53.7518V107H50.3318V92.96H53.7518V98.46H59.0718V92.96H62.4918ZM64.2807 101.4C64.2807 100.253 64.494 99.2467 64.9207 98.38C65.3607 97.5133 65.954 96.8467 66.7007 96.38C67.4474 95.9133 68.2807 95.68 69.2007 95.68C69.9874 95.68 70.674 95.84 71.2607 96.16C71.8607 96.48 72.3207 96.9 72.6407 97.42V95.84H76.0607V107H72.6407V105.42C72.3074 105.94 71.8407 106.36 71.2407 106.68C70.654 107 69.9674 107.16 69.1807 107.16C68.274 107.16 67.4474 106.927 66.7007 106.46C65.954 105.98 65.3607 105.307 64.9207 104.44C64.494 103.56 64.2807 102.547 64.2807 101.4ZM72.6407 101.42C72.6407 100.567 72.4007 99.8933 71.9207 99.4C71.454 98.9067 70.8807 98.66 70.2007 98.66C69.5207 98.66 68.9407 98.9067 68.4607 99.4C67.994 99.88 67.7607 100.547 67.7607 101.4C67.7607 102.253 67.994 102.933 68.4607 103.44C68.9407 103.933 69.5207 104.18 70.2007 104.18C70.8807 104.18 71.454 103.933 71.9207 103.44C72.4007 102.947 72.6407 102.273 72.6407 101.42ZM81.9549 97.7C82.3549 97.0867 82.8549 96.6067 83.4549 96.26C84.0549 95.9 84.7216 95.72 85.4549 95.72V99.34H84.5149C83.6616 99.34 83.0216 99.5267 82.5949 99.9C82.1683 100.26 81.9549 100.9 81.9549 101.82V107H78.5349V95.84H81.9549V97.7ZM86.4096 101.4C86.4096 100.253 86.6229 99.2467 87.0496 98.38C87.4896 97.5133 88.0829 96.8467 88.8296 96.38C89.5763 95.9133 90.4096 95.68 91.3296 95.68C92.0629 95.68 92.7296 95.8333 93.3296 96.14C93.9429 96.4467 94.4229 96.86 94.7696 97.38V92.2H98.1896V107H94.7696V105.4C94.4496 105.933 93.9896 106.36 93.3896 106.68C92.8029 107 92.1163 107.16 91.3296 107.16C90.4096 107.16 89.5763 106.927 88.8296 106.46C88.0829 105.98 87.4896 105.307 87.0496 104.44C86.6229 103.56 86.4096 102.547 86.4096 101.4ZM94.7696 101.42C94.7696 100.567 94.5296 99.8933 94.0496 99.4C93.5829 98.9067 93.0096 98.66 92.3296 98.66C91.6496 98.66 91.0696 98.9067 90.5896 99.4C90.1229 99.88 89.8896 100.547 89.8896 101.4C89.8896 102.253 90.1229 102.933 90.5896 103.44C91.0696 103.933 91.6496 104.18 92.3296 104.18C93.0096 104.18 93.5829 103.933 94.0496 103.44C94.5296 102.947 94.7696 102.273 94.7696 101.42ZM117.462 107H114.042L108.322 98.34V107H104.902V92.96H108.322L114.042 101.66V92.96H117.462V107ZM130.461 101.24C130.461 101.56 130.441 101.893 130.401 102.24H122.661C122.715 102.933 122.935 103.467 123.321 103.84C123.721 104.2 124.208 104.38 124.781 104.38C125.635 104.38 126.228 104.02 126.561 103.3H130.201C130.015 104.033 129.675 104.693 129.181 105.28C128.701 105.867 128.095 106.327 127.361 106.66C126.628 106.993 125.808 107.16 124.901 107.16C123.808 107.16 122.835 106.927 121.981 106.46C121.128 105.993 120.461 105.327 119.981 104.46C119.501 103.593 119.261 102.58 119.261 101.42C119.261 100.26 119.495 99.2467 119.961 98.38C120.441 97.5133 121.108 96.8467 121.961 96.38C122.815 95.9133 123.795 95.68 124.901 95.68C125.981 95.68 126.941 95.9067 127.781 96.36C128.621 96.8133 129.275 97.46 129.741 98.3C130.221 99.14 130.461 100.12 130.461 101.24ZM126.961 100.34C126.961 99.7533 126.761 99.2867 126.361 98.94C125.961 98.5933 125.461 98.42 124.861 98.42C124.288 98.42 123.801 98.5867 123.401 98.92C123.015 99.2533 122.775 99.7267 122.681 100.34H126.961ZM138.865 107L136.725 103.9L134.925 107H131.225L134.905 101.3L131.125 95.84H134.965L137.105 98.92L138.905 95.84H142.605L138.865 101.46L142.705 107H138.865ZM150.243 104.1V107H148.503C147.263 107 146.297 106.7 145.603 106.1C144.91 105.487 144.563 104.493 144.563 103.12V98.68H143.203V95.84H144.563V93.12H147.983V95.84H150.223V98.68H147.983V103.16C147.983 103.493 148.063 103.733 148.223 103.88C148.383 104.027 148.65 104.1 149.023 104.1H150.243ZM85.7345 116.96V119.7H82.0145V131H78.5945V119.7H74.8745V116.96H85.7345ZM89.1709 118.68C88.5709 118.68 88.0776 118.507 87.6909 118.16C87.3176 117.8 87.1309 117.36 87.1309 116.84C87.1309 116.307 87.3176 115.867 87.6909 115.52C88.0776 115.16 88.5709 114.98 89.1709 114.98C89.7576 114.98 90.2376 115.16 90.6109 115.52C90.9976 115.867 91.1909 116.307 91.1909 116.84C91.1909 117.36 90.9976 117.8 90.6109 118.16C90.2376 118.507 89.7576 118.68 89.1709 118.68ZM90.8709 119.84V131H87.4509V119.84H90.8709ZM107.589 119.72C108.976 119.72 110.076 120.14 110.889 120.98C111.716 121.82 112.129 122.987 112.129 124.48V131H108.729V124.94C108.729 124.22 108.536 123.667 108.149 123.28C107.776 122.88 107.256 122.68 106.589 122.68C105.923 122.68 105.396 122.88 105.009 123.28C104.636 123.667 104.449 124.22 104.449 124.94V131H101.049V124.94C101.049 124.22 100.856 123.667 100.469 123.28C100.096 122.88 99.576 122.68 98.9094 122.68C98.2427 122.68 97.716 122.88 97.3294 123.28C96.956 123.667 96.7694 124.22 96.7694 124.94V131H93.3494V119.84H96.7694V121.24C97.116 120.773 97.5694 120.407 98.1294 120.14C98.6894 119.86 99.3227 119.72 100.029 119.72C100.869 119.72 101.616 119.9 102.269 120.26C102.936 120.62 103.456 121.133 103.829 121.8C104.216 121.187 104.743 120.687 105.409 120.3C106.076 119.913 106.803 119.72 107.589 119.72ZM125.041 125.24C125.041 125.56 125.021 125.893 124.981 126.24H117.241C117.295 126.933 117.515 127.467 117.901 127.84C118.301 128.2 118.788 128.38 119.361 128.38C120.215 128.38 120.808 128.02 121.141 127.3H124.781C124.595 128.033 124.255 128.693 123.761 129.28C123.281 129.867 122.675 130.327 121.941 130.66C121.208 130.993 120.388 131.16 119.481 131.16C118.388 131.16 117.415 130.927 116.561 130.46C115.708 129.993 115.041 129.327 114.561 128.46C114.081 127.593 113.841 126.58 113.841 125.42C113.841 124.26 114.075 123.247 114.541 122.38C115.021 121.513 115.688 120.847 116.541 120.38C117.395 119.913 118.375 119.68 119.481 119.68C120.561 119.68 121.521 119.907 122.361 120.36C123.201 120.813 123.855 121.46 124.321 122.3C124.801 123.14 125.041 124.12 125.041 125.24ZM121.541 124.34C121.541 123.753 121.341 123.287 120.941 122.94C120.541 122.593 120.041 122.42 119.441 122.42C118.868 122.42 118.381 122.587 117.981 122.92C117.595 123.253 117.355 123.727 117.261 124.34H121.541Z" fill="white"/>
</svg>
