<svg width="200" height="200" viewBox="0 0 200 200" fill="none" xmlns="http://www.w3.org/2000/svg">
<rect width="200" height="200" rx="100" fill="#FCA06C"/>
<path d="M52.4673 73.48C52.4673 74.2933 52.2807 75.04 51.9073 75.72C51.534 76.3867 50.9607 76.9267 50.1873 77.34C49.414 77.7533 48.454 77.96 47.3073 77.96H45.1873V83H41.7673V68.96H47.3073C48.4273 68.96 49.374 69.1533 50.1473 69.54C50.9207 69.9267 51.5007 70.46 51.8873 71.14C52.274 71.82 52.4673 72.6 52.4673 73.48ZM47.0473 75.24C47.7007 75.24 48.1873 75.0867 48.5073 74.78C48.8273 74.4733 48.9873 74.04 48.9873 73.48C48.9873 72.92 48.8273 72.4867 48.5073 72.18C48.1873 71.8733 47.7007 71.72 47.0473 71.72H45.1873V75.24H47.0473ZM53.5678 77.4C53.5678 76.2533 53.7811 75.2467 54.2078 74.38C54.6478 73.5133 55.2411 72.8467 55.9878 72.38C56.7345 71.9133 57.5678 71.68 58.4878 71.68C59.2745 71.68 59.9611 71.84 60.5478 72.16C61.1478 72.48 61.6078 72.9 61.9278 73.42V71.84H65.3478V83H61.9278V81.42C61.5945 81.94 61.1278 82.36 60.5278 82.68C59.9411 83 59.2545 83.16 58.4678 83.16C57.5611 83.16 56.7345 82.9267 55.9878 82.46C55.2411 81.98 54.6478 81.3067 54.2078 80.44C53.7811 79.56 53.5678 78.5467 53.5678 77.4ZM61.9278 77.42C61.9278 76.5667 61.6878 75.8933 61.2078 75.4C60.7411 74.9067 60.1678 74.66 59.4878 74.66C58.8078 74.66 58.2278 74.9067 57.7478 75.4C57.2811 75.88 57.0478 76.5467 57.0478 77.4C57.0478 78.2533 57.2811 78.9333 57.7478 79.44C58.2278 79.9333 58.8078 80.18 59.4878 80.18C60.1678 80.18 60.7411 79.9333 61.2078 79.44C61.6878 78.9467 61.9278 78.2733 61.9278 77.42ZM71.242 73.7C71.642 73.0867 72.142 72.6067 72.742 72.26C73.342 71.9 74.0087 71.72 74.742 71.72V75.34H73.802C72.9487 75.34 72.3087 75.5267 71.882 75.9C71.4554 76.26 71.242 76.9 71.242 77.82V83H67.822V71.84H71.242V73.7ZM86.8967 77.24C86.8967 77.56 86.8767 77.8933 86.8367 78.24H79.0967C79.1501 78.9333 79.3701 79.4667 79.7567 79.84C80.1567 80.2 80.6434 80.38 81.2167 80.38C82.0701 80.38 82.6634 80.02 82.9967 79.3H86.6367C86.4501 80.0333 86.1101 80.6933 85.6167 81.28C85.1367 81.8667 84.5301 82.3267 83.7967 82.66C83.0634 82.9933 82.2434 83.16 81.3367 83.16C80.2434 83.16 79.2701 82.9267 78.4167 82.46C77.5634 81.9933 76.8967 81.3267 76.4167 80.46C75.9367 79.5933 75.6967 78.58 75.6967 77.42C75.6967 76.26 75.9301 75.2467 76.3967 74.38C76.8767 73.5133 77.5434 72.8467 78.3967 72.38C79.2501 71.9133 80.2301 71.68 81.3367 71.68C82.4167 71.68 83.3767 71.9067 84.2167 72.36C85.0567 72.8133 85.7101 73.46 86.1767 74.3C86.6567 75.14 86.8967 76.12 86.8967 77.24ZM83.3967 76.34C83.3967 75.7533 83.1967 75.2867 82.7967 74.94C82.3967 74.5933 81.8967 74.42 81.2967 74.42C80.7234 74.42 80.2367 74.5867 79.8367 74.92C79.4501 75.2533 79.2101 75.7267 79.1167 76.34H83.3967ZM95.5009 71.72C96.8076 71.72 97.8476 72.1467 98.6209 73C99.4076 73.84 99.8009 75 99.8009 76.48V83H96.4009V76.94C96.4009 76.1933 96.2076 75.6133 95.8209 75.2C95.4343 74.7867 94.9143 74.58 94.2609 74.58C93.6076 74.58 93.0876 74.7867 92.7009 75.2C92.3143 75.6133 92.1209 76.1933 92.1209 76.94V83H88.7009V71.84H92.1209V73.32C92.4676 72.8267 92.9343 72.44 93.5209 72.16C94.1076 71.8667 94.7676 71.72 95.5009 71.72ZM108.398 80.1V83H106.658C105.418 83 104.451 82.7 103.758 82.1C103.064 81.4867 102.718 80.4933 102.718 79.12V74.68H101.358V71.84H102.718V69.12H106.138V71.84H108.378V74.68H106.138V79.16C106.138 79.4933 106.218 79.7333 106.378 79.88C106.538 80.0267 106.804 80.1 107.178 80.1H108.398ZM114.843 83.16C113.869 83.16 113.003 82.9933 112.243 82.66C111.483 82.3267 110.883 81.8733 110.443 81.3C110.003 80.7133 109.756 80.06 109.703 79.34H113.083C113.123 79.7267 113.303 80.04 113.623 80.28C113.943 80.52 114.336 80.64 114.803 80.64C115.229 80.64 115.556 80.56 115.783 80.4C116.023 80.2267 116.143 80.0067 116.143 79.74C116.143 79.42 115.976 79.1867 115.643 79.04C115.309 78.88 114.769 78.7067 114.023 78.52C113.223 78.3333 112.556 78.14 112.023 77.94C111.489 77.7267 111.029 77.4 110.643 76.96C110.256 76.5067 110.063 75.9 110.063 75.14C110.063 74.5 110.236 73.92 110.583 73.4C110.943 72.8667 111.463 72.4467 112.143 72.14C112.836 71.8333 113.656 71.68 114.603 71.68C116.003 71.68 117.103 72.0267 117.903 72.72C118.716 73.4133 119.183 74.3333 119.303 75.48H116.143C116.089 75.0933 115.916 74.7867 115.623 74.56C115.343 74.3333 114.969 74.22 114.503 74.22C114.103 74.22 113.796 74.3 113.583 74.46C113.369 74.6067 113.263 74.8133 113.263 75.08C113.263 75.4 113.429 75.64 113.763 75.8C114.109 75.96 114.643 76.12 115.363 76.28C116.189 76.4933 116.863 76.7067 117.383 76.92C117.903 77.12 118.356 77.4533 118.743 77.92C119.143 78.3733 119.349 78.9867 119.363 79.76C119.363 80.4133 119.176 81 118.803 81.52C118.443 82.0267 117.916 82.4267 117.223 82.72C116.543 83.0133 115.749 83.16 114.843 83.16ZM141.713 71.84L138.693 83H134.913L133.153 75.76L131.333 83H127.573L124.533 71.84H127.953L129.533 79.82L131.413 71.84H135.033L136.933 79.78L138.493 71.84H141.713ZM144.737 70.68C144.137 70.68 143.644 70.5067 143.257 70.16C142.884 69.8 142.697 69.36 142.697 68.84C142.697 68.3067 142.884 67.8667 143.257 67.52C143.644 67.16 144.137 66.98 144.737 66.98C145.324 66.98 145.804 67.16 146.177 67.52C146.564 67.8667 146.757 68.3067 146.757 68.84C146.757 69.36 146.564 69.8 146.177 70.16C145.804 70.5067 145.324 70.68 144.737 70.68ZM146.437 71.84V83H143.017V71.84H146.437ZM152.336 68.2V83H148.916V68.2H152.336ZM158.234 68.2V83H154.814V68.2H158.234ZM51.7893 101.24C51.7893 101.56 51.7693 101.893 51.7293 102.24H43.9893C44.0426 102.933 44.2626 103.467 44.6493 103.84C45.0493 104.2 45.536 104.38 46.1093 104.38C46.9626 104.38 47.556 104.02 47.8893 103.3H51.5293C51.3426 104.033 51.0026 104.693 50.5093 105.28C50.0293 105.867 49.4226 106.327 48.6893 106.66C47.956 106.993 47.136 107.16 46.2293 107.16C45.136 107.16 44.1626 106.927 43.3093 106.46C42.456 105.993 41.7893 105.327 41.3093 104.46C40.8293 103.593 40.5893 102.58 40.5893 101.42C40.5893 100.26 40.8226 99.2467 41.2893 98.38C41.7693 97.5133 42.436 96.8467 43.2893 96.38C44.1426 95.9133 45.1226 95.68 46.2293 95.68C47.3093 95.68 48.2693 95.9067 49.1093 96.36C49.9493 96.8133 50.6026 97.46 51.0693 98.3C51.5493 99.14 51.7893 100.12 51.7893 101.24ZM48.2893 100.34C48.2893 99.7533 48.0893 99.2867 47.6893 98.94C47.2893 98.5933 46.7893 98.42 46.1893 98.42C45.616 98.42 45.1293 98.5867 44.7293 98.92C44.3426 99.2533 44.1026 99.7267 44.0093 100.34H48.2893ZM60.1935 107L58.0535 103.9L56.2535 107H52.5535L56.2335 101.3L52.4535 95.84H56.2935L58.4335 98.92L60.2335 95.84H63.9335L60.1935 101.46L64.0335 107H60.1935ZM68.7713 97.42C69.1047 96.9 69.5647 96.48 70.1513 96.16C70.738 95.84 71.4247 95.68 72.2113 95.68C73.1313 95.68 73.9647 95.9133 74.7113 96.38C75.458 96.8467 76.0447 97.5133 76.4713 98.38C76.9113 99.2467 77.1313 100.253 77.1313 101.4C77.1313 102.547 76.9113 103.56 76.4713 104.44C76.0447 105.307 75.458 105.98 74.7113 106.46C73.9647 106.927 73.1313 107.16 72.2113 107.16C71.438 107.16 70.7513 107 70.1513 106.68C69.5647 106.36 69.1047 105.947 68.7713 105.44V112.32H65.3513V95.84H68.7713V97.42ZM73.6513 101.4C73.6513 100.547 73.4113 99.88 72.9313 99.4C72.4647 98.9067 71.8847 98.66 71.1913 98.66C70.5113 98.66 69.9313 98.9067 69.4513 99.4C68.9847 99.8933 68.7513 100.567 68.7513 101.42C68.7513 102.273 68.9847 102.947 69.4513 103.44C69.9313 103.933 70.5113 104.18 71.1913 104.18C71.8713 104.18 72.4513 103.933 72.9313 103.44C73.4113 102.933 73.6513 102.253 73.6513 101.4ZM89.4455 101.24C89.4455 101.56 89.4255 101.893 89.3855 102.24H81.6455C81.6989 102.933 81.9189 103.467 82.3055 103.84C82.7055 104.2 83.1922 104.38 83.7655 104.38C84.6189 104.38 85.2122 104.02 85.5455 103.3H89.1855C88.9989 104.033 88.6589 104.693 88.1655 105.28C87.6855 105.867 87.0789 106.327 86.3455 106.66C85.6122 106.993 84.7922 107.16 83.8855 107.16C82.7922 107.16 81.8189 106.927 80.9655 106.46C80.1122 105.993 79.4455 105.327 78.9655 104.46C78.4855 103.593 78.2455 102.58 78.2455 101.42C78.2455 100.26 78.4789 99.2467 78.9455 98.38C79.4255 97.5133 80.0922 96.8467 80.9455 96.38C81.7989 95.9133 82.7789 95.68 83.8855 95.68C84.9655 95.68 85.9255 95.9067 86.7655 96.36C87.6055 96.8133 88.2589 97.46 88.7255 98.3C89.2055 99.14 89.4455 100.12 89.4455 101.24ZM85.9455 100.34C85.9455 99.7533 85.7455 99.2867 85.3455 98.94C84.9455 98.5933 84.4455 98.42 83.8455 98.42C83.2722 98.42 82.7855 98.5867 82.3855 98.92C81.9989 99.2533 81.7589 99.7267 81.6655 100.34H85.9455ZM90.5698 101.42C90.5698 100.26 90.8031 99.2467 91.2698 98.38C91.7498 97.5133 92.4098 96.8467 93.2498 96.38C94.1031 95.9133 95.0764 95.68 96.1698 95.68C97.5698 95.68 98.7364 96.0467 99.6698 96.78C100.616 97.5133 101.236 98.5467 101.53 99.88H97.8898C97.5831 99.0267 96.9898 98.6 96.1098 98.6C95.4831 98.6 94.9831 98.8467 94.6098 99.34C94.2364 99.82 94.0498 100.513 94.0498 101.42C94.0498 102.327 94.2364 103.027 94.6098 103.52C94.9831 104 95.4831 104.24 96.1098 104.24C96.9898 104.24 97.5831 103.813 97.8898 102.96H101.53C101.236 104.267 100.616 105.293 99.6698 106.04C98.7231 106.787 97.5564 107.16 96.1698 107.16C95.0764 107.16 94.1031 106.927 93.2498 106.46C92.4098 105.993 91.7498 105.327 91.2698 104.46C90.8031 103.593 90.5698 102.58 90.5698 101.42ZM109.579 104.1V107H107.839C106.599 107 105.632 106.7 104.939 106.1C104.246 105.487 103.899 104.493 103.899 103.12V98.68H102.539V95.84H103.899V93.12H107.319V95.84H109.559V98.68H107.319V103.16C107.319 103.493 107.399 103.733 107.559 103.88C107.719 104.027 107.986 104.1 108.359 104.1H109.579ZM115.022 95.58V92.4H120.562V107H117.002V95.58H115.022ZM122.542 95.58V92.4H128.082V107H124.522V95.58H122.542ZM130.421 99.5C130.421 97.2067 130.861 95.4 131.741 94.08C132.635 92.76 134.068 92.1 136.041 92.1C138.015 92.1 139.441 92.76 140.321 94.08C141.215 95.4 141.661 97.2067 141.661 99.5C141.661 101.82 141.215 103.64 140.321 104.96C139.441 106.28 138.015 106.94 136.041 106.94C134.068 106.94 132.635 106.28 131.741 104.96C130.861 103.64 130.421 101.82 130.421 99.5ZM138.301 99.5C138.301 98.1533 138.155 97.12 137.861 96.4C137.568 95.6667 136.961 95.3 136.041 95.3C135.121 95.3 134.515 95.6667 134.221 96.4C133.928 97.12 133.781 98.1533 133.781 99.5C133.781 100.407 133.835 101.16 133.941 101.76C134.048 102.347 134.261 102.827 134.581 103.2C134.915 103.56 135.401 103.74 136.041 103.74C136.681 103.74 137.161 103.56 137.481 103.2C137.815 102.827 138.035 102.347 138.141 101.76C138.248 101.16 138.301 100.407 138.301 99.5ZM143.188 96.08C143.188 95 143.495 94.1667 144.108 93.58C144.735 92.9933 145.542 92.7 146.528 92.7C147.515 92.7 148.315 92.9933 148.928 93.58C149.542 94.1667 149.848 95 149.848 96.08C149.848 97.16 149.542 97.9933 148.928 98.58C148.315 99.1667 147.515 99.46 146.528 99.46C145.542 99.46 144.735 99.1667 144.108 98.58C143.495 97.9933 143.188 97.16 143.188 96.08ZM156.768 92.92L149.068 107H145.768L153.468 92.92H156.768ZM146.508 94.7C145.868 94.7 145.548 95.16 145.548 96.08C145.548 96.9867 145.868 97.44 146.508 97.44C146.815 97.44 147.055 97.3267 147.228 97.1C147.402 96.8733 147.488 96.5333 147.488 96.08C147.488 95.16 147.162 94.7 146.508 94.7ZM152.708 103.84C152.708 102.76 153.015 101.927 153.628 101.34C154.242 100.753 155.042 100.46 156.028 100.46C157.015 100.46 157.815 100.753 158.428 101.34C159.042 101.927 159.348 102.76 159.348 103.84C159.348 104.92 159.042 105.753 158.428 106.34C157.815 106.927 157.015 107.22 156.028 107.22C155.042 107.22 154.242 106.927 153.628 106.34C153.015 105.753 152.708 104.92 152.708 103.84ZM156.008 102.46C155.702 102.46 155.462 102.573 155.288 102.8C155.128 103.027 155.048 103.373 155.048 103.84C155.048 104.747 155.368 105.2 156.008 105.2C156.315 105.2 156.555 105.087 156.728 104.86C156.902 104.633 156.988 104.293 156.988 103.84C156.988 103.387 156.902 103.047 156.728 102.82C156.555 102.58 156.315 102.46 156.008 102.46ZM25.9397 125.24C25.9397 125.56 25.9197 125.893 25.8797 126.24H18.1397C18.193 126.933 18.413 127.467 18.7997 127.84C19.1997 128.2 19.6864 128.38 20.2597 128.38C21.113 128.38 21.7064 128.02 22.0397 127.3H25.6797C25.493 128.033 25.153 128.693 24.6597 129.28C24.1797 129.867 23.573 130.327 22.8397 130.66C22.1064 130.993 21.2864 131.16 20.3797 131.16C19.2864 131.16 18.313 130.927 17.4597 130.46C16.6064 129.993 15.9397 129.327 15.4597 128.46C14.9797 127.593 14.7397 126.58 14.7397 125.42C14.7397 124.26 14.973 123.247 15.4397 122.38C15.9197 121.513 16.5864 120.847 17.4397 120.38C18.293 119.913 19.273 119.68 20.3797 119.68C21.4597 119.68 22.4197 119.907 23.2597 120.36C24.0997 120.813 24.753 121.46 25.2197 122.3C25.6997 123.14 25.9397 124.12 25.9397 125.24ZM22.4397 124.34C22.4397 123.753 22.2397 123.287 21.8397 122.94C21.4397 122.593 20.9397 122.42 20.3397 122.42C19.7664 122.42 19.2797 122.587 18.8797 122.92C18.493 123.253 18.253 123.727 18.1597 124.34H22.4397ZM32.7639 127.8L35.1839 119.84H38.8239L34.8639 131H30.6439L26.6839 119.84H30.3439L32.7639 127.8ZM50.7834 125.24C50.7834 125.56 50.7634 125.893 50.7234 126.24H42.9834C43.0368 126.933 43.2568 127.467 43.6434 127.84C44.0434 128.2 44.5301 128.38 45.1034 128.38C45.9568 128.38 46.5501 128.02 46.8834 127.3H50.5234C50.3368 128.033 49.9968 128.693 49.5034 129.28C49.0234 129.867 48.4168 130.327 47.6834 130.66C46.9501 130.993 46.1301 131.16 45.2234 131.16C44.1301 131.16 43.1568 130.927 42.3034 130.46C41.4501 129.993 40.7834 129.327 40.3034 128.46C39.8234 127.593 39.5834 126.58 39.5834 125.42C39.5834 124.26 39.8168 123.247 40.2834 122.38C40.7634 121.513 41.4301 120.847 42.2834 120.38C43.1368 119.913 44.1168 119.68 45.2234 119.68C46.3034 119.68 47.2634 119.907 48.1034 120.36C48.9434 120.813 49.5968 121.46 50.0634 122.3C50.5434 123.14 50.7834 124.12 50.7834 125.24ZM47.2834 124.34C47.2834 123.753 47.0834 123.287 46.6834 122.94C46.2834 122.593 45.7834 122.42 45.1834 122.42C44.6101 122.42 44.1234 122.587 43.7234 122.92C43.3368 123.253 43.0968 123.727 43.0034 124.34H47.2834ZM59.3877 119.72C60.6943 119.72 61.7343 120.147 62.5077 121C63.2943 121.84 63.6877 123 63.6877 124.48V131H60.2877V124.94C60.2877 124.193 60.0943 123.613 59.7077 123.2C59.321 122.787 58.801 122.58 58.1477 122.58C57.4943 122.58 56.9743 122.787 56.5877 123.2C56.201 123.613 56.0077 124.193 56.0077 124.94V131H52.5877V119.84H56.0077V121.32C56.3543 120.827 56.821 120.44 57.4077 120.16C57.9943 119.867 58.6543 119.72 59.3877 119.72ZM72.0225 118.68C71.4225 118.68 70.9292 118.507 70.5425 118.16C70.1692 117.8 69.9825 117.36 69.9825 116.84C69.9825 116.307 70.1692 115.867 70.5425 115.52C70.9292 115.16 71.4225 114.98 72.0225 114.98C72.6092 114.98 73.0892 115.16 73.4625 115.52C73.8492 115.867 74.0425 116.307 74.0425 116.84C74.0425 117.36 73.8492 117.8 73.4625 118.16C73.0892 118.507 72.6092 118.68 72.0225 118.68ZM73.7225 119.84V131H70.3025V119.84H73.7225ZM81.8009 122.68H79.9609V131H76.5409V122.68H75.3009V119.84H76.5409V119.52C76.5409 118.147 76.9343 117.107 77.7209 116.4C78.5076 115.68 79.6609 115.32 81.1809 115.32C81.4343 115.32 81.6209 115.327 81.7409 115.34V118.24C81.0876 118.2 80.6276 118.293 80.3609 118.52C80.0943 118.747 79.9609 119.153 79.9609 119.74V119.84H81.8009V122.68ZM91.0663 116.96V131H87.6463V116.96H91.0663ZM102.023 119.68C102.81 119.68 103.496 119.84 104.083 120.16C104.683 120.48 105.143 120.9 105.463 121.42V119.84H108.883V130.98C108.883 132.007 108.676 132.933 108.263 133.76C107.863 134.6 107.243 135.267 106.403 135.76C105.576 136.253 104.543 136.5 103.303 136.5C101.65 136.5 100.31 136.107 99.283 135.32C98.2563 134.547 97.6696 133.493 97.523 132.16H100.903C101.01 132.587 101.263 132.92 101.663 133.16C102.063 133.413 102.556 133.54 103.143 133.54C103.85 133.54 104.41 133.333 104.823 132.92C105.25 132.52 105.463 131.873 105.463 130.98V129.4C105.13 129.92 104.67 130.347 104.083 130.68C103.496 131 102.81 131.16 102.023 131.16C101.103 131.16 100.27 130.927 99.523 130.46C98.7763 129.98 98.183 129.307 97.743 128.44C97.3163 127.56 97.103 126.547 97.103 125.4C97.103 124.253 97.3163 123.247 97.743 122.38C98.183 121.513 98.7763 120.847 99.523 120.38C100.27 119.913 101.103 119.68 102.023 119.68ZM105.463 125.42C105.463 124.567 105.223 123.893 104.743 123.4C104.276 122.907 103.703 122.66 103.023 122.66C102.343 122.66 101.763 122.907 101.283 123.4C100.816 123.88 100.583 124.547 100.583 125.4C100.583 126.253 100.816 126.933 101.283 127.44C101.763 127.933 102.343 128.18 103.023 128.18C103.703 128.18 104.276 127.933 104.743 127.44C105.223 126.947 105.463 126.273 105.463 125.42ZM121.877 125.24C121.877 125.56 121.857 125.893 121.817 126.24H114.077C114.131 126.933 114.351 127.467 114.737 127.84C115.137 128.2 115.624 128.38 116.197 128.38C117.051 128.38 117.644 128.02 117.977 127.3H121.617C121.431 128.033 121.091 128.693 120.597 129.28C120.117 129.867 119.511 130.327 118.777 130.66C118.044 130.993 117.224 131.16 116.317 131.16C115.224 131.16 114.251 130.927 113.397 130.46C112.544 129.993 111.877 129.327 111.397 128.46C110.917 127.593 110.677 126.58 110.677 125.42C110.677 124.26 110.911 123.247 111.377 122.38C111.857 121.513 112.524 120.847 113.377 120.38C114.231 119.913 115.211 119.68 116.317 119.68C117.397 119.68 118.357 119.907 119.197 120.36C120.037 120.813 120.691 121.46 121.157 122.3C121.637 123.14 121.877 124.12 121.877 125.24ZM118.377 124.34C118.377 123.753 118.177 123.287 117.777 122.94C117.377 122.593 116.877 122.42 116.277 122.42C115.704 122.42 115.217 122.587 114.817 122.92C114.431 123.253 114.191 123.727 114.097 124.34H118.377ZM129.901 128.1V131H128.161C126.921 131 125.955 130.7 125.261 130.1C124.568 129.487 124.221 128.493 124.221 127.12V122.68H122.861V119.84H124.221V117.12H127.641V119.84H129.881V122.68H127.641V127.16C127.641 127.493 127.721 127.733 127.881 127.88C128.041 128.027 128.308 128.1 128.681 128.1H129.901ZM135.345 119.58V116.4H140.885V131H137.325V119.58H135.345ZM143.224 123.5C143.224 121.207 143.664 119.4 144.544 118.08C145.438 116.76 146.871 116.1 148.844 116.1C150.818 116.1 152.244 116.76 153.124 118.08C154.018 119.4 154.464 121.207 154.464 123.5C154.464 125.82 154.018 127.64 153.124 128.96C152.244 130.28 150.818 130.94 148.844 130.94C146.871 130.94 145.438 130.28 144.544 128.96C143.664 127.64 143.224 125.82 143.224 123.5ZM151.104 123.5C151.104 122.153 150.958 121.12 150.664 120.4C150.371 119.667 149.764 119.3 148.844 119.3C147.924 119.3 147.318 119.667 147.024 120.4C146.731 121.12 146.584 122.153 146.584 123.5C146.584 124.407 146.638 125.16 146.744 125.76C146.851 126.347 147.064 126.827 147.384 127.2C147.718 127.56 148.204 127.74 148.844 127.74C149.484 127.74 149.964 127.56 150.284 127.2C150.618 126.827 150.838 126.347 150.944 125.76C151.051 125.16 151.104 124.407 151.104 123.5ZM156.271 123.5C156.271 121.207 156.711 119.4 157.591 118.08C158.484 116.76 159.918 116.1 161.891 116.1C163.864 116.1 165.291 116.76 166.171 118.08C167.064 119.4 167.511 121.207 167.511 123.5C167.511 125.82 167.064 127.64 166.171 128.96C165.291 130.28 163.864 130.94 161.891 130.94C159.918 130.94 158.484 130.28 157.591 128.96C156.711 127.64 156.271 125.82 156.271 123.5ZM164.151 123.5C164.151 122.153 164.004 121.12 163.711 120.4C163.418 119.667 162.811 119.3 161.891 119.3C160.971 119.3 160.364 119.667 160.071 120.4C159.778 121.12 159.631 122.153 159.631 123.5C159.631 124.407 159.684 125.16 159.791 125.76C159.898 126.347 160.111 126.827 160.431 127.2C160.764 127.56 161.251 127.74 161.891 127.74C162.531 127.74 163.011 127.56 163.331 127.2C163.664 126.827 163.884 126.347 163.991 125.76C164.098 125.16 164.151 124.407 164.151 123.5ZM169.038 120.08C169.038 119 169.345 118.167 169.958 117.58C170.585 116.993 171.391 116.7 172.378 116.7C173.365 116.7 174.165 116.993 174.778 117.58C175.391 118.167 175.698 119 175.698 120.08C175.698 121.16 175.391 121.993 174.778 122.58C174.165 123.167 173.365 123.46 172.378 123.46C171.391 123.46 170.585 123.167 169.958 122.58C169.345 121.993 169.038 121.16 169.038 120.08ZM182.618 116.92L174.918 131H171.618L179.318 116.92H182.618ZM172.358 118.7C171.718 118.7 171.398 119.16 171.398 120.08C171.398 120.987 171.718 121.44 172.358 121.44C172.665 121.44 172.905 121.327 173.078 121.1C173.251 120.873 173.338 120.533 173.338 120.08C173.338 119.16 173.011 118.7 172.358 118.7ZM178.558 127.84C178.558 126.76 178.865 125.927 179.478 125.34C180.091 124.753 180.891 124.46 181.878 124.46C182.865 124.46 183.665 124.753 184.278 125.34C184.891 125.927 185.198 126.76 185.198 127.84C185.198 128.92 184.891 129.753 184.278 130.34C183.665 130.927 182.865 131.22 181.878 131.22C180.891 131.22 180.091 130.927 179.478 130.34C178.865 129.753 178.558 128.92 178.558 127.84ZM181.858 126.46C181.551 126.46 181.311 126.573 181.138 126.8C180.978 127.027 180.898 127.373 180.898 127.84C180.898 128.747 181.218 129.2 181.858 129.2C182.165 129.2 182.405 129.087 182.578 128.86C182.751 128.633 182.838 128.293 182.838 127.84C182.838 127.387 182.751 127.047 182.578 126.82C182.405 126.58 182.165 126.46 181.858 126.46Z" fill="white"/>
</svg>
