<svg width="200" height="200" viewBox="0 0 200 200" fill="none" xmlns="http://www.w3.org/2000/svg">
<rect width="200" height="200" rx="100" fill="#FCA06C"/>
<path d="M72.4057 68.96L68.7457 83H64.6057L62.3657 73.76L60.0457 83H55.9057L52.3457 68.96H56.0057L58.0257 79.18L60.5257 68.96H64.2857L66.6857 79.18L68.7257 68.96H72.4057ZM75.8409 70.68C75.2409 70.68 74.7475 70.5067 74.3609 70.16C73.9875 69.8 73.8009 69.36 73.8009 68.84C73.8009 68.3067 73.9875 67.8667 74.3609 67.52C74.7475 67.16 75.2409 66.98 75.8409 66.98C76.4275 66.98 76.9075 67.16 77.2809 67.52C77.6675 67.8667 77.8609 68.3067 77.8609 68.84C77.8609 69.36 77.6675 69.8 77.2809 70.16C76.9075 70.5067 76.4275 70.68 75.8409 70.68ZM77.5409 71.84V83H74.1209V71.84H77.5409ZM83.4393 68.2V83H80.0193V68.2H83.4393ZM89.3377 68.2V83H85.9177V68.2H89.3377ZM102.274 80.1V83H100.534C99.2945 83 98.3278 82.7 97.6345 82.1C96.9411 81.4867 96.5945 80.4933 96.5945 79.12V74.68H95.2345V71.84H96.5945V69.12H100.014V71.84H102.254V74.68H100.014V79.16C100.014 79.4933 100.094 79.7333 100.254 79.88C100.414 80.0267 100.681 80.1 101.054 80.1H102.274ZM111.039 71.72C112.319 71.72 113.346 72.1467 114.119 73C114.893 73.84 115.279 75 115.279 76.48V83H111.879V76.94C111.879 76.1933 111.686 75.6133 111.299 75.2C110.913 74.7867 110.393 74.58 109.739 74.58C109.086 74.58 108.566 74.7867 108.179 75.2C107.793 75.6133 107.599 76.1933 107.599 76.94V83H104.179V68.2H107.599V73.34C107.946 72.8467 108.419 72.4533 109.019 72.16C109.619 71.8667 110.293 71.72 111.039 71.72ZM119.376 70.68C118.776 70.68 118.283 70.5067 117.896 70.16C117.523 69.8 117.336 69.36 117.336 68.84C117.336 68.3067 117.523 67.8667 117.896 67.52C118.283 67.16 118.776 66.98 119.376 66.98C119.963 66.98 120.443 67.16 120.816 67.52C121.203 67.8667 121.396 68.3067 121.396 68.84C121.396 69.36 121.203 69.8 120.816 70.16C120.443 70.5067 119.963 70.68 119.376 70.68ZM121.076 71.84V83H117.656V71.84H121.076ZM130.354 71.72C131.661 71.72 132.701 72.1467 133.474 73C134.261 73.84 134.654 75 134.654 76.48V83H131.254V76.94C131.254 76.1933 131.061 75.6133 130.674 75.2C130.288 74.7867 129.768 74.58 129.114 74.58C128.461 74.58 127.941 74.7867 127.554 75.2C127.168 75.6133 126.974 76.1933 126.974 76.94V83H123.554V71.84H126.974V73.32C127.321 72.8267 127.788 72.44 128.374 72.16C128.961 71.8667 129.621 71.72 130.354 71.72ZM143.851 83L140.451 78.32V83H137.031V68.2H140.451V76.38L143.831 71.84H148.051L143.411 77.44L148.091 83H143.851ZM44.8569 101.4C44.8569 100.253 45.0702 99.2467 45.4969 98.38C45.9369 97.5133 46.5302 96.8467 47.2769 96.38C48.0235 95.9133 48.8569 95.68 49.7769 95.68C50.5635 95.68 51.2502 95.84 51.8369 96.16C52.4369 96.48 52.8969 96.9 53.2169 97.42V95.84H56.6369V107H53.2169V105.42C52.8835 105.94 52.4169 106.36 51.8169 106.68C51.2302 107 50.5435 107.16 49.7569 107.16C48.8502 107.16 48.0235 106.927 47.2769 106.46C46.5302 105.98 45.9369 105.307 45.4969 104.44C45.0702 103.56 44.8569 102.547 44.8569 101.4ZM53.2169 101.42C53.2169 100.567 52.9769 99.8933 52.4969 99.4C52.0302 98.9067 51.4569 98.66 50.7769 98.66C50.0969 98.66 49.5169 98.9067 49.0369 99.4C48.5702 99.88 48.3369 100.547 48.3369 101.4C48.3369 102.253 48.5702 102.933 49.0369 103.44C49.5169 103.933 50.0969 104.18 50.7769 104.18C51.4569 104.18 52.0302 103.933 52.4969 103.44C52.9769 102.947 53.2169 102.273 53.2169 101.42ZM62.5311 97.42C62.8511 96.9 63.3111 96.48 63.9111 96.16C64.5111 95.84 65.1978 95.68 65.9711 95.68C66.8911 95.68 67.7244 95.9133 68.4711 96.38C69.2178 96.8467 69.8044 97.5133 70.2311 98.38C70.6711 99.2467 70.8911 100.253 70.8911 101.4C70.8911 102.547 70.6711 103.56 70.2311 104.44C69.8044 105.307 69.2178 105.98 68.4711 106.46C67.7244 106.927 66.8911 107.16 65.9711 107.16C65.1844 107.16 64.4978 107.007 63.9111 106.7C63.3244 106.38 62.8644 105.96 62.5311 105.44V107H59.1111V92.2H62.5311V97.42ZM67.4111 101.4C67.4111 100.547 67.1711 99.88 66.6911 99.4C66.2244 98.9067 65.6444 98.66 64.9511 98.66C64.2711 98.66 63.6911 98.9067 63.2111 99.4C62.7444 99.8933 62.5111 100.567 62.5111 101.42C62.5111 102.273 62.7444 102.947 63.2111 103.44C63.6911 103.933 64.2711 104.18 64.9511 104.18C65.6311 104.18 66.2111 103.933 66.6911 103.44C67.1711 102.933 67.4111 102.253 67.4111 101.4ZM77.7653 107.16C76.672 107.16 75.6853 106.927 74.8053 106.46C73.9386 105.993 73.252 105.327 72.7453 104.46C72.252 103.593 72.0053 102.58 72.0053 101.42C72.0053 100.273 72.2586 99.2667 72.7653 98.4C73.272 97.52 73.9653 96.8467 74.8453 96.38C75.7253 95.9133 76.712 95.68 77.8053 95.68C78.8986 95.68 79.8853 95.9133 80.7653 96.38C81.6453 96.8467 82.3386 97.52 82.8453 98.4C83.352 99.2667 83.6053 100.273 83.6053 101.42C83.6053 102.567 83.3453 103.58 82.8253 104.46C82.3186 105.327 81.6186 105.993 80.7253 106.46C79.8453 106.927 78.8586 107.16 77.7653 107.16ZM77.7653 104.2C78.4186 104.2 78.972 103.96 79.4253 103.48C79.892 103 80.1253 102.313 80.1253 101.42C80.1253 100.527 79.8986 99.84 79.4453 99.36C79.0053 98.88 78.4586 98.64 77.8053 98.64C77.1386 98.64 76.5853 98.88 76.1453 99.36C75.7053 99.8267 75.4853 100.513 75.4853 101.42C75.4853 102.313 75.6986 103 76.1253 103.48C76.5653 103.96 77.112 104.2 77.7653 104.2ZM96.4397 95.84V107H93.0197V105.48C92.673 105.973 92.1997 106.373 91.5997 106.68C91.013 106.973 90.3597 107.12 89.6397 107.12C88.7864 107.12 88.033 106.933 87.3797 106.56C86.7264 106.173 86.2197 105.62 85.8597 104.9C85.4997 104.18 85.3197 103.333 85.3197 102.36V95.84H88.7197V101.9C88.7197 102.647 88.913 103.227 89.2997 103.64C89.6864 104.053 90.2064 104.26 90.8597 104.26C91.5264 104.26 92.053 104.053 92.4397 103.64C92.8264 103.227 93.0197 102.647 93.0197 101.9V95.84H96.4397ZM105.116 104.1V107H103.376C102.136 107 101.17 106.7 100.476 106.1C99.7829 105.487 99.4363 104.493 99.4363 103.12V98.68H98.0763V95.84H99.4363V93.12H102.856V95.84H105.096V98.68H102.856V103.16C102.856 103.493 102.936 103.733 103.096 103.88C103.256 104.027 103.523 104.1 103.896 104.1H105.116ZM118.06 95.72C119.366 95.72 120.406 96.1467 121.18 97C121.966 97.84 122.36 99 122.36 100.48V107H118.96V100.94C118.96 100.193 118.766 99.6133 118.38 99.2C117.993 98.7867 117.473 98.58 116.82 98.58C116.166 98.58 115.646 98.7867 115.26 99.2C114.873 99.6133 114.68 100.193 114.68 100.94V107H111.26V95.84H114.68V97.32C115.026 96.8267 115.493 96.44 116.08 96.16C116.666 95.8667 117.326 95.72 118.06 95.72ZM135.256 101.24C135.256 101.56 135.236 101.893 135.196 102.24H127.456C127.509 102.933 127.729 103.467 128.116 103.84C128.516 104.2 129.003 104.38 129.576 104.38C130.429 104.38 131.023 104.02 131.356 103.3H134.996C134.809 104.033 134.469 104.693 133.976 105.28C133.496 105.867 132.889 106.327 132.156 106.66C131.423 106.993 130.603 107.16 129.696 107.16C128.603 107.16 127.629 106.927 126.776 106.46C125.923 105.993 125.256 105.327 124.776 104.46C124.296 103.593 124.056 102.58 124.056 101.42C124.056 100.26 124.289 99.2467 124.756 98.38C125.236 97.5133 125.903 96.8467 126.756 96.38C127.609 95.9133 128.589 95.68 129.696 95.68C130.776 95.68 131.736 95.9067 132.576 96.36C133.416 96.8133 134.069 97.46 134.536 98.3C135.016 99.14 135.256 100.12 135.256 101.24ZM131.756 100.34C131.756 99.7533 131.556 99.2867 131.156 98.94C130.756 98.5933 130.256 98.42 129.656 98.42C129.083 98.42 128.596 98.5867 128.196 98.92C127.809 99.2533 127.569 99.7267 127.476 100.34H131.756ZM143.66 107L141.52 103.9L139.72 107H136.02L139.7 101.3L135.92 95.84H139.76L141.9 98.92L143.7 95.84H147.4L143.66 101.46L147.5 107H143.66ZM155.038 104.1V107H153.298C152.058 107 151.091 106.7 150.398 106.1C149.705 105.487 149.358 104.493 149.358 103.12V98.68H147.998V95.84H149.358V93.12H152.778V95.84H155.018V98.68H152.778V103.16C152.778 103.493 152.858 103.733 153.018 103.88C153.178 104.027 153.445 104.1 153.818 104.1H155.038ZM50.4123 125.24C50.4123 125.56 50.3923 125.893 50.3523 126.24H42.6123C42.6657 126.933 42.8857 127.467 43.2723 127.84C43.6723 128.2 44.159 128.38 44.7323 128.38C45.5857 128.38 46.179 128.02 46.5123 127.3H50.1523C49.9657 128.033 49.6257 128.693 49.1323 129.28C48.6523 129.867 48.0457 130.327 47.3123 130.66C46.579 130.993 45.759 131.16 44.8523 131.16C43.759 131.16 42.7857 130.927 41.9323 130.46C41.079 129.993 40.4123 129.327 39.9323 128.46C39.4523 127.593 39.2123 126.58 39.2123 125.42C39.2123 124.26 39.4457 123.247 39.9123 122.38C40.3923 121.513 41.059 120.847 41.9123 120.38C42.7657 119.913 43.7457 119.68 44.8523 119.68C45.9323 119.68 46.8923 119.907 47.7323 120.36C48.5723 120.813 49.2257 121.46 49.6923 122.3C50.1723 123.14 50.4123 124.12 50.4123 125.24ZM46.9123 124.34C46.9123 123.753 46.7123 123.287 46.3123 122.94C45.9123 122.593 45.4123 122.42 44.8123 122.42C44.239 122.42 43.7523 122.587 43.3523 122.92C42.9657 123.253 42.7257 123.727 42.6323 124.34H46.9123ZM58.8166 131L56.6766 127.9L54.8766 131H51.1766L54.8566 125.3L51.0766 119.84H54.9166L57.0566 122.92L58.8566 119.84H62.5566L58.8166 125.46L62.6566 131H58.8166ZM63.2944 125.4C63.2944 124.253 63.5077 123.247 63.9344 122.38C64.3744 121.513 64.9677 120.847 65.7144 120.38C66.461 119.913 67.2944 119.68 68.2144 119.68C69.001 119.68 69.6877 119.84 70.2744 120.16C70.8744 120.48 71.3344 120.9 71.6544 121.42V119.84H75.0744V131H71.6544V129.42C71.321 129.94 70.8544 130.36 70.2544 130.68C69.6677 131 68.981 131.16 68.1944 131.16C67.2877 131.16 66.461 130.927 65.7144 130.46C64.9677 129.98 64.3744 129.307 63.9344 128.44C63.5077 127.56 63.2944 126.547 63.2944 125.4ZM71.6544 125.42C71.6544 124.567 71.4144 123.893 70.9344 123.4C70.4677 122.907 69.8944 122.66 69.2144 122.66C68.5344 122.66 67.9544 122.907 67.4744 123.4C67.0077 123.88 66.7744 124.547 66.7744 125.4C66.7744 126.253 67.0077 126.933 67.4744 127.44C67.9544 127.933 68.5344 128.18 69.2144 128.18C69.8944 128.18 70.4677 127.933 70.9344 127.44C71.4144 126.947 71.6544 126.273 71.6544 125.42ZM91.7886 119.72C93.1753 119.72 94.2753 120.14 95.0886 120.98C95.9153 121.82 96.3286 122.987 96.3286 124.48V131H92.9286V124.94C92.9286 124.22 92.7353 123.667 92.3486 123.28C91.9753 122.88 91.4553 122.68 90.7886 122.68C90.1219 122.68 89.5953 122.88 89.2086 123.28C88.8353 123.667 88.6486 124.22 88.6486 124.94V131H85.2486V124.94C85.2486 124.22 85.0553 123.667 84.6686 123.28C84.2953 122.88 83.7753 122.68 83.1086 122.68C82.4419 122.68 81.9153 122.88 81.5286 123.28C81.1553 123.667 80.9686 124.22 80.9686 124.94V131H77.5486V119.84H80.9686V121.24C81.3153 120.773 81.7686 120.407 82.3286 120.14C82.8886 119.86 83.5219 119.72 84.2286 119.72C85.0686 119.72 85.8153 119.9 86.4686 120.26C87.1353 120.62 87.6553 121.133 88.0286 121.8C88.4153 121.187 88.9419 120.687 89.6086 120.3C90.2753 119.913 91.0019 119.72 91.7886 119.72ZM103.26 131.16C102.287 131.16 101.42 130.993 100.66 130.66C99.9005 130.327 99.3005 129.873 98.8605 129.3C98.4205 128.713 98.1738 128.06 98.1205 127.34H101.5C101.54 127.727 101.72 128.04 102.04 128.28C102.36 128.52 102.754 128.64 103.22 128.64C103.647 128.64 103.974 128.56 104.2 128.4C104.44 128.227 104.56 128.007 104.56 127.74C104.56 127.42 104.394 127.187 104.06 127.04C103.727 126.88 103.187 126.707 102.44 126.52C101.64 126.333 100.974 126.14 100.44 125.94C99.9071 125.727 99.4471 125.4 99.0605 124.96C98.6738 124.507 98.4805 123.9 98.4805 123.14C98.4805 122.5 98.6538 121.92 99.0005 121.4C99.3605 120.867 99.8805 120.447 100.56 120.14C101.254 119.833 102.074 119.68 103.02 119.68C104.42 119.68 105.52 120.027 106.32 120.72C107.134 121.413 107.6 122.333 107.72 123.48H104.56C104.507 123.093 104.334 122.787 104.04 122.56C103.76 122.333 103.387 122.22 102.92 122.22C102.52 122.22 102.214 122.3 102 122.46C101.787 122.607 101.68 122.813 101.68 123.08C101.68 123.4 101.847 123.64 102.18 123.8C102.527 123.96 103.06 124.12 103.78 124.28C104.607 124.493 105.28 124.707 105.8 124.92C106.32 125.12 106.774 125.453 107.16 125.92C107.56 126.373 107.767 126.987 107.78 127.76C107.78 128.413 107.594 129 107.22 129.52C106.86 130.027 106.334 130.427 105.64 130.72C104.96 131.013 104.167 131.16 103.26 131.16ZM117.531 116.2V131H114.111V116.2H117.531ZM119.33 125.4C119.33 124.253 119.543 123.247 119.97 122.38C120.41 121.513 121.003 120.847 121.75 120.38C122.496 119.913 123.33 119.68 124.25 119.68C125.036 119.68 125.723 119.84 126.31 120.16C126.91 120.48 127.37 120.9 127.69 121.42V119.84H131.11V131H127.69V129.42C127.356 129.94 126.89 130.36 126.29 130.68C125.703 131 125.016 131.16 124.23 131.16C123.323 131.16 122.496 130.927 121.75 130.46C121.003 129.98 120.41 129.307 119.97 128.44C119.543 127.56 119.33 126.547 119.33 125.4ZM127.69 125.42C127.69 124.567 127.45 123.893 126.97 123.4C126.503 122.907 125.93 122.66 125.25 122.66C124.57 122.66 123.99 122.907 123.51 123.4C123.043 123.88 122.81 124.547 122.81 125.4C122.81 126.253 123.043 126.933 123.51 127.44C123.99 127.933 124.57 128.18 125.25 128.18C125.93 128.18 126.503 127.933 126.97 127.44C127.45 126.947 127.69 126.273 127.69 125.42ZM139.804 128.1V131H138.064C136.824 131 135.857 130.7 135.164 130.1C134.47 129.487 134.124 128.493 134.124 127.12V122.68H132.764V119.84H134.124V117.12H137.544V119.84H139.784V122.68H137.544V127.16C137.544 127.493 137.624 127.733 137.784 127.88C137.944 128.027 138.21 128.1 138.584 128.1H139.804ZM152.229 125.24C152.229 125.56 152.209 125.893 152.169 126.24H144.429C144.482 126.933 144.702 127.467 145.089 127.84C145.489 128.2 145.975 128.38 146.549 128.38C147.402 128.38 147.995 128.02 148.329 127.3H151.969C151.782 128.033 151.442 128.693 150.949 129.28C150.469 129.867 149.862 130.327 149.129 130.66C148.395 130.993 147.575 131.16 146.669 131.16C145.575 131.16 144.602 130.927 143.749 130.46C142.895 129.993 142.229 129.327 141.749 128.46C141.269 127.593 141.029 126.58 141.029 125.42C141.029 124.26 141.262 123.247 141.729 122.38C142.209 121.513 142.875 120.847 143.729 120.38C144.582 119.913 145.562 119.68 146.669 119.68C147.749 119.68 148.709 119.907 149.549 120.36C150.389 120.813 151.042 121.46 151.509 122.3C151.989 123.14 152.229 124.12 152.229 125.24ZM148.729 124.34C148.729 123.753 148.529 123.287 148.129 122.94C147.729 122.593 147.229 122.42 146.629 122.42C146.055 122.42 145.569 122.587 145.169 122.92C144.782 123.253 144.542 123.727 144.449 124.34H148.729ZM157.453 121.7C157.853 121.087 158.353 120.607 158.953 120.26C159.553 119.9 160.22 119.72 160.953 119.72V123.34H160.013C159.16 123.34 158.52 123.527 158.093 123.9C157.666 124.26 157.453 124.9 157.453 125.82V131H154.033V119.84H157.453V121.7Z" fill="white"/>
</svg>
