<svg width="150" height="150" viewBox="0 0 150 150" fill="none" xmlns="http://www.w3.org/2000/svg">
<rect width="150" height="150" rx="75" fill="#FCA06C"/>
<path d="M27.5796 69.768V81H24.8436V69.768H27.5796ZM38.3929 71.976C39.4383 71.976 40.2703 72.3173 40.8889 73C41.5183 73.672 41.8329 74.6 41.8329 75.784V81H39.1129V76.152C39.1129 75.5547 38.9583 75.0907 38.6489 74.76C38.3396 74.4293 37.9236 74.264 37.4009 74.264C36.8783 74.264 36.4623 74.4293 36.1529 74.76C35.8436 75.0907 35.6889 75.5547 35.6889 76.152V81H32.9529V72.072H35.6889V73.256C35.9663 72.8613 36.3396 72.552 36.8089 72.328C37.2783 72.0933 37.8063 71.976 38.3929 71.976ZM52.1502 76.392C52.1502 76.648 52.1342 76.9147 52.1022 77.192H45.9102C45.9529 77.7467 46.1289 78.1733 46.4382 78.472C46.7582 78.76 47.1475 78.904 47.6062 78.904C48.2889 78.904 48.7635 78.616 49.0302 78.04H51.9422C51.7929 78.6267 51.5209 79.1547 51.1262 79.624C50.7422 80.0933 50.2569 80.4613 49.6702 80.728C49.0835 80.9947 48.4275 81.128 47.7022 81.128C46.8275 81.128 46.0489 80.9413 45.3662 80.568C44.6835 80.1947 44.1502 79.6613 43.7662 78.968C43.3822 78.2747 43.1902 77.464 43.1902 76.536C43.1902 75.608 43.3769 74.7973 43.7502 74.104C44.1342 73.4107 44.6675 72.8773 45.3502 72.504C46.0329 72.1307 46.8169 71.944 47.7022 71.944C48.5662 71.944 49.3342 72.1253 50.0062 72.488C50.6782 72.8507 51.2009 73.368 51.5742 74.04C51.9582 74.712 52.1502 75.496 52.1502 76.392ZM49.3502 75.672C49.3502 75.2027 49.1902 74.8293 48.8702 74.552C48.5502 74.2747 48.1502 74.136 47.6702 74.136C47.2115 74.136 46.8222 74.2693 46.5022 74.536C46.1929 74.8027 46.0009 75.1813 45.9262 75.672H49.3502ZM62.0096 76.392C62.0096 76.648 61.9936 76.9147 61.9616 77.192H55.7696C55.8122 77.7467 55.9882 78.1733 56.2976 78.472C56.6176 78.76 57.0069 78.904 57.4656 78.904C58.1482 78.904 58.6229 78.616 58.8896 78.04H61.8016C61.6522 78.6267 61.3802 79.1547 60.9856 79.624C60.6016 80.0933 60.1162 80.4613 59.5296 80.728C58.9429 80.9947 58.2869 81.128 57.5616 81.128C56.6869 81.128 55.9082 80.9413 55.2256 80.568C54.5429 80.1947 54.0096 79.6613 53.6256 78.968C53.2416 78.2747 53.0496 77.464 53.0496 76.536C53.0496 75.608 53.2362 74.7973 53.6096 74.104C53.9936 73.4107 54.5269 72.8773 55.2096 72.504C55.8922 72.1307 56.6762 71.944 57.5616 71.944C58.4256 71.944 59.1936 72.1253 59.8656 72.488C60.5376 72.8507 61.0602 73.368 61.4336 74.04C61.8176 74.712 62.0096 75.496 62.0096 76.392ZM59.2096 75.672C59.2096 75.2027 59.0496 74.8293 58.7296 74.552C58.4096 74.2747 58.0096 74.136 57.5296 74.136C57.0709 74.136 56.6816 74.2693 56.3616 74.536C56.0522 74.8027 55.8602 75.1813 55.7856 75.672H59.2096ZM62.9089 76.52C62.9089 75.6027 63.0796 74.7973 63.4209 74.104C63.7729 73.4107 64.2476 72.8773 64.8449 72.504C65.4423 72.1307 66.1089 71.944 66.8449 71.944C67.4316 71.944 67.9649 72.0667 68.4449 72.312C68.9356 72.5573 69.3196 72.888 69.5969 73.304V69.16H72.3329V81H69.5969V79.72C69.3409 80.1467 68.9729 80.488 68.4929 80.744C68.0236 81 67.4743 81.128 66.8449 81.128C66.1089 81.128 65.4423 80.9413 64.8449 80.568C64.2476 80.184 63.7729 79.6453 63.4209 78.952C63.0796 78.248 62.9089 77.4373 62.9089 76.52ZM69.5969 76.536C69.5969 75.8533 69.4049 75.3147 69.0209 74.92C68.6476 74.5253 68.1889 74.328 67.6449 74.328C67.1009 74.328 66.6369 74.5253 66.2529 74.92C65.8796 75.304 65.6929 75.8373 65.6929 76.52C65.6929 77.2027 65.8796 77.7467 66.2529 78.152C66.6369 78.5467 67.1009 78.744 67.6449 78.744C68.1889 78.744 68.6476 78.5467 69.0209 78.152C69.4049 77.7573 69.5969 77.2187 69.5969 76.536ZM79.0789 71.144C78.5989 71.144 78.2043 71.0053 77.8949 70.728C77.5963 70.44 77.4469 70.088 77.4469 69.672C77.4469 69.2453 77.5963 68.8933 77.8949 68.616C78.2043 68.328 78.5989 68.184 79.0789 68.184C79.5483 68.184 79.9323 68.328 80.2309 68.616C80.5403 68.8933 80.6949 69.2453 80.6949 69.672C80.6949 70.088 80.5403 70.44 80.2309 70.728C79.9323 71.0053 79.5483 71.144 79.0789 71.144ZM80.4389 72.072V81H77.7029V72.072H80.4389ZM87.3977 78.68V81H86.0057C85.0137 81 84.2404 80.76 83.6857 80.28C83.131 79.7893 82.8537 78.9947 82.8537 77.896V74.344H81.7657V72.072H82.8537V69.896H85.5897V72.072H87.3817V74.344H85.5897V77.928C85.5897 78.1947 85.6537 78.3867 85.7817 78.504C85.9097 78.6213 86.123 78.68 86.4217 78.68H87.3977ZM97.7523 71.976C98.7976 71.976 99.6296 72.3173 100.248 73C100.878 73.672 101.192 74.6 101.192 75.784V81H98.4723V76.152C98.4723 75.5547 98.3176 75.0907 98.0083 74.76C97.699 74.4293 97.283 74.264 96.7603 74.264C96.2376 74.264 95.8216 74.4293 95.5123 74.76C95.203 75.0907 95.0483 75.5547 95.0483 76.152V81H92.3123V72.072H95.0483V73.256C95.3256 72.8613 95.699 72.552 96.1683 72.328C96.6376 72.0933 97.1656 71.976 97.7523 71.976ZM107.158 81.128C106.283 81.128 105.494 80.9413 104.79 80.568C104.096 80.1947 103.547 79.6613 103.142 78.968C102.747 78.2747 102.55 77.464 102.55 76.536C102.55 75.6187 102.752 74.8133 103.158 74.12C103.563 73.416 104.118 72.8773 104.822 72.504C105.526 72.1307 106.315 71.944 107.19 71.944C108.064 71.944 108.854 72.1307 109.558 72.504C110.262 72.8773 110.816 73.416 111.222 74.12C111.627 74.8133 111.83 75.6187 111.83 76.536C111.83 77.4533 111.622 78.264 111.206 78.968C110.8 79.6613 110.24 80.1947 109.526 80.568C108.822 80.9413 108.032 81.128 107.158 81.128ZM107.158 78.76C107.68 78.76 108.123 78.568 108.486 78.184C108.859 77.8 109.046 77.2507 109.046 76.536C109.046 75.8213 108.864 75.272 108.502 74.888C108.15 74.504 107.712 74.312 107.19 74.312C106.656 74.312 106.214 74.504 105.862 74.888C105.51 75.2613 105.334 75.8107 105.334 76.536C105.334 77.2507 105.504 77.8 105.846 78.184C106.198 78.568 106.635 78.76 107.158 78.76ZM126.097 72.072L123.681 81H120.657L119.249 75.208L117.793 81H114.785L112.353 72.072H115.089L116.353 78.456L117.857 72.072H120.753L122.273 78.424L123.521 72.072H126.097Z" fill="white"/>
</svg>
