<svg width="150" height="150" viewBox="0 0 150 150" fill="none" xmlns="http://www.w3.org/2000/svg">
<rect width="150" height="150" rx="75" fill="#FCA06C"/>
<path d="M61.3843 69.768V81H58.6483V69.768H61.3843ZM68.343 78.68V81H66.951C65.959 81 65.1857 80.76 64.631 80.28C64.0763 79.7893 63.799 78.9947 63.799 77.896V74.344H62.711V72.072H63.799V69.896H66.535V72.072H68.327V74.344H66.535V77.928C66.535 78.1947 66.599 78.3867 66.727 78.504C66.855 78.6213 67.0683 78.68 67.367 78.68H68.343ZM77.3216 81.128C76.447 81.128 75.6576 80.9413 74.9536 80.568C74.2603 80.1947 73.711 79.6613 73.3056 78.968C72.911 78.2747 72.7136 77.464 72.7136 76.536C72.7136 75.6187 72.9163 74.8133 73.3216 74.12C73.727 73.416 74.2816 72.8773 74.9856 72.504C75.6896 72.1307 76.479 71.944 77.3536 71.944C78.2283 71.944 79.0176 72.1307 79.7216 72.504C80.4256 72.8773 80.9803 73.416 81.3856 74.12C81.791 74.8133 81.9936 75.6187 81.9936 76.536C81.9936 77.4533 81.7856 78.264 81.3696 78.968C80.9643 79.6613 80.4043 80.1947 79.6896 80.568C78.9856 80.9413 78.1963 81.128 77.3216 81.128ZM77.3216 78.76C77.8443 78.76 78.287 78.568 78.6496 78.184C79.023 77.8 79.2096 77.2507 79.2096 76.536C79.2096 75.8213 79.0283 75.272 78.6656 74.888C78.3136 74.504 77.8763 74.312 77.3536 74.312C76.8203 74.312 76.3776 74.504 76.0256 74.888C75.6736 75.2613 75.4976 75.8107 75.4976 76.536C75.4976 77.2507 75.6683 77.8 76.0096 78.184C76.3616 78.568 76.799 78.76 77.3216 78.76ZM88.9011 81L86.1811 77.256V81H83.4451V69.16H86.1811V75.704L88.8851 72.072H92.2611L88.5491 76.552L92.2931 81H88.9011Z" fill="white"/>
</svg>
