<svg width="514" height="94" viewBox="0 0 514 94" fill="none" xmlns="http://www.w3.org/2000/svg">
<path d="M4.22291 13.716H4.72691C5.38291 13.716 5.71091 13.396 5.71091 12.756V10.668L2.54291 4.836C2.30291 4.404 2.06291 4.116 1.82291 3.972C1.59891 3.812 1.24691 3.732 0.766906 3.732H0.238906V0.972H7.17491V3.732H6.50291L7.96691 7.14L9.33491 3.732H8.66291V0.972H15.5989V3.732H15.0709C14.5909 3.732 14.2309 3.812 13.9909 3.972C13.7509 4.132 13.5109 4.428 13.2709 4.86L10.1269 10.692V12.828C10.1269 13.42 10.4549 13.716 11.1109 13.716H11.6149V16.5H4.22291V13.716ZM19.2083 16.86C17.1923 16.86 15.6243 16.34 14.5043 15.3C13.4003 14.26 12.8483 12.74 12.8483 10.74C12.8483 8.724 13.3923 7.204 14.4803 6.18C15.5683 5.14 17.1443 4.62 19.2083 4.62C21.2563 4.62 22.8163 5.14 23.8883 6.18C24.9763 7.204 25.5203 8.724 25.5203 10.74C25.5203 12.74 24.9683 14.26 23.8643 15.3C22.7603 16.34 21.2083 16.86 19.2083 16.86ZM19.2083 14.004C19.9123 14.004 20.4003 13.756 20.6723 13.26C20.9603 12.748 21.1043 11.908 21.1043 10.74C21.1043 9.556 20.9603 8.716 20.6723 8.22C20.4003 7.724 19.9123 7.476 19.2083 7.476C18.4883 7.476 17.9923 7.724 17.7203 8.22C17.4483 8.7 17.3123 9.54 17.3123 10.74C17.3123 11.924 17.4483 12.764 17.7203 13.26C17.9923 13.756 18.4883 14.004 19.2083 14.004ZM30.7633 16.884C29.3233 16.884 28.2673 16.54 27.5953 15.852C26.9233 15.148 26.5873 14.132 26.5873 12.804V8.724C26.5873 8.116 26.2593 7.812 25.6033 7.812H25.1473V4.98H31.0993V12.78C31.0993 13.292 31.2033 13.66 31.4113 13.884C31.6193 14.108 31.9313 14.22 32.3473 14.22C32.7953 14.22 33.1233 14.108 33.3313 13.884C33.5393 13.66 33.6433 13.292 33.6433 12.78V8.724C33.6433 8.42 33.5873 8.196 33.4753 8.052C33.3793 7.892 33.1873 7.812 32.8993 7.812H32.5153V4.98H38.1313V12.732C38.1313 13.34 38.4673 13.644 39.1393 13.644H39.3793V16.5H35.3473L35.1793 15.036C34.5553 15.708 33.9073 16.188 33.2353 16.476C32.5633 16.748 31.7393 16.884 30.7633 16.884ZM48.0388 8.436C47.9588 8.116 47.8228 7.9 47.6308 7.788C47.4548 7.66 47.1908 7.596 46.8388 7.596H46.3348V4.98H51.0148L52.3588 10.836L53.7988 6.012H56.7268L58.1668 10.836L59.5108 4.98H64.1908V7.596H63.6868C63.3508 7.596 63.0868 7.66 62.8948 7.788C62.7028 7.9 62.5668 8.116 62.4868 8.436L60.5428 16.5H56.8708L55.2628 11.436L53.6548 16.5H49.9828L48.0388 8.436ZM69.9505 16.86C67.9345 16.86 66.3665 16.34 65.2465 15.3C64.1425 14.26 63.5905 12.74 63.5905 10.74C63.5905 8.724 64.1345 7.204 65.2225 6.18C66.3105 5.14 67.8865 4.62 69.9505 4.62C71.9985 4.62 73.5585 5.14 74.6305 6.18C75.7185 7.204 76.2625 8.724 76.2625 10.74C76.2625 12.74 75.7105 14.26 74.6065 15.3C73.5025 16.34 71.9505 16.86 69.9505 16.86ZM69.9505 14.004C70.6545 14.004 71.1425 13.756 71.4145 13.26C71.7025 12.748 71.8465 11.908 71.8465 10.74C71.8465 9.556 71.7025 8.716 71.4145 8.22C71.1425 7.724 70.6545 7.476 69.9505 7.476C69.2305 7.476 68.7345 7.724 68.4625 8.22C68.1905 8.7 68.0545 9.54 68.0545 10.74C68.0545 11.924 68.1905 12.764 68.4625 13.26C68.7345 13.756 69.2305 14.004 69.9505 14.004ZM76.9733 13.668H77.2373C77.8933 13.668 78.2213 13.364 78.2213 12.756V8.724C78.2213 8.436 78.1493 8.212 78.0053 8.052C77.8773 7.892 77.6453 7.812 77.3093 7.812H77.0213V4.98H81.9653L82.2293 6.132C82.5013 5.732 82.8933 5.444 83.4053 5.268C83.9333 5.076 84.4453 4.98 84.9413 4.98H86.5013V7.812H84.2453C83.7013 7.812 83.3093 7.94 83.0693 8.196C82.8453 8.452 82.7333 8.852 82.7333 9.396V12.756C82.7333 13.06 82.7973 13.292 82.9253 13.452C83.0693 13.596 83.3013 13.668 83.6213 13.668H83.8613V16.5H76.9733V13.668ZM86.3717 13.884H86.8757C87.1477 13.884 87.3317 13.828 87.4277 13.716C87.5397 13.588 87.5957 13.38 87.5957 13.092V3.972C87.5957 3.684 87.5397 3.484 87.4277 3.372C87.3317 3.244 87.1477 3.18 86.8757 3.18H86.3717V0.611999H93.0917V3.18H92.3477C92.0757 3.18 91.8837 3.244 91.7717 3.372C91.6757 3.484 91.6277 3.684 91.6277 3.972V9.036L93.3317 7.572H92.5397V4.98H99.4997V7.572H98.1317C97.8757 7.572 97.6757 7.596 97.5317 7.644C97.3877 7.692 97.2517 7.772 97.1237 7.884L95.5397 9.18L97.9397 13.452C98.1157 13.74 98.4037 13.884 98.8037 13.884H100.028V16.5H95.6837L92.7797 11.436L91.6277 12.372V13.092C91.6277 13.38 91.6757 13.588 91.7717 13.716C91.8837 13.828 92.0757 13.884 92.3477 13.884H93.0917V16.5H86.3717V13.884ZM101.753 0.204H106.265V3.444H101.753V0.204ZM100.265 13.668H100.769C101.121 13.668 101.369 13.588 101.513 13.428C101.673 13.268 101.753 13.028 101.753 12.708V8.748C101.753 8.14 101.425 7.836 100.769 7.836H100.265V4.98H106.265V12.756C106.265 13.364 106.593 13.668 107.249 13.668H107.753V16.5H100.265V13.668ZM108.239 13.668H108.479C109.151 13.668 109.487 13.364 109.487 12.756V8.772C109.487 8.164 109.175 7.86 108.551 7.86H108.239V4.98H112.271L112.439 6.516C113.479 5.252 114.951 4.62 116.855 4.62C118.295 4.62 119.351 4.972 120.023 5.676C120.695 6.364 121.031 7.372 121.031 8.7V12.756C121.031 13.364 121.359 13.668 122.015 13.668H122.471V16.5H116.519V8.724C116.519 8.228 116.415 7.868 116.207 7.644C115.999 7.42 115.687 7.308 115.271 7.308C114.823 7.308 114.495 7.42 114.287 7.644C114.079 7.852 113.975 8.212 113.975 8.724V12.756C113.975 13.06 114.031 13.292 114.143 13.452C114.271 13.596 114.487 13.668 114.791 13.668H115.103V16.5H108.239V13.668ZM130.254 21.3C129.07 21.3 128.062 21.148 127.23 20.844C126.414 20.556 125.678 20.124 125.022 19.548V17.7H128.694V18.348C129.062 18.652 129.566 18.804 130.206 18.804C130.702 18.804 131.062 18.66 131.286 18.372C131.51 18.084 131.622 17.7 131.622 17.22V15.492C131.158 15.844 130.678 16.1 130.182 16.26C129.686 16.42 129.086 16.5 128.382 16.5C126.622 16.5 125.278 16.012 124.35 15.036C123.422 14.06 122.958 12.564 122.958 10.548C122.958 8.66 123.454 7.204 124.446 6.18C125.454 5.14 126.782 4.62 128.43 4.62C129.406 4.62 130.198 4.772 130.806 5.076C131.43 5.38 131.974 5.868 132.438 6.54L132.63 4.98H136.518V7.74H136.278C135.974 7.74 135.766 7.82 135.654 7.98C135.542 8.14 135.486 8.396 135.486 8.748V16.38C135.486 17.884 135.03 19.076 134.118 19.956C133.222 20.852 131.934 21.3 130.254 21.3ZM129.39 13.956C130.094 13.956 130.59 13.7 130.878 13.188C131.182 12.66 131.334 11.916 131.334 10.956V10.212C131.334 9.3 131.182 8.556 130.878 7.98C130.59 7.404 130.094 7.116 129.39 7.116C128.606 7.116 128.07 7.372 127.782 7.884C127.51 8.396 127.374 9.284 127.374 10.548C127.374 11.396 127.43 12.068 127.542 12.564C127.654 13.044 127.854 13.396 128.142 13.62C128.43 13.844 128.846 13.956 129.39 13.956ZM150.083 16.86C148.067 16.86 146.499 16.34 145.379 15.3C144.275 14.26 143.723 12.74 143.723 10.74C143.723 8.724 144.267 7.204 145.355 6.18C146.443 5.14 148.019 4.62 150.083 4.62C152.131 4.62 153.691 5.14 154.763 6.18C155.851 7.204 156.395 8.724 156.395 10.74C156.395 12.74 155.843 14.26 154.739 15.3C153.635 16.34 152.083 16.86 150.083 16.86ZM150.083 14.004C150.787 14.004 151.275 13.756 151.547 13.26C151.835 12.748 151.979 11.908 151.979 10.74C151.979 9.556 151.835 8.716 151.547 8.22C151.275 7.724 150.787 7.476 150.083 7.476C149.363 7.476 148.867 7.724 148.595 8.22C148.323 8.7 148.187 9.54 148.187 10.74C148.187 11.924 148.323 12.764 148.595 13.26C148.867 13.756 149.363 14.004 150.083 14.004ZM157.106 13.668H157.346C158.018 13.668 158.354 13.364 158.354 12.756V8.772C158.354 8.164 158.042 7.86 157.418 7.86H157.106V4.98H161.138L161.306 6.516C162.346 5.252 163.818 4.62 165.722 4.62C167.162 4.62 168.218 4.972 168.89 5.676C169.562 6.364 169.898 7.372 169.898 8.7V12.756C169.898 13.364 170.226 13.668 170.882 13.668H171.338V16.5H165.386V8.724C165.386 8.228 165.282 7.868 165.074 7.644C164.866 7.42 164.554 7.308 164.138 7.308C163.69 7.308 163.362 7.42 163.154 7.644C162.946 7.852 162.842 8.212 162.842 8.724V12.756C162.842 13.06 162.898 13.292 163.01 13.452C163.138 13.596 163.354 13.668 163.658 13.668H163.97V16.5H157.106V13.668ZM185.847 21.3C184.663 21.3 183.655 21.148 182.823 20.844C182.007 20.556 181.271 20.124 180.615 19.548V17.7H184.287V18.348C184.655 18.652 185.159 18.804 185.799 18.804C186.295 18.804 186.655 18.66 186.879 18.372C187.103 18.084 187.215 17.7 187.215 17.22V15.492C186.751 15.844 186.271 16.1 185.775 16.26C185.279 16.42 184.679 16.5 183.975 16.5C182.215 16.5 180.871 16.012 179.943 15.036C179.015 14.06 178.551 12.564 178.551 10.548C178.551 8.66 179.047 7.204 180.039 6.18C181.047 5.14 182.375 4.62 184.023 4.62C184.999 4.62 185.791 4.772 186.399 5.076C187.023 5.38 187.567 5.868 188.031 6.54L188.223 4.98H192.111V7.74H191.871C191.567 7.74 191.359 7.82 191.247 7.98C191.135 8.14 191.079 8.396 191.079 8.748V16.38C191.079 17.884 190.623 19.076 189.711 19.956C188.815 20.852 187.527 21.3 185.847 21.3ZM184.983 13.956C185.687 13.956 186.183 13.7 186.471 13.188C186.775 12.66 186.927 11.916 186.927 10.956V10.212C186.927 9.3 186.775 8.556 186.471 7.98C186.183 7.404 185.687 7.116 184.983 7.116C184.199 7.116 183.663 7.372 183.375 7.884C183.103 8.396 182.967 9.284 182.967 10.548C182.967 11.396 183.023 12.068 183.135 12.564C183.247 13.044 183.447 13.396 183.735 13.62C184.023 13.844 184.439 13.956 184.983 13.956ZM192.59 13.668H192.854C193.51 13.668 193.838 13.364 193.838 12.756V8.724C193.838 8.436 193.766 8.212 193.622 8.052C193.494 7.892 193.262 7.812 192.926 7.812H192.638V4.98H197.582L197.846 6.132C198.118 5.732 198.51 5.444 199.022 5.268C199.55 5.076 200.062 4.98 200.558 4.98H202.118V7.812H199.862C199.318 7.812 198.926 7.94 198.686 8.196C198.462 8.452 198.35 8.852 198.35 9.396V12.756C198.35 13.06 198.414 13.292 198.542 13.452C198.686 13.596 198.918 13.668 199.238 13.668H199.478V16.5H192.59V13.668ZM208.349 16.86C206.333 16.86 204.765 16.34 203.645 15.3C202.541 14.26 201.989 12.74 201.989 10.74C201.989 8.724 202.533 7.204 203.621 6.18C204.709 5.14 206.285 4.62 208.349 4.62C210.397 4.62 211.957 5.14 213.029 6.18C214.117 7.204 214.661 8.724 214.661 10.74C214.661 12.74 214.109 14.26 213.005 15.3C211.901 16.34 210.349 16.86 208.349 16.86ZM208.349 14.004C209.053 14.004 209.541 13.756 209.813 13.26C210.101 12.748 210.245 11.908 210.245 10.74C210.245 9.556 210.101 8.716 209.813 8.22C209.541 7.724 209.053 7.476 208.349 7.476C207.629 7.476 207.133 7.724 206.861 8.22C206.589 8.7 206.453 9.54 206.453 10.74C206.453 11.924 206.589 12.764 206.861 13.26C207.133 13.756 207.629 14.004 208.349 14.004ZM219.904 16.884C218.464 16.884 217.408 16.54 216.736 15.852C216.064 15.148 215.728 14.132 215.728 12.804V8.724C215.728 8.116 215.4 7.812 214.744 7.812H214.288V4.98H220.24V12.78C220.24 13.292 220.344 13.66 220.552 13.884C220.76 14.108 221.072 14.22 221.488 14.22C221.936 14.22 222.264 14.108 222.472 13.884C222.68 13.66 222.784 13.292 222.784 12.78V8.724C222.784 8.42 222.728 8.196 222.616 8.052C222.52 7.892 222.328 7.812 222.04 7.812H221.656V4.98H227.272V12.732C227.272 13.34 227.608 13.644 228.28 13.644H228.52V16.5H224.488L224.32 15.036C223.696 15.708 223.048 16.188 222.376 16.476C221.704 16.748 220.88 16.884 219.904 16.884ZM228.749 18.66H228.989C229.325 18.66 229.573 18.58 229.733 18.42C229.909 18.26 229.997 18.036 229.997 17.748V8.772C229.997 8.484 229.909 8.26 229.733 8.1C229.573 7.94 229.325 7.86 228.989 7.86H228.749V4.98H232.853L233.069 6.54C233.549 5.916 234.117 5.444 234.773 5.124C235.445 4.788 236.237 4.62 237.149 4.62C238.781 4.62 240.085 5.14 241.061 6.18C242.053 7.204 242.549 8.668 242.549 10.572C242.549 12.588 242.085 14.148 241.157 15.252C240.245 16.34 238.933 16.884 237.221 16.884C236.469 16.884 235.853 16.804 235.373 16.644C234.909 16.5 234.413 16.244 233.885 15.876V17.748C233.885 18.356 234.213 18.66 234.869 18.66H235.133V21.492H228.749V18.66ZM236.117 14.268C236.901 14.268 237.429 13.98 237.701 13.404C237.989 12.828 238.133 11.9 238.133 10.62C238.133 9.356 237.989 8.46 237.701 7.932C237.429 7.388 236.901 7.116 236.117 7.116C235.477 7.116 234.989 7.396 234.653 7.956C234.317 8.516 234.149 9.22 234.149 10.068V11.388C234.149 12.316 234.309 13.028 234.629 13.524C234.965 14.02 235.461 14.268 236.117 14.268ZM249.749 18.66H249.989C250.325 18.66 250.573 18.58 250.733 18.42C250.909 18.26 250.997 18.036 250.997 17.748V8.772C250.997 8.484 250.909 8.26 250.733 8.1C250.573 7.94 250.325 7.86 249.989 7.86H249.749V4.98H253.853L254.069 6.54C254.549 5.916 255.117 5.444 255.773 5.124C256.445 4.788 257.237 4.62 258.149 4.62C259.781 4.62 261.085 5.14 262.061 6.18C263.053 7.204 263.549 8.668 263.549 10.572C263.549 12.588 263.085 14.148 262.157 15.252C261.245 16.34 259.933 16.884 258.221 16.884C257.469 16.884 256.853 16.804 256.373 16.644C255.909 16.5 255.413 16.244 254.885 15.876V17.748C254.885 18.356 255.213 18.66 255.869 18.66H256.133V21.492H249.749V18.66ZM257.117 14.268C257.901 14.268 258.429 13.98 258.701 13.404C258.989 12.828 259.133 11.9 259.133 10.62C259.133 9.356 258.989 8.46 258.701 7.932C258.429 7.388 257.901 7.116 257.117 7.116C256.477 7.116 255.989 7.396 255.653 7.956C255.317 8.516 255.149 9.22 255.149 10.068V11.388C255.149 12.316 255.309 13.028 255.629 13.524C255.965 14.02 256.461 14.268 257.117 14.268ZM264.262 13.668H264.526C265.182 13.668 265.51 13.364 265.51 12.756V8.724C265.51 8.436 265.438 8.212 265.294 8.052C265.166 7.892 264.934 7.812 264.598 7.812H264.31V4.98H269.254L269.518 6.132C269.79 5.732 270.182 5.444 270.694 5.268C271.222 5.076 271.734 4.98 272.23 4.98H273.79V7.812H271.534C270.99 7.812 270.598 7.94 270.358 8.196C270.134 8.452 270.022 8.852 270.022 9.396V12.756C270.022 13.06 270.086 13.292 270.214 13.452C270.358 13.596 270.59 13.668 270.91 13.668H271.15V16.5H264.262V13.668ZM280.021 16.86C278.005 16.86 276.437 16.34 275.317 15.3C274.213 14.26 273.661 12.74 273.661 10.74C273.661 8.724 274.205 7.204 275.293 6.18C276.381 5.14 277.957 4.62 280.021 4.62C282.069 4.62 283.629 5.14 284.701 6.18C285.789 7.204 286.333 8.724 286.333 10.74C286.333 12.74 285.781 14.26 284.677 15.3C283.573 16.34 282.021 16.86 280.021 16.86ZM280.021 14.004C280.725 14.004 281.213 13.756 281.485 13.26C281.773 12.748 281.917 11.908 281.917 10.74C281.917 9.556 281.773 8.716 281.485 8.22C281.213 7.724 280.725 7.476 280.021 7.476C279.301 7.476 278.805 7.724 278.533 8.22C278.261 8.7 278.125 9.54 278.125 10.74C278.125 11.924 278.261 12.764 278.533 13.26C278.805 13.756 279.301 14.004 280.021 14.004ZM288.457 0.204H292.969V3.444H288.457V0.204ZM287.593 20.796C286.569 20.796 285.633 20.668 284.785 20.412C283.953 20.172 283.265 19.836 282.721 19.404V16.74H286.273V17.748C286.593 18.004 286.961 18.132 287.377 18.132C287.729 18.132 287.993 18.052 288.169 17.892C288.361 17.748 288.457 17.508 288.457 17.172V8.748C288.457 8.46 288.369 8.236 288.193 8.076C288.033 7.916 287.793 7.836 287.473 7.836H286.969V4.98H292.969V16.572C292.969 17.932 292.529 18.972 291.649 19.692C290.769 20.428 289.417 20.796 287.593 20.796ZM300.817 16.884C298.721 16.884 297.089 16.372 295.921 15.348C294.753 14.324 294.169 12.812 294.169 10.812C294.169 8.716 294.713 7.164 295.801 6.156C296.889 5.132 298.449 4.62 300.481 4.62C302.465 4.62 303.969 5.156 304.993 6.228C306.033 7.284 306.553 8.7 306.553 10.476V11.628H298.609C298.609 12.588 298.777 13.268 299.113 13.668C299.449 14.068 300.041 14.268 300.889 14.268C301.481 14.268 302.009 14.164 302.473 13.956V12.996H306.145V15.132C305.521 15.708 304.785 16.148 303.937 16.452C303.089 16.74 302.049 16.884 300.817 16.884ZM302.137 9.324C302.137 8.668 301.977 8.164 301.657 7.812C301.353 7.444 300.929 7.26 300.385 7.26C299.809 7.26 299.369 7.444 299.065 7.812C298.761 8.164 298.609 8.668 298.609 9.324H302.137ZM313.05 16.86C311.802 16.86 310.674 16.636 309.666 16.188C308.674 15.74 307.882 15.068 307.29 14.172C306.714 13.276 306.426 12.188 306.426 10.908C306.426 8.812 307.01 7.244 308.178 6.204C309.362 5.148 311.002 4.62 313.098 4.62C314.234 4.62 315.186 4.756 315.954 5.028C316.722 5.284 317.482 5.708 318.234 6.3V9.276H314.562V7.98C314.37 7.836 314.154 7.74 313.914 7.692C313.69 7.628 313.41 7.596 313.074 7.596C312.386 7.596 311.842 7.876 311.442 8.436C311.042 8.98 310.842 9.804 310.842 10.908C310.842 11.948 311.09 12.7 311.586 13.164C312.098 13.628 312.89 13.86 313.962 13.86C315.226 13.86 316.242 13.572 317.01 12.996L318.378 15.252C317.578 15.86 316.81 16.276 316.074 16.5C315.338 16.74 314.33 16.86 313.05 16.86ZM325.313 16.86C323.505 16.86 322.161 16.5 321.281 15.78C320.401 15.044 319.961 13.996 319.961 12.636V7.668H318.257V4.98H319.961V2.724L324.449 1.548V4.98H327.449V7.668H324.449V13.044C324.449 13.46 324.537 13.756 324.713 13.932C324.905 14.108 325.185 14.196 325.553 14.196C326.001 14.196 326.361 14.06 326.633 13.788V12.78H330.209V15.204C328.801 16.308 327.169 16.86 325.313 16.86ZM340.974 16.86C339.55 16.86 338.478 16.572 337.758 15.996C337.054 15.404 336.702 14.588 336.702 13.548C336.702 12.348 337.102 11.452 337.902 10.86C338.718 10.252 339.926 9.892 341.526 9.78L343.638 9.636V8.364C343.638 7.66 343.27 7.308 342.534 7.308C342.118 7.308 341.758 7.468 341.454 7.788V8.58H337.758V6.036C339.278 5.092 340.95 4.62 342.774 4.62C344.55 4.62 345.886 5.004 346.782 5.772C347.678 6.54 348.126 7.564 348.126 8.844V12.972C348.126 13.532 348.382 13.812 348.894 13.812H349.182V16.5H345.75L345.39 14.892C344.782 15.612 344.158 16.124 343.518 16.428C342.878 16.716 342.03 16.86 340.974 16.86ZM341.982 14.172C343.086 14.172 343.638 13.676 343.638 12.684V11.868L342.03 12.012C341.166 12.076 340.734 12.452 340.734 13.14C340.734 13.46 340.838 13.716 341.046 13.908C341.27 14.084 341.582 14.172 341.982 14.172ZM349.669 13.668H349.909C350.581 13.668 350.917 13.364 350.917 12.756V8.772C350.917 8.164 350.605 7.86 349.981 7.86H349.669V4.98H353.701L353.869 6.516C354.909 5.252 356.381 4.62 358.285 4.62C359.725 4.62 360.781 4.972 361.453 5.676C362.125 6.364 362.461 7.372 362.461 8.7V12.756C362.461 13.364 362.789 13.668 363.445 13.668H363.901V16.5H357.949V8.724C357.949 8.228 357.845 7.868 357.637 7.644C357.429 7.42 357.117 7.308 356.701 7.308C356.253 7.308 355.925 7.42 355.717 7.644C355.509 7.852 355.405 8.212 355.405 8.724V12.756C355.405 13.06 355.461 13.292 355.573 13.452C355.701 13.596 355.917 13.668 356.221 13.668H356.533V16.5H349.669V13.668ZM369.667 16.836C368.035 16.836 366.747 16.348 365.803 15.372C364.859 14.396 364.387 12.964 364.387 11.076C364.387 8.996 364.843 7.404 365.755 6.3C366.683 5.18 368.043 4.62 369.835 4.62C370.523 4.62 371.107 4.7 371.587 4.86C372.067 5.02 372.555 5.284 373.051 5.652V4.38C373.051 3.772 372.723 3.468 372.067 3.468H371.803V0.611999H376.939V12.9C376.939 13.252 376.995 13.492 377.107 13.62C377.219 13.748 377.443 13.812 377.779 13.812H377.971V16.5H374.083L373.891 15.036C373.347 15.644 372.739 16.1 372.067 16.404C371.395 16.692 370.595 16.836 369.667 16.836ZM370.819 14.34C371.507 14.34 372.003 14.06 372.307 13.5C372.627 12.924 372.787 12.188 372.787 11.292V10.26C372.787 9.284 372.635 8.54 372.331 8.028C372.027 7.516 371.523 7.26 370.819 7.26C370.051 7.26 369.523 7.564 369.235 8.172C368.947 8.764 368.803 9.708 368.803 11.004C368.803 11.852 368.859 12.516 368.971 12.996C369.083 13.46 369.283 13.804 369.571 14.028C369.859 14.236 370.275 14.34 370.819 14.34ZM391.536 16.86C389.52 16.86 387.952 16.34 386.832 15.3C385.728 14.26 385.176 12.74 385.176 10.74C385.176 8.724 385.72 7.204 386.808 6.18C387.896 5.14 389.472 4.62 391.536 4.62C393.584 4.62 395.144 5.14 396.216 6.18C397.304 7.204 397.848 8.724 397.848 10.74C397.848 12.74 397.296 14.26 396.192 15.3C395.088 16.34 393.536 16.86 391.536 16.86ZM391.536 14.004C392.24 14.004 392.728 13.756 393 13.26C393.288 12.748 393.432 11.908 393.432 10.74C393.432 9.556 393.288 8.716 393 8.22C392.728 7.724 392.24 7.476 391.536 7.476C390.816 7.476 390.32 7.724 390.048 8.22C389.776 8.7 389.64 9.54 389.64 10.74C389.64 11.924 389.776 12.764 390.048 13.26C390.32 13.756 390.816 14.004 391.536 14.004ZM398.559 13.668H398.799C399.471 13.668 399.807 13.364 399.807 12.756V8.772C399.807 8.164 399.495 7.86 398.871 7.86H398.559V4.98H402.591L402.759 6.516C403.799 5.252 405.271 4.62 407.175 4.62C408.615 4.62 409.671 4.972 410.343 5.676C411.015 6.364 411.351 7.372 411.351 8.7V12.756C411.351 13.364 411.679 13.668 412.335 13.668H412.791V16.5H406.839V8.724C406.839 8.228 406.735 7.868 406.527 7.644C406.319 7.42 406.007 7.308 405.591 7.308C405.143 7.308 404.815 7.42 404.607 7.644C404.399 7.852 404.295 8.212 404.295 8.724V12.756C404.295 13.06 404.351 13.292 404.463 13.452C404.591 13.596 404.807 13.668 405.111 13.668H405.423V16.5H398.559V13.668ZM419.926 16.884C417.83 16.884 416.198 16.372 415.03 15.348C413.862 14.324 413.278 12.812 413.278 10.812C413.278 8.716 413.822 7.164 414.91 6.156C415.998 5.132 417.558 4.62 419.59 4.62C421.574 4.62 423.078 5.156 424.102 6.228C425.142 7.284 425.662 8.7 425.662 10.476V11.628H417.718C417.718 12.588 417.886 13.268 418.222 13.668C418.558 14.068 419.15 14.268 419.998 14.268C420.59 14.268 421.118 14.164 421.582 13.956V12.996H425.254V15.132C424.63 15.708 423.894 16.148 423.046 16.452C422.198 16.74 421.158 16.884 419.926 16.884ZM421.246 9.324C421.246 8.668 421.086 8.164 420.766 7.812C420.462 7.444 420.038 7.26 419.494 7.26C418.918 7.26 418.478 7.444 418.174 7.812C417.87 8.164 417.718 8.668 417.718 9.324H421.246ZM439.466 16.86C437.45 16.86 435.882 16.34 434.762 15.3C433.658 14.26 433.106 12.74 433.106 10.74C433.106 8.724 433.65 7.204 434.738 6.18C435.826 5.14 437.402 4.62 439.466 4.62C441.514 4.62 443.074 5.14 444.146 6.18C445.234 7.204 445.778 8.724 445.778 10.74C445.778 12.74 445.226 14.26 444.122 15.3C443.018 16.34 441.466 16.86 439.466 16.86ZM439.466 14.004C440.17 14.004 440.658 13.756 440.93 13.26C441.218 12.748 441.362 11.908 441.362 10.74C441.362 9.556 441.218 8.716 440.93 8.22C440.658 7.724 440.17 7.476 439.466 7.476C438.746 7.476 438.25 7.724 437.978 8.22C437.706 8.7 437.57 9.54 437.57 10.74C437.57 11.924 437.706 12.764 437.978 13.26C438.25 13.756 438.746 14.004 439.466 14.004ZM445.861 13.668H446.101C446.773 13.668 447.109 13.364 447.109 12.756V7.764H445.405V4.98H447.109V4.476C447.109 3.116 447.549 2.076 448.429 1.356C449.309 0.619999 450.653 0.251999 452.461 0.251999C453.469 0.251999 454.373 0.379999 455.173 0.636C455.973 0.875999 456.653 1.212 457.213 1.644V4.188H453.781V3.42C453.541 3.084 453.181 2.916 452.701 2.916C452.333 2.916 452.053 2.996 451.861 3.156C451.685 3.3 451.597 3.548 451.597 3.9V4.98H454.597V7.764H451.597V12.756C451.597 13.06 451.661 13.292 451.789 13.452C451.933 13.596 452.173 13.668 452.509 13.668H452.725V16.5H445.861V13.668ZM470.662 21.3C469.51 21.3 468.478 21.148 467.566 20.844C466.654 20.54 465.902 20.108 465.31 19.548V17.604H468.982V18.228C469.19 18.436 469.414 18.58 469.654 18.66C469.91 18.756 470.222 18.804 470.59 18.804C471.646 18.804 472.174 18.196 472.174 16.98V15.9C471.758 16.044 471.31 16.164 470.83 16.26C470.366 16.34 469.974 16.38 469.654 16.38C468.054 16.38 466.79 16.004 465.862 15.252C464.95 14.5 464.494 13.452 464.494 12.108V8.724C464.494 8.436 464.406 8.212 464.23 8.052C464.07 7.892 463.822 7.812 463.486 7.812H463.03V4.98H468.982V12.3C468.982 13.276 469.454 13.764 470.398 13.764C470.878 13.764 471.23 13.66 471.454 13.452C471.678 13.228 471.79 12.868 471.79 12.372V8.724C471.79 8.404 471.734 8.172 471.622 8.028C471.526 7.884 471.318 7.812 470.998 7.812H470.662V4.98H476.278V15.804C476.278 16.908 476.046 17.868 475.582 18.684C475.134 19.516 474.486 20.156 473.638 20.604C472.806 21.068 471.814 21.3 470.662 21.3ZM483.833 16.86C481.817 16.86 480.249 16.34 479.129 15.3C478.025 14.26 477.473 12.74 477.473 10.74C477.473 8.724 478.017 7.204 479.105 6.18C480.193 5.14 481.769 4.62 483.833 4.62C485.881 4.62 487.441 5.14 488.513 6.18C489.601 7.204 490.145 8.724 490.145 10.74C490.145 12.74 489.593 14.26 488.489 15.3C487.385 16.34 485.833 16.86 483.833 16.86ZM483.833 14.004C484.537 14.004 485.025 13.756 485.297 13.26C485.585 12.748 485.729 11.908 485.729 10.74C485.729 9.556 485.585 8.716 485.297 8.22C485.025 7.724 484.537 7.476 483.833 7.476C483.113 7.476 482.617 7.724 482.345 8.22C482.073 8.7 481.937 9.54 481.937 10.74C481.937 11.924 482.073 12.764 482.345 13.26C482.617 13.756 483.113 14.004 483.833 14.004ZM495.388 16.884C493.948 16.884 492.892 16.54 492.22 15.852C491.548 15.148 491.212 14.132 491.212 12.804V8.724C491.212 8.116 490.884 7.812 490.228 7.812H489.772V4.98H495.724V12.78C495.724 13.292 495.828 13.66 496.036 13.884C496.244 14.108 496.556 14.22 496.972 14.22C497.42 14.22 497.748 14.108 497.956 13.884C498.164 13.66 498.268 13.292 498.268 12.78V8.724C498.268 8.42 498.212 8.196 498.1 8.052C498.004 7.892 497.812 7.812 497.524 7.812H497.14V4.98H502.756V12.732C502.756 13.34 503.092 13.644 503.764 13.644H504.004V16.5H499.972L499.804 15.036C499.18 15.708 498.532 16.188 497.86 16.476C497.188 16.748 496.364 16.884 495.388 16.884ZM504.473 13.668H504.737C505.393 13.668 505.721 13.364 505.721 12.756V8.724C505.721 8.436 505.649 8.212 505.505 8.052C505.377 7.892 505.145 7.812 504.809 7.812H504.521V4.98H509.465L509.729 6.132C510.001 5.732 510.393 5.444 510.905 5.268C511.433 5.076 511.945 4.98 512.441 4.98H514.001V7.812H511.745C511.201 7.812 510.809 7.94 510.569 8.196C510.345 8.452 510.233 8.852 510.233 9.396V12.756C510.233 13.06 510.297 13.292 510.425 13.452C510.569 13.596 510.801 13.668 511.121 13.668H511.361V16.5H504.473V13.668ZM30.5158 40.86C28.7078 40.86 27.3638 40.5 26.4838 39.78C25.6038 39.044 25.1638 37.996 25.1638 36.636V31.668H23.4598V28.98H25.1638V26.724L29.6518 25.548V28.98H32.6518V31.668H29.6518V37.044C29.6518 37.46 29.7398 37.756 29.9158 37.932C30.1078 38.108 30.3878 38.196 30.7558 38.196C31.2038 38.196 31.5638 38.06 31.8358 37.788V36.78H35.4118V39.204C34.0038 40.308 32.3718 40.86 30.5158 40.86ZM41.2228 40.884C39.1268 40.884 37.4948 40.372 36.3268 39.348C35.1588 38.324 34.5748 36.812 34.5748 34.812C34.5748 32.716 35.1188 31.164 36.2068 30.156C37.2948 29.132 38.8548 28.62 40.8868 28.62C42.8708 28.62 44.3748 29.156 45.3988 30.228C46.4388 31.284 46.9588 32.7 46.9588 34.476V35.628H39.0148C39.0148 36.588 39.1828 37.268 39.5188 37.668C39.8548 38.068 40.4468 38.268 41.2948 38.268C41.8868 38.268 42.4148 38.164 42.8788 37.956V36.996H46.5508V39.132C45.9268 39.708 45.1908 40.148 44.3428 40.452C43.4948 40.74 42.4548 40.884 41.2228 40.884ZM42.5428 33.324C42.5428 32.668 42.3828 32.164 42.0628 31.812C41.7588 31.444 41.3348 31.26 40.7908 31.26C40.2148 31.26 39.7748 31.444 39.4708 31.812C39.1668 32.164 39.0148 32.668 39.0148 33.324H42.5428ZM51.474 40.86C50.05 40.86 48.978 40.572 48.258 39.996C47.554 39.404 47.202 38.588 47.202 37.548C47.202 36.348 47.602 35.452 48.402 34.86C49.218 34.252 50.426 33.892 52.026 33.78L54.138 33.636V32.364C54.138 31.66 53.77 31.308 53.034 31.308C52.618 31.308 52.258 31.468 51.954 31.788V32.58H48.258V30.036C49.778 29.092 51.45 28.62 53.274 28.62C55.05 28.62 56.386 29.004 57.282 29.772C58.178 30.54 58.626 31.564 58.626 32.844V36.972C58.626 37.532 58.882 37.812 59.394 37.812H59.682V40.5H56.25L55.89 38.892C55.282 39.612 54.658 40.124 54.018 40.428C53.378 40.716 52.53 40.86 51.474 40.86ZM52.482 38.172C53.586 38.172 54.138 37.676 54.138 36.684V35.868L52.53 36.012C51.666 36.076 51.234 36.452 51.234 37.14C51.234 37.46 51.338 37.716 51.546 37.908C51.77 38.084 52.082 38.172 52.482 38.172ZM60.1686 37.668H60.4326C61.0886 37.668 61.4166 37.364 61.4166 36.756V32.748C61.4166 32.46 61.3286 32.236 61.1526 32.076C60.9926 31.916 60.7526 31.836 60.4326 31.836H60.1686V28.98H64.0566L64.2486 30.588C64.7606 29.932 65.3846 29.444 66.1206 29.124C66.8726 28.788 67.7126 28.62 68.6406 28.62C69.8886 28.62 70.9366 29.108 71.7846 30.084C72.2166 29.556 72.7206 29.18 73.2966 28.956C73.8726 28.732 74.5286 28.62 75.2646 28.62C76.6886 28.62 77.7206 28.964 78.3606 29.652C79.0006 30.34 79.3206 31.356 79.3206 32.7V36.756C79.3206 37.364 79.6486 37.668 80.3046 37.668H80.7606V40.5H74.9526V32.724C74.9526 32.228 74.8486 31.868 74.6406 31.644C74.4326 31.42 74.1206 31.308 73.7046 31.308C73.2566 31.308 72.9286 31.42 72.7206 31.644C72.5126 31.852 72.4086 32.204 72.4086 32.7V36.756C72.4086 37.06 72.4646 37.292 72.5766 37.452C72.7046 37.596 72.9206 37.668 73.2246 37.668H73.5846V40.5H68.3046V32.724C68.3046 32.228 68.2006 31.868 67.9926 31.644C67.7846 31.42 67.4726 31.308 67.0566 31.308C66.6086 31.308 66.2806 31.42 66.0726 31.644C65.8646 31.852 65.7606 32.212 65.7606 32.724V36.756C65.7606 37.364 66.0246 37.668 66.5526 37.668H66.8886V40.5H60.1686V37.668ZM87.9655 37.668H88.2295C88.8855 37.668 89.2135 37.364 89.2135 36.756V32.748C89.2135 32.46 89.1255 32.236 88.9495 32.076C88.7895 31.916 88.5495 31.836 88.2295 31.836H87.9655V28.98H91.8535L92.0455 30.588C92.5575 29.932 93.1815 29.444 93.9175 29.124C94.6695 28.788 95.5095 28.62 96.4375 28.62C97.6855 28.62 98.7335 29.108 99.5815 30.084C100.013 29.556 100.517 29.18 101.093 28.956C101.669 28.732 102.325 28.62 103.061 28.62C104.485 28.62 105.517 28.964 106.157 29.652C106.797 30.34 107.117 31.356 107.117 32.7V36.756C107.117 37.364 107.445 37.668 108.101 37.668H108.557V40.5H102.749V32.724C102.749 32.228 102.645 31.868 102.437 31.644C102.229 31.42 101.917 31.308 101.501 31.308C101.053 31.308 100.725 31.42 100.517 31.644C100.309 31.852 100.205 32.204 100.205 32.7V36.756C100.205 37.06 100.261 37.292 100.373 37.452C100.501 37.596 100.717 37.668 101.021 37.668H101.381V40.5H96.1015V32.724C96.1015 32.228 95.9975 31.868 95.7895 31.644C95.5815 31.42 95.2695 31.308 94.8535 31.308C94.4055 31.308 94.0775 31.42 93.8695 31.644C93.6615 31.852 93.5575 32.212 93.5575 32.724V36.756C93.5575 37.364 93.8215 37.668 94.3495 37.668H94.6855V40.5H87.9655V37.668ZM113.068 40.86C111.644 40.86 110.572 40.572 109.852 39.996C109.148 39.404 108.796 38.588 108.796 37.548C108.796 36.348 109.196 35.452 109.996 34.86C110.812 34.252 112.02 33.892 113.62 33.78L115.732 33.636V32.364C115.732 31.66 115.364 31.308 114.628 31.308C114.212 31.308 113.852 31.468 113.548 31.788V32.58H109.852V30.036C111.372 29.092 113.044 28.62 114.868 28.62C116.644 28.62 117.98 29.004 118.876 29.772C119.772 30.54 120.22 31.564 120.22 32.844V36.972C120.22 37.532 120.476 37.812 120.988 37.812H121.276V40.5H117.844L117.484 38.892C116.876 39.612 116.252 40.124 115.612 40.428C114.972 40.716 114.124 40.86 113.068 40.86ZM114.076 38.172C115.18 38.172 115.732 37.676 115.732 36.684V35.868L114.124 36.012C113.26 36.076 112.828 36.452 112.828 37.14C112.828 37.46 112.932 37.716 113.14 37.908C113.364 38.084 113.676 38.172 114.076 38.172ZM127.266 40.86C125.458 40.86 124.114 40.5 123.234 39.78C122.354 39.044 121.914 37.996 121.914 36.636V31.668H120.21V28.98H121.914V26.724L126.402 25.548V28.98H129.402V31.668H126.402V37.044C126.402 37.46 126.49 37.756 126.666 37.932C126.858 38.108 127.138 38.196 127.506 38.196C127.954 38.196 128.314 38.06 128.586 37.788V36.78H132.162V39.204C130.754 40.308 129.122 40.86 127.266 40.86ZM137.973 40.884C135.877 40.884 134.245 40.372 133.077 39.348C131.909 38.324 131.325 36.812 131.325 34.812C131.325 32.716 131.869 31.164 132.957 30.156C134.045 29.132 135.605 28.62 137.637 28.62C139.621 28.62 141.125 29.156 142.149 30.228C143.189 31.284 143.709 32.7 143.709 34.476V35.628H135.765C135.765 36.588 135.933 37.268 136.269 37.668C136.605 38.068 137.197 38.268 138.045 38.268C138.637 38.268 139.165 38.164 139.629 37.956V36.996H143.301V39.132C142.677 39.708 141.941 40.148 141.093 40.452C140.245 40.74 139.205 40.884 137.973 40.884ZM139.293 33.324C139.293 32.668 139.133 32.164 138.813 31.812C138.509 31.444 138.085 31.26 137.541 31.26C136.965 31.26 136.525 31.444 136.221 31.812C135.917 32.164 135.765 32.668 135.765 33.324H139.293ZM152.401 24.204H156.913V27.444H152.401V24.204ZM150.913 37.668H151.417C151.769 37.668 152.017 37.588 152.161 37.428C152.321 37.268 152.401 37.028 152.401 36.708V32.748C152.401 32.14 152.073 31.836 151.417 31.836H150.913V28.98H156.913V36.756C156.913 37.364 157.241 37.668 157.897 37.668H158.401V40.5H150.913V37.668ZM164.383 40.86C163.215 40.86 162.191 40.74 161.311 40.5C160.431 40.244 159.623 39.828 158.887 39.252V37.116H162.871V37.86C163.191 38.084 163.591 38.196 164.071 38.196C164.823 38.196 165.199 37.956 165.199 37.476C165.199 37.204 165.111 37.004 164.935 36.876C164.759 36.732 164.383 36.54 163.807 36.3C163.519 36.188 163.039 35.98 162.367 35.676C161.583 35.308 160.967 34.988 160.519 34.716C160.071 34.428 159.703 34.076 159.415 33.66C159.127 33.228 158.983 32.7 158.983 32.076C158.983 30.94 159.447 30.084 160.375 29.508C161.303 28.916 162.567 28.62 164.167 28.62C165.239 28.62 166.247 28.756 167.191 29.028C168.135 29.3 168.959 29.708 169.663 30.252V32.244H165.799V31.668C165.463 31.428 165.087 31.308 164.671 31.308C163.999 31.308 163.663 31.564 163.663 32.076C163.663 32.316 163.783 32.532 164.023 32.724C164.279 32.916 164.631 33.108 165.079 33.3C165.527 33.476 165.991 33.652 166.471 33.828C167.687 34.292 168.559 34.788 169.087 35.316C169.615 35.828 169.879 36.548 169.879 37.476C169.879 39.732 168.047 40.86 164.383 40.86ZM177.333 37.668H177.573C178.245 37.668 178.581 37.364 178.581 36.756V32.772C178.581 32.164 178.269 31.86 177.645 31.86H177.333V28.98H181.365L181.533 30.516C182.573 29.252 184.045 28.62 185.949 28.62C187.389 28.62 188.445 28.972 189.117 29.676C189.789 30.364 190.125 31.372 190.125 32.7V36.756C190.125 37.364 190.453 37.668 191.109 37.668H191.565V40.5H185.613V32.724C185.613 32.228 185.509 31.868 185.301 31.644C185.093 31.42 184.781 31.308 184.365 31.308C183.917 31.308 183.589 31.42 183.381 31.644C183.173 31.852 183.069 32.212 183.069 32.724V36.756C183.069 37.06 183.125 37.292 183.237 37.452C183.365 37.596 183.581 37.668 183.885 37.668H184.197V40.5H177.333V37.668ZM198.411 40.86C196.395 40.86 194.827 40.34 193.707 39.3C192.603 38.26 192.051 36.74 192.051 34.74C192.051 32.724 192.595 31.204 193.683 30.18C194.771 29.14 196.347 28.62 198.411 28.62C200.459 28.62 202.019 29.14 203.091 30.18C204.179 31.204 204.723 32.724 204.723 34.74C204.723 36.74 204.171 38.26 203.067 39.3C201.963 40.34 200.411 40.86 198.411 40.86ZM198.411 38.004C199.115 38.004 199.603 37.756 199.875 37.26C200.163 36.748 200.307 35.908 200.307 34.74C200.307 33.556 200.163 32.716 199.875 32.22C199.603 31.724 199.115 31.476 198.411 31.476C197.691 31.476 197.195 31.724 196.923 32.22C196.651 32.7 196.515 33.54 196.515 34.74C196.515 35.924 196.651 36.764 196.923 37.26C197.195 37.756 197.691 38.004 198.411 38.004ZM211.406 40.86C209.598 40.86 208.254 40.5 207.374 39.78C206.494 39.044 206.054 37.996 206.054 36.636V31.668H204.35V28.98H206.054V26.724L210.542 25.548V28.98H213.542V31.668H210.542V37.044C210.542 37.46 210.63 37.756 210.806 37.932C210.998 38.108 211.278 38.196 211.646 38.196C212.094 38.196 212.454 38.06 212.726 37.788V36.78H216.302V39.204C214.894 40.308 213.262 40.86 211.406 40.86ZM229.66 40.86C228.412 40.86 227.284 40.636 226.276 40.188C225.284 39.74 224.492 39.068 223.9 38.172C223.324 37.276 223.036 36.188 223.036 34.908C223.036 32.812 223.62 31.244 224.788 30.204C225.972 29.148 227.612 28.62 229.708 28.62C230.844 28.62 231.796 28.756 232.564 29.028C233.332 29.284 234.092 29.708 234.844 30.3V33.276H231.172V31.98C230.98 31.836 230.764 31.74 230.524 31.692C230.3 31.628 230.02 31.596 229.684 31.596C228.996 31.596 228.452 31.876 228.052 32.436C227.652 32.98 227.452 33.804 227.452 34.908C227.452 35.948 227.7 36.7 228.196 37.164C228.708 37.628 229.5 37.86 230.572 37.86C231.836 37.86 232.852 37.572 233.62 36.996L234.988 39.252C234.188 39.86 233.42 40.276 232.684 40.5C231.948 40.74 230.94 40.86 229.66 40.86ZM242.075 40.86C240.059 40.86 238.491 40.34 237.371 39.3C236.267 38.26 235.715 36.74 235.715 34.74C235.715 32.724 236.259 31.204 237.347 30.18C238.435 29.14 240.011 28.62 242.075 28.62C244.123 28.62 245.683 29.14 246.755 30.18C247.843 31.204 248.387 32.724 248.387 34.74C248.387 36.74 247.835 38.26 246.731 39.3C245.627 40.34 244.075 40.86 242.075 40.86ZM242.075 38.004C242.779 38.004 243.267 37.756 243.539 37.26C243.827 36.748 243.971 35.908 243.971 34.74C243.971 33.556 243.827 32.716 243.539 32.22C243.267 31.724 242.779 31.476 242.075 31.476C241.355 31.476 240.859 31.724 240.587 32.22C240.315 32.7 240.179 33.54 240.179 34.74C240.179 35.924 240.315 36.764 240.587 37.26C240.859 37.756 241.355 38.004 242.075 38.004ZM249.098 37.668H249.338C250.01 37.668 250.346 37.364 250.346 36.756V32.772C250.346 32.164 250.034 31.86 249.41 31.86H249.098V28.98H253.13L253.298 30.516C254.338 29.252 255.81 28.62 257.714 28.62C259.154 28.62 260.21 28.972 260.882 29.676C261.554 30.364 261.89 31.372 261.89 32.7V36.756C261.89 37.364 262.218 37.668 262.874 37.668H263.33V40.5H257.378V32.724C257.378 32.228 257.274 31.868 257.066 31.644C256.858 31.42 256.546 31.308 256.13 31.308C255.682 31.308 255.354 31.42 255.146 31.644C254.938 31.852 254.834 32.212 254.834 32.724V36.756C254.834 37.06 254.89 37.292 255.002 37.452C255.13 37.596 255.346 37.668 255.65 37.668H255.962V40.5H249.098V37.668ZM269.789 40.86C267.981 40.86 266.637 40.5 265.757 39.78C264.877 39.044 264.437 37.996 264.437 36.636V31.668H262.733V28.98H264.437V26.724L268.925 25.548V28.98H271.925V31.668H268.925V37.044C268.925 37.46 269.013 37.756 269.189 37.932C269.381 38.108 269.661 38.196 270.029 38.196C270.477 38.196 270.837 38.06 271.109 37.788V36.78H274.685V39.204C273.277 40.308 271.645 40.86 269.789 40.86ZM274.692 37.668H274.956C275.612 37.668 275.94 37.364 275.94 36.756V32.724C275.94 32.436 275.868 32.212 275.724 32.052C275.596 31.892 275.364 31.812 275.028 31.812H274.74V28.98H279.684L279.948 30.132C280.22 29.732 280.612 29.444 281.124 29.268C281.652 29.076 282.164 28.98 282.66 28.98H284.22V31.812H281.964C281.42 31.812 281.028 31.94 280.788 32.196C280.564 32.452 280.452 32.852 280.452 33.396V36.756C280.452 37.06 280.516 37.292 280.644 37.452C280.788 37.596 281.02 37.668 281.34 37.668H281.58V40.5H274.692V37.668ZM285.948 24.204H290.46V27.444H285.948V24.204ZM284.46 37.668H284.964C285.316 37.668 285.564 37.588 285.708 37.428C285.868 37.268 285.948 37.028 285.948 36.708V32.748C285.948 32.14 285.62 31.836 284.964 31.836H284.46V28.98H290.46V36.756C290.46 37.364 290.788 37.668 291.444 37.668H291.948V40.5H284.46V37.668ZM300.618 40.884C299.642 40.884 298.818 40.756 298.146 40.5C297.49 40.244 296.938 39.772 296.49 39.084L296.322 40.5H293.442V28.38C293.442 28.076 293.378 27.852 293.25 27.708C293.122 27.548 292.898 27.468 292.578 27.468H292.194V24.612H297.33V29.7C297.842 29.332 298.37 29.06 298.914 28.884C299.458 28.708 300.106 28.62 300.858 28.62C302.554 28.62 303.834 29.164 304.698 30.252C305.562 31.34 305.994 32.9 305.994 34.932C305.994 36.836 305.506 38.308 304.53 39.348C303.554 40.372 302.25 40.884 300.618 40.884ZM299.562 38.388C300.346 38.388 300.874 38.124 301.146 37.596C301.434 37.052 301.578 36.148 301.578 34.884C301.578 33.604 301.434 32.692 301.146 32.148C300.874 31.588 300.346 31.308 299.562 31.308C298.266 31.308 297.618 32.26 297.618 34.164V35.436C297.618 36.3 297.778 37.012 298.098 37.572C298.434 38.116 298.922 38.388 299.562 38.388ZM311.474 40.884C310.034 40.884 308.978 40.54 308.306 39.852C307.634 39.148 307.298 38.132 307.298 36.804V32.724C307.298 32.116 306.97 31.812 306.314 31.812H305.858V28.98H311.81V36.78C311.81 37.292 311.914 37.66 312.122 37.884C312.33 38.108 312.642 38.22 313.058 38.22C313.506 38.22 313.834 38.108 314.042 37.884C314.25 37.66 314.354 37.292 314.354 36.78V32.724C314.354 32.42 314.298 32.196 314.186 32.052C314.09 31.892 313.898 31.812 313.61 31.812H313.226V28.98H318.842V36.732C318.842 37.34 319.178 37.644 319.85 37.644H320.09V40.5H316.058L315.89 39.036C315.266 39.708 314.618 40.188 313.946 40.476C313.274 40.748 312.45 40.884 311.474 40.884ZM326.766 40.86C324.958 40.86 323.614 40.5 322.734 39.78C321.854 39.044 321.414 37.996 321.414 36.636V31.668H319.71V28.98H321.414V26.724L325.902 25.548V28.98H328.902V31.668H325.902V37.044C325.902 37.46 325.99 37.756 326.166 37.932C326.358 38.108 326.638 38.196 327.006 38.196C327.454 38.196 327.814 38.06 328.086 37.788V36.78H331.662V39.204C330.254 40.308 328.622 40.86 326.766 40.86ZM332.917 24.204H337.429V27.444H332.917V24.204ZM331.429 37.668H331.933C332.285 37.668 332.533 37.588 332.677 37.428C332.837 37.268 332.917 37.028 332.917 36.708V32.748C332.917 32.14 332.589 31.836 331.933 31.836H331.429V28.98H337.429V36.756C337.429 37.364 337.757 37.668 338.413 37.668H338.917V40.5H331.429V37.668ZM339.403 37.668H339.643C340.315 37.668 340.651 37.364 340.651 36.756V32.772C340.651 32.164 340.339 31.86 339.715 31.86H339.403V28.98H343.435L343.603 30.516C344.643 29.252 346.115 28.62 348.019 28.62C349.459 28.62 350.515 28.972 351.187 29.676C351.859 30.364 352.195 31.372 352.195 32.7V36.756C352.195 37.364 352.523 37.668 353.179 37.668H353.635V40.5H347.683V32.724C347.683 32.228 347.579 31.868 347.371 31.644C347.163 31.42 346.851 31.308 346.435 31.308C345.987 31.308 345.659 31.42 345.451 31.644C345.243 31.852 345.139 32.212 345.139 32.724V36.756C345.139 37.06 345.195 37.292 345.307 37.452C345.435 37.596 345.651 37.668 345.955 37.668H346.267V40.5H339.403V37.668ZM361.418 45.3C360.234 45.3 359.226 45.148 358.394 44.844C357.578 44.556 356.842 44.124 356.186 43.548V41.7H359.858V42.348C360.226 42.652 360.73 42.804 361.37 42.804C361.866 42.804 362.226 42.66 362.45 42.372C362.674 42.084 362.786 41.7 362.786 41.22V39.492C362.322 39.844 361.842 40.1 361.346 40.26C360.85 40.42 360.25 40.5 359.546 40.5C357.786 40.5 356.442 40.012 355.514 39.036C354.586 38.06 354.122 36.564 354.122 34.548C354.122 32.66 354.618 31.204 355.61 30.18C356.618 29.14 357.946 28.62 359.594 28.62C360.57 28.62 361.362 28.772 361.97 29.076C362.594 29.38 363.138 29.868 363.602 30.54L363.794 28.98H367.682V31.74H367.442C367.138 31.74 366.93 31.82 366.818 31.98C366.706 32.14 366.65 32.396 366.65 32.748V40.38C366.65 41.884 366.194 43.076 365.282 43.956C364.386 44.852 363.098 45.3 361.418 45.3ZM360.554 37.956C361.258 37.956 361.754 37.7 362.042 37.188C362.346 36.66 362.498 35.916 362.498 34.956V34.212C362.498 33.3 362.346 32.556 362.042 31.98C361.754 31.404 361.258 31.116 360.554 31.116C359.77 31.116 359.234 31.372 358.946 31.884C358.674 32.396 358.538 33.284 358.538 34.548C358.538 35.396 358.594 36.068 358.706 36.564C358.818 37.044 359.018 37.396 359.306 37.62C359.594 37.844 360.01 37.956 360.554 37.956ZM376.135 24.204H380.647V27.444H376.135V24.204ZM374.647 37.668H375.151C375.503 37.668 375.751 37.588 375.895 37.428C376.055 37.268 376.135 37.028 376.135 36.708V32.748C376.135 32.14 375.807 31.836 375.151 31.836H374.647V28.98H380.647V36.756C380.647 37.364 380.975 37.668 381.631 37.668H382.135V40.5H374.647V37.668ZM382.622 37.668H382.862C383.534 37.668 383.87 37.364 383.87 36.756V32.772C383.87 32.164 383.558 31.86 382.934 31.86H382.622V28.98H386.654L386.822 30.516C387.862 29.252 389.334 28.62 391.238 28.62C392.678 28.62 393.734 28.972 394.406 29.676C395.078 30.364 395.414 31.372 395.414 32.7V36.756C395.414 37.364 395.742 37.668 396.398 37.668H396.854V40.5H390.902V32.724C390.902 32.228 390.798 31.868 390.59 31.644C390.382 31.42 390.07 31.308 389.654 31.308C389.206 31.308 388.878 31.42 388.67 31.644C388.462 31.852 388.358 32.212 388.358 32.724V36.756C388.358 37.06 388.414 37.292 388.526 37.452C388.654 37.596 388.87 37.668 389.174 37.668H389.486V40.5H382.622V37.668ZM403.827 42.66H404.067C404.403 42.66 404.651 42.58 404.811 42.42C404.987 42.26 405.075 42.036 405.075 41.748V32.772C405.075 32.484 404.987 32.26 404.811 32.1C404.651 31.94 404.403 31.86 404.067 31.86H403.827V28.98H407.931L408.147 30.54C408.627 29.916 409.195 29.444 409.851 29.124C410.523 28.788 411.315 28.62 412.227 28.62C413.859 28.62 415.163 29.14 416.139 30.18C417.131 31.204 417.627 32.668 417.627 34.572C417.627 36.588 417.163 38.148 416.235 39.252C415.323 40.34 414.011 40.884 412.299 40.884C411.547 40.884 410.931 40.804 410.451 40.644C409.987 40.5 409.491 40.244 408.963 39.876V41.748C408.963 42.356 409.291 42.66 409.947 42.66H410.211V45.492H403.827V42.66ZM411.195 38.268C411.979 38.268 412.507 37.98 412.779 37.404C413.067 36.828 413.211 35.9 413.211 34.62C413.211 33.356 413.067 32.46 412.779 31.932C412.507 31.388 411.979 31.116 411.195 31.116C410.555 31.116 410.067 31.396 409.731 31.956C409.395 32.516 409.227 33.22 409.227 34.068V35.388C409.227 36.316 409.387 37.028 409.707 37.524C410.043 38.02 410.539 38.268 411.195 38.268ZM418.34 37.668H418.604C419.26 37.668 419.588 37.364 419.588 36.756V32.724C419.588 32.436 419.516 32.212 419.372 32.052C419.244 31.892 419.012 31.812 418.676 31.812H418.388V28.98H423.332L423.596 30.132C423.868 29.732 424.26 29.444 424.772 29.268C425.3 29.076 425.812 28.98 426.308 28.98H427.868V31.812H425.612C425.068 31.812 424.676 31.94 424.436 32.196C424.212 32.452 424.1 32.852 424.1 33.396V36.756C424.1 37.06 424.164 37.292 424.292 37.452C424.436 37.596 424.668 37.668 424.988 37.668H425.228V40.5H418.34V37.668ZM434.099 40.86C432.083 40.86 430.515 40.34 429.395 39.3C428.291 38.26 427.739 36.74 427.739 34.74C427.739 32.724 428.283 31.204 429.371 30.18C430.459 29.14 432.035 28.62 434.099 28.62C436.147 28.62 437.707 29.14 438.779 30.18C439.867 31.204 440.411 32.724 440.411 34.74C440.411 36.74 439.859 38.26 438.755 39.3C437.651 40.34 436.099 40.86 434.099 40.86ZM434.099 38.004C434.803 38.004 435.291 37.756 435.563 37.26C435.851 36.748 435.995 35.908 435.995 34.74C435.995 33.556 435.851 32.716 435.563 32.22C435.291 31.724 434.803 31.476 434.099 31.476C433.379 31.476 432.883 31.724 432.611 32.22C432.339 32.7 432.203 33.54 432.203 34.74C432.203 35.924 432.339 36.764 432.611 37.26C432.883 37.756 433.379 38.004 434.099 38.004ZM442.535 24.204H447.047V27.444H442.535V24.204ZM441.671 44.796C440.647 44.796 439.711 44.668 438.863 44.412C438.031 44.172 437.343 43.836 436.799 43.404V40.74H440.351V41.748C440.671 42.004 441.039 42.132 441.455 42.132C441.807 42.132 442.071 42.052 442.247 41.892C442.439 41.748 442.535 41.508 442.535 41.172V32.748C442.535 32.46 442.447 32.236 442.271 32.076C442.111 31.916 441.871 31.836 441.551 31.836H441.047V28.98H447.047V40.572C447.047 41.932 446.607 42.972 445.727 43.692C444.847 44.428 443.495 44.796 441.671 44.796ZM454.895 40.884C452.799 40.884 451.167 40.372 449.999 39.348C448.831 38.324 448.247 36.812 448.247 34.812C448.247 32.716 448.791 31.164 449.879 30.156C450.967 29.132 452.527 28.62 454.559 28.62C456.543 28.62 458.047 29.156 459.071 30.228C460.111 31.284 460.631 32.7 460.631 34.476V35.628H452.687C452.687 36.588 452.855 37.268 453.191 37.668C453.527 38.068 454.119 38.268 454.967 38.268C455.559 38.268 456.087 38.164 456.551 37.956V36.996H460.223V39.132C459.599 39.708 458.863 40.148 458.015 40.452C457.167 40.74 456.127 40.884 454.895 40.884ZM456.215 33.324C456.215 32.668 456.055 32.164 455.735 31.812C455.431 31.444 455.007 31.26 454.463 31.26C453.887 31.26 453.447 31.444 453.143 31.812C452.839 32.164 452.687 32.668 452.687 33.324H456.215ZM467.129 40.86C465.881 40.86 464.753 40.636 463.745 40.188C462.753 39.74 461.961 39.068 461.369 38.172C460.793 37.276 460.505 36.188 460.505 34.908C460.505 32.812 461.089 31.244 462.257 30.204C463.441 29.148 465.081 28.62 467.177 28.62C468.313 28.62 469.265 28.756 470.033 29.028C470.801 29.284 471.561 29.708 472.313 30.3V33.276H468.641V31.98C468.449 31.836 468.233 31.74 467.993 31.692C467.769 31.628 467.489 31.596 467.153 31.596C466.465 31.596 465.921 31.876 465.521 32.436C465.121 32.98 464.921 33.804 464.921 34.908C464.921 35.948 465.169 36.7 465.665 37.164C466.177 37.628 466.969 37.86 468.041 37.86C469.305 37.86 470.321 37.572 471.089 36.996L472.457 39.252C471.657 39.86 470.889 40.276 470.153 40.5C469.417 40.74 468.409 40.86 467.129 40.86ZM479.391 40.86C477.583 40.86 476.239 40.5 475.359 39.78C474.479 39.044 474.039 37.996 474.039 36.636V31.668H472.335V28.98H474.039V26.724L478.527 25.548V28.98H481.527V31.668H478.527V37.044C478.527 37.46 478.615 37.756 478.791 37.932C478.983 38.108 479.263 38.196 479.631 38.196C480.079 38.196 480.439 38.06 480.711 37.788V36.78H484.287V39.204C482.879 40.308 481.247 40.86 479.391 40.86ZM149.197 76.524C149.085 76.076 148.917 75.78 148.693 75.636C148.485 75.476 148.117 75.396 147.589 75.396H147.301V72.972H151.885L153.733 81.828L155.701 75.588H158.389L160.381 81.828L162.229 72.972H166.813V75.396H166.501C165.973 75.396 165.597 75.476 165.373 75.636C165.165 75.78 165.013 76.076 164.917 76.524L162.253 88.5H159.229L157.045 82.02L154.885 88.5H151.837L149.197 76.524ZM166.988 86.052H167.444C168.084 86.052 168.404 85.748 168.404 85.14V76.02C168.404 75.7 168.332 75.46 168.188 75.3C168.044 75.14 167.804 75.06 167.468 75.06H166.988V72.612H171.74V77.964C172.348 77.452 172.94 77.1 173.516 76.908C174.108 76.716 174.812 76.62 175.628 76.62C176.94 76.62 177.892 76.964 178.484 77.652C179.092 78.324 179.396 79.324 179.396 80.652V85.164C179.396 85.756 179.708 86.052 180.332 86.052H180.884V88.5H175.604V80.676C175.604 80.084 175.476 79.652 175.22 79.38C174.964 79.108 174.572 78.972 174.044 78.972C173.468 78.972 173.012 79.124 172.676 79.428C172.356 79.732 172.196 80.196 172.196 80.82V85.164C172.196 85.468 172.26 85.692 172.388 85.836C172.516 85.98 172.732 86.052 173.036 86.052H173.516V88.5H166.988V86.052ZM185.572 88.86C184.196 88.86 183.156 88.58 182.452 88.02C181.764 87.444 181.42 86.636 181.42 85.596C181.42 84.412 181.812 83.532 182.596 82.956C183.38 82.364 184.532 82.02 186.052 81.924L188.596 81.756V80.412C188.596 79.916 188.484 79.564 188.26 79.356C188.036 79.132 187.668 79.02 187.156 79.02C186.596 79.02 186.092 79.172 185.644 79.476V80.34H182.476V77.964C183.948 77.068 185.556 76.62 187.3 76.62C189.028 76.62 190.308 76.996 191.14 77.748C191.988 78.5 192.412 79.516 192.412 80.796V85.26C192.412 85.564 192.468 85.788 192.58 85.932C192.708 86.06 192.908 86.124 193.18 86.124H193.54V88.5H190.348L190.012 86.988C189.436 87.676 188.82 88.164 188.164 88.452C187.524 88.724 186.66 88.86 185.572 88.86ZM186.436 86.508C187.14 86.508 187.676 86.356 188.044 86.052C188.412 85.732 188.596 85.268 188.596 84.66V83.748L186.436 83.916C185.876 83.964 185.476 84.092 185.236 84.3C185.012 84.508 184.9 84.836 184.9 85.284C184.9 86.1 185.412 86.508 186.436 86.508ZM199.412 88.86C197.78 88.86 196.556 88.508 195.74 87.804C194.94 87.1 194.54 86.084 194.54 84.756V79.356H192.764V76.98H194.54V74.604L198.332 73.572V76.98H201.476V79.356H198.332V85.092C198.332 85.588 198.436 85.956 198.644 86.196C198.868 86.42 199.196 86.532 199.628 86.532C200.156 86.532 200.572 86.388 200.876 86.1V85.068H203.924V87.3C202.74 88.34 201.236 88.86 199.412 88.86ZM212.89 80.1C212.826 79.812 212.698 79.612 212.506 79.5C212.33 79.388 212.074 79.332 211.738 79.332H211.186V76.98H215.41L216.97 83.796L218.746 78.012H221.29L223.066 83.796L224.65 76.98H228.85V79.332H228.322C227.986 79.332 227.722 79.388 227.53 79.5C227.354 79.612 227.234 79.812 227.17 80.1L225.13 88.5H221.866L220.042 82.644L218.17 88.5H214.906L212.89 80.1ZM230.251 72.468H234.139V75.348H230.251V72.468ZM228.787 86.052H229.363C229.699 86.052 229.939 85.98 230.083 85.836C230.243 85.676 230.323 85.436 230.323 85.116V80.388C230.323 80.068 230.251 79.828 230.107 79.668C229.963 79.508 229.723 79.428 229.387 79.428H228.787V76.98H234.115V85.164C234.115 85.756 234.427 86.052 235.051 86.052H235.627V88.5H228.787V86.052ZM236.387 86.052H236.963C237.299 86.052 237.539 85.98 237.683 85.836C237.843 85.676 237.923 85.436 237.923 85.116V75.828C237.923 75.508 237.859 75.284 237.731 75.156C237.619 75.012 237.411 74.94 237.107 74.94H236.387V72.612H241.715V85.164C241.715 85.756 242.027 86.052 242.651 86.052H243.227V88.5H236.387V86.052ZM244.004 86.052H244.58C244.916 86.052 245.156 85.98 245.3 85.836C245.46 85.676 245.54 85.436 245.54 85.116V75.828C245.54 75.508 245.476 75.284 245.348 75.156C245.236 75.012 245.028 74.94 244.724 74.94H244.004V72.612H249.332V85.164C249.332 85.756 249.644 86.052 250.268 86.052H250.844V88.5H244.004V86.052ZM265.969 93.3C264.881 93.3 263.897 93.148 263.017 92.844C262.153 92.556 261.433 92.14 260.857 91.596V89.724H264.025V90.444C264.249 90.668 264.505 90.82 264.793 90.9C265.081 90.996 265.441 91.044 265.873 91.044C267.153 91.044 267.793 90.3 267.793 88.812V87.636C267.361 87.876 266.897 88.06 266.401 88.188C265.905 88.316 265.425 88.38 264.961 88.38C263.457 88.38 262.265 88.012 261.385 87.276C260.521 86.54 260.089 85.508 260.089 84.18V80.316C260.089 79.724 259.769 79.428 259.129 79.428H258.577V76.98H263.905V84.324C263.905 85.476 264.481 86.052 265.633 86.052C266.865 86.052 267.481 85.428 267.481 84.18V80.316C267.481 80.012 267.417 79.788 267.289 79.644C267.177 79.5 266.961 79.428 266.641 79.428H266.161V76.98H271.321V87.972C271.321 89.588 270.841 90.876 269.881 91.836C268.921 92.812 267.617 93.3 265.969 93.3ZM279.001 88.86C277.017 88.86 275.489 88.34 274.417 87.3C273.345 86.244 272.809 84.732 272.809 82.764C272.809 80.78 273.337 79.26 274.393 78.204C275.449 77.148 276.985 76.62 279.001 76.62C281.017 76.62 282.553 77.148 283.609 78.204C284.665 79.26 285.193 80.78 285.193 82.764C285.193 84.732 284.657 86.244 283.585 87.3C282.513 88.34 280.985 88.86 279.001 88.86ZM279.001 86.388C279.865 86.388 280.489 86.1 280.873 85.524C281.257 84.948 281.449 84.028 281.449 82.764C281.449 81.468 281.257 80.532 280.873 79.956C280.489 79.38 279.865 79.092 279.001 79.092C278.137 79.092 277.513 79.38 277.129 79.956C276.761 80.532 276.577 81.468 276.577 82.764C276.577 84.028 276.761 84.948 277.129 85.524C277.513 86.1 278.137 86.388 279.001 86.388ZM290.724 88.86C287.972 88.86 286.596 87.516 286.596 84.828V80.316C286.596 79.724 286.284 79.428 285.66 79.428H285.108V76.98H290.388V84.804C290.388 85.412 290.516 85.852 290.772 86.124C291.044 86.396 291.452 86.532 291.996 86.532C292.556 86.532 292.988 86.38 293.292 86.076C293.612 85.772 293.772 85.308 293.772 84.684V80.316C293.772 80.012 293.708 79.788 293.58 79.644C293.468 79.5 293.26 79.428 292.956 79.428H292.452V76.98H298.98V79.428H298.38C298.076 79.428 297.86 79.5 297.732 79.644C297.62 79.788 297.564 80.012 297.564 80.316V85.14C297.564 85.444 297.636 85.676 297.78 85.836C297.924 85.98 298.164 86.052 298.5 86.052H298.98V88.5H295.188L295.02 86.964C294.444 87.652 293.828 88.14 293.172 88.428C292.532 88.716 291.716 88.86 290.724 88.86ZM312.142 88.836C310.526 88.836 309.254 88.34 308.326 87.348C307.398 86.356 306.934 84.916 306.934 83.028C306.934 80.964 307.39 79.38 308.302 78.276C309.214 77.172 310.542 76.62 312.286 76.62C313.07 76.62 313.718 76.716 314.23 76.908C314.742 77.1 315.238 77.428 315.718 77.892V76.044C315.718 75.724 315.646 75.484 315.502 75.324C315.374 75.164 315.142 75.084 314.806 75.084H314.446V72.612H319.198V85.26C319.198 85.612 319.254 85.852 319.366 85.98C319.494 86.108 319.718 86.172 320.038 86.172H320.326V88.5H316.582L316.39 86.964C315.862 87.604 315.262 88.076 314.59 88.38C313.934 88.684 313.118 88.836 312.142 88.836ZM313.102 86.652C313.902 86.652 314.51 86.34 314.926 85.716C315.342 85.076 315.55 84.276 315.55 83.316V82.188C315.55 81.164 315.35 80.364 314.95 79.788C314.55 79.212 313.942 78.924 313.126 78.924C312.23 78.924 311.598 79.26 311.23 79.932C310.862 80.588 310.678 81.596 310.678 82.956C310.678 84.3 310.854 85.252 311.206 85.812C311.558 86.372 312.19 86.652 313.102 86.652ZM326.93 88.86C324.946 88.86 323.418 88.34 322.346 87.3C321.274 86.244 320.738 84.732 320.738 82.764C320.738 80.78 321.266 79.26 322.322 78.204C323.378 77.148 324.914 76.62 326.93 76.62C328.946 76.62 330.482 77.148 331.538 78.204C332.594 79.26 333.122 80.78 333.122 82.764C333.122 84.732 332.586 86.244 331.514 87.3C330.442 88.34 328.914 88.86 326.93 88.86ZM326.93 86.388C327.794 86.388 328.418 86.1 328.802 85.524C329.186 84.948 329.378 84.028 329.378 82.764C329.378 81.468 329.186 80.532 328.802 79.956C328.418 79.38 327.794 79.092 326.93 79.092C326.066 79.092 325.442 79.38 325.058 79.956C324.69 80.532 324.506 81.468 324.506 82.764C324.506 84.028 324.69 84.948 325.058 85.524C325.442 86.1 326.066 86.388 326.93 86.388ZM344.605 83.892C344.605 82.884 344.829 82.02 345.277 81.3C345.725 80.58 346.469 79.924 347.509 79.332C348.213 78.948 348.725 78.588 349.045 78.252C349.381 77.9 349.549 77.436 349.549 76.86C349.549 75.66 348.765 75.06 347.197 75.06C346.445 75.06 345.677 75.236 344.893 75.588V77.076H341.557V74.34C342.277 73.812 343.125 73.396 344.101 73.092C345.093 72.772 346.165 72.612 347.317 72.612C349.237 72.612 350.701 72.964 351.709 73.668C352.733 74.372 353.245 75.436 353.245 76.86C353.245 77.548 353.125 78.132 352.885 78.612C352.661 79.076 352.325 79.5 351.877 79.884C351.429 80.252 350.797 80.676 349.981 81.156C349.517 81.412 349.173 81.668 348.949 81.924C348.725 82.18 348.573 82.468 348.493 82.788C348.429 83.108 348.397 83.54 348.397 84.084V84.564H344.605V83.892ZM344.437 85.62H348.565V88.5H344.437V85.62ZM357.8 83.892C357.8 82.884 358.024 82.02 358.472 81.3C358.92 80.58 359.664 79.924 360.704 79.332C361.408 78.948 361.92 78.588 362.24 78.252C362.576 77.9 362.744 77.436 362.744 76.86C362.744 75.66 361.96 75.06 360.392 75.06C359.64 75.06 358.872 75.236 358.088 75.588V77.076H354.752V74.34C355.472 73.812 356.32 73.396 357.296 73.092C358.288 72.772 359.36 72.612 360.512 72.612C362.432 72.612 363.896 72.964 364.904 73.668C365.928 74.372 366.44 75.436 366.44 76.86C366.44 77.548 366.32 78.132 366.08 78.612C365.856 79.076 365.52 79.5 365.072 79.884C364.624 80.252 363.992 80.676 363.176 81.156C362.712 81.412 362.368 81.668 362.144 81.924C361.92 82.18 361.768 82.468 361.688 82.788C361.624 83.108 361.592 83.54 361.592 84.084V84.564H357.8V83.892ZM357.632 85.62H361.76V88.5H357.632V85.62Z" fill="black"/>
</svg>
