<svg width="200" height="201" viewBox="0 0 200 201" fill="none" xmlns="http://www.w3.org/2000/svg">
<rect y="200.5" width="200" height="200" rx="100" transform="rotate(-90 0 200.5)" fill="#1D976C"/>
<path d="M32.4959 76.46C32.4959 75.0733 32.7959 73.84 33.3959 72.76C33.9959 71.6667 34.8293 70.82 35.8959 70.22C36.9759 69.6067 38.1959 69.3 39.5559 69.3C41.2226 69.3 42.6493 69.74 43.8359 70.62C45.0226 71.5 45.8159 72.7 46.2159 74.22H42.4559C42.1759 73.6333 41.7759 73.1867 41.2559 72.88C40.7493 72.5733 40.1693 72.42 39.5159 72.42C38.4626 72.42 37.6093 72.7867 36.9559 73.52C36.3026 74.2533 35.9759 75.2333 35.9759 76.46C35.9759 77.6867 36.3026 78.6667 36.9559 79.4C37.6093 80.1333 38.4626 80.5 39.5159 80.5C40.1693 80.5 40.7493 80.3467 41.2559 80.04C41.7759 79.7333 42.1759 79.2867 42.4559 78.7H46.2159C45.8159 80.22 45.0226 81.42 43.8359 82.3C42.6493 83.1667 41.2226 83.6 39.5559 83.6C38.1959 83.6 36.9759 83.3 35.8959 82.7C34.8293 82.0867 33.9959 81.24 33.3959 80.16C32.7959 79.08 32.4959 77.8467 32.4959 76.46ZM53.3903 83.66C52.297 83.66 51.3103 83.4267 50.4303 82.96C49.5636 82.4933 48.877 81.8267 48.3703 80.96C47.877 80.0933 47.6303 79.08 47.6303 77.92C47.6303 76.7733 47.8836 75.7667 48.3903 74.9C48.897 74.02 49.5903 73.3467 50.4703 72.88C51.3503 72.4133 52.337 72.18 53.4303 72.18C54.5236 72.18 55.5103 72.4133 56.3903 72.88C57.2703 73.3467 57.9636 74.02 58.4703 74.9C58.977 75.7667 59.2303 76.7733 59.2303 77.92C59.2303 79.0667 58.9703 80.08 58.4503 80.96C57.9436 81.8267 57.2436 82.4933 56.3503 82.96C55.4703 83.4267 54.4836 83.66 53.3903 83.66ZM53.3903 80.7C54.0436 80.7 54.597 80.46 55.0503 79.98C55.517 79.5 55.7503 78.8133 55.7503 77.92C55.7503 77.0267 55.5236 76.34 55.0703 75.86C54.6303 75.38 54.0836 75.14 53.4303 75.14C52.7636 75.14 52.2103 75.38 51.7703 75.86C51.3303 76.3267 51.1103 77.0133 51.1103 77.92C51.1103 78.8133 51.3236 79.5 51.7503 79.98C52.1903 80.46 52.737 80.7 53.3903 80.7ZM67.8447 72.22C69.1514 72.22 70.1914 72.6467 70.9647 73.5C71.7514 74.34 72.1447 75.5 72.1447 76.98V83.5H68.7447V77.44C68.7447 76.6933 68.5514 76.1133 68.1647 75.7C67.778 75.2867 67.258 75.08 66.6047 75.08C65.9514 75.08 65.4314 75.2867 65.0447 75.7C64.658 76.1133 64.4647 76.6933 64.4647 77.44V83.5H61.0447V72.34H64.4647V73.82C64.8114 73.3267 65.278 72.94 65.8647 72.66C66.4514 72.3667 67.1114 72.22 67.8447 72.22ZM80.1213 75.18H78.2812V83.5H74.8613V75.18H73.6213V72.34H74.8613V72.02C74.8613 70.6467 75.2546 69.6067 76.0413 68.9C76.8279 68.18 77.9813 67.82 79.5013 67.82C79.7546 67.82 79.9413 67.8267 80.0613 67.84V70.74C79.4079 70.7 78.9479 70.7933 78.6813 71.02C78.4146 71.2467 78.2812 71.6533 78.2812 72.24V72.34H80.1213V75.18ZM85.1483 74.2C85.5483 73.5867 86.0483 73.1067 86.6483 72.76C87.2483 72.4 87.9149 72.22 88.6483 72.22V75.84H87.7083C86.8549 75.84 86.2149 76.0267 85.7883 76.4C85.3616 76.76 85.1483 77.4 85.1483 78.32V83.5H81.7283V72.34H85.1483V74.2ZM95.363 83.66C94.2696 83.66 93.283 83.4267 92.403 82.96C91.5363 82.4933 90.8496 81.8267 90.343 80.96C89.8496 80.0933 89.603 79.08 89.603 77.92C89.603 76.7733 89.8563 75.7667 90.363 74.9C90.8696 74.02 91.563 73.3467 92.443 72.88C93.323 72.4133 94.3096 72.18 95.403 72.18C96.4963 72.18 97.483 72.4133 98.363 72.88C99.243 73.3467 99.9363 74.02 100.443 74.9C100.95 75.7667 101.203 76.7733 101.203 77.92C101.203 79.0667 100.943 80.08 100.423 80.96C99.9163 81.8267 99.2163 82.4933 98.323 82.96C97.443 83.4267 96.4563 83.66 95.363 83.66ZM95.363 80.7C96.0163 80.7 96.5696 80.46 97.023 79.98C97.4896 79.5 97.723 78.8133 97.723 77.92C97.723 77.0267 97.4963 76.34 97.043 75.86C96.603 75.38 96.0563 75.14 95.403 75.14C94.7363 75.14 94.183 75.38 93.743 75.86C93.303 76.3267 93.083 77.0133 93.083 77.92C93.083 78.8133 93.2963 79.5 93.723 79.98C94.163 80.46 94.7096 80.7 95.363 80.7ZM109.817 72.22C111.124 72.22 112.164 72.6467 112.937 73.5C113.724 74.34 114.117 75.5 114.117 76.98V83.5H110.717V77.44C110.717 76.6933 110.524 76.1133 110.137 75.7C109.751 75.2867 109.231 75.08 108.577 75.08C107.924 75.08 107.404 75.2867 107.017 75.7C106.631 76.1133 106.437 76.6933 106.437 77.44V83.5H103.017V72.34H106.437V73.82C106.784 73.3267 107.251 72.94 107.837 72.66C108.424 72.3667 109.084 72.22 109.817 72.22ZM122.714 80.6V83.5H120.974C119.734 83.5 118.767 83.2 118.074 82.6C117.381 81.9867 117.034 80.9933 117.034 79.62V75.18H115.674V72.34H117.034V69.62H120.454V72.34H122.694V75.18H120.454V79.66C120.454 79.9933 120.534 80.2333 120.694 80.38C120.854 80.5267 121.121 80.6 121.494 80.6H122.714ZM135.717 72.22C136.997 72.22 138.024 72.6467 138.797 73.5C139.571 74.34 139.957 75.5 139.957 76.98V83.5H136.557V77.44C136.557 76.6933 136.364 76.1133 135.977 75.7C135.591 75.2867 135.071 75.08 134.417 75.08C133.764 75.08 133.244 75.2867 132.857 75.7C132.471 76.1133 132.277 76.6933 132.277 77.44V83.5H128.857V68.7H132.277V73.84C132.624 73.3467 133.097 72.9533 133.697 72.66C134.297 72.3667 134.971 72.22 135.717 72.22ZM144.054 71.18C143.454 71.18 142.96 71.0067 142.574 70.66C142.2 70.3 142.014 69.86 142.014 69.34C142.014 68.8067 142.2 68.3667 142.574 68.02C142.96 67.66 143.454 67.48 144.054 67.48C144.64 67.48 145.12 67.66 145.494 68.02C145.88 68.3667 146.074 68.8067 146.074 69.34C146.074 69.86 145.88 70.3 145.494 70.66C145.12 71.0067 144.64 71.18 144.054 71.18ZM145.754 72.34V83.5H142.334V72.34H145.754ZM162.472 72.22C163.859 72.22 164.959 72.64 165.772 73.48C166.599 74.32 167.012 75.4867 167.012 76.98V83.5H163.612V77.44C163.612 76.72 163.419 76.1667 163.032 75.78C162.659 75.38 162.139 75.18 161.472 75.18C160.806 75.18 160.279 75.38 159.892 75.78C159.519 76.1667 159.332 76.72 159.332 77.44V83.5H155.932V77.44C155.932 76.72 155.739 76.1667 155.352 75.78C154.979 75.38 154.459 75.18 153.792 75.18C153.126 75.18 152.599 75.38 152.212 75.78C151.839 76.1667 151.652 76.72 151.652 77.44V83.5H148.232V72.34H151.652V73.74C151.999 73.2733 152.452 72.9067 153.012 72.64C153.572 72.36 154.206 72.22 154.912 72.22C155.752 72.22 156.499 72.4 157.152 72.76C157.819 73.12 158.339 73.6333 158.712 74.3C159.099 73.6867 159.626 73.1867 160.292 72.8C160.959 72.4133 161.686 72.22 162.472 72.22ZM29.1147 101.9C29.1147 100.753 29.328 99.7467 29.7547 98.88C30.1947 98.0133 30.788 97.3467 31.5347 96.88C32.2814 96.4133 33.1147 96.18 34.0347 96.18C34.8214 96.18 35.508 96.34 36.0947 96.66C36.6947 96.98 37.1547 97.4 37.4747 97.92V96.34H40.8947V107.5H37.4747V105.92C37.1414 106.44 36.6747 106.86 36.0747 107.18C35.488 107.5 34.8014 107.66 34.0147 107.66C33.108 107.66 32.2814 107.427 31.5347 106.96C30.788 106.48 30.1947 105.807 29.7547 104.94C29.328 104.06 29.1147 103.047 29.1147 101.9ZM37.4747 101.92C37.4747 101.067 37.2347 100.393 36.7547 99.9C36.288 99.4067 35.7147 99.16 35.0347 99.16C34.3547 99.16 33.7747 99.4067 33.2947 99.9C32.828 100.38 32.5947 101.047 32.5947 101.9C32.5947 102.753 32.828 103.433 33.2947 103.94C33.7747 104.433 34.3547 104.68 35.0347 104.68C35.7147 104.68 36.288 104.433 36.7547 103.94C37.2347 103.447 37.4747 102.773 37.4747 101.92ZM50.1689 96.22C51.4756 96.22 52.5156 96.6467 53.2889 97.5C54.0756 98.34 54.4689 99.5 54.4689 100.98V107.5H51.0689V101.44C51.0689 100.693 50.8756 100.113 50.4889 99.7C50.1022 99.2867 49.5822 99.08 48.9289 99.08C48.2756 99.08 47.7556 99.2867 47.3689 99.7C46.9822 100.113 46.7889 100.693 46.7889 101.44V107.5H43.3689V96.34H46.7889V97.82C47.1356 97.3267 47.6022 96.94 48.1889 96.66C48.7756 96.3667 49.4356 96.22 50.1689 96.22ZM56.1655 101.9C56.1655 100.753 56.3788 99.7467 56.8055 98.88C57.2455 98.0133 57.8388 97.3467 58.5855 96.88C59.3321 96.4133 60.1655 96.18 61.0855 96.18C61.8188 96.18 62.4855 96.3333 63.0855 96.64C63.6988 96.9467 64.1788 97.36 64.5255 97.88V92.7H67.9455V107.5H64.5255V105.9C64.2055 106.433 63.7455 106.86 63.1455 107.18C62.5588 107.5 61.8721 107.66 61.0855 107.66C60.1655 107.66 59.3321 107.427 58.5855 106.96C57.8388 106.48 57.2455 105.807 56.8055 104.94C56.3788 104.06 56.1655 103.047 56.1655 101.9ZM64.5255 101.92C64.5255 101.067 64.2855 100.393 63.8055 99.9C63.3388 99.4067 62.7655 99.16 62.0855 99.16C61.4055 99.16 60.8255 99.4067 60.3455 99.9C59.8788 100.38 59.6455 101.047 59.6455 101.9C59.6455 102.753 59.8788 103.433 60.3455 103.94C60.8255 104.433 61.4055 104.68 62.0855 104.68C62.7655 104.68 63.3388 104.433 63.8055 103.94C64.2855 103.447 64.5255 102.773 64.5255 101.92ZM80.878 104.6V107.5H79.138C77.898 107.5 76.9313 107.2 76.238 106.6C75.5446 105.987 75.198 104.993 75.198 103.62V99.18H73.838V96.34H75.198V93.62H78.618V96.34H80.858V99.18H78.618V103.66C78.618 103.993 78.698 104.233 78.858 104.38C79.018 104.527 79.2846 104.6 79.658 104.6H80.878ZM82.103 101.9C82.103 100.753 82.3163 99.7467 82.743 98.88C83.183 98.0133 83.7763 97.3467 84.523 96.88C85.2696 96.4133 86.103 96.18 87.023 96.18C87.8096 96.18 88.4963 96.34 89.083 96.66C89.683 96.98 90.143 97.4 90.463 97.92V96.34H93.883V107.5H90.463V105.92C90.1296 106.44 89.663 106.86 89.063 107.18C88.4763 107.5 87.7896 107.66 87.003 107.66C86.0963 107.66 85.2696 107.427 84.523 106.96C83.7763 106.48 83.183 105.807 82.743 104.94C82.3163 104.06 82.103 103.047 82.103 101.9ZM90.463 101.92C90.463 101.067 90.223 100.393 89.743 99.9C89.2763 99.4067 88.703 99.16 88.023 99.16C87.343 99.16 86.763 99.4067 86.283 99.9C85.8163 100.38 85.583 101.047 85.583 101.9C85.583 102.753 85.8163 103.433 86.283 103.94C86.763 104.433 87.343 104.68 88.023 104.68C88.703 104.68 89.2763 104.433 89.743 103.94C90.223 103.447 90.463 102.773 90.463 101.92ZM103.177 107.5L99.7772 102.82V107.5H96.3572V92.7H99.7772V100.88L103.157 96.34H107.377L102.737 101.94L107.417 107.5H103.177ZM119.24 101.74C119.24 102.06 119.22 102.393 119.18 102.74H111.44C111.494 103.433 111.714 103.967 112.1 104.34C112.5 104.7 112.987 104.88 113.56 104.88C114.414 104.88 115.007 104.52 115.34 103.8H118.98C118.794 104.533 118.454 105.193 117.96 105.78C117.48 106.367 116.874 106.827 116.14 107.16C115.407 107.493 114.587 107.66 113.68 107.66C112.587 107.66 111.614 107.427 110.76 106.96C109.907 106.493 109.24 105.827 108.76 104.96C108.28 104.093 108.04 103.08 108.04 101.92C108.04 100.76 108.274 99.7467 108.74 98.88C109.22 98.0133 109.887 97.3467 110.74 96.88C111.594 96.4133 112.574 96.18 113.68 96.18C114.76 96.18 115.72 96.4067 116.56 96.86C117.4 97.3133 118.054 97.96 118.52 98.8C119 99.64 119.24 100.62 119.24 101.74ZM115.74 100.84C115.74 100.253 115.54 99.7867 115.14 99.44C114.74 99.0933 114.24 98.92 113.64 98.92C113.067 98.92 112.58 99.0867 112.18 99.42C111.794 99.7533 111.554 100.227 111.46 100.84H115.74ZM136.683 96.34L129.683 112.8H126.003L128.563 107.12L124.023 96.34H127.843L130.423 103.32L132.983 96.34H136.683ZM143 107.66C141.906 107.66 140.92 107.427 140.04 106.96C139.173 106.493 138.486 105.827 137.98 104.96C137.486 104.093 137.24 103.08 137.24 101.92C137.24 100.773 137.493 99.7667 138 98.9C138.506 98.02 139.2 97.3467 140.08 96.88C140.96 96.4133 141.946 96.18 143.04 96.18C144.133 96.18 145.12 96.4133 146 96.88C146.88 97.3467 147.573 98.02 148.08 98.9C148.586 99.7667 148.84 100.773 148.84 101.92C148.84 103.067 148.58 104.08 148.06 104.96C147.553 105.827 146.853 106.493 145.96 106.96C145.08 107.427 144.093 107.66 143 107.66ZM143 104.7C143.653 104.7 144.206 104.46 144.66 103.98C145.126 103.5 145.36 102.813 145.36 101.92C145.36 101.027 145.133 100.34 144.68 99.86C144.24 99.38 143.693 99.14 143.04 99.14C142.373 99.14 141.82 99.38 141.38 99.86C140.94 100.327 140.72 101.013 140.72 101.92C140.72 102.813 140.933 103.5 141.36 103.98C141.8 104.46 142.346 104.7 143 104.7ZM161.674 96.34V107.5H158.254V105.98C157.907 106.473 157.434 106.873 156.834 107.18C156.247 107.473 155.594 107.62 154.874 107.62C154.021 107.62 153.267 107.433 152.614 107.06C151.961 106.673 151.454 106.12 151.094 105.4C150.734 104.68 150.554 103.833 150.554 102.86V96.34H153.954V102.4C153.954 103.147 154.147 103.727 154.534 104.14C154.921 104.553 155.441 104.76 156.094 104.76C156.761 104.76 157.287 104.553 157.674 104.14C158.061 103.727 158.254 103.147 158.254 102.4V96.34H161.674ZM167.551 98.2C167.951 97.5867 168.451 97.1067 169.051 96.76C169.651 96.4 170.317 96.22 171.051 96.22V99.84H170.111C169.257 99.84 168.617 100.027 168.191 100.4C167.764 100.76 167.551 101.4 167.551 102.32V107.5H164.131V96.34H167.551V98.2ZM75.8288 131.66C74.8555 131.66 73.9888 131.493 73.2288 131.16C72.4688 130.827 71.8688 130.373 71.4288 129.8C70.9888 129.213 70.7422 128.56 70.6888 127.84H74.0688C74.1088 128.227 74.2888 128.54 74.6088 128.78C74.9288 129.02 75.3222 129.14 75.7888 129.14C76.2155 129.14 76.5422 129.06 76.7688 128.9C77.0088 128.727 77.1288 128.507 77.1288 128.24C77.1288 127.92 76.9622 127.687 76.6288 127.54C76.2955 127.38 75.7555 127.207 75.0088 127.02C74.2088 126.833 73.5422 126.64 73.0088 126.44C72.4755 126.227 72.0155 125.9 71.6288 125.46C71.2422 125.007 71.0488 124.4 71.0488 123.64C71.0488 123 71.2222 122.42 71.5688 121.9C71.9288 121.367 72.4488 120.947 73.1288 120.64C73.8222 120.333 74.6422 120.18 75.5888 120.18C76.9888 120.18 78.0888 120.527 78.8888 121.22C79.7022 121.913 80.1688 122.833 80.2888 123.98H77.1288C77.0755 123.593 76.9022 123.287 76.6088 123.06C76.3288 122.833 75.9555 122.72 75.4888 122.72C75.0888 122.72 74.7822 122.8 74.5688 122.96C74.3555 123.107 74.2488 123.313 74.2488 123.58C74.2488 123.9 74.4155 124.14 74.7488 124.3C75.0955 124.46 75.6288 124.62 76.3488 124.78C77.1755 124.993 77.8488 125.207 78.3688 125.42C78.8888 125.62 79.3422 125.953 79.7288 126.42C80.1288 126.873 80.3355 127.487 80.3488 128.26C80.3488 128.913 80.1622 129.5 79.7888 130.02C79.4288 130.527 78.9022 130.927 78.2088 131.22C77.5288 131.513 76.7355 131.66 75.8288 131.66ZM88.6612 128.6V131.5H86.9212C85.6812 131.5 84.7145 131.2 84.0212 130.6C83.3278 129.987 82.9812 128.993 82.9812 127.62V123.18H81.6212V120.34H82.9812V117.62H86.4012V120.34H88.6412V123.18H86.4012V127.66C86.4012 127.993 86.4812 128.233 86.6412 128.38C86.8012 128.527 87.0678 128.6 87.4412 128.6H88.6612ZM89.8862 125.9C89.8862 124.753 90.0995 123.747 90.5262 122.88C90.9662 122.013 91.5595 121.347 92.3062 120.88C93.0528 120.413 93.8862 120.18 94.8062 120.18C95.5928 120.18 96.2795 120.34 96.8662 120.66C97.4662 120.98 97.9262 121.4 98.2462 121.92V120.34H101.666V131.5H98.2462V129.92C97.9128 130.44 97.4462 130.86 96.8462 131.18C96.2595 131.5 95.5728 131.66 94.7862 131.66C93.8795 131.66 93.0528 131.427 92.3062 130.96C91.5595 130.48 90.9662 129.807 90.5262 128.94C90.0995 128.06 89.8862 127.047 89.8862 125.9ZM98.2462 125.92C98.2462 125.067 98.0062 124.393 97.5262 123.9C97.0595 123.407 96.4862 123.16 95.8062 123.16C95.1262 123.16 94.5462 123.407 94.0662 123.9C93.5995 124.38 93.3662 125.047 93.3662 125.9C93.3662 126.753 93.5995 127.433 94.0662 127.94C94.5462 128.433 95.1262 128.68 95.8062 128.68C96.4862 128.68 97.0595 128.433 97.5262 127.94C98.0062 127.447 98.2462 126.773 98.2462 125.92ZM110.94 120.22C112.247 120.22 113.287 120.647 114.06 121.5C114.847 122.34 115.24 123.5 115.24 124.98V131.5H111.84V125.44C111.84 124.693 111.647 124.113 111.26 123.7C110.874 123.287 110.354 123.08 109.7 123.08C109.047 123.08 108.527 123.287 108.14 123.7C107.754 124.113 107.56 124.693 107.56 125.44V131.5H104.14V120.34H107.56V121.82C107.907 121.327 108.374 120.94 108.96 120.66C109.547 120.367 110.207 120.22 110.94 120.22ZM116.937 125.9C116.937 124.753 117.15 123.747 117.577 122.88C118.017 122.013 118.61 121.347 119.357 120.88C120.104 120.413 120.937 120.18 121.857 120.18C122.59 120.18 123.257 120.333 123.857 120.64C124.47 120.947 124.95 121.36 125.297 121.88V116.7H128.717V131.5H125.297V129.9C124.977 130.433 124.517 130.86 123.917 131.18C123.33 131.5 122.644 131.66 121.857 131.66C120.937 131.66 120.104 131.427 119.357 130.96C118.61 130.48 118.017 129.807 117.577 128.94C117.15 128.06 116.937 127.047 116.937 125.9ZM125.297 125.92C125.297 125.067 125.057 124.393 124.577 123.9C124.11 123.407 123.537 123.16 122.857 123.16C122.177 123.16 121.597 123.407 121.117 123.9C120.65 124.38 120.417 125.047 120.417 125.9C120.417 126.753 120.65 127.433 121.117 127.94C121.597 128.433 122.177 128.68 122.857 128.68C123.537 128.68 124.11 128.433 124.577 127.94C125.057 127.447 125.297 126.773 125.297 125.92Z" fill="white"/>
</svg>
