<svg width="200" height="201" viewBox="0 0 200 201" fill="none" xmlns="http://www.w3.org/2000/svg">
<rect y="200.5" width="200" height="200" rx="100" transform="rotate(-90 0 200.5)" fill="#1D976C"/>
<path d="M61.6163 71.5L56.8963 65.3V71.5H53.4763V57.46H56.8963V63.62L61.5763 57.46H65.5963L60.1563 64.34L65.7963 71.5H61.6163ZM77.9416 65.74C77.9416 66.06 77.9216 66.3933 77.8816 66.74H70.1416C70.195 67.4333 70.415 67.9667 70.8016 68.34C71.2016 68.7 71.6883 68.88 72.2616 68.88C73.115 68.88 73.7083 68.52 74.0416 67.8H77.6816C77.495 68.5333 77.155 69.1933 76.6616 69.78C76.1816 70.3667 75.575 70.8267 74.8416 71.16C74.1083 71.4933 73.2883 71.66 72.3816 71.66C71.2883 71.66 70.315 71.4267 69.4616 70.96C68.6083 70.4933 67.9416 69.8267 67.4616 68.96C66.9816 68.0933 66.7416 67.08 66.7416 65.92C66.7416 64.76 66.975 63.7467 67.4416 62.88C67.9216 62.0133 68.5883 61.3467 69.4416 60.88C70.295 60.4133 71.275 60.18 72.3816 60.18C73.4616 60.18 74.4216 60.4067 75.2616 60.86C76.1016 61.3133 76.755 61.96 77.2216 62.8C77.7016 63.64 77.9416 64.62 77.9416 65.74ZM74.4416 64.84C74.4416 64.2533 74.2416 63.7867 73.8416 63.44C73.4416 63.0933 72.9416 62.92 72.3416 62.92C71.7683 62.92 71.2816 63.0867 70.8816 63.42C70.495 63.7533 70.255 64.2267 70.1616 64.84H74.4416ZM90.2659 65.74C90.2659 66.06 90.2459 66.3933 90.2059 66.74H82.4659C82.5192 67.4333 82.7392 67.9667 83.1259 68.34C83.5259 68.7 84.0125 68.88 84.5859 68.88C85.4392 68.88 86.0325 68.52 86.3659 67.8H90.0059C89.8192 68.5333 89.4792 69.1933 88.9859 69.78C88.5059 70.3667 87.8992 70.8267 87.1659 71.16C86.4325 71.4933 85.6125 71.66 84.7059 71.66C83.6125 71.66 82.6392 71.4267 81.7859 70.96C80.9325 70.4933 80.2659 69.8267 79.7859 68.96C79.3059 68.0933 79.0659 67.08 79.0659 65.92C79.0659 64.76 79.2992 63.7467 79.7659 62.88C80.2459 62.0133 80.9125 61.3467 81.7659 60.88C82.6192 60.4133 83.5992 60.18 84.7059 60.18C85.7859 60.18 86.7459 60.4067 87.5859 60.86C88.4259 61.3133 89.0792 61.96 89.5459 62.8C90.0259 63.64 90.2659 64.62 90.2659 65.74ZM86.7659 64.84C86.7659 64.2533 86.5659 63.7867 86.1659 63.44C85.7659 63.0933 85.2659 62.92 84.6659 62.92C84.0925 62.92 83.6059 63.0867 83.2059 63.42C82.8192 63.7533 82.5792 64.2267 82.4859 64.84H86.7659ZM95.4901 61.92C95.8234 61.4 96.2834 60.98 96.8701 60.66C97.4567 60.34 98.1434 60.18 98.9301 60.18C99.8501 60.18 100.683 60.4133 101.43 60.88C102.177 61.3467 102.763 62.0133 103.19 62.88C103.63 63.7467 103.85 64.7533 103.85 65.9C103.85 67.0467 103.63 68.06 103.19 68.94C102.763 69.8067 102.177 70.48 101.43 70.96C100.683 71.4267 99.8501 71.66 98.9301 71.66C98.1567 71.66 97.4701 71.5 96.8701 71.18C96.2834 70.86 95.8234 70.4467 95.4901 69.94V76.82H92.0701V60.34H95.4901V61.92ZM100.37 65.9C100.37 65.0467 100.13 64.38 99.6501 63.9C99.1834 63.4067 98.6034 63.16 97.9101 63.16C97.2301 63.16 96.6501 63.4067 96.1701 63.9C95.7034 64.3933 95.4701 65.0667 95.4701 65.92C95.4701 66.7733 95.7034 67.4467 96.1701 67.94C96.6501 68.4333 97.2301 68.68 97.9101 68.68C98.5901 68.68 99.1701 68.4333 99.6501 67.94C100.13 67.4333 100.37 66.7533 100.37 65.9ZM111.603 59.18C111.003 59.18 110.509 59.0067 110.123 58.66C109.749 58.3 109.563 57.86 109.563 57.34C109.563 56.8067 109.749 56.3667 110.123 56.02C110.509 55.66 111.003 55.48 111.603 55.48C112.189 55.48 112.669 55.66 113.043 56.02C113.429 56.3667 113.623 56.8067 113.623 57.34C113.623 57.86 113.429 58.3 113.043 58.66C112.669 59.0067 112.189 59.18 111.603 59.18ZM113.303 60.34V71.5H109.883V60.34H113.303ZM122.001 68.6V71.5H120.261C119.021 71.5 118.054 71.2 117.361 70.6C116.668 69.9867 116.321 68.9933 116.321 67.62V63.18H114.961V60.34H116.321V57.62H119.741V60.34H121.981V63.18H119.741V67.66C119.741 67.9933 119.821 68.2333 119.981 68.38C120.141 68.5267 120.408 68.6 120.781 68.6H122.001ZM134.364 68.6V71.5H132.624C131.384 71.5 130.418 71.2 129.724 70.6C129.031 69.9867 128.684 68.9933 128.684 67.62V63.18H127.324V60.34H128.684V57.62H132.104V60.34H134.344V63.18H132.104V67.66C132.104 67.9933 132.184 68.2333 132.344 68.38C132.504 68.5267 132.771 68.6 133.144 68.6H134.364ZM141.349 71.66C140.256 71.66 139.269 71.4267 138.389 70.96C137.523 70.4933 136.836 69.8267 136.329 68.96C135.836 68.0933 135.589 67.08 135.589 65.92C135.589 64.7733 135.843 63.7667 136.349 62.9C136.856 62.02 137.549 61.3467 138.429 60.88C139.309 60.4133 140.296 60.18 141.389 60.18C142.483 60.18 143.469 60.4133 144.349 60.88C145.229 61.3467 145.923 62.02 146.429 62.9C146.936 63.7667 147.189 64.7733 147.189 65.92C147.189 67.0667 146.929 68.08 146.409 68.96C145.903 69.8267 145.203 70.4933 144.309 70.96C143.429 71.4267 142.443 71.66 141.349 71.66ZM141.349 68.7C142.003 68.7 142.556 68.46 143.009 67.98C143.476 67.5 143.709 66.8133 143.709 65.92C143.709 65.0267 143.483 64.34 143.029 63.86C142.589 63.38 142.043 63.14 141.389 63.14C140.723 63.14 140.169 63.38 139.729 63.86C139.289 64.3267 139.069 65.0133 139.069 65.92C139.069 66.8133 139.283 67.5 139.709 67.98C140.149 68.46 140.696 68.7 141.349 68.7ZM50.9408 84.34L43.9408 100.8H40.2608L42.8208 95.12L38.2808 84.34H42.1008L44.6808 91.32L47.2408 84.34H50.9408ZM57.2575 95.66C56.1642 95.66 55.1775 95.4267 54.2975 94.96C53.4308 94.4933 52.7442 93.8267 52.2375 92.96C51.7442 92.0933 51.4975 91.08 51.4975 89.92C51.4975 88.7733 51.7508 87.7667 52.2575 86.9C52.7642 86.02 53.4575 85.3467 54.3375 84.88C55.2175 84.4133 56.2042 84.18 57.2975 84.18C58.3908 84.18 59.3775 84.4133 60.2575 84.88C61.1375 85.3467 61.8308 86.02 62.3375 86.9C62.8442 87.7667 63.0975 88.7733 63.0975 89.92C63.0975 91.0667 62.8375 92.08 62.3175 92.96C61.8108 93.8267 61.1108 94.4933 60.2175 94.96C59.3375 95.4267 58.3508 95.66 57.2575 95.66ZM57.2575 92.7C57.9108 92.7 58.4642 92.46 58.9175 91.98C59.3842 91.5 59.6175 90.8133 59.6175 89.92C59.6175 89.0267 59.3908 88.34 58.9375 87.86C58.4975 87.38 57.9508 87.14 57.2975 87.14C56.6308 87.14 56.0775 87.38 55.6375 87.86C55.1975 88.3267 54.9775 89.0133 54.9775 89.92C54.9775 90.8133 55.1908 91.5 55.6175 91.98C56.0575 92.46 56.6042 92.7 57.2575 92.7ZM75.9319 84.34V95.5H72.5119V93.98C72.1652 94.4733 71.6919 94.8733 71.0919 95.18C70.5052 95.4733 69.8519 95.62 69.1319 95.62C68.2785 95.62 67.5252 95.4333 66.8719 95.06C66.2185 94.6733 65.7119 94.12 65.3519 93.4C64.9919 92.68 64.8119 91.8333 64.8119 90.86V84.34H68.2119V90.4C68.2119 91.1467 68.4052 91.7267 68.7919 92.14C69.1785 92.5533 69.6985 92.76 70.3519 92.76C71.0185 92.76 71.5452 92.5533 71.9319 92.14C72.3185 91.7267 72.5119 91.1467 72.5119 90.4V84.34H75.9319ZM81.8084 86.2C82.2084 85.5867 82.7084 85.1067 83.3084 84.76C83.9084 84.4 84.5751 84.22 85.3084 84.22V87.84H84.3684C83.5151 87.84 82.8751 88.0267 82.4484 88.4C82.0218 88.76 81.8084 89.4 81.8084 90.32V95.5H78.3884V84.34H81.8084V86.2ZM91.4831 95.66C90.5098 95.66 89.6431 95.4933 88.8831 95.16C88.1231 94.8267 87.5231 94.3733 87.0831 93.8C86.6431 93.2133 86.3965 92.56 86.3431 91.84H89.7231C89.7631 92.2267 89.9431 92.54 90.2631 92.78C90.5831 93.02 90.9765 93.14 91.4431 93.14C91.8698 93.14 92.1965 93.06 92.4231 92.9C92.6631 92.7267 92.7831 92.5067 92.7831 92.24C92.7831 91.92 92.6165 91.6867 92.2831 91.54C91.9498 91.38 91.4098 91.2067 90.6631 91.02C89.8631 90.8333 89.1965 90.64 88.6631 90.44C88.1298 90.2267 87.6698 89.9 87.2831 89.46C86.8965 89.0067 86.7031 88.4 86.7031 87.64C86.7031 87 86.8765 86.42 87.2231 85.9C87.5831 85.3667 88.1031 84.9467 88.7831 84.64C89.4765 84.3333 90.2965 84.18 91.2431 84.18C92.6431 84.18 93.7431 84.5267 94.5431 85.22C95.3565 85.9133 95.8231 86.8333 95.9431 87.98H92.7831C92.7298 87.5933 92.5565 87.2867 92.2631 87.06C91.9831 86.8333 91.6098 86.72 91.1431 86.72C90.7431 86.72 90.4365 86.8 90.2231 86.96C90.0098 87.1067 89.9031 87.3133 89.9031 87.58C89.9031 87.9 90.0698 88.14 90.4031 88.3C90.7498 88.46 91.2831 88.62 92.0031 88.78C92.8298 88.9933 93.5031 89.2067 94.0231 89.42C94.5431 89.62 94.9965 89.9533 95.3831 90.42C95.7831 90.8733 95.9898 91.4867 96.0031 92.26C96.0031 92.9133 95.8165 93.5 95.4431 94.02C95.0831 94.5267 94.5565 94.9267 93.8631 95.22C93.1831 95.5133 92.3898 95.66 91.4831 95.66ZM108.615 89.74C108.615 90.06 108.595 90.3933 108.555 90.74H100.815C100.869 91.4333 101.089 91.9667 101.475 92.34C101.875 92.7 102.362 92.88 102.935 92.88C103.789 92.88 104.382 92.52 104.715 91.8H108.355C108.169 92.5333 107.829 93.1933 107.335 93.78C106.855 94.3667 106.249 94.8267 105.515 95.16C104.782 95.4933 103.962 95.66 103.055 95.66C101.962 95.66 100.989 95.4267 100.135 94.96C99.2821 94.4933 98.6155 93.8267 98.1355 92.96C97.6555 92.0933 97.4155 91.08 97.4155 89.92C97.4155 88.76 97.6488 87.7467 98.1155 86.88C98.5955 86.0133 99.2621 85.3467 100.115 84.88C100.969 84.4133 101.949 84.18 103.055 84.18C104.135 84.18 105.095 84.4067 105.935 84.86C106.775 85.3133 107.429 85.96 107.895 86.8C108.375 87.64 108.615 88.62 108.615 89.74ZM105.115 88.84C105.115 88.2533 104.915 87.7867 104.515 87.44C104.115 87.0933 103.615 86.92 103.015 86.92C102.442 86.92 101.955 87.0867 101.555 87.42C101.169 87.7533 100.929 88.2267 100.835 88.84H105.115ZM113.84 80.7V95.5H110.42V80.7H113.84ZM121.918 87.18H120.078V95.5H116.658V87.18H115.418V84.34H116.658V84.02C116.658 82.6467 117.051 81.6067 117.838 80.9C118.625 80.18 119.778 79.82 121.298 79.82C121.551 79.82 121.738 79.8267 121.858 79.84V82.74C121.205 82.7 120.745 82.7933 120.478 83.02C120.211 83.2467 120.078 83.6533 120.078 84.24V84.34H121.918V87.18ZM131.183 85.92C131.503 85.4 131.963 84.98 132.563 84.66C133.163 84.34 133.85 84.18 134.623 84.18C135.543 84.18 136.377 84.4133 137.123 84.88C137.87 85.3467 138.457 86.0133 138.883 86.88C139.323 87.7467 139.543 88.7533 139.543 89.9C139.543 91.0467 139.323 92.06 138.883 92.94C138.457 93.8067 137.87 94.48 137.123 94.96C136.377 95.4267 135.543 95.66 134.623 95.66C133.837 95.66 133.15 95.5067 132.563 95.2C131.977 94.88 131.517 94.46 131.183 93.94V95.5H127.763V80.7H131.183V85.92ZM136.063 89.9C136.063 89.0467 135.823 88.38 135.343 87.9C134.877 87.4067 134.297 87.16 133.603 87.16C132.923 87.16 132.343 87.4067 131.863 87.9C131.397 88.3933 131.163 89.0667 131.163 89.92C131.163 90.7733 131.397 91.4467 131.863 91.94C132.343 92.4333 132.923 92.68 133.603 92.68C134.283 92.68 134.863 92.4333 135.343 91.94C135.823 91.4333 136.063 90.7533 136.063 89.9ZM152.358 84.34V95.5H148.938V93.98C148.591 94.4733 148.118 94.8733 147.518 95.18C146.931 95.4733 146.278 95.62 145.558 95.62C144.704 95.62 143.951 95.4333 143.298 95.06C142.644 94.6733 142.138 94.12 141.778 93.4C141.418 92.68 141.238 91.8333 141.238 90.86V84.34H144.638V90.4C144.638 91.1467 144.831 91.7267 145.218 92.14C145.604 92.5533 146.124 92.76 146.778 92.76C147.444 92.76 147.971 92.5533 148.358 92.14C148.744 91.7267 148.938 91.1467 148.938 90.4V84.34H152.358ZM161.034 92.6V95.5H159.294C158.054 95.5 157.088 95.2 156.394 94.6C155.701 93.9867 155.354 92.9933 155.354 91.62V87.18H153.994V84.34H155.354V81.62H158.774V84.34H161.014V87.18H158.774V91.66C158.774 91.9933 158.854 92.2333 159.014 92.38C159.174 92.5267 159.441 92.6 159.814 92.6H161.034ZM57.0452 108.34L54.0252 119.5H50.2452L48.4852 112.26L46.6652 119.5H42.9052L39.8652 108.34H43.2852L44.8652 116.32L46.7452 108.34H50.3652L52.2652 116.28L53.8252 108.34H57.0452ZM63.4294 119.66C62.336 119.66 61.3494 119.427 60.4694 118.96C59.6027 118.493 58.916 117.827 58.4094 116.96C57.916 116.093 57.6694 115.08 57.6694 113.92C57.6694 112.773 57.9227 111.767 58.4294 110.9C58.936 110.02 59.6294 109.347 60.5094 108.88C61.3894 108.413 62.376 108.18 63.4694 108.18C64.5627 108.18 65.5494 108.413 66.4294 108.88C67.3094 109.347 68.0027 110.02 68.5094 110.9C69.016 111.767 69.2694 112.773 69.2694 113.92C69.2694 115.067 69.0094 116.08 68.4894 116.96C67.9827 117.827 67.2827 118.493 66.3894 118.96C65.5094 119.427 64.5227 119.66 63.4294 119.66ZM63.4294 116.7C64.0827 116.7 64.636 116.46 65.0894 115.98C65.556 115.5 65.7894 114.813 65.7894 113.92C65.7894 113.027 65.5627 112.34 65.1094 111.86C64.6694 111.38 64.1227 111.14 63.4694 111.14C62.8027 111.14 62.2494 111.38 61.8094 111.86C61.3694 112.327 61.1494 113.013 61.1494 113.92C61.1494 114.813 61.3627 115.5 61.7894 115.98C62.2294 116.46 62.776 116.7 63.4294 116.7ZM77.8838 108.22C79.1904 108.22 80.2304 108.647 81.0038 109.5C81.7904 110.34 82.1838 111.5 82.1838 112.98V119.5H78.7838V113.44C78.7838 112.693 78.5904 112.113 78.2038 111.7C77.8171 111.287 77.2971 111.08 76.6438 111.08C75.9904 111.08 75.4704 111.287 75.0838 111.7C74.6971 112.113 74.5038 112.693 74.5038 113.44V119.5H71.0838V108.34H74.5038V109.82C74.8504 109.327 75.3171 108.94 75.9038 108.66C76.4904 108.367 77.1504 108.22 77.8838 108.22ZM85.3403 105.46H88.8403L86.6003 110.82H84.3003L85.3403 105.46ZM97.0694 116.6V119.5H95.3294C94.0894 119.5 93.1227 119.2 92.4294 118.6C91.736 117.987 91.3894 116.993 91.3894 115.62V111.18H90.0294V108.34H91.3894V105.62H94.8094V108.34H97.0494V111.18H94.8094V115.66C94.8094 115.993 94.8894 116.233 95.0494 116.38C95.2094 116.527 95.476 116.6 95.8494 116.6H97.0694ZM104.933 107.18C104.333 107.18 103.839 107.007 103.453 106.66C103.079 106.3 102.893 105.86 102.893 105.34C102.893 104.807 103.079 104.367 103.453 104.02C103.839 103.66 104.333 103.48 104.933 103.48C105.519 103.48 105.999 103.66 106.373 104.02C106.759 104.367 106.953 104.807 106.953 105.34C106.953 105.86 106.759 106.3 106.373 106.66C105.999 107.007 105.519 107.18 104.933 107.18ZM106.633 108.34V119.5H103.213V108.34H106.633ZM115.911 108.22C117.218 108.22 118.258 108.647 119.031 109.5C119.818 110.34 120.211 111.5 120.211 112.98V119.5H116.811V113.44C116.811 112.693 116.618 112.113 116.231 111.7C115.844 111.287 115.324 111.08 114.671 111.08C114.018 111.08 113.498 111.287 113.111 111.7C112.724 112.113 112.531 112.693 112.531 113.44V119.5H109.111V108.34H112.531V109.82C112.878 109.327 113.344 108.94 113.931 108.66C114.518 108.367 115.178 108.22 115.911 108.22ZM127.608 116.3L130.028 108.34H133.668L129.708 119.5H125.488L121.528 108.34H125.188L127.608 116.3ZM136.827 107.18C136.227 107.18 135.734 107.007 135.347 106.66C134.974 106.3 134.787 105.86 134.787 105.34C134.787 104.807 134.974 104.367 135.347 104.02C135.734 103.66 136.227 103.48 136.827 103.48C137.414 103.48 137.894 103.66 138.267 104.02C138.654 104.367 138.847 104.807 138.847 105.34C138.847 105.86 138.654 106.3 138.267 106.66C137.894 107.007 137.414 107.18 136.827 107.18ZM138.527 108.34V119.5H135.107V108.34H138.527ZM147.226 116.6V119.5H145.486C144.246 119.5 143.279 119.2 142.586 118.6C141.892 117.987 141.546 116.993 141.546 115.62V111.18H140.186V108.34H141.546V105.62H144.966V108.34H147.206V111.18H144.966V115.66C144.966 115.993 145.046 116.233 145.206 116.38C145.366 116.527 145.632 116.6 146.006 116.6H147.226ZM159.651 113.74C159.651 114.06 159.631 114.393 159.591 114.74H151.851C151.904 115.433 152.124 115.967 152.511 116.34C152.911 116.7 153.397 116.88 153.971 116.88C154.824 116.88 155.417 116.52 155.751 115.8H159.391C159.204 116.533 158.864 117.193 158.371 117.78C157.891 118.367 157.284 118.827 156.551 119.16C155.817 119.493 154.997 119.66 154.091 119.66C152.997 119.66 152.024 119.427 151.171 118.96C150.317 118.493 149.651 117.827 149.171 116.96C148.691 116.093 148.451 115.08 148.451 113.92C148.451 112.76 148.684 111.747 149.151 110.88C149.631 110.013 150.297 109.347 151.151 108.88C152.004 108.413 152.984 108.18 154.091 108.18C155.171 108.18 156.131 108.407 156.971 108.86C157.811 109.313 158.464 109.96 158.931 110.8C159.411 111.64 159.651 112.62 159.651 113.74ZM156.151 112.84C156.151 112.253 155.951 111.787 155.551 111.44C155.151 111.093 154.651 110.92 154.051 110.92C153.477 110.92 152.991 111.087 152.591 111.42C152.204 111.753 151.964 112.227 151.871 112.84H156.151ZM36.9867 132.22C38.2667 132.22 39.2934 132.647 40.0667 133.5C40.8401 134.34 41.2267 135.5 41.2267 136.98V143.5H37.8267V137.44C37.8267 136.693 37.6334 136.113 37.2467 135.7C36.8601 135.287 36.3401 135.08 35.6867 135.08C35.0334 135.08 34.5134 135.287 34.1267 135.7C33.7401 136.113 33.5467 136.693 33.5467 137.44V143.5H30.1267V128.7H33.5467V133.84C33.8934 133.347 34.3667 132.953 34.9667 132.66C35.5667 132.367 36.2401 132.22 36.9867 132.22ZM45.3233 131.18C44.7233 131.18 44.2299 131.007 43.8433 130.66C43.4699 130.3 43.2833 129.86 43.2833 129.34C43.2833 128.807 43.4699 128.367 43.8433 128.02C44.2299 127.66 44.7233 127.48 45.3233 127.48C45.9099 127.48 46.3899 127.66 46.7633 128.02C47.1499 128.367 47.3433 128.807 47.3433 129.34C47.3433 129.86 47.1499 130.3 46.7633 130.66C46.3899 131.007 45.9099 131.18 45.3233 131.18ZM47.0233 132.34V143.5H43.6033V132.34H47.0233ZM63.7417 132.22C65.1284 132.22 66.2284 132.64 67.0417 133.48C67.8684 134.32 68.2817 135.487 68.2817 136.98V143.5H64.8817V137.44C64.8817 136.72 64.6884 136.167 64.3017 135.78C63.9284 135.38 63.4084 135.18 62.7417 135.18C62.0751 135.18 61.5484 135.38 61.1617 135.78C60.7884 136.167 60.6017 136.72 60.6017 137.44V143.5H57.2017V137.44C57.2017 136.72 57.0084 136.167 56.6217 135.78C56.2484 135.38 55.7284 135.18 55.0617 135.18C54.3951 135.18 53.8684 135.38 53.4817 135.78C53.1084 136.167 52.9217 136.72 52.9217 137.44V143.5H49.5017V132.34H52.9217V133.74C53.2684 133.273 53.7217 132.907 54.2817 132.64C54.8417 132.36 55.4751 132.22 56.1817 132.22C57.0217 132.22 57.7684 132.4 58.4217 132.76C59.0884 133.12 59.6084 133.633 59.9817 134.3C60.3684 133.687 60.8951 133.187 61.5617 132.8C62.2284 132.413 62.9551 132.22 63.7417 132.22ZM81.7119 132.22C83.0185 132.22 84.0585 132.647 84.8319 133.5C85.6185 134.34 86.0119 135.5 86.0119 136.98V143.5H82.6119V137.44C82.6119 136.693 82.4185 136.113 82.0319 135.7C81.6452 135.287 81.1252 135.08 80.4719 135.08C79.8185 135.08 79.2985 135.287 78.9119 135.7C78.5252 136.113 78.3319 136.693 78.3319 137.44V143.5H74.9119V132.34H78.3319V133.82C78.6785 133.327 79.1452 132.94 79.7319 132.66C80.3185 132.367 80.9785 132.22 81.7119 132.22ZM98.9084 137.74C98.9084 138.06 98.8884 138.393 98.8484 138.74H91.1084C91.1618 139.433 91.3818 139.967 91.7684 140.34C92.1684 140.7 92.6551 140.88 93.2284 140.88C94.0818 140.88 94.6751 140.52 95.0084 139.8H98.6484C98.4618 140.533 98.1218 141.193 97.6284 141.78C97.1484 142.367 96.5418 142.827 95.8084 143.16C95.0751 143.493 94.2551 143.66 93.3484 143.66C92.2551 143.66 91.2818 143.427 90.4284 142.96C89.5751 142.493 88.9084 141.827 88.4284 140.96C87.9484 140.093 87.7084 139.08 87.7084 137.92C87.7084 136.76 87.9418 135.747 88.4084 134.88C88.8884 134.013 89.5551 133.347 90.4084 132.88C91.2618 132.413 92.2418 132.18 93.3484 132.18C94.4284 132.18 95.3884 132.407 96.2284 132.86C97.0684 133.313 97.7218 133.96 98.1884 134.8C98.6684 135.64 98.9084 136.62 98.9084 137.74ZM95.4084 136.84C95.4084 136.253 95.2084 135.787 94.8084 135.44C94.4084 135.093 93.9084 134.92 93.3084 134.92C92.7351 134.92 92.2484 135.087 91.8484 135.42C91.4618 135.753 91.2218 136.227 91.1284 136.84H95.4084ZM107.313 143.5L105.173 140.4L103.373 143.5H99.6727L103.353 137.8L99.5727 132.34H103.413L105.553 135.42L107.353 132.34H111.053L107.313 137.96L111.153 143.5H107.313ZM118.69 140.6V143.5H116.95C115.71 143.5 114.744 143.2 114.05 142.6C113.357 141.987 113.01 140.993 113.01 139.62V135.18H111.65V132.34H113.01V129.62H116.43V132.34H118.67V135.18H116.43V139.66C116.43 139.993 116.51 140.233 116.67 140.38C116.83 140.527 117.097 140.6 117.47 140.6H118.69ZM131.054 140.6V143.5H129.314C128.074 143.5 127.107 143.2 126.414 142.6C125.72 141.987 125.374 140.993 125.374 139.62V135.18H124.014V132.34H125.374V129.62H128.794V132.34H131.034V135.18H128.794V139.66C128.794 139.993 128.874 140.233 129.034 140.38C129.194 140.527 129.46 140.6 129.834 140.6H131.054ZM134.679 131.18C134.079 131.18 133.585 131.007 133.199 130.66C132.825 130.3 132.639 129.86 132.639 129.34C132.639 128.807 132.825 128.367 133.199 128.02C133.585 127.66 134.079 127.48 134.679 127.48C135.265 127.48 135.745 127.66 136.119 128.02C136.505 128.367 136.699 128.807 136.699 129.34C136.699 129.86 136.505 130.3 136.119 130.66C135.745 131.007 135.265 131.18 134.679 131.18ZM136.379 132.34V143.5H132.959V132.34H136.379ZM153.097 132.22C154.484 132.22 155.584 132.64 156.397 133.48C157.224 134.32 157.637 135.487 157.637 136.98V143.5H154.237V137.44C154.237 136.72 154.044 136.167 153.657 135.78C153.284 135.38 152.764 135.18 152.097 135.18C151.431 135.18 150.904 135.38 150.517 135.78C150.144 136.167 149.957 136.72 149.957 137.44V143.5H146.557V137.44C146.557 136.72 146.364 136.167 145.977 135.78C145.604 135.38 145.084 135.18 144.417 135.18C143.751 135.18 143.224 135.38 142.837 135.78C142.464 136.167 142.277 136.72 142.277 137.44V143.5H138.857V132.34H142.277V133.74C142.624 133.273 143.077 132.907 143.637 132.64C144.197 132.36 144.831 132.22 145.537 132.22C146.377 132.22 147.124 132.4 147.777 132.76C148.444 133.12 148.964 133.633 149.337 134.3C149.724 133.687 150.251 133.187 150.917 132.8C151.584 132.413 152.311 132.22 153.097 132.22ZM170.549 137.74C170.549 138.06 170.529 138.393 170.489 138.74H162.749C162.802 139.433 163.022 139.967 163.409 140.34C163.809 140.7 164.296 140.88 164.869 140.88C165.722 140.88 166.316 140.52 166.649 139.8H170.289C170.102 140.533 169.762 141.193 169.269 141.78C168.789 142.367 168.182 142.827 167.449 143.16C166.716 143.493 165.896 143.66 164.989 143.66C163.896 143.66 162.922 143.427 162.069 142.96C161.216 142.493 160.549 141.827 160.069 140.96C159.589 140.093 159.349 139.08 159.349 137.92C159.349 136.76 159.582 135.747 160.049 134.88C160.529 134.013 161.196 133.347 162.049 132.88C162.902 132.413 163.882 132.18 164.989 132.18C166.069 132.18 167.029 132.407 167.869 132.86C168.709 133.313 169.362 133.96 169.829 134.8C170.309 135.64 170.549 136.62 170.549 137.74ZM167.049 136.84C167.049 136.253 166.849 135.787 166.449 135.44C166.049 135.093 165.549 134.92 164.949 134.92C164.376 134.92 163.889 135.087 163.489 135.42C163.102 135.753 162.862 136.227 162.769 136.84H167.049Z" fill="white"/>
</svg>
