<svg width="200" height="201" viewBox="0 0 200 201" fill="none" xmlns="http://www.w3.org/2000/svg">
<rect y="200.5" width="200" height="200" rx="100" transform="rotate(-90 0 200.5)" fill="#1D976C"/>
<path d="M40.546 81.46V84.2H34.826V87.16H39.106V89.82H34.826V95.5H31.406V81.46H40.546ZM47.4235 95.66C46.3302 95.66 45.3435 95.4267 44.4635 94.96C43.5968 94.4933 42.9102 93.8267 42.4035 92.96C41.9102 92.0933 41.6635 91.08 41.6635 89.92C41.6635 88.7733 41.9168 87.7667 42.4235 86.9C42.9302 86.02 43.6235 85.3467 44.5035 84.88C45.3835 84.4133 46.3702 84.18 47.4635 84.18C48.5568 84.18 49.5435 84.4133 50.4235 84.88C51.3035 85.3467 51.9968 86.02 52.5035 86.9C53.0102 87.7667 53.2635 88.7733 53.2635 89.92C53.2635 91.0667 53.0035 92.08 52.4835 92.96C51.9768 93.8267 51.2768 94.4933 50.3835 94.96C49.5035 95.4267 48.5168 95.66 47.4235 95.66ZM47.4235 92.7C48.0768 92.7 48.6302 92.46 49.0835 91.98C49.5502 91.5 49.7835 90.8133 49.7835 89.92C49.7835 89.0267 49.5568 88.34 49.1035 87.86C48.6635 87.38 48.1168 87.14 47.4635 87.14C46.7968 87.14 46.2435 87.38 45.8035 87.86C45.3635 88.3267 45.1435 89.0133 45.1435 89.92C45.1435 90.8133 45.3568 91.5 45.7835 91.98C46.2235 92.46 46.7702 92.7 47.4235 92.7ZM58.4979 86.2C58.8979 85.5867 59.3979 85.1067 59.9979 84.76C60.5979 84.4 61.2646 84.22 61.9979 84.22V87.84H61.0579C60.2046 87.84 59.5646 88.0267 59.1379 88.4C58.7112 88.76 58.4979 89.4 58.4979 90.32V95.5H55.0779V84.34H58.4979V86.2ZM67.8726 84.18C68.6592 84.18 69.3459 84.34 69.9326 84.66C70.5326 84.98 70.9926 85.4 71.3126 85.92V84.34H74.7326V95.48C74.7326 96.5067 74.5259 97.4333 74.1126 98.26C73.7126 99.1 73.0926 99.7667 72.2526 100.26C71.4259 100.753 70.3926 101 69.1526 101C67.4992 101 66.1592 100.607 65.1326 99.82C64.1059 99.0467 63.5192 97.9933 63.3726 96.66H66.7526C66.8592 97.0867 67.1126 97.42 67.5126 97.66C67.9126 97.9133 68.4059 98.04 68.9926 98.04C69.6992 98.04 70.2592 97.8333 70.6726 97.42C71.0992 97.02 71.3126 96.3733 71.3126 95.48V93.9C70.9792 94.42 70.5192 94.8467 69.9326 95.18C69.3459 95.5 68.6592 95.66 67.8726 95.66C66.9526 95.66 66.1192 95.4267 65.3726 94.96C64.6259 94.48 64.0326 93.8067 63.5926 92.94C63.1659 92.06 62.9526 91.0467 62.9526 89.9C62.9526 88.7533 63.1659 87.7467 63.5926 86.88C64.0326 86.0133 64.6259 85.3467 65.3726 84.88C66.1192 84.4133 66.9526 84.18 67.8726 84.18ZM71.3126 89.92C71.3126 89.0667 71.0726 88.3933 70.5926 87.9C70.1259 87.4067 69.5526 87.16 68.8726 87.16C68.1926 87.16 67.6126 87.4067 67.1326 87.9C66.6659 88.38 66.4326 89.0467 66.4326 89.9C66.4326 90.7533 66.6659 91.4333 67.1326 91.94C67.6126 92.4333 68.1926 92.68 68.8726 92.68C69.5526 92.68 70.1259 92.4333 70.5926 91.94C71.0726 91.4467 71.3126 90.7733 71.3126 89.92ZM78.9268 83.18C78.3268 83.18 77.8335 83.0067 77.4468 82.66C77.0735 82.3 76.8868 81.86 76.8868 81.34C76.8868 80.8067 77.0735 80.3667 77.4468 80.02C77.8335 79.66 78.3268 79.48 78.9268 79.48C79.5135 79.48 79.9935 79.66 80.3668 80.02C80.7535 80.3667 80.9468 80.8067 80.9468 81.34C80.9468 81.86 80.7535 82.3 80.3668 82.66C79.9935 83.0067 79.5135 83.18 78.9268 83.18ZM80.6268 84.34V95.5H77.2068V84.34H80.6268ZM88.1252 92.3L90.5452 84.34H94.1852L90.2252 95.5H86.0052L82.0452 84.34H85.7052L88.1252 92.3ZM106.145 89.74C106.145 90.06 106.125 90.3933 106.085 90.74H98.3448C98.3981 91.4333 98.6181 91.9667 99.0048 92.34C99.4048 92.7 99.8914 92.88 100.465 92.88C101.318 92.88 101.911 92.52 102.245 91.8H105.885C105.698 92.5333 105.358 93.1933 104.865 93.78C104.385 94.3667 103.778 94.8267 103.045 95.16C102.311 95.4933 101.491 95.66 100.585 95.66C99.4914 95.66 98.5181 95.4267 97.6648 94.96C96.8114 94.4933 96.1448 93.8267 95.6648 92.96C95.1848 92.0933 94.9448 91.08 94.9448 89.92C94.9448 88.76 95.1781 87.7467 95.6448 86.88C96.1248 86.0133 96.7914 85.3467 97.6448 84.88C98.4981 84.4133 99.4781 84.18 100.585 84.18C101.665 84.18 102.625 84.4067 103.465 84.86C104.305 85.3133 104.958 85.96 105.425 86.8C105.905 87.64 106.145 88.62 106.145 89.74ZM102.645 88.84C102.645 88.2533 102.445 87.7867 102.045 87.44C101.645 87.0933 101.145 86.92 100.545 86.92C99.9714 86.92 99.4848 87.0867 99.0848 87.42C98.6981 87.7533 98.4581 88.2267 98.3648 88.84H102.645ZM113.907 83.18C113.307 83.18 112.814 83.0067 112.427 82.66C112.054 82.3 111.867 81.86 111.867 81.34C111.867 80.8067 112.054 80.3667 112.427 80.02C112.814 79.66 113.307 79.48 113.907 79.48C114.494 79.48 114.974 79.66 115.347 80.02C115.734 80.3667 115.927 80.8067 115.927 81.34C115.927 81.86 115.734 82.3 115.347 82.66C114.974 83.0067 114.494 83.18 113.907 83.18ZM115.607 84.34V95.5H112.187V84.34H115.607ZM124.306 92.6V95.5H122.566C121.326 95.5 120.359 95.2 119.666 94.6C118.972 93.9867 118.626 92.9933 118.626 91.62V87.18H117.266V84.34H118.626V81.62H122.046V84.34H124.286V87.18H122.046V91.66C122.046 91.9933 122.126 92.2333 122.286 92.38C122.446 92.5267 122.712 92.6 123.086 92.6H124.306ZM129.769 89.9C129.769 88.7533 129.982 87.7467 130.409 86.88C130.849 86.0133 131.442 85.3467 132.189 84.88C132.936 84.4133 133.769 84.18 134.689 84.18C135.476 84.18 136.162 84.34 136.749 84.66C137.349 84.98 137.809 85.4 138.129 85.92V84.34H141.549V95.5H138.129V93.92C137.796 94.44 137.329 94.86 136.729 95.18C136.142 95.5 135.456 95.66 134.669 95.66C133.762 95.66 132.936 95.4267 132.189 94.96C131.442 94.48 130.849 93.8067 130.409 92.94C129.982 92.06 129.769 91.0467 129.769 89.9ZM138.129 89.92C138.129 89.0667 137.889 88.3933 137.409 87.9C136.942 87.4067 136.369 87.16 135.689 87.16C135.009 87.16 134.429 87.4067 133.949 87.9C133.482 88.38 133.249 89.0467 133.249 89.9C133.249 90.7533 133.482 91.4333 133.949 91.94C134.429 92.4333 135.009 92.68 135.689 92.68C136.369 92.68 136.942 92.4333 137.409 91.94C137.889 91.4467 138.129 90.7733 138.129 89.92ZM150.823 84.22C152.13 84.22 153.17 84.6467 153.943 85.5C154.73 86.34 155.123 87.5 155.123 88.98V95.5H151.723V89.44C151.723 88.6933 151.53 88.1133 151.143 87.7C150.757 87.2867 150.237 87.08 149.583 87.08C148.93 87.08 148.41 87.2867 148.023 87.7C147.637 88.1133 147.443 88.6933 147.443 89.44V95.5H144.023V84.34H147.443V85.82C147.79 85.3267 148.257 84.94 148.843 84.66C149.43 84.3667 150.09 84.22 150.823 84.22ZM156.82 89.9C156.82 88.7533 157.033 87.7467 157.46 86.88C157.9 86.0133 158.493 85.3467 159.24 84.88C159.986 84.4133 160.82 84.18 161.74 84.18C162.473 84.18 163.14 84.3333 163.74 84.64C164.353 84.9467 164.833 85.36 165.18 85.88V80.7H168.6V95.5H165.18V93.9C164.86 94.4333 164.4 94.86 163.8 95.18C163.213 95.5 162.526 95.66 161.74 95.66C160.82 95.66 159.986 95.4267 159.24 94.96C158.493 94.48 157.9 93.8067 157.46 92.94C157.033 92.06 156.82 91.0467 156.82 89.9ZM165.18 89.92C165.18 89.0667 164.94 88.3933 164.46 87.9C163.993 87.4067 163.42 87.16 162.74 87.16C162.06 87.16 161.48 87.4067 161 87.9C160.533 88.38 160.3 89.0467 160.3 89.9C160.3 90.7533 160.533 91.4333 161 91.94C161.48 92.4333 162.06 92.68 162.74 92.68C163.42 92.68 163.993 92.4333 164.46 91.94C164.94 91.4467 165.18 90.7733 165.18 89.92ZM70.8804 108.22C72.2671 108.22 73.3671 108.64 74.1804 109.48C75.0071 110.32 75.4204 111.487 75.4204 112.98V119.5H72.0204V113.44C72.0204 112.72 71.8271 112.167 71.4404 111.78C71.0671 111.38 70.5471 111.18 69.8804 111.18C69.2137 111.18 68.6871 111.38 68.3004 111.78C67.9271 112.167 67.7404 112.72 67.7404 113.44V119.5H64.3404V113.44C64.3404 112.72 64.1471 112.167 63.7604 111.78C63.3871 111.38 62.8671 111.18 62.2004 111.18C61.5337 111.18 61.0071 111.38 60.6204 111.78C60.2471 112.167 60.0604 112.72 60.0604 113.44V119.5H56.6404V108.34H60.0604V109.74C60.4071 109.273 60.8604 108.907 61.4204 108.64C61.9804 108.36 62.6137 108.22 63.3204 108.22C64.1604 108.22 64.9071 108.4 65.5604 108.76C66.2271 109.12 66.7471 109.633 67.1204 110.3C67.5071 109.687 68.0337 109.187 68.7004 108.8C69.3671 108.413 70.0937 108.22 70.8804 108.22ZM82.8923 119.66C81.7989 119.66 80.8123 119.427 79.9323 118.96C79.0656 118.493 78.3789 117.827 77.8723 116.96C77.3789 116.093 77.1323 115.08 77.1323 113.92C77.1323 112.773 77.3856 111.767 77.8923 110.9C78.3989 110.02 79.0923 109.347 79.9723 108.88C80.8523 108.413 81.8389 108.18 82.9323 108.18C84.0256 108.18 85.0123 108.413 85.8923 108.88C86.7723 109.347 87.4656 110.02 87.9723 110.9C88.4789 111.767 88.7323 112.773 88.7323 113.92C88.7323 115.067 88.4723 116.08 87.9523 116.96C87.4456 117.827 86.7456 118.493 85.8523 118.96C84.9723 119.427 83.9856 119.66 82.8923 119.66ZM82.8923 116.7C83.5456 116.7 84.0989 116.46 84.5523 115.98C85.0189 115.5 85.2523 114.813 85.2523 113.92C85.2523 113.027 85.0256 112.34 84.5723 111.86C84.1323 111.38 83.5856 111.14 82.9323 111.14C82.2656 111.14 81.7123 111.38 81.2723 111.86C80.8323 112.327 80.6123 113.013 80.6123 113.92C80.6123 114.813 80.8256 115.5 81.2523 115.98C81.6923 116.46 82.2389 116.7 82.8923 116.7ZM95.5666 116.3L97.9866 108.34H101.627L97.6666 119.5H93.4466L89.4866 108.34H93.1466L95.5666 116.3ZM113.586 113.74C113.586 114.06 113.566 114.393 113.526 114.74H105.786C105.84 115.433 106.06 115.967 106.446 116.34C106.846 116.7 107.333 116.88 107.906 116.88C108.76 116.88 109.353 116.52 109.686 115.8H113.326C113.14 116.533 112.8 117.193 112.306 117.78C111.826 118.367 111.22 118.827 110.486 119.16C109.753 119.493 108.933 119.66 108.026 119.66C106.933 119.66 105.96 119.427 105.106 118.96C104.253 118.493 103.586 117.827 103.106 116.96C102.626 116.093 102.386 115.08 102.386 113.92C102.386 112.76 102.62 111.747 103.086 110.88C103.566 110.013 104.233 109.347 105.086 108.88C105.94 108.413 106.92 108.18 108.026 108.18C109.106 108.18 110.066 108.407 110.906 108.86C111.746 109.313 112.4 109.96 112.866 110.8C113.346 111.64 113.586 112.62 113.586 113.74ZM110.086 112.84C110.086 112.253 109.886 111.787 109.486 111.44C109.086 111.093 108.586 110.92 107.986 110.92C107.413 110.92 106.926 111.087 106.526 111.42C106.14 111.753 105.9 112.227 105.806 112.84H110.086ZM124.709 119.66C123.615 119.66 122.629 119.427 121.749 118.96C120.882 118.493 120.195 117.827 119.689 116.96C119.195 116.093 118.949 115.08 118.949 113.92C118.949 112.773 119.202 111.767 119.709 110.9C120.215 110.02 120.909 109.347 121.789 108.88C122.669 108.413 123.655 108.18 124.749 108.18C125.842 108.18 126.829 108.413 127.709 108.88C128.589 109.347 129.282 110.02 129.789 110.9C130.295 111.767 130.549 112.773 130.549 113.92C130.549 115.067 130.289 116.08 129.769 116.96C129.262 117.827 128.562 118.493 127.669 118.96C126.789 119.427 125.802 119.66 124.709 119.66ZM124.709 116.7C125.362 116.7 125.915 116.46 126.369 115.98C126.835 115.5 127.069 114.813 127.069 113.92C127.069 113.027 126.842 112.34 126.389 111.86C125.949 111.38 125.402 111.14 124.749 111.14C124.082 111.14 123.529 111.38 123.089 111.86C122.649 112.327 122.429 113.013 122.429 113.92C122.429 114.813 122.642 115.5 123.069 115.98C123.509 116.46 124.055 116.7 124.709 116.7ZM139.163 108.22C140.47 108.22 141.51 108.647 142.283 109.5C143.07 110.34 143.463 111.5 143.463 112.98V119.5H140.063V113.44C140.063 112.693 139.87 112.113 139.483 111.7C139.096 111.287 138.576 111.08 137.923 111.08C137.27 111.08 136.75 111.287 136.363 111.7C135.976 112.113 135.783 112.693 135.783 113.44V119.5H132.363V108.34H135.783V109.82C136.13 109.327 136.596 108.94 137.183 108.66C137.77 108.367 138.43 108.22 139.163 108.22Z" fill="white"/>
</svg>
