<svg width="329" height="42" viewBox="0 0 329 42" fill="none" xmlns="http://www.w3.org/2000/svg">
<path d="M4.91716 14.576H5.46916C5.80516 14.576 6.04516 14.504 6.18916 14.36C6.34916 14.2 6.42916 13.96 6.42916 13.64V11.216L3.02116 4.928C2.79716 4.512 2.57316 4.232 2.34916 4.088C2.12516 3.944 1.78916 3.872 1.34116 3.872H0.789156V1.472H7.14916V3.872H6.81316C6.62116 3.872 6.52516 3.952 6.52516 4.112C6.52516 4.224 6.58916 4.424 6.71716 4.712L8.34916 8.192L9.93316 4.712C10.0612 4.408 10.1252 4.2 10.1252 4.088C10.1252 3.944 10.0292 3.872 9.83716 3.872H9.50116V1.472H15.8372V3.872H15.3092C14.8612 3.872 14.5172 3.944 14.2772 4.088C14.0532 4.232 13.8292 4.512 13.6052 4.928L10.1972 11.24V13.688C10.1972 14.28 10.5172 14.576 11.1572 14.576H11.7332V17H4.91716V14.576ZM19.5671 17.36C17.5831 17.36 16.0551 16.84 14.9831 15.8C13.9111 14.744 13.3751 13.232 13.3751 11.264C13.3751 9.28 13.9031 7.76 14.9591 6.704C16.0151 5.648 17.5511 5.12 19.5671 5.12C21.5831 5.12 23.1191 5.648 24.1751 6.704C25.2311 7.76 25.7591 9.28 25.7591 11.264C25.7591 13.232 25.2231 14.744 24.1511 15.8C23.0791 16.84 21.5511 17.36 19.5671 17.36ZM19.5671 14.888C20.4311 14.888 21.0551 14.6 21.4391 14.024C21.8231 13.448 22.0151 12.528 22.0151 11.264C22.0151 9.968 21.8231 9.032 21.4391 8.456C21.0551 7.88 20.4311 7.592 19.5671 7.592C18.7031 7.592 18.0791 7.88 17.6951 8.456C17.3271 9.032 17.1431 9.968 17.1431 11.264C17.1431 12.528 17.3271 13.448 17.6951 14.024C18.0791 14.6 18.7031 14.888 19.5671 14.888ZM31.2902 17.36C28.5382 17.36 27.1622 16.016 27.1622 13.328V8.816C27.1622 8.224 26.8502 7.928 26.2262 7.928H25.6742V5.48H30.9542V13.304C30.9542 13.912 31.0822 14.352 31.3382 14.624C31.6102 14.896 32.0182 15.032 32.5622 15.032C33.1222 15.032 33.5542 14.88 33.8582 14.576C34.1782 14.272 34.3382 13.808 34.3382 13.184V8.816C34.3382 8.512 34.2742 8.288 34.1462 8.144C34.0342 8 33.8262 7.928 33.5222 7.928H33.0182V5.48H39.5462V7.928H38.9462C38.6422 7.928 38.4262 8 38.2982 8.144C38.1862 8.288 38.1302 8.512 38.1302 8.816V13.64C38.1302 13.944 38.2022 14.176 38.3462 14.336C38.4902 14.48 38.7302 14.552 39.0662 14.552H39.5462V17H35.7542L35.5862 15.464C35.0102 16.152 34.3942 16.64 33.7382 16.928C33.0982 17.216 32.2822 17.36 31.2902 17.36ZM53.9561 17.36C52.7241 17.36 51.6201 17.136 50.6441 16.688C49.6681 16.224 48.9001 15.544 48.3401 14.648C47.7801 13.752 47.5001 12.664 47.5001 11.384C47.5001 9.352 48.0761 7.8 49.2281 6.728C50.3801 5.656 51.9641 5.12 53.9801 5.12C55.0841 5.12 56.0041 5.248 56.7401 5.504C57.4921 5.744 58.2281 6.144 58.9481 6.704V9.44H55.7801V8.096C55.5241 7.936 55.2601 7.824 54.9881 7.76C54.7161 7.696 54.3721 7.664 53.9561 7.664C53.1401 7.664 52.4841 7.976 51.9881 8.6C51.4921 9.224 51.2441 10.152 51.2441 11.384C51.2441 12.552 51.5401 13.416 52.1321 13.976C52.7401 14.536 53.5961 14.816 54.7001 14.816C55.9481 14.816 56.9961 14.512 57.8441 13.904L59.0681 15.872C58.3161 16.432 57.5721 16.816 56.8361 17.024C56.1161 17.248 55.1561 17.36 53.9561 17.36ZM60.086 14.552H60.542C60.878 14.552 61.118 14.48 61.262 14.336C61.422 14.176 61.502 13.944 61.502 13.64V8.816C61.502 8.528 61.43 8.312 61.286 8.168C61.158 8.008 60.934 7.928 60.614 7.928H60.11V5.48H64.622L64.91 6.704C65.198 6.272 65.598 5.96 66.11 5.768C66.622 5.576 67.166 5.48 67.742 5.48H69.134V7.928H67.19C66.518 7.928 66.03 8.088 65.726 8.408C65.438 8.712 65.294 9.192 65.294 9.848V13.664C65.294 13.968 65.358 14.192 65.486 14.336C65.63 14.48 65.862 14.552 66.182 14.552H66.638V17H60.086V14.552ZM75.2362 17.36C73.2202 17.36 71.6442 16.856 70.5082 15.848C69.3882 14.824 68.8282 13.32 68.8282 11.336C68.8282 9.256 69.3562 7.704 70.4122 6.68C71.4842 5.64 73.0042 5.12 74.9722 5.12C76.8922 5.12 78.3482 5.648 79.3402 6.704C80.3482 7.744 80.8522 9.144 80.8522 10.904V12.056H72.5962C72.5962 13.096 72.8122 13.848 73.2442 14.312C73.6762 14.776 74.3562 15.008 75.2842 15.008C76.0682 15.008 76.7322 14.888 77.2762 14.648V13.76H80.4442V15.728C79.8362 16.272 79.1082 16.68 78.2602 16.952C77.4282 17.224 76.4202 17.36 75.2362 17.36ZM77.1082 10.016C77.1082 9.184 76.9242 8.56 76.5562 8.144C76.1882 7.712 75.6442 7.496 74.9242 7.496C74.1562 7.496 73.5722 7.712 73.1722 8.144C72.7882 8.576 72.5962 9.2 72.5962 10.016H77.1082ZM85.5371 17.36C84.1611 17.36 83.1211 17.08 82.4171 16.52C81.7291 15.944 81.3851 15.136 81.3851 14.096C81.3851 12.912 81.7771 12.032 82.5611 11.456C83.3451 10.864 84.4971 10.52 86.0171 10.424L88.5611 10.256V8.912C88.5611 8.416 88.4491 8.064 88.2251 7.856C88.0011 7.632 87.6331 7.52 87.1211 7.52C86.5611 7.52 86.0571 7.672 85.6091 7.976V8.84H82.4411V6.464C83.9131 5.568 85.5211 5.12 87.2651 5.12C88.9931 5.12 90.2731 5.496 91.1051 6.248C91.9531 7 92.3771 8.016 92.3771 9.296V13.76C92.3771 14.064 92.4331 14.288 92.5451 14.432C92.6731 14.56 92.8731 14.624 93.1451 14.624H93.5051V17H90.3131L89.9771 15.488C89.4011 16.176 88.7851 16.664 88.1291 16.952C87.4891 17.224 86.6251 17.36 85.5371 17.36ZM86.4011 15.008C87.1051 15.008 87.6411 14.856 88.0091 14.552C88.3771 14.232 88.5611 13.768 88.5611 13.16V12.248L86.4011 12.416C85.8411 12.464 85.4411 12.592 85.2011 12.8C84.9771 13.008 84.8651 13.336 84.8651 13.784C84.8651 14.6 85.3771 15.008 86.4011 15.008ZM99.3768 17.36C97.7448 17.36 96.5208 17.008 95.7048 16.304C94.9048 15.6 94.5048 14.584 94.5048 13.256V7.856H92.7288V5.48H94.5048V3.104L98.2968 2.072V5.48H101.441V7.856H98.2968V13.592C98.2968 14.088 98.4008 14.456 98.6088 14.696C98.8328 14.92 99.1608 15.032 99.5928 15.032C100.121 15.032 100.537 14.888 100.841 14.6V13.568H103.889V15.8C102.705 16.84 101.201 17.36 99.3768 17.36ZM109.736 17.36C107.72 17.36 106.144 16.856 105.008 15.848C103.888 14.824 103.328 13.32 103.328 11.336C103.328 9.256 103.856 7.704 104.912 6.68C105.984 5.64 107.504 5.12 109.472 5.12C111.392 5.12 112.848 5.648 113.84 6.704C114.848 7.744 115.352 9.144 115.352 10.904V12.056H107.096C107.096 13.096 107.312 13.848 107.744 14.312C108.176 14.776 108.856 15.008 109.784 15.008C110.568 15.008 111.232 14.888 111.776 14.648V13.76H114.944V15.728C114.336 16.272 113.608 16.68 112.76 16.952C111.928 17.224 110.92 17.36 109.736 17.36ZM111.608 10.016C111.608 9.184 111.424 8.56 111.056 8.144C110.688 7.712 110.144 7.496 109.424 7.496C108.656 7.496 108.072 7.712 107.672 8.144C107.288 8.576 107.096 9.2 107.096 10.016H111.608ZM120.958 17.336C119.342 17.336 118.07 16.84 117.142 15.848C116.214 14.856 115.75 13.416 115.75 11.528C115.75 9.464 116.206 7.88 117.118 6.776C118.03 5.672 119.358 5.12 121.102 5.12C121.886 5.12 122.534 5.216 123.046 5.408C123.558 5.6 124.054 5.928 124.534 6.392V4.544C124.534 4.224 124.462 3.984 124.318 3.824C124.19 3.664 123.958 3.584 123.622 3.584H123.262V1.112H128.014V13.76C128.014 14.112 128.07 14.352 128.182 14.48C128.31 14.608 128.534 14.672 128.854 14.672H129.142V17H125.398L125.206 15.464C124.678 16.104 124.078 16.576 123.406 16.88C122.75 17.184 121.934 17.336 120.958 17.336ZM121.918 15.152C122.718 15.152 123.326 14.84 123.742 14.216C124.158 13.576 124.366 12.776 124.366 11.816V10.688C124.366 9.664 124.166 8.864 123.766 8.288C123.366 7.712 122.758 7.424 121.942 7.424C121.046 7.424 120.414 7.76 120.046 8.432C119.678 9.088 119.494 10.096 119.494 11.456C119.494 12.8 119.67 13.752 120.022 14.312C120.374 14.872 121.006 15.152 121.918 15.152ZM141.014 17.36C139.638 17.36 138.598 17.08 137.894 16.52C137.206 15.944 136.862 15.136 136.862 14.096C136.862 12.912 137.254 12.032 138.038 11.456C138.822 10.864 139.974 10.52 141.494 10.424L144.038 10.256V8.912C144.038 8.416 143.926 8.064 143.702 7.856C143.478 7.632 143.11 7.52 142.598 7.52C142.038 7.52 141.534 7.672 141.086 7.976V8.84H137.918V6.464C139.39 5.568 140.998 5.12 142.742 5.12C144.47 5.12 145.75 5.496 146.582 6.248C147.43 7 147.854 8.016 147.854 9.296V13.76C147.854 14.064 147.91 14.288 148.022 14.432C148.15 14.56 148.35 14.624 148.622 14.624H148.982V17H145.79L145.454 15.488C144.878 16.176 144.262 16.664 143.606 16.952C142.966 17.224 142.102 17.36 141.014 17.36ZM141.878 15.008C142.582 15.008 143.118 14.856 143.486 14.552C143.854 14.232 144.038 13.768 144.038 13.16V12.248L141.878 12.416C141.318 12.464 140.918 12.592 140.678 12.8C140.454 13.008 140.342 13.336 140.342 13.784C140.342 14.6 140.854 15.008 141.878 15.008ZM163.193 17.36C161.913 17.36 160.745 17.192 159.689 16.856C158.633 16.504 157.721 16.016 156.953 15.392V12.608H160.769V14.36C161.425 14.728 162.241 14.912 163.217 14.912C164.657 14.912 165.377 14.32 165.377 13.136C165.377 12.736 165.257 12.4 165.017 12.128C164.777 11.84 164.457 11.6 164.057 11.408C163.657 11.2 163.017 10.904 162.137 10.52C160.953 10.024 160.001 9.552 159.281 9.104C158.577 8.656 158.033 8.144 157.649 7.568C157.265 6.976 157.073 6.264 157.073 5.432C157.073 4.008 157.641 2.936 158.777 2.216C159.929 1.48 161.393 1.112 163.169 1.112C164.417 1.112 165.497 1.296 166.409 1.664C167.321 2.016 168.129 2.496 168.833 3.104V5.624H165.017V4.04C164.473 3.72 163.793 3.56 162.977 3.56C161.537 3.56 160.817 4.136 160.817 5.288C160.817 5.736 160.961 6.12 161.249 6.44C161.553 6.76 161.905 7.016 162.305 7.208C162.705 7.4 163.257 7.64 163.961 7.928C165.321 8.488 166.329 8.952 166.985 9.32C167.657 9.688 168.177 10.16 168.545 10.736C168.913 11.296 169.097 12.032 169.097 12.944C169.097 13.792 168.865 14.552 168.401 15.224C167.953 15.88 167.281 16.4 166.385 16.784C165.505 17.168 164.441 17.36 163.193 17.36ZM176.23 17.36C174.998 17.36 173.894 17.136 172.918 16.688C171.942 16.224 171.174 15.544 170.614 14.648C170.054 13.752 169.774 12.664 169.774 11.384C169.774 9.352 170.35 7.8 171.502 6.728C172.654 5.656 174.238 5.12 176.254 5.12C177.358 5.12 178.278 5.248 179.014 5.504C179.766 5.744 180.502 6.144 181.222 6.704V9.44H178.054V8.096C177.798 7.936 177.534 7.824 177.262 7.76C176.99 7.696 176.646 7.664 176.23 7.664C175.414 7.664 174.758 7.976 174.262 8.6C173.766 9.224 173.518 10.152 173.518 11.384C173.518 12.552 173.814 13.416 174.406 13.976C175.014 14.536 175.87 14.816 176.974 14.816C178.222 14.816 179.27 14.512 180.118 13.904L181.342 15.872C180.59 16.432 179.846 16.816 179.11 17.024C178.39 17.248 177.43 17.36 176.23 17.36ZM183.583 0.967999H187.471V3.848H183.583V0.967999ZM182.119 14.552H182.695C183.031 14.552 183.271 14.48 183.415 14.336C183.575 14.176 183.655 13.936 183.655 13.616V8.888C183.655 8.568 183.583 8.328 183.439 8.168C183.295 8.008 183.055 7.928 182.719 7.928H182.119V5.48H187.447V13.664C187.447 14.256 187.759 14.552 188.383 14.552H188.959V17H182.119V14.552ZM196.127 17.36C194.111 17.36 192.535 16.856 191.399 15.848C190.279 14.824 189.719 13.32 189.719 11.336C189.719 9.256 190.247 7.704 191.303 6.68C192.375 5.64 193.895 5.12 195.863 5.12C197.783 5.12 199.239 5.648 200.231 6.704C201.239 7.744 201.743 9.144 201.743 10.904V12.056H193.487C193.487 13.096 193.703 13.848 194.135 14.312C194.567 14.776 195.247 15.008 196.175 15.008C196.959 15.008 197.623 14.888 198.167 14.648V13.76H201.335V15.728C200.727 16.272 199.999 16.68 199.151 16.952C198.319 17.224 197.311 17.36 196.127 17.36ZM197.999 10.016C197.999 9.184 197.815 8.56 197.447 8.144C197.079 7.712 196.535 7.496 195.815 7.496C195.047 7.496 194.463 7.712 194.063 8.144C193.679 8.576 193.487 9.2 193.487 10.016H197.999ZM202.75 14.552H203.206C203.846 14.552 204.166 14.248 204.166 13.64V8.84C204.166 8.536 204.094 8.312 203.95 8.168C203.806 8.024 203.574 7.952 203.254 7.952H202.75V5.48H206.542L206.71 7.04C207.718 5.76 209.182 5.12 211.102 5.12C212.494 5.12 213.51 5.464 214.15 6.152C214.806 6.824 215.134 7.824 215.134 9.152V13.664C215.134 14.256 215.446 14.552 216.07 14.552H216.622V17H211.342V9.176C211.342 8.568 211.214 8.136 210.958 7.88C210.718 7.608 210.326 7.472 209.782 7.472C209.206 7.472 208.758 7.624 208.438 7.928C208.118 8.232 207.958 8.696 207.958 9.32V13.664C207.958 13.968 208.022 14.192 208.15 14.336C208.278 14.48 208.494 14.552 208.798 14.552H209.278V17H202.75V14.552ZM223.855 17.36C222.623 17.36 221.519 17.136 220.543 16.688C219.567 16.224 218.799 15.544 218.239 14.648C217.679 13.752 217.399 12.664 217.399 11.384C217.399 9.352 217.975 7.8 219.127 6.728C220.279 5.656 221.863 5.12 223.879 5.12C224.983 5.12 225.903 5.248 226.639 5.504C227.391 5.744 228.127 6.144 228.847 6.704V9.44H225.679V8.096C225.423 7.936 225.159 7.824 224.887 7.76C224.615 7.696 224.271 7.664 223.855 7.664C223.039 7.664 222.383 7.976 221.887 8.6C221.391 9.224 221.143 10.152 221.143 11.384C221.143 12.552 221.439 13.416 222.031 13.976C222.639 14.536 223.495 14.816 224.599 14.816C225.847 14.816 226.895 14.512 227.743 13.904L228.967 15.872C228.215 16.432 227.471 16.816 226.735 17.024C226.015 17.248 225.055 17.36 223.855 17.36ZM235.549 17.36C233.533 17.36 231.957 16.856 230.821 15.848C229.701 14.824 229.141 13.32 229.141 11.336C229.141 9.256 229.669 7.704 230.725 6.68C231.797 5.64 233.317 5.12 235.285 5.12C237.205 5.12 238.661 5.648 239.653 6.704C240.661 7.744 241.165 9.144 241.165 10.904V12.056H232.909C232.909 13.096 233.125 13.848 233.557 14.312C233.989 14.776 234.669 15.008 235.597 15.008C236.381 15.008 237.045 14.888 237.589 14.648V13.76H240.757V15.728C240.149 16.272 239.421 16.68 238.573 16.952C237.741 17.224 236.733 17.36 235.549 17.36ZM237.421 10.016C237.421 9.184 237.237 8.56 236.869 8.144C236.501 7.712 235.957 7.496 235.237 7.496C234.469 7.496 233.885 7.712 233.485 8.144C233.101 8.576 232.909 9.2 232.909 10.016H237.421ZM249.367 14.576H249.919C250.559 14.576 250.879 14.28 250.879 13.688V4.784C250.879 4.192 250.559 3.896 249.919 3.896H249.367V1.472H257.863C259.607 1.472 260.975 1.896 261.967 2.744C262.959 3.576 263.455 4.8 263.455 6.416C263.455 8.032 262.951 9.296 261.943 10.208C260.935 11.104 259.567 11.552 257.839 11.552H254.623V13.688C254.623 14.28 254.943 14.576 255.583 14.576H256.159V17H249.367V14.576ZM257.335 9.104C258.167 9.104 258.775 8.888 259.159 8.456C259.543 8.024 259.735 7.344 259.735 6.416C259.735 5.504 259.543 4.856 259.159 4.472C258.791 4.088 258.183 3.896 257.335 3.896H254.623V9.104H257.335ZM264.461 14.552H264.917C265.253 14.552 265.493 14.48 265.637 14.336C265.797 14.176 265.877 13.944 265.877 13.64V8.816C265.877 8.528 265.805 8.312 265.661 8.168C265.533 8.008 265.309 7.928 264.989 7.928H264.485V5.48H268.997L269.285 6.704C269.573 6.272 269.973 5.96 270.485 5.768C270.997 5.576 271.541 5.48 272.117 5.48H273.509V7.928H271.565C270.893 7.928 270.405 8.088 270.101 8.408C269.813 8.712 269.669 9.192 269.669 9.848V13.664C269.669 13.968 269.733 14.192 269.861 14.336C270.005 14.48 270.237 14.552 270.557 14.552H271.013V17H264.461V14.552ZM279.864 17.36C277.88 17.36 276.352 16.84 275.28 15.8C274.208 14.744 273.672 13.232 273.672 11.264C273.672 9.28 274.2 7.76 275.256 6.704C276.312 5.648 277.848 5.12 279.864 5.12C281.88 5.12 283.416 5.648 284.472 6.704C285.528 7.76 286.056 9.28 286.056 11.264C286.056 13.232 285.52 14.744 284.448 15.8C283.376 16.84 281.848 17.36 279.864 17.36ZM279.864 14.888C280.728 14.888 281.352 14.6 281.736 14.024C282.12 13.448 282.312 12.528 282.312 11.264C282.312 9.968 282.12 9.032 281.736 8.456C281.352 7.88 280.728 7.592 279.864 7.592C279 7.592 278.376 7.88 277.992 8.456C277.624 9.032 277.44 9.968 277.44 11.264C277.44 12.528 277.624 13.448 277.992 14.024C278.376 14.6 279 14.888 279.864 14.888ZM288.468 0.967999H292.356V3.848H288.468V0.967999ZM287.316 21.176C285.428 21.176 283.9 20.712 282.732 19.784V17.36H285.804V18.344C286.14 18.632 286.58 18.776 287.124 18.776C287.588 18.776 287.932 18.672 288.156 18.464C288.396 18.272 288.516 17.936 288.516 17.456V8.888C288.516 8.568 288.444 8.328 288.3 8.168C288.156 8.008 287.916 7.928 287.58 7.928H287.004V5.48H292.332V16.976C292.332 18.336 291.916 19.376 291.084 20.096C290.252 20.816 288.996 21.176 287.316 21.176ZM300.26 17.36C298.244 17.36 296.668 16.856 295.532 15.848C294.412 14.824 293.852 13.32 293.852 11.336C293.852 9.256 294.38 7.704 295.436 6.68C296.508 5.64 298.028 5.12 299.996 5.12C301.916 5.12 303.372 5.648 304.364 6.704C305.372 7.744 305.876 9.144 305.876 10.904V12.056H297.62C297.62 13.096 297.836 13.848 298.268 14.312C298.7 14.776 299.38 15.008 300.308 15.008C301.092 15.008 301.756 14.888 302.3 14.648V13.76H305.468V15.728C304.86 16.272 304.132 16.68 303.284 16.952C302.452 17.224 301.444 17.36 300.26 17.36ZM302.132 10.016C302.132 9.184 301.948 8.56 301.58 8.144C301.212 7.712 300.668 7.496 299.948 7.496C299.18 7.496 298.596 7.712 298.196 8.144C297.812 8.576 297.62 9.2 297.62 10.016H302.132ZM312.495 17.36C311.263 17.36 310.159 17.136 309.183 16.688C308.207 16.224 307.439 15.544 306.879 14.648C306.319 13.752 306.039 12.664 306.039 11.384C306.039 9.352 306.615 7.8 307.767 6.728C308.919 5.656 310.503 5.12 312.519 5.12C313.623 5.12 314.543 5.248 315.279 5.504C316.031 5.744 316.767 6.144 317.487 6.704V9.44H314.319V8.096C314.063 7.936 313.799 7.824 313.527 7.76C313.255 7.696 312.911 7.664 312.495 7.664C311.679 7.664 311.023 7.976 310.527 8.6C310.031 9.224 309.783 10.152 309.783 11.384C309.783 12.552 310.079 13.416 310.671 13.976C311.279 14.536 312.135 14.816 313.239 14.816C314.487 14.816 315.535 14.512 316.383 13.904L317.607 15.872C316.855 16.432 316.111 16.816 315.375 17.024C314.655 17.248 313.695 17.36 312.495 17.36ZM324.424 17.36C322.792 17.36 321.568 17.008 320.752 16.304C319.952 15.6 319.552 14.584 319.552 13.256V7.856H317.776V5.48H319.552V3.104L323.344 2.072V5.48H326.488V7.856H323.344V13.592C323.344 14.088 323.448 14.456 323.656 14.696C323.88 14.92 324.208 15.032 324.64 15.032C325.168 15.032 325.584 14.888 325.888 14.6V13.568H328.936V15.8C327.752 16.84 326.248 17.36 324.424 17.36ZM37.7615 32.6C37.6975 32.312 37.5695 32.112 37.3775 32C37.2015 31.888 36.9455 31.832 36.6095 31.832H36.0575V29.48H40.2815L41.8415 36.296L43.6175 30.512H46.1615L47.9375 36.296L49.5215 29.48H53.7215V31.832H53.1935C52.8575 31.832 52.5935 31.888 52.4015 32C52.2255 32.112 52.1055 32.312 52.0415 32.6L50.0015 41H46.7375L44.9135 35.144L43.0415 41H39.7775L37.7615 32.6ZM55.1225 24.968H59.0105V27.848H55.1225V24.968ZM53.6585 38.552H54.2345C54.5705 38.552 54.8105 38.48 54.9545 38.336C55.1145 38.176 55.1945 37.936 55.1945 37.616V32.888C55.1945 32.568 55.1225 32.328 54.9785 32.168C54.8345 32.008 54.5945 31.928 54.2585 31.928H53.6585V29.48H58.9865V37.664C58.9865 38.256 59.2985 38.552 59.9225 38.552H60.4985V41H53.6585V38.552ZM67.0565 41.36C65.4245 41.36 64.2005 41.008 63.3845 40.304C62.5845 39.6 62.1845 38.584 62.1845 37.256V31.856H60.4085V29.48H62.1845V27.104L65.9765 26.072V29.48H69.1205V31.856H65.9765V37.592C65.9765 38.088 66.0805 38.456 66.2885 38.696C66.5125 38.92 66.8405 39.032 67.2725 39.032C67.8005 39.032 68.2165 38.888 68.5205 38.6V37.568H71.5685V39.8C70.3845 40.84 68.8805 41.36 67.0565 41.36ZM71.8517 38.552H72.3077C72.9477 38.552 73.2677 38.248 73.2677 37.64V28.52C73.2677 28.2 73.1957 27.96 73.0517 27.8C72.9077 27.64 72.6677 27.56 72.3317 27.56H71.8517V25.112H76.6037V30.464C77.2117 29.952 77.8037 29.6 78.3797 29.408C78.9717 29.216 79.6757 29.12 80.4917 29.12C81.8037 29.12 82.7557 29.464 83.3477 30.152C83.9557 30.824 84.2597 31.824 84.2597 33.152V37.664C84.2597 38.256 84.5717 38.552 85.1957 38.552H85.7477V41H80.4677V33.176C80.4677 32.584 80.3397 32.152 80.0837 31.88C79.8277 31.608 79.4357 31.472 78.9077 31.472C78.3317 31.472 77.8757 31.624 77.5397 31.928C77.2197 32.232 77.0597 32.696 77.0597 33.32V37.664C77.0597 37.968 77.1237 38.192 77.2517 38.336C77.3797 38.48 77.5957 38.552 77.8997 38.552H78.3797V41H71.8517V38.552ZM97.6308 41.36C96.2548 41.36 95.2148 41.08 94.5108 40.52C93.8228 39.944 93.4788 39.136 93.4788 38.096C93.4788 36.912 93.8708 36.032 94.6548 35.456C95.4388 34.864 96.5908 34.52 98.1108 34.424L100.655 34.256V32.912C100.655 32.416 100.543 32.064 100.319 31.856C100.095 31.632 99.7268 31.52 99.2148 31.52C98.6548 31.52 98.1508 31.672 97.7028 31.976V32.84H94.5348V30.464C96.0068 29.568 97.6148 29.12 99.3588 29.12C101.087 29.12 102.367 29.496 103.199 30.248C104.047 31 104.471 32.016 104.471 33.296V37.76C104.471 38.064 104.527 38.288 104.639 38.432C104.767 38.56 104.967 38.624 105.239 38.624H105.599V41H102.407L102.071 39.488C101.495 40.176 100.879 40.664 100.223 40.952C99.5828 41.224 98.7188 41.36 97.6308 41.36ZM98.4948 39.008C99.1988 39.008 99.7348 38.856 100.103 38.552C100.471 38.232 100.655 37.768 100.655 37.16V36.248L98.4948 36.416C97.9348 36.464 97.5348 36.592 97.2948 36.8C97.0708 37.008 96.9588 37.336 96.9588 37.784C96.9588 38.6 97.4708 39.008 98.4948 39.008ZM113.57 38.552H114.146C114.482 38.552 114.722 38.48 114.866 38.336C115.026 38.176 115.106 37.936 115.106 37.616V28.328C115.106 28.008 115.042 27.784 114.914 27.656C114.802 27.512 114.594 27.44 114.29 27.44H113.57V25.112H118.898V37.664C118.898 38.256 119.21 38.552 119.834 38.552H120.41V41H113.57V38.552ZM127.38 41.36C125.396 41.36 123.868 40.84 122.796 39.8C121.724 38.744 121.188 37.232 121.188 35.264C121.188 33.28 121.716 31.76 122.772 30.704C123.828 29.648 125.364 29.12 127.38 29.12C129.396 29.12 130.932 29.648 131.988 30.704C133.044 31.76 133.572 33.28 133.572 35.264C133.572 37.232 133.036 38.744 131.964 39.8C130.892 40.84 129.364 41.36 127.38 41.36ZM127.38 38.888C128.244 38.888 128.868 38.6 129.252 38.024C129.636 37.448 129.828 36.528 129.828 35.264C129.828 33.968 129.636 33.032 129.252 32.456C128.868 31.88 128.244 31.592 127.38 31.592C126.516 31.592 125.892 31.88 125.508 32.456C125.14 33.032 124.956 33.968 124.956 35.264C124.956 36.528 125.14 37.448 125.508 38.024C125.892 38.6 126.516 38.888 127.38 38.888ZM140.135 41.36C138.503 41.36 137.279 41.008 136.463 40.304C135.663 39.6 135.263 38.584 135.263 37.256V31.856H133.487V29.48H135.263V27.104L139.055 26.072V29.48H142.199V31.856H139.055V37.592C139.055 38.088 139.159 38.456 139.367 38.696C139.591 38.92 139.919 39.032 140.351 39.032C140.879 39.032 141.295 38.888 141.599 38.6V37.568H144.647V39.8C143.463 40.84 141.959 41.36 140.135 41.36ZM158.317 41.36C156.333 41.36 154.805 40.84 153.733 39.8C152.661 38.744 152.125 37.232 152.125 35.264C152.125 33.28 152.653 31.76 153.709 30.704C154.765 29.648 156.301 29.12 158.317 29.12C160.333 29.12 161.869 29.648 162.925 30.704C163.981 31.76 164.509 33.28 164.509 35.264C164.509 37.232 163.973 38.744 162.901 39.8C161.829 40.84 160.301 41.36 158.317 41.36ZM158.317 38.888C159.181 38.888 159.805 38.6 160.189 38.024C160.573 37.448 160.765 36.528 160.765 35.264C160.765 33.968 160.573 33.032 160.189 32.456C159.805 31.88 159.181 31.592 158.317 31.592C157.453 31.592 156.829 31.88 156.445 32.456C156.077 33.032 155.893 33.968 155.893 35.264C155.893 36.528 156.077 37.448 156.445 38.024C156.829 38.6 157.453 38.888 158.317 38.888ZM164.784 38.552H165.216C165.872 38.552 166.2 38.248 166.2 37.64V31.904H164.424V29.48H166.2V28.832C166.2 27.488 166.608 26.456 167.424 25.736C168.256 25.016 169.496 24.656 171.144 24.656C172.984 24.656 174.472 25.104 175.608 26V28.304H172.56V27.44C172.272 27.136 171.88 26.984 171.384 26.984C170.456 26.984 169.992 27.48 169.992 28.472V29.48H173.136V31.904H169.992V37.664C169.992 37.968 170.056 38.192 170.184 38.336C170.328 38.48 170.56 38.552 170.88 38.552H171.312V41H164.784V38.552ZM182.43 38.552H182.886C183.526 38.552 183.846 38.248 183.846 37.64V28.52C183.846 28.2 183.774 27.96 183.63 27.8C183.486 27.64 183.246 27.56 182.91 27.56H182.43V25.112H187.182V30.464C187.79 29.952 188.382 29.6 188.958 29.408C189.55 29.216 190.254 29.12 191.07 29.12C192.382 29.12 193.334 29.464 193.926 30.152C194.534 30.824 194.838 31.824 194.838 33.152V37.664C194.838 38.256 195.15 38.552 195.774 38.552H196.326V41H191.046V33.176C191.046 32.584 190.918 32.152 190.662 31.88C190.406 31.608 190.014 31.472 189.486 31.472C188.91 31.472 188.454 31.624 188.118 31.928C187.798 32.232 187.638 32.696 187.638 33.32V37.664C187.638 37.968 187.702 38.192 187.83 38.336C187.958 38.48 188.174 38.552 188.478 38.552H188.958V41H182.43V38.552ZM201.014 41.36C199.638 41.36 198.598 41.08 197.894 40.52C197.206 39.944 196.862 39.136 196.862 38.096C196.862 36.912 197.254 36.032 198.038 35.456C198.822 34.864 199.974 34.52 201.494 34.424L204.038 34.256V32.912C204.038 32.416 203.926 32.064 203.702 31.856C203.478 31.632 203.11 31.52 202.598 31.52C202.038 31.52 201.534 31.672 201.086 31.976V32.84H197.918V30.464C199.39 29.568 200.998 29.12 202.742 29.12C204.47 29.12 205.75 29.496 206.582 30.248C207.43 31 207.854 32.016 207.854 33.296V37.76C207.854 38.064 207.91 38.288 208.022 38.432C208.15 38.56 208.35 38.624 208.622 38.624H208.982V41H205.79L205.454 39.488C204.878 40.176 204.262 40.664 203.606 40.952C202.966 41.224 202.102 41.36 201.014 41.36ZM201.878 39.008C202.582 39.008 203.118 38.856 203.486 38.552C203.854 38.232 204.038 37.768 204.038 37.16V36.248L201.878 36.416C201.318 36.464 200.918 36.592 200.678 36.8C200.454 37.008 200.342 37.336 200.342 37.784C200.342 38.6 200.854 39.008 201.878 39.008ZM209.758 38.552H210.214C210.55 38.552 210.79 38.48 210.934 38.336C211.094 38.176 211.174 37.944 211.174 37.64V32.816C211.174 32.528 211.102 32.312 210.958 32.168C210.83 32.008 210.606 31.928 210.286 31.928H209.782V29.48H214.294L214.582 30.704C214.87 30.272 215.27 29.96 215.782 29.768C216.294 29.576 216.838 29.48 217.414 29.48H218.806V31.928H216.862C216.19 31.928 215.702 32.088 215.398 32.408C215.11 32.712 214.966 33.192 214.966 33.848V37.664C214.966 37.968 215.03 38.192 215.158 38.336C215.302 38.48 215.534 38.552 215.854 38.552H216.31V41H209.758V38.552ZM223.708 41.336C222.092 41.336 220.82 40.84 219.892 39.848C218.964 38.856 218.5 37.416 218.5 35.528C218.5 33.464 218.956 31.88 219.868 30.776C220.78 29.672 222.108 29.12 223.852 29.12C224.636 29.12 225.284 29.216 225.796 29.408C226.308 29.6 226.804 29.928 227.284 30.392V28.544C227.284 28.224 227.212 27.984 227.068 27.824C226.94 27.664 226.708 27.584 226.372 27.584H226.012V25.112H230.764V37.76C230.764 38.112 230.82 38.352 230.932 38.48C231.06 38.608 231.284 38.672 231.604 38.672H231.892V41H228.148L227.956 39.464C227.428 40.104 226.828 40.576 226.156 40.88C225.5 41.184 224.684 41.336 223.708 41.336ZM224.668 39.152C225.468 39.152 226.076 38.84 226.492 38.216C226.908 37.576 227.116 36.776 227.116 35.816V34.688C227.116 33.664 226.916 32.864 226.516 32.288C226.116 31.712 225.508 31.424 224.692 31.424C223.796 31.424 223.164 31.76 222.796 32.432C222.428 33.088 222.244 34.096 222.244 35.456C222.244 36.8 222.42 37.752 222.772 38.312C223.124 38.872 223.756 39.152 224.668 39.152ZM241.34 32.6C241.276 32.312 241.148 32.112 240.956 32C240.78 31.888 240.524 31.832 240.188 31.832H239.636V29.48H243.86L245.42 36.296L247.196 30.512H249.74L251.516 36.296L253.1 29.48H257.3V31.832H256.772C256.436 31.832 256.172 31.888 255.98 32C255.804 32.112 255.684 32.312 255.62 32.6L253.58 41H250.316L248.492 35.144L246.62 41H243.356L241.34 32.6ZM263.2 41.36C261.216 41.36 259.688 40.84 258.616 39.8C257.544 38.744 257.008 37.232 257.008 35.264C257.008 33.28 257.536 31.76 258.592 30.704C259.648 29.648 261.184 29.12 263.2 29.12C265.216 29.12 266.752 29.648 267.808 30.704C268.864 31.76 269.392 33.28 269.392 35.264C269.392 37.232 268.856 38.744 267.784 39.8C266.712 40.84 265.184 41.36 263.2 41.36ZM263.2 38.888C264.064 38.888 264.688 38.6 265.072 38.024C265.456 37.448 265.648 36.528 265.648 35.264C265.648 33.968 265.456 33.032 265.072 32.456C264.688 31.88 264.064 31.592 263.2 31.592C262.336 31.592 261.712 31.88 261.328 32.456C260.96 33.032 260.776 33.968 260.776 35.264C260.776 36.528 260.96 37.448 261.328 38.024C261.712 38.6 262.336 38.888 263.2 38.888ZM270.391 38.552H270.847C271.183 38.552 271.423 38.48 271.567 38.336C271.727 38.176 271.807 37.944 271.807 37.64V32.816C271.807 32.528 271.735 32.312 271.591 32.168C271.463 32.008 271.239 31.928 270.919 31.928H270.415V29.48H274.927L275.215 30.704C275.503 30.272 275.903 29.96 276.415 29.768C276.927 29.576 277.471 29.48 278.047 29.48H279.439V31.928H277.495C276.823 31.928 276.335 32.088 276.031 32.408C275.743 32.712 275.599 33.192 275.599 33.848V37.664C275.599 37.968 275.663 38.192 275.791 38.336C275.935 38.48 276.167 38.552 276.487 38.552H276.943V41H270.391V38.552ZM279.602 38.648H280.178C280.482 38.648 280.698 38.584 280.826 38.456C280.954 38.312 281.018 38.088 281.018 37.784V28.328C281.018 28.008 280.954 27.784 280.826 27.656C280.714 27.512 280.506 27.44 280.202 27.44H279.602V25.112H285.986V27.44H285.386C285.082 27.44 284.866 27.512 284.738 27.656C284.626 27.784 284.57 28.008 284.57 28.328V33.824L286.898 31.808H286.01V29.48H292.442V31.808H291.17C290.914 31.808 290.714 31.84 290.57 31.904C290.442 31.952 290.298 32.04 290.138 32.168L288.338 33.704L290.882 38.144C290.994 38.336 291.114 38.472 291.242 38.552C291.386 38.616 291.586 38.648 291.842 38.648H292.97V41H289.01L285.914 35.648L284.57 36.776V37.808C284.57 38.096 284.634 38.312 284.762 38.456C284.89 38.584 285.098 38.648 285.386 38.648H286.058V41H279.602V38.648Z" fill="black"/>
</svg>
