<svg width="143" height="143" viewBox="0 0 143 143" fill="none" xmlns="http://www.w3.org/2000/svg">
<rect width="143" height="143" rx="71.5" fill="#474747"/>
<path d="M40.5446 66.64C39.5179 66.64 38.5979 66.4733 37.7846 66.14C36.9713 65.8067 36.3179 65.3133 35.8246 64.66C35.3446 64.0067 35.0913 63.22 35.0646 62.3H38.7046C38.7579 62.82 38.9379 63.22 39.2446 63.5C39.5513 63.7667 39.9513 63.9 40.4446 63.9C40.9513 63.9 41.3513 63.7867 41.6446 63.56C41.9379 63.32 42.0846 62.9933 42.0846 62.58C42.0846 62.2333 41.9646 61.9467 41.7246 61.72C41.4979 61.4933 41.2113 61.3067 40.8646 61.16C40.5313 61.0133 40.0513 60.8467 39.4246 60.66C38.5179 60.38 37.7779 60.1 37.2046 59.82C36.6313 59.54 36.1379 59.1267 35.7246 58.58C35.3113 58.0333 35.1046 57.32 35.1046 56.44C35.1046 55.1333 35.5779 54.1133 36.5246 53.38C37.4713 52.6333 38.7046 52.26 40.2246 52.26C41.7713 52.26 43.0179 52.6333 43.9646 53.38C44.9113 54.1133 45.4179 55.14 45.4846 56.46H41.7846C41.7579 56.0067 41.5913 55.6533 41.2846 55.4C40.9779 55.1333 40.5846 55 40.1046 55C39.6913 55 39.3579 55.1133 39.1046 55.34C38.8513 55.5533 38.7246 55.8667 38.7246 56.28C38.7246 56.7333 38.9379 57.0867 39.3646 57.34C39.7913 57.5933 40.4579 57.8667 41.3646 58.16C42.2713 58.4667 43.0046 58.76 43.5646 59.04C44.1379 59.32 44.6313 59.7267 45.0446 60.26C45.4579 60.7933 45.6646 61.48 45.6646 62.32C45.6646 63.12 45.4579 63.8467 45.0446 64.5C44.6446 65.1533 44.0579 65.6733 43.2846 66.06C42.5113 66.4467 41.5979 66.64 40.5446 66.64ZM58.7893 55.34V66.5H55.3693V64.98C55.0226 65.4733 54.5493 65.8733 53.9493 66.18C53.3626 66.4733 52.7093 66.62 51.9893 66.62C51.136 66.62 50.3826 66.4333 49.7293 66.06C49.076 65.6733 48.5693 65.12 48.2093 64.4C47.8493 63.68 47.6693 62.8333 47.6693 61.86V55.34H51.0693V61.4C51.0693 62.1467 51.2626 62.7267 51.6493 63.14C52.036 63.5533 52.556 63.76 53.2093 63.76C53.876 63.76 54.4026 63.5533 54.7893 63.14C55.176 62.7267 55.3693 62.1467 55.3693 61.4V55.34L58.7893 55.34ZM64.6659 56.92C64.9859 56.4 65.4459 55.98 66.0459 55.66C66.6459 55.34 67.3325 55.18 68.1059 55.18C69.0259 55.18 69.8592 55.4133 70.6059 55.88C71.3525 56.3467 71.9392 57.0133 72.3659 57.88C72.8059 58.7467 73.0259 59.7533 73.0259 60.9C73.0259 62.0467 72.8059 63.06 72.3659 63.94C71.9392 64.8067 71.3525 65.48 70.6059 65.96C69.8592 66.4267 69.0259 66.66 68.1059 66.66C67.3192 66.66 66.6325 66.5067 66.0459 66.2C65.4592 65.88 64.9992 65.46 64.6659 64.94V66.5H61.2459V51.7H64.6659V56.92ZM69.5459 60.9C69.5459 60.0467 69.3059 59.38 68.8259 58.9C68.3592 58.4067 67.7792 58.16 67.0859 58.16C66.4059 58.16 65.8259 58.4067 65.3459 58.9C64.8792 59.3933 64.6459 60.0667 64.6459 60.92C64.6459 61.7733 64.8792 62.4467 65.3459 62.94C65.8259 63.4333 66.4059 63.68 67.0859 63.68C67.7659 63.68 68.3459 63.4333 68.8259 62.94C69.3059 62.4333 69.5459 61.7533 69.5459 60.9ZM89.0601 55.22C90.4467 55.22 91.5467 55.64 92.3601 56.48C93.1867 57.32 93.6001 58.4867 93.6001 59.98V66.5H90.2001V60.44C90.2001 59.72 90.0067 59.1667 89.6201 58.78C89.2467 58.38 88.7267 58.18 88.0601 58.18C87.3934 58.18 86.8667 58.38 86.4801 58.78C86.1067 59.1667 85.9201 59.72 85.9201 60.44V66.5H82.5201V60.44C82.5201 59.72 82.3267 59.1667 81.9401 58.78C81.5667 58.38 81.0467 58.18 80.3801 58.18C79.7134 58.18 79.1867 58.38 78.8001 58.78C78.4267 59.1667 78.2401 59.72 78.2401 60.44V66.5H74.8201V55.34H78.2401V56.74C78.5867 56.2733 79.0401 55.9067 79.6001 55.64C80.1601 55.36 80.7934 55.22 81.5001 55.22C82.3401 55.22 83.0867 55.4 83.7401 55.76C84.4067 56.12 84.9267 56.6333 85.3001 57.3C85.6867 56.6867 86.2134 56.1867 86.8801 55.8C87.5467 55.4133 88.2734 55.22 89.0601 55.22ZM97.712 54.18C97.112 54.18 96.6186 54.0067 96.232 53.66C95.8586 53.3 95.672 52.86 95.672 52.34C95.672 51.8067 95.8586 51.3667 96.232 51.02C96.6186 50.66 97.112 50.48 97.712 50.48C98.2986 50.48 98.7786 50.66 99.152 51.02C99.5386 51.3667 99.732 51.8067 99.732 52.34C99.732 52.86 99.5386 53.3 99.152 53.66C98.7786 54.0067 98.2986 54.18 97.712 54.18ZM99.412 55.34V66.5H95.992V55.34H99.412ZM108.11 63.6V66.5H106.37C105.13 66.5 104.164 66.2 103.47 65.6C102.777 64.9867 102.43 63.9933 102.43 62.62V58.18H101.07V55.34H102.43V52.62H105.85V55.34H108.09V58.18H105.85V62.66C105.85 62.9933 105.93 63.2333 106.09 63.38C106.25 63.5267 106.517 63.6 106.89 63.6H108.11ZM47.3365 80.98C47.3365 81.7933 47.1498 82.54 46.7765 83.22C46.4032 83.8867 45.8298 84.4267 45.0565 84.84C44.2832 85.2533 43.3232 85.46 42.1765 85.46H40.0565V90.5H36.6365V76.46H42.1765C43.2965 76.46 44.2432 76.6533 45.0165 77.04C45.7898 77.4267 46.3698 77.96 46.7565 78.64C47.1432 79.32 47.3365 80.1 47.3365 80.98ZM41.9165 82.74C42.5698 82.74 43.0565 82.5867 43.3765 82.28C43.6965 81.9733 43.8565 81.54 43.8565 80.98C43.8565 80.42 43.6965 79.9867 43.3765 79.68C43.0565 79.3733 42.5698 79.22 41.9165 79.22H40.0565V82.74H41.9165ZM52.537 81.2C52.937 80.5867 53.437 80.1067 54.037 79.76C54.637 79.4 55.3036 79.22 56.037 79.22L56.037 82.84H55.097C54.2436 82.84 53.6036 83.0267 53.177 83.4C52.7503 83.76 52.537 84.4 52.537 85.32V90.5H49.117V79.34H52.537L52.537 81.2ZM62.7516 90.66C61.6583 90.66 60.6716 90.4267 59.7916 89.96C58.925 89.4933 58.2383 88.8267 57.7316 87.96C57.2383 87.0933 56.9916 86.08 56.9916 84.92C56.9916 83.7733 57.245 82.7667 57.7516 81.9C58.2583 81.02 58.9516 80.3467 59.8316 79.88C60.7116 79.4133 61.6983 79.18 62.7916 79.18C63.885 79.18 64.8716 79.4133 65.7516 79.88C66.6316 80.3467 67.325 81.02 67.8316 81.9C68.3383 82.7667 68.5916 83.7733 68.5916 84.92C68.5916 86.0667 68.3316 87.08 67.8116 87.96C67.305 88.8267 66.605 89.4933 65.7116 89.96C64.8316 90.4267 63.845 90.66 62.7516 90.66ZM62.7516 87.7C63.405 87.7 63.9583 87.46 64.4116 86.98C64.8783 86.5 65.1116 85.8133 65.1116 84.92C65.1116 84.0267 64.885 83.34 64.4316 82.86C63.9916 82.38 63.445 82.14 62.7916 82.14C62.125 82.14 61.5716 82.38 61.1316 82.86C60.6916 83.3267 60.4716 84.0133 60.4716 84.92C60.4716 85.8133 60.685 86.5 61.1116 86.98C61.5516 87.46 62.0983 87.7 62.7516 87.7ZM72.106 78.18C71.506 78.18 71.0127 78.0067 70.626 77.66C70.2527 77.3 70.066 76.86 70.066 76.34C70.066 75.8067 70.2527 75.3667 70.626 75.02C71.0127 74.66 71.506 74.48 72.106 74.48C72.6927 74.48 73.1727 74.66 73.546 75.02C73.9327 75.3667 74.126 75.8067 74.126 76.34C74.126 76.86 73.9327 77.3 73.546 77.66C73.1727 78.0067 72.6927 78.18 72.106 78.18ZM73.826 91.94C73.826 93.3133 73.4793 94.3 72.786 94.9C72.0927 95.5133 71.126 95.82 69.886 95.82H68.546V92.92H69.366C69.7393 92.92 70.006 92.8467 70.166 92.7C70.326 92.5533 70.406 92.3133 70.406 91.98V79.34H73.826V91.94ZM86.8049 84.74C86.8049 85.06 86.7849 85.3933 86.7449 85.74H79.0049C79.0583 86.4333 79.2783 86.9667 79.6649 87.34C80.0649 87.7 80.5516 87.88 81.1249 87.88C81.9783 87.88 82.5716 87.52 82.9049 86.8H86.5449C86.3583 87.5333 86.0183 88.1933 85.5249 88.78C85.0449 89.3667 84.4383 89.8267 83.7049 90.16C82.9716 90.4933 82.1516 90.66 81.2449 90.66C80.1516 90.66 79.1783 90.4267 78.3249 89.96C77.4716 89.4933 76.8049 88.8267 76.3249 87.96C75.8449 87.0933 75.6049 86.08 75.6049 84.92C75.6049 83.76 75.8383 82.7467 76.3049 81.88C76.7849 81.0133 77.4516 80.3467 78.3049 79.88C79.1583 79.4133 80.1383 79.18 81.2449 79.18C82.3249 79.18 83.2849 79.4067 84.1249 79.86C84.9649 80.3133 85.6183 80.96 86.0849 81.8C86.5649 82.64 86.8049 83.62 86.8049 84.74ZM83.3049 83.84C83.3049 83.2533 83.1049 82.7867 82.7049 82.44C82.3049 82.0933 81.8049 81.92 81.2049 81.92C80.6316 81.92 80.1449 82.0867 79.7449 82.42C79.3583 82.7533 79.1183 83.2267 79.0249 83.84H83.3049ZM87.9291 84.92C87.9291 83.76 88.1625 82.7467 88.6291 81.88C89.1091 81.0133 89.7691 80.3467 90.6091 79.88C91.4625 79.4133 92.4358 79.18 93.5291 79.18C94.9291 79.18 96.0958 79.5467 97.0291 80.28C97.9758 81.0133 98.5958 82.0467 98.8891 83.38H95.2491C94.9425 82.5267 94.3491 82.1 93.4691 82.1C92.8425 82.1 92.3425 82.3467 91.9691 82.84C91.5958 83.32 91.4091 84.0133 91.4091 84.92C91.4091 85.8267 91.5958 86.5267 91.9691 87.02C92.3425 87.5 92.8425 87.74 93.4691 87.74C94.3491 87.74 94.9425 87.3133 95.2491 86.46H98.8891C98.5958 87.7667 97.9758 88.7933 97.0291 89.54C96.0825 90.2867 94.9158 90.66 93.5291 90.66C92.4358 90.66 91.4625 90.4267 90.6091 89.96C89.7691 89.4933 89.1091 88.8267 88.6291 87.96C88.1625 87.0933 87.9291 86.08 87.9291 84.92ZM106.939 87.6V90.5H105.199C103.959 90.5 102.992 90.2 102.299 89.6C101.605 88.9867 101.259 87.9933 101.259 86.62V82.18H99.8985V79.34L101.259 79.34V76.62H104.679V79.34H106.919V82.18H104.679V86.66C104.679 86.9933 104.759 87.2333 104.919 87.38C105.079 87.5267 105.345 87.6 105.719 87.6H106.939Z" fill="white"/>
</svg>
