<svg width="220" height="22" viewBox="0 0 220 22" fill="none" xmlns="http://www.w3.org/2000/svg">
<path d="M2.19688 5.024C2.08488 4.576 1.91688 4.28 1.69288 4.136C1.48488 3.976 1.11687 3.896 0.588875 3.896H0.300875V1.472H4.88488L6.73288 10.328L8.70088 4.088H11.3889L13.3809 10.328L15.2289 1.472H19.8129V3.896H19.5009C18.9729 3.896 18.5969 3.976 18.3729 4.136C18.1649 4.28 18.0129 4.576 17.9169 5.024L15.2529 17H12.2289L10.0449 10.52L7.88488 17H4.83688L2.19688 5.024ZM19.9884 14.552H20.4444C21.0844 14.552 21.4044 14.248 21.4044 13.64V4.52C21.4044 4.2 21.3324 3.96 21.1884 3.8C21.0444 3.64 20.8044 3.56 20.4684 3.56H19.9884V1.112H24.7404V6.464C25.3484 5.952 25.9404 5.6 26.5164 5.408C27.1084 5.216 27.8124 5.12 28.6284 5.12C29.9404 5.12 30.8924 5.464 31.4844 6.152C32.0924 6.824 32.3964 7.824 32.3964 9.152V13.664C32.3964 14.256 32.7084 14.552 33.3324 14.552H33.8844V17H28.6044V9.176C28.6044 8.584 28.4764 8.152 28.2204 7.88C27.9644 7.608 27.5724 7.472 27.0444 7.472C26.4684 7.472 26.0124 7.624 25.6764 7.928C25.3564 8.232 25.1964 8.696 25.1964 9.32V13.664C25.1964 13.968 25.2604 14.192 25.3884 14.336C25.5164 14.48 25.7324 14.552 26.0364 14.552H26.5164V17H19.9884V14.552ZM38.5723 17.36C37.1963 17.36 36.1563 17.08 35.4523 16.52C34.7643 15.944 34.4203 15.136 34.4203 14.096C34.4203 12.912 34.8123 12.032 35.5963 11.456C36.3803 10.864 37.5323 10.52 39.0523 10.424L41.5963 10.256V8.912C41.5963 8.416 41.4843 8.064 41.2603 7.856C41.0363 7.632 40.6683 7.52 40.1562 7.52C39.5963 7.52 39.0923 7.672 38.6443 7.976V8.84H35.4763V6.464C36.9483 5.568 38.5563 5.12 40.3003 5.12C42.0283 5.12 43.3083 5.496 44.1403 6.248C44.9883 7 45.4123 8.016 45.4123 9.296V13.76C45.4123 14.064 45.4683 14.288 45.5803 14.432C45.7083 14.56 45.9083 14.624 46.1803 14.624H46.5403V17H43.3483L43.0123 15.488C42.4363 16.176 41.8203 16.664 41.1643 16.952C40.5243 17.224 39.6603 17.36 38.5723 17.36ZM39.4363 15.008C40.1403 15.008 40.6762 14.856 41.0443 14.552C41.4123 14.232 41.5963 13.768 41.5963 13.16V12.248L39.4363 12.416C38.8763 12.464 38.4763 12.592 38.2363 12.8C38.0123 13.008 37.9003 13.336 37.9003 13.784C37.9003 14.6 38.4123 15.008 39.4363 15.008ZM52.412 17.36C50.78 17.36 49.556 17.008 48.74 16.304C47.94 15.6 47.54 14.584 47.54 13.256V7.856H45.764V5.48H47.54V3.104L51.332 2.072V5.48H54.476V7.856H51.332V13.592C51.332 14.088 51.436 14.456 51.644 14.696C51.868 14.92 52.196 15.032 52.628 15.032C53.156 15.032 53.572 14.888 53.876 14.6V13.568H56.924V15.8C55.74 16.84 54.236 17.36 52.412 17.36ZM65.8904 8.6C65.8264 8.312 65.6984 8.112 65.5064 8C65.3304 7.888 65.0744 7.832 64.7384 7.832H64.1864V5.48H68.4104L69.9704 12.296L71.7464 6.512H74.2904L76.0664 12.296L77.6504 5.48H81.8504V7.832H81.3224C80.9864 7.832 80.7224 7.888 80.5304 8C80.3544 8.112 80.2344 8.312 80.1704 8.6L78.1304 17H74.8664L73.0424 11.144L71.1704 17H67.9064L65.8904 8.6ZM83.2514 0.967999H87.1394V3.848H83.2514V0.967999ZM81.7874 14.552H82.3634C82.6994 14.552 82.9394 14.48 83.0834 14.336C83.2434 14.176 83.3234 13.936 83.3234 13.616V8.888C83.3234 8.568 83.2514 8.328 83.1074 8.168C82.9634 8.008 82.7234 7.928 82.3874 7.928H81.7874V5.48H87.1154V13.664C87.1154 14.256 87.4274 14.552 88.0514 14.552H88.6274V17H81.7874V14.552ZM89.3868 14.552H89.9628C90.2988 14.552 90.5388 14.48 90.6828 14.336C90.8428 14.176 90.9228 13.936 90.9228 13.616V4.328C90.9228 4.008 90.8588 3.784 90.7308 3.656C90.6188 3.512 90.4108 3.44 90.1068 3.44H89.3868V1.112H94.7148V13.664C94.7148 14.256 95.0268 14.552 95.6508 14.552H96.2268V17H89.3868V14.552ZM97.004 14.552H97.58C97.916 14.552 98.156 14.48 98.3 14.336C98.46 14.176 98.54 13.936 98.54 13.616V4.328C98.54 4.008 98.476 3.784 98.348 3.656C98.236 3.512 98.028 3.44 97.724 3.44H97.004V1.112H102.332V13.664C102.332 14.256 102.644 14.552 103.268 14.552H103.844V17H97.004V14.552ZM118.969 21.8C117.881 21.8 116.897 21.648 116.017 21.344C115.153 21.056 114.433 20.64 113.857 20.096V18.224H117.025V18.944C117.249 19.168 117.505 19.32 117.793 19.4C118.081 19.496 118.441 19.544 118.873 19.544C120.153 19.544 120.793 18.8 120.793 17.312V16.136C120.361 16.376 119.897 16.56 119.401 16.688C118.905 16.816 118.425 16.88 117.961 16.88C116.457 16.88 115.265 16.512 114.385 15.776C113.521 15.04 113.089 14.008 113.089 12.68V8.816C113.089 8.224 112.769 7.928 112.129 7.928H111.577V5.48H116.905V12.824C116.905 13.976 117.481 14.552 118.633 14.552C119.865 14.552 120.481 13.928 120.481 12.68V8.816C120.481 8.512 120.417 8.288 120.289 8.144C120.177 8 119.961 7.928 119.641 7.928H119.161V5.48H124.321V16.472C124.321 18.088 123.841 19.376 122.881 20.336C121.921 21.312 120.617 21.8 118.969 21.8ZM132.001 17.36C130.017 17.36 128.489 16.84 127.417 15.8C126.345 14.744 125.809 13.232 125.809 11.264C125.809 9.28 126.337 7.76 127.393 6.704C128.449 5.648 129.985 5.12 132.001 5.12C134.017 5.12 135.553 5.648 136.609 6.704C137.665 7.76 138.193 9.28 138.193 11.264C138.193 13.232 137.657 14.744 136.585 15.8C135.513 16.84 133.985 17.36 132.001 17.36ZM132.001 14.888C132.865 14.888 133.489 14.6 133.873 14.024C134.257 13.448 134.449 12.528 134.449 11.264C134.449 9.968 134.257 9.032 133.873 8.456C133.489 7.88 132.865 7.592 132.001 7.592C131.137 7.592 130.513 7.88 130.129 8.456C129.761 9.032 129.577 9.968 129.577 11.264C129.577 12.528 129.761 13.448 130.129 14.024C130.513 14.6 131.137 14.888 132.001 14.888ZM143.724 17.36C140.972 17.36 139.596 16.016 139.596 13.328V8.816C139.596 8.224 139.284 7.928 138.66 7.928H138.108V5.48H143.388V13.304C143.388 13.912 143.516 14.352 143.772 14.624C144.044 14.896 144.452 15.032 144.996 15.032C145.556 15.032 145.988 14.88 146.292 14.576C146.612 14.272 146.772 13.808 146.772 13.184V8.816C146.772 8.512 146.708 8.288 146.58 8.144C146.468 8 146.26 7.928 145.956 7.928H145.452V5.48H151.98V7.928H151.38C151.076 7.928 150.86 8 150.732 8.144C150.62 8.288 150.564 8.512 150.564 8.816V13.64C150.564 13.944 150.636 14.176 150.78 14.336C150.924 14.48 151.164 14.552 151.5 14.552H151.98V17H148.188L148.02 15.464C147.444 16.152 146.828 16.64 146.172 16.928C145.532 17.216 144.716 17.36 143.724 17.36ZM165.142 17.336C163.526 17.336 162.254 16.84 161.326 15.848C160.398 14.856 159.934 13.416 159.934 11.528C159.934 9.464 160.39 7.88 161.302 6.776C162.214 5.672 163.542 5.12 165.286 5.12C166.07 5.12 166.718 5.216 167.23 5.408C167.742 5.6 168.238 5.928 168.718 6.392V4.544C168.718 4.224 168.646 3.984 168.502 3.824C168.374 3.664 168.142 3.584 167.806 3.584H167.446V1.112H172.198V13.76C172.198 14.112 172.254 14.352 172.366 14.48C172.494 14.608 172.718 14.672 173.038 14.672H173.326V17H169.582L169.39 15.464C168.862 16.104 168.262 16.576 167.59 16.88C166.934 17.184 166.118 17.336 165.142 17.336ZM166.102 15.152C166.902 15.152 167.51 14.84 167.926 14.216C168.342 13.576 168.55 12.776 168.55 11.816V10.688C168.55 9.664 168.35 8.864 167.95 8.288C167.55 7.712 166.942 7.424 166.126 7.424C165.23 7.424 164.598 7.76 164.23 8.432C163.862 9.088 163.678 10.096 163.678 11.456C163.678 12.8 163.854 13.752 164.206 14.312C164.558 14.872 165.19 15.152 166.102 15.152ZM179.93 17.36C177.946 17.36 176.418 16.84 175.346 15.8C174.274 14.744 173.738 13.232 173.738 11.264C173.738 9.28 174.266 7.76 175.322 6.704C176.378 5.648 177.914 5.12 179.93 5.12C181.946 5.12 183.482 5.648 184.538 6.704C185.594 7.76 186.122 9.28 186.122 11.264C186.122 13.232 185.586 14.744 184.514 15.8C183.442 16.84 181.914 17.36 179.93 17.36ZM179.93 14.888C180.794 14.888 181.418 14.6 181.802 14.024C182.186 13.448 182.378 12.528 182.378 11.264C182.378 9.968 182.186 9.032 181.802 8.456C181.418 7.88 180.794 7.592 179.93 7.592C179.066 7.592 178.442 7.88 178.058 8.456C177.69 9.032 177.506 9.968 177.506 11.264C177.506 12.528 177.69 13.448 178.058 14.024C178.442 14.6 179.066 14.888 179.93 14.888ZM197.605 12.392C197.605 11.384 197.829 10.52 198.277 9.8C198.725 9.08 199.469 8.424 200.509 7.832C201.213 7.448 201.725 7.088 202.045 6.752C202.381 6.4 202.549 5.936 202.549 5.36C202.549 4.16 201.765 3.56 200.197 3.56C199.445 3.56 198.677 3.736 197.893 4.088V5.576H194.557V2.84C195.277 2.312 196.125 1.896 197.101 1.592C198.093 1.272 199.165 1.112 200.317 1.112C202.237 1.112 203.701 1.464 204.709 2.168C205.733 2.872 206.245 3.936 206.245 5.36C206.245 6.048 206.125 6.632 205.885 7.112C205.661 7.576 205.325 8 204.877 8.384C204.429 8.752 203.797 9.176 202.981 9.656C202.517 9.912 202.173 10.168 201.949 10.424C201.725 10.68 201.573 10.968 201.493 11.288C201.429 11.608 201.397 12.04 201.397 12.584V13.064H197.605V12.392ZM197.437 14.12H201.565V17H197.437V14.12ZM210.8 12.392C210.8 11.384 211.024 10.52 211.472 9.8C211.92 9.08 212.664 8.424 213.704 7.832C214.408 7.448 214.92 7.088 215.24 6.752C215.576 6.4 215.744 5.936 215.744 5.36C215.744 4.16 214.96 3.56 213.392 3.56C212.64 3.56 211.872 3.736 211.088 4.088V5.576H207.752V2.84C208.472 2.312 209.32 1.896 210.296 1.592C211.288 1.272 212.36 1.112 213.512 1.112C215.432 1.112 216.896 1.464 217.904 2.168C218.928 2.872 219.44 3.936 219.44 5.36C219.44 6.048 219.32 6.632 219.08 7.112C218.856 7.576 218.52 8 218.072 8.384C217.624 8.752 216.992 9.176 216.176 9.656C215.712 9.912 215.368 10.168 215.144 10.424C214.92 10.68 214.768 10.968 214.688 11.288C214.624 11.608 214.592 12.04 214.592 12.584V13.064H210.8V12.392ZM210.632 14.12H214.76V17H210.632V14.12Z" fill="black"/>
</svg>
