<svg width="200" height="200" viewBox="0 0 200 200" fill="none" xmlns="http://www.w3.org/2000/svg">
<rect width="200" height="200" rx="100" fill="#6CBE88"/>
<path d="M37.0444 85.4C36.791 84.9333 36.4244 84.58 35.9444 84.34C35.4777 84.0867 34.9244 83.96 34.2844 83.96C33.1777 83.96 32.291 84.3267 31.6244 85.06C30.9577 85.78 30.6244 86.7467 30.6244 87.96C30.6244 89.2533 30.971 90.2667 31.6644 91C32.371 91.72 33.3377 92.08 34.5644 92.08C35.4044 92.08 36.111 91.8667 36.6844 91.44C37.271 91.0133 37.6977 90.4 37.9644 89.6H33.6244V87.08H41.0644V90.26C40.811 91.1133 40.3777 91.9067 39.7644 92.64C39.1644 93.3733 38.3977 93.9667 37.4644 94.42C36.531 94.8733 35.4777 95.1 34.3044 95.1C32.9177 95.1 31.6777 94.8 30.5844 94.2C29.5044 93.5867 28.6577 92.74 28.0444 91.66C27.4444 90.58 27.1444 89.3467 27.1444 87.96C27.1444 86.5733 27.4444 85.34 28.0444 84.26C28.6577 83.1667 29.5044 82.32 30.5844 81.72C31.6644 81.1067 32.8977 80.8 34.2844 80.8C35.9644 80.8 37.3777 81.2067 38.5244 82.02C39.6844 82.8333 40.451 83.96 40.8244 85.4H37.0444ZM44.6788 82.68C44.0788 82.68 43.5854 82.5067 43.1988 82.16C42.8254 81.8 42.6388 81.36 42.6388 80.84C42.6388 80.3067 42.8254 79.8667 43.1988 79.52C43.5854 79.16 44.0788 78.98 44.6788 78.98C45.2654 78.98 45.7454 79.16 46.1188 79.52C46.5054 79.8667 46.6988 80.3067 46.6988 80.84C46.6988 81.36 46.5054 81.8 46.1188 82.16C45.7454 82.5067 45.2654 82.68 44.6788 82.68ZM46.3788 83.84V95H42.9588V83.84H46.3788ZM53.8772 91.8L56.2972 83.84H59.9372L55.9772 95H51.7572L47.7972 83.84H51.4572L53.8772 91.8ZM71.8967 89.24C71.8967 89.56 71.8767 89.8933 71.8367 90.24H64.0967C64.1501 90.9333 64.3701 91.4667 64.7567 91.84C65.1567 92.2 65.6434 92.38 66.2167 92.38C67.0701 92.38 67.6634 92.02 67.9967 91.3H71.6367C71.4501 92.0333 71.1101 92.6933 70.6167 93.28C70.1367 93.8667 69.5301 94.3267 68.7967 94.66C68.0634 94.9933 67.2434 95.16 66.3367 95.16C65.2434 95.16 64.2701 94.9267 63.4167 94.46C62.5634 93.9933 61.8967 93.3267 61.4167 92.46C60.9367 91.5933 60.6967 90.58 60.6967 89.42C60.6967 88.26 60.9301 87.2467 61.3967 86.38C61.8767 85.5133 62.5434 84.8467 63.3967 84.38C64.2501 83.9133 65.2301 83.68 66.3367 83.68C67.4167 83.68 68.3767 83.9067 69.2167 84.36C70.0567 84.8133 70.7101 85.46 71.1767 86.3C71.6567 87.14 71.8967 88.12 71.8967 89.24ZM68.3967 88.34C68.3967 87.7533 68.1967 87.2867 67.7967 86.94C67.3967 86.5933 66.8967 86.42 66.2967 86.42C65.7234 86.42 65.2367 86.5867 64.8367 86.92C64.4501 87.2533 64.2101 87.7267 64.1167 88.34H68.3967ZM89.3392 83.84L82.3392 100.3H78.6592L81.2192 94.62L76.6792 83.84H80.4992L83.0792 90.82L85.6392 83.84H89.3392ZM95.6559 95.16C94.5626 95.16 93.5759 94.9267 92.6959 94.46C91.8293 93.9933 91.1426 93.3267 90.6359 92.46C90.1426 91.5933 89.8959 90.58 89.8959 89.42C89.8959 88.2733 90.1493 87.2667 90.6559 86.4C91.1626 85.52 91.8559 84.8467 92.7359 84.38C93.6159 83.9133 94.6026 83.68 95.6959 83.68C96.7893 83.68 97.7759 83.9133 98.6559 84.38C99.5359 84.8467 100.229 85.52 100.736 86.4C101.243 87.2667 101.496 88.2733 101.496 89.42C101.496 90.5667 101.236 91.58 100.716 92.46C100.209 93.3267 99.5093 93.9933 98.6159 94.46C97.7359 94.9267 96.7493 95.16 95.6559 95.16ZM95.6559 92.2C96.3093 92.2 96.8626 91.96 97.3159 91.48C97.7826 91 98.0159 90.3133 98.0159 89.42C98.0159 88.5267 97.7893 87.84 97.3359 87.36C96.8959 86.88 96.3493 86.64 95.6959 86.64C95.0293 86.64 94.4759 86.88 94.0359 87.36C93.5959 87.8267 93.3759 88.5133 93.3759 89.42C93.3759 90.3133 93.5893 91 94.0159 91.48C94.4559 91.96 95.0026 92.2 95.6559 92.2ZM114.33 83.84V95H110.91V93.48C110.564 93.9733 110.09 94.3733 109.49 94.68C108.904 94.9733 108.25 95.12 107.53 95.12C106.677 95.12 105.924 94.9333 105.27 94.56C104.617 94.1733 104.11 93.62 103.75 92.9C103.39 92.18 103.21 91.3333 103.21 90.36V83.84H106.61V89.9C106.61 90.6467 106.804 91.2267 107.19 91.64C107.577 92.0533 108.097 92.26 108.75 92.26C109.417 92.26 109.944 92.0533 110.33 91.64C110.717 91.2267 110.91 90.6467 110.91 89.9V83.84H114.33ZM120.207 85.7C120.607 85.0867 121.107 84.6067 121.707 84.26C122.307 83.9 122.974 83.72 123.707 83.72V87.34H122.767C121.914 87.34 121.274 87.5267 120.847 87.9C120.42 88.26 120.207 88.9 120.207 89.82V95H116.787V83.84H120.207V85.7ZM134.12 95.16C133.147 95.16 132.28 94.9933 131.52 94.66C130.76 94.3267 130.16 93.8733 129.72 93.3C129.28 92.7133 129.033 92.06 128.98 91.34H132.36C132.4 91.7267 132.58 92.04 132.9 92.28C133.22 92.52 133.613 92.64 134.08 92.64C134.507 92.64 134.833 92.56 135.06 92.4C135.3 92.2267 135.42 92.0067 135.42 91.74C135.42 91.42 135.253 91.1867 134.92 91.04C134.587 90.88 134.047 90.7067 133.3 90.52C132.5 90.3333 131.833 90.14 131.3 89.94C130.767 89.7267 130.307 89.4 129.92 88.96C129.533 88.5067 129.34 87.9 129.34 87.14C129.34 86.5 129.513 85.92 129.86 85.4C130.22 84.8667 130.74 84.4467 131.42 84.14C132.113 83.8333 132.933 83.68 133.88 83.68C135.28 83.68 136.38 84.0267 137.18 84.72C137.993 85.4133 138.46 86.3333 138.58 87.48H135.42C135.367 87.0933 135.193 86.7867 134.9 86.56C134.62 86.3333 134.247 86.22 133.78 86.22C133.38 86.22 133.073 86.3 132.86 86.46C132.647 86.6067 132.54 86.8133 132.54 87.08C132.54 87.4 132.707 87.64 133.04 87.8C133.387 87.96 133.92 88.12 134.64 88.28C135.467 88.4933 136.14 88.7067 136.66 88.92C137.18 89.12 137.633 89.4533 138.02 89.92C138.42 90.3733 138.627 90.9867 138.64 91.76C138.64 92.4133 138.453 93 138.08 93.52C137.72 94.0267 137.193 94.4267 136.5 94.72C135.82 95.0133 135.027 95.16 134.12 95.16ZM151.252 89.24C151.252 89.56 151.232 89.8933 151.192 90.24H143.452C143.506 90.9333 143.726 91.4667 144.112 91.84C144.512 92.2 144.999 92.38 145.572 92.38C146.426 92.38 147.019 92.02 147.352 91.3H150.992C150.806 92.0333 150.466 92.6933 149.972 93.28C149.492 93.8667 148.886 94.3267 148.152 94.66C147.419 94.9933 146.599 95.16 145.692 95.16C144.599 95.16 143.626 94.9267 142.772 94.46C141.919 93.9933 141.252 93.3267 140.772 92.46C140.292 91.5933 140.052 90.58 140.052 89.42C140.052 88.26 140.286 87.2467 140.752 86.38C141.232 85.5133 141.899 84.8467 142.752 84.38C143.606 83.9133 144.586 83.68 145.692 83.68C146.772 83.68 147.732 83.9067 148.572 84.36C149.412 84.8133 150.066 85.46 150.532 86.3C151.012 87.14 151.252 88.12 151.252 89.24ZM147.752 88.34C147.752 87.7533 147.552 87.2867 147.152 86.94C146.752 86.5933 146.252 86.42 145.652 86.42C145.079 86.42 144.592 86.5867 144.192 86.92C143.806 87.2533 143.566 87.7267 143.472 88.34H147.752ZM152.376 89.4C152.376 88.2533 152.59 87.2467 153.016 86.38C153.456 85.5133 154.05 84.8467 154.796 84.38C155.543 83.9133 156.376 83.68 157.296 83.68C158.083 83.68 158.77 83.84 159.356 84.16C159.956 84.48 160.416 84.9 160.736 85.42V83.84H164.156V95H160.736V93.42C160.403 93.94 159.936 94.36 159.336 94.68C158.75 95 158.063 95.16 157.276 95.16C156.37 95.16 155.543 94.9267 154.796 94.46C154.05 93.98 153.456 93.3067 153.016 92.44C152.59 91.56 152.376 90.5467 152.376 89.4ZM160.736 89.42C160.736 88.5667 160.496 87.8933 160.016 87.4C159.55 86.9067 158.976 86.66 158.296 86.66C157.616 86.66 157.036 86.9067 156.556 87.4C156.09 87.88 155.856 88.5467 155.856 89.4C155.856 90.2533 156.09 90.9333 156.556 91.44C157.036 91.9333 157.616 92.18 158.296 92.18C158.976 92.18 159.55 91.9333 160.016 91.44C160.496 90.9467 160.736 90.2733 160.736 89.42ZM172.851 92.1V95H171.111C169.871 95 168.904 94.7 168.211 94.1C167.517 93.4867 167.171 92.4933 167.171 91.12V86.68H165.811V83.84H167.171V81.12H170.591V83.84H172.831V86.68H170.591V91.16C170.591 91.4933 170.671 91.7333 170.831 91.88C170.991 92.0267 171.257 92.1 171.631 92.1H172.851ZM36.7178 116.1V119H34.9778C33.7378 119 32.7711 118.7 32.0778 118.1C31.3845 117.487 31.0378 116.493 31.0378 115.12V110.68H29.6778V107.84H31.0378V105.12H34.4578V107.84H36.6978V110.68H34.4578V115.16C34.4578 115.493 34.5378 115.733 34.6978 115.88C34.8578 116.027 35.1245 116.1 35.4978 116.1H36.7178ZM43.7028 119.16C42.6095 119.16 41.6228 118.927 40.7428 118.46C39.8761 117.993 39.1895 117.327 38.6828 116.46C38.1895 115.593 37.9428 114.58 37.9428 113.42C37.9428 112.273 38.1961 111.267 38.7028 110.4C39.2095 109.52 39.9028 108.847 40.7828 108.38C41.6628 107.913 42.6495 107.68 43.7428 107.68C44.8361 107.68 45.8228 107.913 46.7028 108.38C47.5828 108.847 48.2761 109.52 48.7828 110.4C49.2895 111.267 49.5428 112.273 49.5428 113.42C49.5428 114.567 49.2828 115.58 48.7628 116.46C48.2561 117.327 47.5561 117.993 46.6628 118.46C45.7828 118.927 44.7961 119.16 43.7028 119.16ZM43.7028 116.2C44.3561 116.2 44.9095 115.96 45.3628 115.48C45.8295 115 46.0628 114.313 46.0628 113.42C46.0628 112.527 45.8361 111.84 45.3828 111.36C44.9428 110.88 44.3961 110.64 43.7428 110.64C43.0761 110.64 42.5228 110.88 42.0828 111.36C41.6428 111.827 41.4228 112.513 41.4228 113.42C41.4228 114.313 41.6361 115 42.0628 115.48C42.5028 115.96 43.0495 116.2 43.7028 116.2ZM54.9155 113.4C54.9155 112.253 55.1288 111.247 55.5555 110.38C55.9955 109.513 56.5888 108.847 57.3355 108.38C58.0821 107.913 58.9155 107.68 59.8355 107.68C60.6221 107.68 61.3088 107.84 61.8955 108.16C62.4955 108.48 62.9555 108.9 63.2755 109.42V107.84H66.6955V119H63.2755V117.42C62.9421 117.94 62.4755 118.36 61.8755 118.68C61.2888 119 60.6021 119.16 59.8155 119.16C58.9088 119.16 58.0821 118.927 57.3355 118.46C56.5888 117.98 55.9955 117.307 55.5555 116.44C55.1288 115.56 54.9155 114.547 54.9155 113.4ZM63.2755 113.42C63.2755 112.567 63.0355 111.893 62.5555 111.4C62.0888 110.907 61.5155 110.66 60.8355 110.66C60.1555 110.66 59.5755 110.907 59.0955 111.4C58.6288 111.88 58.3955 112.547 58.3955 113.4C58.3955 114.253 58.6288 114.933 59.0955 115.44C59.5755 115.933 60.1555 116.18 60.8355 116.18C61.5155 116.18 62.0888 115.933 62.5555 115.44C63.0355 114.947 63.2755 114.273 63.2755 113.42ZM75.9697 107.72C77.2764 107.72 78.3164 108.147 79.0897 109C79.8764 109.84 80.2697 111 80.2697 112.48V119H76.8697V112.94C76.8697 112.193 76.6764 111.613 76.2897 111.2C75.903 110.787 75.383 110.58 74.7297 110.58C74.0764 110.58 73.5564 110.787 73.1697 111.2C72.783 111.613 72.5897 112.193 72.5897 112.94V119H69.1697V107.84H72.5897V109.32C72.9364 108.827 73.403 108.44 73.9897 108.16C74.5764 107.867 75.2364 107.72 75.9697 107.72ZM91.9645 119.16C90.8712 119.16 89.8845 118.927 89.0045 118.46C88.1379 117.993 87.4512 117.327 86.9445 116.46C86.4512 115.593 86.2045 114.58 86.2045 113.42C86.2045 112.273 86.4579 111.267 86.9645 110.4C87.4712 109.52 88.1645 108.847 89.0445 108.38C89.9245 107.913 90.9112 107.68 92.0045 107.68C93.0979 107.68 94.0845 107.913 94.9645 108.38C95.8445 108.847 96.5379 109.52 97.0445 110.4C97.5512 111.267 97.8045 112.273 97.8045 113.42C97.8045 114.567 97.5445 115.58 97.0245 116.46C96.5179 117.327 95.8179 117.993 94.9245 118.46C94.0445 118.927 93.0579 119.16 91.9645 119.16ZM91.9645 116.2C92.6179 116.2 93.1712 115.96 93.6245 115.48C94.0912 115 94.3245 114.313 94.3245 113.42C94.3245 112.527 94.0979 111.84 93.6445 111.36C93.2045 110.88 92.6579 110.64 92.0045 110.64C91.3379 110.64 90.7845 110.88 90.3445 111.36C89.9045 111.827 89.6845 112.513 89.6845 113.42C89.6845 114.313 89.8979 115 90.3245 115.48C90.7645 115.96 91.3112 116.2 91.9645 116.2ZM103.039 104.2V119H99.6189V104.2H103.039ZM104.837 113.4C104.837 112.253 105.051 111.247 105.477 110.38C105.917 109.513 106.511 108.847 107.257 108.38C108.004 107.913 108.837 107.68 109.757 107.68C110.491 107.68 111.157 107.833 111.757 108.14C112.371 108.447 112.851 108.86 113.197 109.38V104.2H116.617V119H113.197V117.4C112.877 117.933 112.417 118.36 111.817 118.68C111.231 119 110.544 119.16 109.757 119.16C108.837 119.16 108.004 118.927 107.257 118.46C106.511 117.98 105.917 117.307 105.477 116.44C105.051 115.56 104.837 114.547 104.837 113.4ZM113.197 113.42C113.197 112.567 112.957 111.893 112.477 111.4C112.011 110.907 111.437 110.66 110.757 110.66C110.077 110.66 109.497 110.907 109.017 111.4C108.551 111.88 108.317 112.547 108.317 113.4C108.317 114.253 108.551 114.933 109.017 115.44C109.497 115.933 110.077 116.18 110.757 116.18C111.437 116.18 112.011 115.933 112.477 115.44C112.957 114.947 113.197 114.273 113.197 113.42ZM122.65 113.4C122.65 112.253 122.863 111.247 123.29 110.38C123.73 109.513 124.323 108.847 125.07 108.38C125.817 107.913 126.65 107.68 127.57 107.68C128.357 107.68 129.043 107.84 129.63 108.16C130.23 108.48 130.69 108.9 131.01 109.42V107.84H134.43V119H131.01V117.42C130.677 117.94 130.21 118.36 129.61 118.68C129.023 119 128.337 119.16 127.55 119.16C126.643 119.16 125.817 118.927 125.07 118.46C124.323 117.98 123.73 117.307 123.29 116.44C122.863 115.56 122.65 114.547 122.65 113.4ZM131.01 113.42C131.01 112.567 130.77 111.893 130.29 111.4C129.823 110.907 129.25 110.66 128.57 110.66C127.89 110.66 127.31 110.907 126.83 111.4C126.363 111.88 126.13 112.547 126.13 113.4C126.13 114.253 126.363 114.933 126.83 115.44C127.31 115.933 127.89 116.18 128.57 116.18C129.25 116.18 129.823 115.933 130.29 115.44C130.77 114.947 131.01 114.273 131.01 113.42ZM147.924 107.84V119H144.504V117.48C144.157 117.973 143.684 118.373 143.084 118.68C142.497 118.973 141.844 119.12 141.124 119.12C140.271 119.12 139.517 118.933 138.864 118.56C138.211 118.173 137.704 117.62 137.344 116.9C136.984 116.18 136.804 115.333 136.804 114.36V107.84H140.204V113.9C140.204 114.647 140.397 115.227 140.784 115.64C141.171 116.053 141.691 116.26 142.344 116.26C143.011 116.26 143.537 116.053 143.924 115.64C144.311 115.227 144.504 114.647 144.504 113.9V107.84H147.924ZM157.181 107.72C158.487 107.72 159.527 108.147 160.301 109C161.087 109.84 161.481 111 161.481 112.48V119H158.081V112.94C158.081 112.193 157.887 111.613 157.501 111.2C157.114 110.787 156.594 110.58 155.941 110.58C155.287 110.58 154.767 110.787 154.381 111.2C153.994 111.613 153.801 112.193 153.801 112.94V119H150.381V107.84H153.801V109.32C154.147 108.827 154.614 108.44 155.201 108.16C155.787 107.867 156.447 107.72 157.181 107.72ZM170.077 116.1V119H168.337C167.097 119 166.131 118.7 165.437 118.1C164.744 117.487 164.397 116.493 164.397 115.12V110.68H163.037V107.84H164.397V105.12H167.817V107.84H170.057V110.68H167.817V115.16C167.817 115.493 167.897 115.733 168.057 115.88C168.217 116.027 168.484 116.1 168.857 116.1H170.077Z" fill="white"/>
</svg>
