<svg width="200" height="200" viewBox="0 0 200 200" fill="none" xmlns="http://www.w3.org/2000/svg">
<rect width="200" height="200" rx="100" fill="#6CBE88"/>
<path d="M48.9471 68.96V83H45.5271V68.96H48.9471ZM55.6655 71.68C56.4522 71.68 57.1389 71.84 57.7255 72.16C58.3255 72.48 58.7855 72.9 59.1055 73.42V71.84H62.5255V82.98C62.5255 84.0067 62.3189 84.9333 61.9055 85.76C61.5055 86.6 60.8855 87.2667 60.0455 87.76C59.2189 88.2533 58.1855 88.5 56.9455 88.5C55.2922 88.5 53.9522 88.1067 52.9255 87.32C51.8989 86.5467 51.3122 85.4933 51.1655 84.16H54.5455C54.6522 84.5867 54.9055 84.92 55.3055 85.16C55.7055 85.4133 56.1989 85.54 56.7855 85.54C57.4922 85.54 58.0522 85.3333 58.4655 84.92C58.8922 84.52 59.1055 83.8733 59.1055 82.98V81.4C58.7722 81.92 58.3122 82.3467 57.7255 82.68C57.1389 83 56.4522 83.16 55.6655 83.16C54.7455 83.16 53.9122 82.9267 53.1655 82.46C52.4189 81.98 51.8255 81.3067 51.3855 80.44C50.9589 79.56 50.7455 78.5467 50.7455 77.4C50.7455 76.2533 50.9589 75.2467 51.3855 74.38C51.8255 73.5133 52.4189 72.8467 53.1655 72.38C53.9122 71.9133 54.7455 71.68 55.6655 71.68ZM59.1055 77.42C59.1055 76.5667 58.8655 75.8933 58.3855 75.4C57.9189 74.9067 57.3455 74.66 56.6655 74.66C55.9855 74.66 55.4055 74.9067 54.9255 75.4C54.4589 75.88 54.2255 76.5467 54.2255 77.4C54.2255 78.2533 54.4589 78.9333 54.9255 79.44C55.4055 79.9333 55.9855 80.18 56.6655 80.18C57.3455 80.18 57.9189 79.9333 58.3855 79.44C58.8655 78.9467 59.1055 78.2733 59.1055 77.42ZM71.7998 71.72C73.1064 71.72 74.1464 72.1467 74.9198 73C75.7064 73.84 76.0998 75 76.0998 76.48V83H72.6998V76.94C72.6998 76.1933 72.5064 75.6133 72.1198 75.2C71.7331 74.7867 71.2131 74.58 70.5598 74.58C69.9064 74.58 69.3864 74.7867 68.9998 75.2C68.6131 75.6133 68.4198 76.1933 68.4198 76.94V83H64.9998V71.84H68.4198V73.32C68.7664 72.8267 69.2331 72.44 69.8198 72.16C70.4064 71.8667 71.0664 71.72 71.7998 71.72ZM83.5563 83.16C82.463 83.16 81.4763 82.9267 80.5963 82.46C79.7297 81.9933 79.043 81.3267 78.5363 80.46C78.043 79.5933 77.7963 78.58 77.7963 77.42C77.7963 76.2733 78.0497 75.2667 78.5563 74.4C79.063 73.52 79.7563 72.8467 80.6363 72.38C81.5163 71.9133 82.503 71.68 83.5963 71.68C84.6897 71.68 85.6763 71.9133 86.5563 72.38C87.4363 72.8467 88.1297 73.52 88.6363 74.4C89.143 75.2667 89.3963 76.2733 89.3963 77.42C89.3963 78.5667 89.1363 79.58 88.6163 80.46C88.1097 81.3267 87.4097 81.9933 86.5163 82.46C85.6363 82.9267 84.6497 83.16 83.5563 83.16ZM83.5563 80.2C84.2097 80.2 84.763 79.96 85.2163 79.48C85.683 79 85.9163 78.3133 85.9163 77.42C85.9163 76.5267 85.6897 75.84 85.2363 75.36C84.7963 74.88 84.2497 74.64 83.5963 74.64C82.9297 74.64 82.3763 74.88 81.9363 75.36C81.4963 75.8267 81.2763 76.5133 81.2763 77.42C81.2763 78.3133 81.4897 79 81.9163 79.48C82.3563 79.96 82.903 80.2 83.5563 80.2ZM94.6307 73.7C95.0307 73.0867 95.5307 72.6067 96.1307 72.26C96.7307 71.9 97.3974 71.72 98.1307 71.72V75.34H97.1907C96.3374 75.34 95.6974 75.5267 95.2707 75.9C94.844 76.26 94.6307 76.9 94.6307 77.82V83H91.2107V71.84H94.6307V73.7ZM110.285 77.24C110.285 77.56 110.265 77.8933 110.225 78.24H102.485C102.539 78.9333 102.759 79.4667 103.145 79.84C103.545 80.2 104.032 80.38 104.605 80.38C105.459 80.38 106.052 80.02 106.385 79.3H110.025C109.839 80.0333 109.499 80.6933 109.005 81.28C108.525 81.8667 107.919 82.3267 107.185 82.66C106.452 82.9933 105.632 83.16 104.725 83.16C103.632 83.16 102.659 82.9267 101.805 82.46C100.952 81.9933 100.285 81.3267 99.8054 80.46C99.3254 79.5933 99.0854 78.58 99.0854 77.42C99.0854 76.26 99.3187 75.2467 99.7854 74.38C100.265 73.5133 100.932 72.8467 101.785 72.38C102.639 71.9133 103.619 71.68 104.725 71.68C105.805 71.68 106.765 71.9067 107.605 72.36C108.445 72.8133 109.099 73.46 109.565 74.3C110.045 75.14 110.285 76.12 110.285 77.24ZM106.785 76.34C106.785 75.7533 106.585 75.2867 106.185 74.94C105.785 74.5933 105.285 74.42 104.685 74.42C104.112 74.42 103.625 74.5867 103.225 74.92C102.839 75.2533 102.599 75.7267 102.505 76.34H106.785ZM115.648 77.4C115.648 76.2533 115.861 75.2467 116.288 74.38C116.728 73.5133 117.321 72.8467 118.068 72.38C118.815 71.9133 119.648 71.68 120.568 71.68C121.355 71.68 122.041 71.84 122.628 72.16C123.228 72.48 123.688 72.9 124.008 73.42V71.84H127.428V83H124.008V81.42C123.675 81.94 123.208 82.36 122.608 82.68C122.021 83 121.335 83.16 120.548 83.16C119.641 83.16 118.815 82.9267 118.068 82.46C117.321 81.98 116.728 81.3067 116.288 80.44C115.861 79.56 115.648 78.5467 115.648 77.4ZM124.008 77.42C124.008 76.5667 123.768 75.8933 123.288 75.4C122.821 74.9067 122.248 74.66 121.568 74.66C120.888 74.66 120.308 74.9067 119.828 75.4C119.361 75.88 119.128 76.5467 119.128 77.4C119.128 78.2533 119.361 78.9333 119.828 79.44C120.308 79.9333 120.888 80.18 121.568 80.18C122.248 80.18 122.821 79.9333 123.288 79.44C123.768 78.9467 124.008 78.2733 124.008 77.42ZM136.702 71.72C138.009 71.72 139.049 72.1467 139.822 73C140.609 73.84 141.002 75 141.002 76.48V83H137.602V76.94C137.602 76.1933 137.409 75.6133 137.022 75.2C136.635 74.7867 136.115 74.58 135.462 74.58C134.809 74.58 134.289 74.7867 133.902 75.2C133.515 75.6133 133.322 76.1933 133.322 76.94V83H129.902V71.84H133.322V73.32C133.669 72.8267 134.135 72.44 134.722 72.16C135.309 71.8667 135.969 71.72 136.702 71.72ZM142.699 77.4C142.699 76.2533 142.912 75.2467 143.339 74.38C143.779 73.5133 144.372 72.8467 145.119 72.38C145.865 71.9133 146.699 71.68 147.619 71.68C148.352 71.68 149.019 71.8333 149.619 72.14C150.232 72.4467 150.712 72.86 151.059 73.38V68.2H154.479V83H151.059V81.4C150.739 81.9333 150.279 82.36 149.679 82.68C149.092 83 148.405 83.16 147.619 83.16C146.699 83.16 145.865 82.9267 145.119 82.46C144.372 81.98 143.779 81.3067 143.339 80.44C142.912 79.56 142.699 78.5467 142.699 77.4ZM151.059 77.42C151.059 76.5667 150.819 75.8933 150.339 75.4C149.872 74.9067 149.299 74.66 148.619 74.66C147.939 74.66 147.359 74.9067 146.879 75.4C146.412 75.88 146.179 76.5467 146.179 77.4C146.179 78.2533 146.412 78.9333 146.879 79.44C147.359 79.9333 147.939 80.18 148.619 80.18C149.299 80.18 149.872 79.9333 150.339 79.44C150.819 78.9467 151.059 78.2733 151.059 77.42ZM57.4143 101.24C57.4143 101.56 57.3943 101.893 57.3543 102.24H49.6143C49.6676 102.933 49.8876 103.467 50.2743 103.84C50.6743 104.2 51.161 104.38 51.7343 104.38C52.5876 104.38 53.181 104.02 53.5143 103.3H57.1543C56.9676 104.033 56.6276 104.693 56.1343 105.28C55.6543 105.867 55.0476 106.327 54.3143 106.66C53.581 106.993 52.761 107.16 51.8543 107.16C50.761 107.16 49.7876 106.927 48.9343 106.46C48.081 105.993 47.4143 105.327 46.9343 104.46C46.4543 103.593 46.2143 102.58 46.2143 101.42C46.2143 100.26 46.4476 99.2467 46.9143 98.38C47.3943 97.5133 48.061 96.8467 48.9143 96.38C49.7676 95.9133 50.7476 95.68 51.8543 95.68C52.9343 95.68 53.8943 95.9067 54.7343 96.36C55.5743 96.8133 56.2276 97.46 56.6943 98.3C57.1743 99.14 57.4143 100.12 57.4143 101.24ZM53.9143 100.34C53.9143 99.7533 53.7143 99.2867 53.3143 98.94C52.9143 98.5933 52.4143 98.42 51.8143 98.42C51.241 98.42 50.7543 98.5867 50.3543 98.92C49.9676 99.2533 49.7276 99.7267 49.6343 100.34H53.9143ZM66.0185 95.72C67.3252 95.72 68.3652 96.1467 69.1385 97C69.9252 97.84 70.3185 99 70.3185 100.48V107H66.9185V100.94C66.9185 100.193 66.7252 99.6133 66.3385 99.2C65.9518 98.7867 65.4318 98.58 64.7785 98.58C64.1252 98.58 63.6052 98.7867 63.2185 99.2C62.8318 99.6133 62.6385 100.193 62.6385 100.94V107H59.2185V95.84H62.6385V97.32C62.9852 96.8267 63.4518 96.44 64.0385 96.16C64.6252 95.8667 65.2852 95.72 66.0185 95.72ZM74.3951 94.68C73.7951 94.68 73.3017 94.5067 72.9151 94.16C72.5417 93.8 72.3551 93.36 72.3551 92.84C72.3551 92.3067 72.5417 91.8667 72.9151 91.52C73.3017 91.16 73.7951 90.98 74.3951 90.98C74.9817 90.98 75.4617 91.16 75.8351 91.52C76.2217 91.8667 76.4151 92.3067 76.4151 92.84C76.4151 93.36 76.2217 93.8 75.8351 94.16C75.4617 94.5067 74.9817 94.68 74.3951 94.68ZM76.1151 108.44C76.1151 109.813 75.7684 110.8 75.0751 111.4C74.3817 112.013 73.4151 112.32 72.1751 112.32H70.8351V109.42H71.6551C72.0284 109.42 72.2951 109.347 72.4551 109.2C72.6151 109.053 72.6951 108.813 72.6951 108.48V95.84H76.1151V108.44ZM83.654 107.16C82.5607 107.16 81.574 106.927 80.694 106.46C79.8273 105.993 79.1407 105.327 78.634 104.46C78.1407 103.593 77.894 102.58 77.894 101.42C77.894 100.273 78.1473 99.2667 78.654 98.4C79.1607 97.52 79.854 96.8467 80.734 96.38C81.614 95.9133 82.6007 95.68 83.694 95.68C84.7873 95.68 85.774 95.9133 86.654 96.38C87.534 96.8467 88.2273 97.52 88.734 98.4C89.2407 99.2667 89.494 100.273 89.494 101.42C89.494 102.567 89.234 103.58 88.714 104.46C88.2073 105.327 87.5073 105.993 86.614 106.46C85.734 106.927 84.7473 107.16 83.654 107.16ZM83.654 104.2C84.3073 104.2 84.8607 103.96 85.314 103.48C85.7807 103 86.014 102.313 86.014 101.42C86.014 100.527 85.7873 99.84 85.334 99.36C84.894 98.88 84.3473 98.64 83.694 98.64C83.0273 98.64 82.474 98.88 82.034 99.36C81.594 99.8267 81.374 100.513 81.374 101.42C81.374 102.313 81.5873 103 82.014 103.48C82.454 103.96 83.0007 104.2 83.654 104.2ZM102.708 95.84L95.7084 112.3H92.0284L94.5884 106.62L90.0484 95.84H93.8684L96.4484 102.82L99.0084 95.84H102.708ZM119.583 95.84L112.583 112.3H108.903L111.463 106.62L106.923 95.84H110.743L113.323 102.82L115.883 95.84H119.583ZM125.9 107.16C124.807 107.16 123.82 106.927 122.94 106.46C122.073 105.993 121.387 105.327 120.88 104.46C120.387 103.593 120.14 102.58 120.14 101.42C120.14 100.273 120.393 99.2667 120.9 98.4C121.407 97.52 122.1 96.8467 122.98 96.38C123.86 95.9133 124.847 95.68 125.94 95.68C127.033 95.68 128.02 95.9133 128.9 96.38C129.78 96.8467 130.473 97.52 130.98 98.4C131.487 99.2667 131.74 100.273 131.74 101.42C131.74 102.567 131.48 103.58 130.96 104.46C130.453 105.327 129.753 105.993 128.86 106.46C127.98 106.927 126.993 107.16 125.9 107.16ZM125.9 104.2C126.553 104.2 127.107 103.96 127.56 103.48C128.027 103 128.26 102.313 128.26 101.42C128.26 100.527 128.033 99.84 127.58 99.36C127.14 98.88 126.593 98.64 125.94 98.64C125.273 98.64 124.72 98.88 124.28 99.36C123.84 99.8267 123.62 100.513 123.62 101.42C123.62 102.313 123.833 103 124.26 103.48C124.7 103.96 125.247 104.2 125.9 104.2ZM144.574 95.84V107H141.154V105.48C140.808 105.973 140.334 106.373 139.734 106.68C139.148 106.973 138.494 107.12 137.774 107.12C136.921 107.12 136.168 106.933 135.514 106.56C134.861 106.173 134.354 105.62 133.994 104.9C133.634 104.18 133.454 103.333 133.454 102.36V95.84H136.854V101.9C136.854 102.647 137.048 103.227 137.434 103.64C137.821 104.053 138.341 104.26 138.994 104.26C139.661 104.26 140.188 104.053 140.574 103.64C140.961 103.227 141.154 102.647 141.154 101.9V95.84H144.574ZM150.451 97.7C150.851 97.0867 151.351 96.6067 151.951 96.26C152.551 95.9 153.218 95.72 153.951 95.72V99.34H153.011C152.158 99.34 151.518 99.5267 151.091 99.9C150.664 100.26 150.451 100.9 150.451 101.82V107H147.031V95.84H150.451V97.7ZM89.3838 128.1V131H87.6438C86.4038 131 85.4372 130.7 84.7438 130.1C84.0505 129.487 83.7038 128.493 83.7038 127.12V122.68H82.3438V119.84H83.7038V117.12H87.1238V119.84H89.3638V122.68H87.1238V127.16C87.1238 127.493 87.2038 127.733 87.3638 127.88C87.5238 128.027 87.7905 128.1 88.1638 128.1H89.3838ZM94.7088 121.7C95.1088 121.087 95.6088 120.607 96.2088 120.26C96.8088 119.9 97.4755 119.72 98.2088 119.72V123.34H97.2688C96.4155 123.34 95.7755 123.527 95.3488 123.9C94.9222 124.26 94.7088 124.9 94.7088 125.82V131H91.2888V119.84H94.7088V121.7ZM101.564 118.68C100.964 118.68 100.47 118.507 100.084 118.16C99.7102 117.8 99.5235 117.36 99.5235 116.84C99.5235 116.307 99.7102 115.867 100.084 115.52C100.47 115.16 100.964 114.98 101.564 114.98C102.15 114.98 102.63 115.16 103.004 115.52C103.39 115.867 103.584 116.307 103.584 116.84C103.584 117.36 103.39 117.8 103.004 118.16C102.63 118.507 102.15 118.68 101.564 118.68ZM103.264 119.84V131H99.8435V119.84H103.264ZM109.162 121.42C109.495 120.9 109.955 120.48 110.542 120.16C111.129 119.84 111.815 119.68 112.602 119.68C113.522 119.68 114.355 119.913 115.102 120.38C115.849 120.847 116.435 121.513 116.862 122.38C117.302 123.247 117.522 124.253 117.522 125.4C117.522 126.547 117.302 127.56 116.862 128.44C116.435 129.307 115.849 129.98 115.102 130.46C114.355 130.927 113.522 131.16 112.602 131.16C111.829 131.16 111.142 131 110.542 130.68C109.955 130.36 109.495 129.947 109.162 129.44V136.32H105.742V119.84H109.162V121.42ZM114.042 125.4C114.042 124.547 113.802 123.88 113.322 123.4C112.855 122.907 112.275 122.66 111.582 122.66C110.902 122.66 110.322 122.907 109.842 123.4C109.375 123.893 109.142 124.567 109.142 125.42C109.142 126.273 109.375 126.947 109.842 127.44C110.322 127.933 110.902 128.18 111.582 128.18C112.262 128.18 112.842 127.933 113.322 127.44C113.802 126.933 114.042 126.253 114.042 125.4Z" fill="white"/>
</svg>
