<svg width="140" height="55" viewBox="0 0 140 55" fill="none" xmlns="http://www.w3.org/2000/svg">
<rect width="140" height="55" rx="27.5" fill="#FFF7D0"/>
<path d="M29.6343 21.388H33.2183V23.5H26.8983V12.268H29.6343V21.388ZM38.5873 23.628C37.7126 23.628 36.9233 23.4413 36.2193 23.068C35.5259 22.6947 34.9766 22.1613 34.5713 21.468C34.1766 20.7747 33.9793 19.964 33.9793 19.036C33.9793 18.1187 34.1819 17.3133 34.5872 16.62C34.9926 15.916 35.5473 15.3773 36.2513 15.004C36.9553 14.6307 37.7446 14.444 38.6193 14.444C39.4939 14.444 40.2833 14.6307 40.9873 15.004C41.6913 15.3773 42.2459 15.916 42.6513 16.62C43.0566 17.3133 43.2593 18.1187 43.2593 19.036C43.2593 19.9533 43.0513 20.764 42.6353 21.468C42.2299 22.1613 41.6699 22.6947 40.9553 23.068C40.2513 23.4413 39.4619 23.628 38.5873 23.628ZM38.5873 21.26C39.1099 21.26 39.5526 21.068 39.9153 20.684C40.2886 20.3 40.4753 19.7507 40.4753 19.036C40.4753 18.3213 40.2939 17.772 39.9313 17.388C39.5793 17.004 39.1419 16.812 38.6193 16.812C38.0859 16.812 37.6433 17.004 37.2913 17.388C36.9393 17.7613 36.7633 18.3107 36.7633 19.036C36.7633 19.7507 36.9339 20.3 37.2753 20.684C37.6273 21.068 38.0646 21.26 38.5873 21.26ZM44.1668 19.036C44.1668 18.108 44.3534 17.2973 44.7268 16.604C45.1108 15.9107 45.6388 15.3773 46.3108 15.004C46.9934 14.6307 47.7721 14.444 48.6468 14.444C49.7668 14.444 50.7001 14.7373 51.4468 15.324C52.2041 15.9107 52.7001 16.7373 52.9348 17.804H50.0228C49.7774 17.1213 49.3028 16.78 48.5988 16.78C48.0974 16.78 47.6974 16.9773 47.3988 17.372C47.1001 17.756 46.9508 18.3107 46.9508 19.036C46.9508 19.7613 47.1001 20.3213 47.3988 20.716C47.6974 21.1 48.0974 21.292 48.5988 21.292C49.3028 21.292 49.7774 20.9507 50.0228 20.268H52.9348C52.7001 21.3133 52.2041 22.1347 51.4468 22.732C50.6894 23.3293 49.7561 23.628 48.6468 23.628C47.7721 23.628 46.9934 23.4413 46.3108 23.068C45.6388 22.6947 45.1108 22.1613 44.7268 21.468C44.3534 20.7747 44.1668 19.964 44.1668 19.036ZM59.8543 23.5L57.1343 19.756V23.5H54.3983V11.66H57.1343V18.204L59.8383 14.572H63.2143L59.5023 19.052L63.2463 23.5H59.8543ZM75.1355 15.82C74.9328 15.4467 74.6395 15.164 74.2555 14.972C73.8822 14.7693 73.4395 14.668 72.9275 14.668C72.0422 14.668 71.3328 14.9613 70.7995 15.548C70.2662 16.124 69.9995 16.8973 69.9995 17.868C69.9995 18.9027 70.2768 19.7133 70.8315 20.3C71.3968 20.876 72.1702 21.164 73.1515 21.164C73.8235 21.164 74.3888 20.9933 74.8475 20.652C75.3168 20.3107 75.6582 19.82 75.8715 19.18H72.3995V17.164H78.3515V19.708C78.1488 20.3907 77.8022 21.0253 77.3115 21.612C76.8315 22.1987 76.2182 22.6733 75.4715 23.036C74.7248 23.3987 73.8822 23.58 72.9435 23.58C71.8342 23.58 70.8422 23.34 69.9675 22.86C69.1035 22.3693 68.4262 21.692 67.9355 20.828C67.4555 19.964 67.2155 18.9773 67.2155 17.868C67.2155 16.7587 67.4555 15.772 67.9355 14.908C68.4262 14.0333 69.1035 13.356 69.9675 12.876C70.8315 12.3853 71.8182 12.14 72.9275 12.14C74.2715 12.14 75.4022 12.4653 76.3195 13.116C77.2475 13.7667 77.8608 14.668 78.1595 15.82H75.1355ZM88.283 18.892C88.283 19.148 88.267 19.4147 88.235 19.692H82.043C82.0857 20.2467 82.2617 20.6733 82.571 20.972C82.891 21.26 83.2803 21.404 83.739 21.404C84.4217 21.404 84.8963 21.116 85.163 20.54H88.075C87.9257 21.1267 87.6537 21.6547 87.259 22.124C86.875 22.5933 86.3897 22.9613 85.803 23.228C85.2163 23.4947 84.5603 23.628 83.835 23.628C82.9603 23.628 82.1817 23.4413 81.499 23.068C80.8163 22.6947 80.283 22.1613 79.899 21.468C79.515 20.7747 79.323 19.964 79.323 19.036C79.323 18.108 79.5097 17.2973 79.883 16.604C80.267 15.9107 80.8003 15.3773 81.483 15.004C82.1657 14.6307 82.9497 14.444 83.835 14.444C84.699 14.444 85.467 14.6253 86.139 14.988C86.811 15.3507 87.3337 15.868 87.707 16.54C88.091 17.212 88.283 17.996 88.283 18.892ZM85.483 18.172C85.483 17.7027 85.323 17.3293 85.003 17.052C84.683 16.7747 84.283 16.636 83.803 16.636C83.3443 16.636 82.955 16.7693 82.635 17.036C82.3257 17.3027 82.1337 17.6813 82.059 18.172H85.483ZM95.1664 14.476C96.2117 14.476 97.0437 14.8173 97.6624 15.5C98.2917 16.172 98.6064 17.1 98.6064 18.284V23.5H95.8864V18.652C95.8864 18.0547 95.7317 17.5907 95.4224 17.26C95.113 16.9293 94.697 16.764 94.1744 16.764C93.6517 16.764 93.2357 16.9293 92.9264 17.26C92.617 17.5907 92.4624 18.0547 92.4624 18.652V23.5H89.7264V14.572H92.4624V15.756C92.7397 15.3613 93.113 15.052 93.5824 14.828C94.0517 14.5933 94.5797 14.476 95.1664 14.476ZM101.884 13.644C101.404 13.644 101.009 13.5053 100.7 13.228C100.401 12.94 100.252 12.588 100.252 12.172C100.252 11.7453 100.401 11.3933 100.7 11.116C101.009 10.828 101.404 10.684 101.884 10.684C102.353 10.684 102.737 10.828 103.036 11.116C103.345 11.3933 103.5 11.7453 103.5 12.172C103.5 12.588 103.345 12.94 103.036 13.228C102.737 13.5053 102.353 13.644 101.884 13.644ZM103.244 14.572V23.5H100.508V14.572H103.244ZM113.642 18.892C113.642 19.148 113.626 19.4147 113.594 19.692H107.402C107.445 20.2467 107.621 20.6733 107.93 20.972C108.25 21.26 108.64 21.404 109.098 21.404C109.781 21.404 110.256 21.116 110.522 20.54H113.434C113.285 21.1267 113.013 21.6547 112.618 22.124C112.234 22.5933 111.749 22.9613 111.162 23.228C110.576 23.4947 109.92 23.628 109.194 23.628C108.32 23.628 107.541 23.4413 106.858 23.068C106.176 22.6947 105.642 22.1613 105.258 21.468C104.874 20.7747 104.682 19.964 104.682 19.036C104.682 18.108 104.869 17.2973 105.242 16.604C105.626 15.9107 106.16 15.3773 106.842 15.004C107.525 14.6307 108.309 14.444 109.194 14.444C110.058 14.444 110.826 14.6253 111.498 14.988C112.17 15.3507 112.693 15.868 113.066 16.54C113.45 17.212 113.642 17.996 113.642 18.892ZM110.842 18.172C110.842 17.7027 110.682 17.3293 110.362 17.052C110.042 16.7747 109.642 16.636 109.162 16.636C108.704 16.636 108.314 16.7693 107.994 17.036C107.685 17.3027 107.493 17.6813 107.418 18.172H110.842ZM29.7923 36.844H28.3203V43.5H25.5843V36.844H24.5923V34.572H25.5843V34.316C25.5843 33.2173 25.899 32.3853 26.5283 31.82C27.1576 31.244 28.0803 30.956 29.2963 30.956C29.499 30.956 29.6483 30.9613 29.7443 30.972V33.292C29.2216 33.26 28.8536 33.3347 28.6403 33.516C28.427 33.6973 28.3203 34.0227 28.3203 34.492V34.572H29.7923V36.844ZM35.1419 43.628C34.2673 43.628 33.4779 43.4413 32.7739 43.068C32.0806 42.6947 31.5313 42.1613 31.1259 41.468C30.7313 40.7747 30.5339 39.964 30.5339 39.036C30.5339 38.1187 30.7366 37.3133 31.1419 36.62C31.5473 35.916 32.1019 35.3773 32.8059 35.004C33.5099 34.6307 34.2993 34.444 35.1739 34.444C36.0486 34.444 36.8379 34.6307 37.5419 35.004C38.2459 35.3773 38.8006 35.916 39.2059 36.62C39.6113 37.3133 39.8139 38.1187 39.8139 39.036C39.8139 39.9533 39.6059 40.764 39.1899 41.468C38.7846 42.1613 38.2246 42.6947 37.5099 43.068C36.8059 43.4413 36.0166 43.628 35.1419 43.628ZM35.1419 41.26C35.6646 41.26 36.1073 41.068 36.4699 40.684C36.8433 40.3 37.0299 39.7507 37.0299 39.036C37.0299 38.3213 36.8486 37.772 36.4859 37.388C36.1339 37.004 35.6966 36.812 35.1739 36.812C34.6406 36.812 34.1979 37.004 33.8459 37.388C33.4939 37.7613 33.3179 38.3107 33.3179 39.036C33.3179 39.7507 33.4886 40.3 33.8299 40.684C34.1819 41.068 34.6193 41.26 35.1419 41.26ZM44.0014 36.06C44.3214 35.5693 44.7214 35.1853 45.2014 34.908C45.6814 34.62 46.2148 34.476 46.8014 34.476V37.372H46.0494C45.3668 37.372 44.8548 37.5213 44.5134 37.82C44.1721 38.108 44.0014 38.62 44.0014 39.356V43.5H41.2654V34.572H44.0014V36.06ZM59.9158 38.892C59.9158 39.148 59.8998 39.4147 59.8678 39.692H53.6758C53.7185 40.2467 53.8945 40.6733 54.2038 40.972C54.5238 41.26 54.9131 41.404 55.3718 41.404C56.0545 41.404 56.5291 41.116 56.7958 40.54H59.7078C59.5585 41.1267 59.2865 41.6547 58.8918 42.124C58.5078 42.5933 58.0225 42.9613 57.4358 43.228C56.8491 43.4947 56.1931 43.628 55.4678 43.628C54.5931 43.628 53.8145 43.4413 53.1318 43.068C52.4491 42.6947 51.9158 42.1613 51.5318 41.468C51.1478 40.7747 50.9558 39.964 50.9558 39.036C50.9558 38.108 51.1425 37.2973 51.5158 36.604C51.8998 35.9107 52.4331 35.3773 53.1158 35.004C53.7985 34.6307 54.5825 34.444 55.4678 34.444C56.3318 34.444 57.0998 34.6253 57.7718 34.988C58.4438 35.3507 58.9665 35.868 59.3398 36.54C59.7238 37.212 59.9158 37.996 59.9158 38.892ZM57.1158 38.172C57.1158 37.7027 56.9558 37.3293 56.6358 37.052C56.3158 36.7747 55.9158 36.636 55.4358 36.636C54.9771 36.636 54.5878 36.7693 54.2678 37.036C53.9585 37.3027 53.7665 37.6813 53.6918 38.172H57.1158ZM66.3352 41.18V43.5H64.9432C63.9512 43.5 63.1779 43.26 62.6232 42.78C62.0685 42.2893 61.7912 41.4947 61.7912 40.396V36.844H60.7032V34.572H61.7912V32.396H64.5272V34.572H66.3192V36.844H64.5272V40.428C64.5272 40.6947 64.5912 40.8867 64.7192 41.004C64.8472 41.1213 65.0605 41.18 65.3592 41.18H66.3352ZM76.2752 38.892C76.2752 39.148 76.2592 39.4147 76.2272 39.692H70.0352C70.0779 40.2467 70.2539 40.6733 70.5632 40.972C70.8832 41.26 71.2725 41.404 71.7312 41.404C72.4139 41.404 72.8885 41.116 73.1552 40.54H76.0672C75.9179 41.1267 75.6459 41.6547 75.2512 42.124C74.8672 42.5933 74.3819 42.9613 73.7952 43.228C73.2085 43.4947 72.5525 43.628 71.8272 43.628C70.9525 43.628 70.1739 43.4413 69.4912 43.068C68.8085 42.6947 68.2752 42.1613 67.8912 41.468C67.5072 40.7747 67.3152 39.964 67.3152 39.036C67.3152 38.108 67.5019 37.2973 67.8752 36.604C68.2592 35.9107 68.7925 35.3773 69.4752 35.004C70.1579 34.6307 70.9419 34.444 71.8272 34.444C72.6912 34.444 73.4592 34.6253 74.1312 34.988C74.8032 35.3507 75.3259 35.868 75.6992 36.54C76.0832 37.212 76.2752 37.996 76.2752 38.892ZM73.4752 38.172C73.4752 37.7027 73.3152 37.3293 72.9952 37.052C72.6752 36.7747 72.2752 36.636 71.7952 36.636C71.3365 36.636 70.9472 36.7693 70.6272 37.036C70.3179 37.3027 70.1259 37.6813 70.0512 38.172H73.4752ZM80.4546 36.06C80.7746 35.5693 81.1746 35.1853 81.6546 34.908C82.1346 34.62 82.6679 34.476 83.2546 34.476V37.372H82.5026C81.8199 37.372 81.3079 37.5213 80.9666 37.82C80.6252 38.108 80.4546 38.62 80.4546 39.356V43.5H77.7186V34.572H80.4546V36.06ZM90.0023 34.476C91.0476 34.476 91.8796 34.8173 92.4983 35.5C93.1276 36.172 93.4423 37.1 93.4423 38.284V43.5H90.7223V38.652C90.7223 38.0547 90.5676 37.5907 90.2583 37.26C89.949 36.9293 89.533 36.764 89.0103 36.764C88.4876 36.764 88.0716 36.9293 87.7623 37.26C87.453 37.5907 87.2983 38.0547 87.2983 38.652V43.5H84.5623V34.572H87.2983V35.756C87.5756 35.3613 87.949 35.052 88.4183 34.828C88.8876 34.5933 89.4156 34.476 90.0023 34.476ZM96.7196 33.644C96.2396 33.644 95.8449 33.5053 95.5356 33.228C95.2369 32.94 95.0876 32.588 95.0876 32.172C95.0876 31.7453 95.2369 31.3933 95.5356 31.116C95.8449 30.828 96.2396 30.684 96.7196 30.684C97.1889 30.684 97.5729 30.828 97.8716 31.116C98.1809 31.3933 98.3356 31.7453 98.3356 32.172C98.3356 32.588 98.1809 32.94 97.8716 33.228C97.5729 33.5053 97.1889 33.644 96.7196 33.644ZM98.0796 34.572V43.5H95.3436V34.572H98.0796ZM105.038 41.18V43.5H103.646C102.654 43.5 101.881 43.26 101.326 42.78C100.772 42.2893 100.494 41.4947 100.494 40.396V36.844H99.4063V34.572H100.494V32.396H103.23V34.572H105.022V36.844H103.23V40.428C103.23 40.6947 103.294 40.8867 103.422 41.004C103.55 41.1213 103.764 41.18 104.062 41.18H105.038ZM115.682 34.572L110.082 47.74H107.138L109.186 43.196L105.554 34.572H108.61L110.674 40.156L112.722 34.572H115.682Z" fill="#FF0000"/>
</svg>
