<svg width="140" height="55" viewBox="0 0 140 55" fill="none" xmlns="http://www.w3.org/2000/svg">
<rect width="140" height="55" rx="27.5" fill="#FFF7D0"/>
<path d="M35.2493 22.268V24.46H30.6733V26.828H34.0973V28.956H30.6733V33.5H27.9373V22.268H35.2493ZM39.4233 26.06C39.7433 25.5693 40.1433 25.1853 40.6233 24.908C41.1033 24.62 41.6366 24.476 42.2233 24.476V27.372H41.4713C40.7886 27.372 40.2766 27.5213 39.9353 27.82C39.594 28.108 39.4233 28.62 39.4233 29.356V33.5H36.6873V24.572H39.4233V26.06ZM51.9471 28.892C51.9471 29.148 51.9311 29.4147 51.8991 29.692H45.7071C45.7497 30.2467 45.9257 30.6733 46.2351 30.972C46.5551 31.26 46.9444 31.404 47.4031 31.404C48.0857 31.404 48.5604 31.116 48.8271 30.54H51.7391C51.5897 31.1267 51.3177 31.6547 50.9231 32.124C50.5391 32.5933 50.0537 32.9613 49.4671 33.228C48.8804 33.4947 48.2244 33.628 47.4991 33.628C46.6244 33.628 45.8457 33.4413 45.1631 33.068C44.4804 32.6947 43.9471 32.1613 43.5631 31.468C43.1791 30.7747 42.9871 29.964 42.9871 29.036C42.9871 28.108 43.1737 27.2973 43.5471 26.604C43.9311 25.9107 44.4644 25.3773 45.1471 25.004C45.8297 24.6307 46.6137 24.444 47.4991 24.444C48.3631 24.444 49.1311 24.6253 49.8031 24.988C50.4751 25.3507 50.9977 25.868 51.3711 26.54C51.7551 27.212 51.9471 27.996 51.9471 28.892ZM49.1471 28.172C49.1471 27.7027 48.9871 27.3293 48.6671 27.052C48.3471 26.7747 47.9471 26.636 47.4671 26.636C47.0084 26.636 46.6191 26.7693 46.2991 27.036C45.9897 27.3027 45.7977 27.6813 45.7231 28.172H49.1471ZM61.8064 28.892C61.8064 29.148 61.7904 29.4147 61.7584 29.692H55.5664C55.6091 30.2467 55.7851 30.6733 56.0944 30.972C56.4144 31.26 56.8038 31.404 57.2624 31.404C57.9451 31.404 58.4198 31.116 58.6864 30.54H61.5984C61.4491 31.1267 61.1771 31.6547 60.7824 32.124C60.3984 32.5933 59.9131 32.9613 59.3264 33.228C58.7398 33.4947 58.0838 33.628 57.3584 33.628C56.4838 33.628 55.7051 33.4413 55.0224 33.068C54.3398 32.6947 53.8064 32.1613 53.4224 31.468C53.0384 30.7747 52.8464 29.964 52.8464 29.036C52.8464 28.108 53.0331 27.2973 53.4064 26.604C53.7904 25.9107 54.3238 25.3773 55.0064 25.004C55.6891 24.6307 56.4731 24.444 57.3584 24.444C58.2224 24.444 58.9904 24.6253 59.6624 24.988C60.3344 25.3507 60.8571 25.868 61.2304 26.54C61.6144 27.212 61.8064 27.996 61.8064 28.892ZM59.0064 28.172C59.0064 27.7027 58.8464 27.3293 58.5264 27.052C58.2064 26.7747 57.8064 26.636 57.3264 26.636C56.8678 26.636 56.4784 26.7693 56.1584 27.036C55.8491 27.3027 55.6571 27.6813 55.5824 28.172H59.0064ZM74.0964 25.82C73.8938 25.4467 73.6004 25.164 73.2164 24.972C72.8431 24.7693 72.4004 24.668 71.8884 24.668C71.0031 24.668 70.2938 24.9613 69.7604 25.548C69.2271 26.124 68.9604 26.8973 68.9604 27.868C68.9604 28.9027 69.2378 29.7133 69.7924 30.3C70.3578 30.876 71.1311 31.164 72.1124 31.164C72.7844 31.164 73.3498 30.9933 73.8084 30.652C74.2778 30.3107 74.6191 29.82 74.8324 29.18H71.3604V27.164H77.3124V29.708C77.1098 30.3907 76.7631 31.0253 76.2724 31.612C75.7924 32.1987 75.1791 32.6733 74.4324 33.036C73.6858 33.3987 72.8431 33.58 71.9044 33.58C70.7951 33.58 69.8031 33.34 68.9284 32.86C68.0644 32.3693 67.3871 31.692 66.8964 30.828C66.4164 29.964 66.1764 28.9773 66.1764 27.868C66.1764 26.7587 66.4164 25.772 66.8964 24.908C67.3871 24.0333 68.0644 23.356 68.9284 22.876C69.7924 22.3853 70.7791 22.14 71.8884 22.14C73.2324 22.14 74.3631 22.4653 75.2804 23.116C76.2084 23.7667 76.8218 24.668 77.1204 25.82H74.0964ZM87.2439 28.892C87.2439 29.148 87.2279 29.4147 87.1959 29.692H81.0039C81.0466 30.2467 81.2226 30.6733 81.5319 30.972C81.8519 31.26 82.2413 31.404 82.6999 31.404C83.3826 31.404 83.8573 31.116 84.1239 30.54H87.0359C86.8866 31.1267 86.6146 31.6547 86.2199 32.124C85.8359 32.5933 85.3506 32.9613 84.7639 33.228C84.1773 33.4947 83.5213 33.628 82.7959 33.628C81.9213 33.628 81.1426 33.4413 80.4599 33.068C79.7773 32.6947 79.2439 32.1613 78.8599 31.468C78.4759 30.7747 78.2839 29.964 78.2839 29.036C78.2839 28.108 78.4706 27.2973 78.8439 26.604C79.2279 25.9107 79.7613 25.3773 80.4439 25.004C81.1266 24.6307 81.9106 24.444 82.7959 24.444C83.6599 24.444 84.4279 24.6253 85.0999 24.988C85.7719 25.3507 86.2946 25.868 86.6679 26.54C87.0519 27.212 87.2439 27.996 87.2439 28.892ZM84.4439 28.172C84.4439 27.7027 84.2839 27.3293 83.9639 27.052C83.6439 26.7747 83.2439 26.636 82.7639 26.636C82.3053 26.636 81.9159 26.7693 81.5959 27.036C81.2866 27.3027 81.0946 27.6813 81.0199 28.172H84.4439ZM94.1273 24.476C95.1726 24.476 96.0046 24.8173 96.6233 25.5C97.2526 26.172 97.5673 27.1 97.5673 28.284V33.5H94.8473V28.652C94.8473 28.0547 94.6926 27.5907 94.3833 27.26C94.074 26.9293 93.658 26.764 93.1353 26.764C92.6126 26.764 92.1966 26.9293 91.8873 27.26C91.578 27.5907 91.4233 28.0547 91.4233 28.652V33.5H88.6873V24.572H91.4233V25.756C91.7006 25.3613 92.074 25.052 92.5433 24.828C93.0126 24.5933 93.5406 24.476 94.1273 24.476ZM100.845 23.644C100.365 23.644 99.9699 23.5053 99.6606 23.228C99.3619 22.94 99.2126 22.588 99.2126 22.172C99.2126 21.7453 99.3619 21.3933 99.6606 21.116C99.9699 20.828 100.365 20.684 100.845 20.684C101.314 20.684 101.698 20.828 101.997 21.116C102.306 21.3933 102.461 21.7453 102.461 22.172C102.461 22.588 102.306 22.94 101.997 23.228C101.698 23.5053 101.314 23.644 100.845 23.644ZM102.205 24.572V33.5H99.4686V24.572H102.205ZM112.603 28.892C112.603 29.148 112.587 29.4147 112.555 29.692H106.363C106.406 30.2467 106.582 30.6733 106.891 30.972C107.211 31.26 107.601 31.404 108.059 31.404C108.742 31.404 109.217 31.116 109.483 30.54H112.395C112.246 31.1267 111.974 31.6547 111.579 32.124C111.195 32.5933 110.71 32.9613 110.123 33.228C109.537 33.4947 108.881 33.628 108.155 33.628C107.281 33.628 106.502 33.4413 105.819 33.068C105.137 32.6947 104.603 32.1613 104.219 31.468C103.835 30.7747 103.643 29.964 103.643 29.036C103.643 28.108 103.83 27.2973 104.203 26.604C104.587 25.9107 105.121 25.3773 105.803 25.004C106.486 24.6307 107.27 24.444 108.155 24.444C109.019 24.444 109.787 24.6253 110.459 24.988C111.131 25.3507 111.654 25.868 112.027 26.54C112.411 27.212 112.603 27.996 112.603 28.892ZM109.803 28.172C109.803 27.7027 109.643 27.3293 109.323 27.052C109.003 26.7747 108.603 26.636 108.123 26.636C107.665 26.636 107.275 26.7693 106.955 27.036C106.646 27.3027 106.454 27.6813 106.379 28.172H109.803Z" fill="#FF0000"/>
</svg>
