<svg width="343" height="101" viewBox="0 0 343 101" fill="none" xmlns="http://www.w3.org/2000/svg">
<path d="M3.71711 4.3V7.8H8.41711V10.02H3.71711V13.72H9.01711V16H0.917109V2.02H9.01711V4.3H3.71711ZM16.1816 13.42L18.9816 4.92H21.9616L17.8616 16H14.4616L10.3816 4.92H13.3816L16.1816 13.42ZM33.8343 10.22C33.8343 10.62 33.8076 10.98 33.7543 11.3H25.6543C25.721 12.1 26.001 12.7267 26.4943 13.18C26.9876 13.6333 27.5943 13.86 28.3143 13.86C29.3543 13.86 30.0943 13.4133 30.5343 12.52H33.5543C33.2343 13.5867 32.621 14.4667 31.7143 15.16C30.8076 15.84 29.6943 16.18 28.3743 16.18C27.3076 16.18 26.3476 15.9467 25.4943 15.48C24.6543 15 23.9943 14.3267 23.5143 13.46C23.0476 12.5933 22.8143 11.5933 22.8143 10.46C22.8143 9.31333 23.0476 8.30667 23.5143 7.44C23.981 6.57333 24.6343 5.90667 25.4743 5.44C26.3143 4.97333 27.281 4.74 28.3743 4.74C29.4276 4.74 30.3676 4.96667 31.1943 5.42C32.0343 5.87333 32.681 6.52 33.1343 7.36C33.601 8.18667 33.8343 9.14 33.8343 10.22ZM30.9343 9.42C30.921 8.7 30.661 8.12667 30.1543 7.7C29.6476 7.26 29.0276 7.04 28.2943 7.04C27.601 7.04 27.0143 7.25333 26.5343 7.68C26.0676 8.09333 25.781 8.67333 25.6743 9.42H30.9343ZM38.678 6.64C39.038 6.05333 39.5047 5.59333 40.078 5.26C40.6647 4.92667 41.3314 4.76 42.078 4.76V7.7H41.338C40.458 7.7 39.7914 7.90667 39.338 8.32C38.898 8.73333 38.678 9.45333 38.678 10.48V16H35.878V4.92H38.678V6.64ZM54.564 4.92L47.704 21.24H44.724L47.124 15.72L42.684 4.92H45.824L48.684 12.66L51.584 4.92H54.564ZM55.3534 10.42C55.3534 9.3 55.5734 8.30667 56.0134 7.44C56.4667 6.57333 57.08 5.90667 57.8534 5.44C58.6267 4.97333 59.4867 4.74 60.4334 4.74C61.1534 4.74 61.84 4.9 62.4934 5.22C63.1467 5.52667 63.6667 5.94 64.0534 6.46V1.2H66.8934V16H64.0534V14.36C63.7067 14.9067 63.22 15.3467 62.5934 15.68C61.9667 16.0133 61.24 16.18 60.4134 16.18C59.48 16.18 58.6267 15.94 57.8534 15.46C57.08 14.98 56.4667 14.3067 56.0134 13.44C55.5734 12.56 55.3534 11.5533 55.3534 10.42ZM64.0734 10.46C64.0734 9.78 63.94 9.2 63.6734 8.72C63.4067 8.22667 63.0467 7.85333 62.5934 7.6C62.14 7.33333 61.6534 7.2 61.1334 7.2C60.6134 7.2 60.1334 7.32667 59.6934 7.58C59.2534 7.83333 58.8934 8.20667 58.6134 8.7C58.3467 9.18 58.2134 9.75333 58.2134 10.42C58.2134 11.0867 58.3467 11.6733 58.6134 12.18C58.8934 12.6733 59.2534 13.0533 59.6934 13.32C60.1467 13.5867 60.6267 13.72 61.1334 13.72C61.6534 13.72 62.14 13.5933 62.5934 13.34C63.0467 13.0733 63.4067 12.7 63.6734 12.22C63.94 11.7267 64.0734 11.14 64.0734 10.46ZM68.908 10.42C68.908 9.3 69.128 8.30667 69.568 7.44C70.0214 6.57333 70.628 5.90667 71.388 5.44C72.1614 4.97333 73.0214 4.74 73.968 4.74C74.7947 4.74 75.5147 4.90667 76.128 5.24C76.7547 5.57333 77.2547 5.99333 77.628 6.5V4.92H80.448V16H77.628V14.38C77.268 14.9 76.768 15.3333 76.128 15.68C75.5014 16.0133 74.7747 16.18 73.948 16.18C73.0147 16.18 72.1614 15.94 71.388 15.46C70.628 14.98 70.0214 14.3067 69.568 13.44C69.128 12.56 68.908 11.5533 68.908 10.42ZM77.628 10.46C77.628 9.78 77.4947 9.2 77.228 8.72C76.9614 8.22667 76.6014 7.85333 76.148 7.6C75.6947 7.33333 75.208 7.2 74.688 7.2C74.168 7.2 73.688 7.32667 73.248 7.58C72.808 7.83333 72.448 8.20667 72.168 8.7C71.9014 9.18 71.768 9.75333 71.768 10.42C71.768 11.0867 71.9014 11.6733 72.168 12.18C72.448 12.6733 72.808 13.0533 73.248 13.32C73.7014 13.5867 74.1814 13.72 74.688 13.72C75.208 13.72 75.6947 13.5933 76.148 13.34C76.6014 13.0733 76.9614 12.7 77.228 12.22C77.4947 11.7267 77.628 11.14 77.628 10.46ZM93.7827 4.92L86.9227 21.24H83.9427L86.3427 15.72L81.9027 4.92H85.0427L87.9027 12.66L90.8027 4.92H93.7827ZM111.158 2.04L106.438 11.14V16H103.638V11.14L98.8977 2.04H102.058L105.058 8.42L108.038 2.04H111.158ZM117.693 16.18C116.626 16.18 115.666 15.9467 114.813 15.48C113.959 15 113.286 14.3267 112.793 13.46C112.313 12.5933 112.073 11.5933 112.073 10.46C112.073 9.32667 112.319 8.32667 112.813 7.46C113.319 6.59333 114.006 5.92667 114.873 5.46C115.739 4.98 116.706 4.74 117.773 4.74C118.839 4.74 119.806 4.98 120.673 5.46C121.539 5.92667 122.219 6.59333 122.713 7.46C123.219 8.32667 123.473 9.32667 123.473 10.46C123.473 11.5933 123.213 12.5933 122.693 13.46C122.186 14.3267 121.493 15 120.613 15.48C119.746 15.9467 118.773 16.18 117.693 16.18ZM117.693 13.74C118.199 13.74 118.673 13.62 119.113 13.38C119.566 13.1267 119.926 12.7533 120.193 12.26C120.459 11.7667 120.593 11.1667 120.593 10.46C120.593 9.40667 120.313 8.6 119.753 8.04C119.206 7.46667 118.533 7.18 117.733 7.18C116.933 7.18 116.259 7.46667 115.713 8.04C115.179 8.6 114.913 9.40667 114.913 10.46C114.913 11.5133 115.173 12.3267 115.693 12.9C116.226 13.46 116.893 13.74 117.693 13.74ZM135.986 4.92V16H133.166V14.6C132.806 15.08 132.333 15.46 131.746 15.74C131.173 16.0067 130.546 16.14 129.866 16.14C129 16.14 128.233 15.96 127.566 15.6C126.9 15.2267 126.373 14.6867 125.986 13.98C125.613 13.26 125.426 12.4067 125.426 11.42V4.92H128.226V11.02C128.226 11.9 128.446 12.58 128.886 13.06C129.326 13.5267 129.926 13.76 130.686 13.76C131.46 13.76 132.066 13.5267 132.506 13.06C132.946 12.58 133.166 11.9 133.166 11.02V4.92H135.986ZM147.855 4.74C148.681 4.74 149.408 4.90667 150.035 5.24C150.661 5.56 151.155 5.98 151.515 6.5V4.92H154.335V16.08C154.335 17.1067 154.128 18.02 153.715 18.82C153.301 19.6333 152.681 20.2733 151.855 20.74C151.028 21.22 150.028 21.46 148.855 21.46C147.281 21.46 145.988 21.0933 144.975 20.36C143.975 19.6267 143.408 18.6267 143.275 17.36H146.055C146.201 17.8667 146.515 18.2667 146.995 18.56C147.488 18.8667 148.081 19.02 148.775 19.02C149.588 19.02 150.248 18.7733 150.755 18.28C151.261 17.8 151.515 17.0667 151.515 16.08V14.36C151.155 14.88 150.655 15.3133 150.015 15.66C149.388 16.0067 148.668 16.18 147.855 16.18C146.921 16.18 146.068 15.94 145.295 15.46C144.521 14.98 143.908 14.3067 143.455 13.44C143.015 12.56 142.795 11.5533 142.795 10.42C142.795 9.3 143.015 8.30667 143.455 7.44C143.908 6.57333 144.515 5.90667 145.275 5.44C146.048 4.97333 146.908 4.74 147.855 4.74ZM151.515 10.46C151.515 9.78 151.381 9.2 151.115 8.72C150.848 8.22667 150.488 7.85333 150.035 7.6C149.581 7.33333 149.095 7.2 148.575 7.2C148.055 7.2 147.575 7.32667 147.135 7.58C146.695 7.83333 146.335 8.20667 146.055 8.7C145.788 9.18 145.655 9.75333 145.655 10.42C145.655 11.0867 145.788 11.6733 146.055 12.18C146.335 12.6733 146.695 13.0533 147.135 13.32C147.588 13.5867 148.068 13.72 148.575 13.72C149.095 13.72 149.581 13.5933 150.035 13.34C150.488 13.0733 150.848 12.7 151.115 12.22C151.381 11.7267 151.515 11.14 151.515 10.46ZM161.989 16.18C160.923 16.18 159.963 15.9467 159.109 15.48C158.256 15 157.583 14.3267 157.089 13.46C156.609 12.5933 156.369 11.5933 156.369 10.46C156.369 9.32667 156.616 8.32667 157.109 7.46C157.616 6.59333 158.303 5.92667 159.169 5.46C160.036 4.98 161.003 4.74 162.069 4.74C163.136 4.74 164.103 4.98 164.969 5.46C165.836 5.92667 166.516 6.59333 167.009 7.46C167.516 8.32667 167.769 9.32667 167.769 10.46C167.769 11.5933 167.509 12.5933 166.989 13.46C166.483 14.3267 165.789 15 164.909 15.48C164.043 15.9467 163.069 16.18 161.989 16.18ZM161.989 13.74C162.496 13.74 162.969 13.62 163.409 13.38C163.863 13.1267 164.223 12.7533 164.489 12.26C164.756 11.7667 164.889 11.1667 164.889 10.46C164.889 9.40667 164.609 8.6 164.049 8.04C163.503 7.46667 162.829 7.18 162.029 7.18C161.229 7.18 160.556 7.46667 160.009 8.04C159.476 8.6 159.209 9.40667 159.209 10.46C159.209 11.5133 159.469 12.3267 159.989 12.9C160.523 13.46 161.189 13.74 161.989 13.74ZM177.849 7.22V12.58C177.849 12.9533 177.936 13.2267 178.109 13.4C178.296 13.56 178.602 13.64 179.029 13.64H180.329V16H178.569C176.209 16 175.029 14.8533 175.029 12.56V7.22H173.709V4.92H175.029V2.18H177.849V4.92H180.329V7.22H177.849ZM187.263 16.18C186.196 16.18 185.236 15.9467 184.383 15.48C183.53 15 182.856 14.3267 182.363 13.46C181.883 12.5933 181.643 11.5933 181.643 10.46C181.643 9.32667 181.89 8.32667 182.383 7.46C182.89 6.59333 183.576 5.92667 184.443 5.46C185.31 4.98 186.276 4.74 187.343 4.74C188.41 4.74 189.376 4.98 190.243 5.46C191.11 5.92667 191.79 6.59333 192.283 7.46C192.79 8.32667 193.043 9.32667 193.043 10.46C193.043 11.5933 192.783 12.5933 192.263 13.46C191.756 14.3267 191.063 15 190.183 15.48C189.316 15.9467 188.343 16.18 187.263 16.18ZM187.263 13.74C187.77 13.74 188.243 13.62 188.683 13.38C189.136 13.1267 189.496 12.7533 189.763 12.26C190.03 11.7667 190.163 11.1667 190.163 10.46C190.163 9.40667 189.883 8.6 189.323 8.04C188.776 7.46667 188.103 7.18 187.303 7.18C186.503 7.18 185.83 7.46667 185.283 8.04C184.75 8.6 184.483 9.40667 184.483 10.46C184.483 11.5133 184.743 12.3267 185.263 12.9C185.796 13.46 186.463 13.74 187.263 13.74ZM203.122 7.22V12.58C203.122 12.9533 203.209 13.2267 203.382 13.4C203.569 13.56 203.876 13.64 204.302 13.64H205.602V16H203.842C201.482 16 200.302 14.8533 200.302 12.56V7.22H198.982V4.92H200.302V2.18H203.122V4.92H205.602V7.22H203.122ZM213.856 4.76C214.696 4.76 215.443 4.94667 216.096 5.32C216.75 5.68 217.256 6.22 217.616 6.94C217.99 7.64667 218.176 8.5 218.176 9.5V16H215.376V9.88C215.376 9 215.156 8.32667 214.716 7.86C214.276 7.38 213.676 7.14 212.916 7.14C212.143 7.14 211.53 7.38 211.076 7.86C210.636 8.32667 210.416 9 210.416 9.88V16H207.616V1.2H210.416V6.3C210.776 5.82 211.256 5.44667 211.856 5.18C212.456 4.9 213.123 4.76 213.856 4.76ZM231.139 10.22C231.139 10.62 231.112 10.98 231.059 11.3H222.959C223.026 12.1 223.306 12.7267 223.799 13.18C224.292 13.6333 224.899 13.86 225.619 13.86C226.659 13.86 227.399 13.4133 227.839 12.52H230.859C230.539 13.5867 229.926 14.4667 229.019 15.16C228.112 15.84 226.999 16.18 225.679 16.18C224.612 16.18 223.652 15.9467 222.799 15.48C221.959 15 221.299 14.3267 220.819 13.46C220.352 12.5933 220.119 11.5933 220.119 10.46C220.119 9.31333 220.352 8.30667 220.819 7.44C221.286 6.57333 221.939 5.90667 222.779 5.44C223.619 4.97333 224.586 4.74 225.679 4.74C226.732 4.74 227.672 4.96667 228.499 5.42C229.339 5.87333 229.986 6.52 230.439 7.36C230.906 8.18667 231.139 9.14 231.139 10.22ZM228.239 9.42C228.226 8.7 227.966 8.12667 227.459 7.7C226.952 7.26 226.332 7.04 225.599 7.04C224.906 7.04 224.319 7.25333 223.839 7.68C223.372 8.09333 223.086 8.67333 222.979 9.42H228.239ZM242.288 4.74C243.115 4.74 243.842 4.90667 244.468 5.24C245.095 5.56 245.588 5.98 245.948 6.5V4.92H248.768V16.08C248.768 17.1067 248.562 18.02 248.148 18.82C247.735 19.6333 247.115 20.2733 246.288 20.74C245.462 21.22 244.462 21.46 243.288 21.46C241.715 21.46 240.422 21.0933 239.408 20.36C238.408 19.6267 237.842 18.6267 237.708 17.36H240.488C240.635 17.8667 240.948 18.2667 241.428 18.56C241.922 18.8667 242.515 19.02 243.208 19.02C244.022 19.02 244.682 18.7733 245.188 18.28C245.695 17.8 245.948 17.0667 245.948 16.08V14.36C245.588 14.88 245.088 15.3133 244.448 15.66C243.822 16.0067 243.102 16.18 242.288 16.18C241.355 16.18 240.502 15.94 239.728 15.46C238.955 14.98 238.342 14.3067 237.888 13.44C237.448 12.56 237.228 11.5533 237.228 10.42C237.228 9.3 237.448 8.30667 237.888 7.44C238.342 6.57333 238.948 5.90667 239.708 5.44C240.482 4.97333 241.342 4.74 242.288 4.74ZM245.948 10.46C245.948 9.78 245.815 9.2 245.548 8.72C245.282 8.22667 244.922 7.85333 244.468 7.6C244.015 7.33333 243.528 7.2 243.008 7.2C242.488 7.2 242.008 7.32667 241.568 7.58C241.128 7.83333 240.768 8.20667 240.488 8.7C240.222 9.18 240.088 9.75333 240.088 10.42C240.088 11.0867 240.222 11.6733 240.488 12.18C240.768 12.6733 241.128 13.0533 241.568 13.32C242.022 13.5867 242.502 13.72 243.008 13.72C243.528 13.72 244.015 13.5933 244.468 13.34C244.922 13.0733 245.282 12.7 245.548 12.22C245.815 11.7267 245.948 11.14 245.948 10.46ZM254.303 6.64C254.663 6.05333 255.13 5.59333 255.703 5.26C256.29 4.92667 256.956 4.76 257.703 4.76V7.7H256.963C256.083 7.7 255.416 7.90667 254.963 8.32C254.523 8.73333 254.303 9.45333 254.303 10.48V16H251.503V4.92H254.303V6.64ZM264.509 16.18C263.442 16.18 262.482 15.9467 261.629 15.48C260.776 15 260.102 14.3267 259.609 13.46C259.129 12.5933 258.889 11.5933 258.889 10.46C258.889 9.32667 259.136 8.32667 259.629 7.46C260.136 6.59333 260.822 5.92667 261.689 5.46C262.556 4.98 263.522 4.74 264.589 4.74C265.656 4.74 266.622 4.98 267.489 5.46C268.356 5.92667 269.036 6.59333 269.529 7.46C270.036 8.32667 270.289 9.32667 270.289 10.46C270.289 11.5933 270.029 12.5933 269.509 13.46C269.002 14.3267 268.309 15 267.429 15.48C266.562 15.9467 265.589 16.18 264.509 16.18ZM264.509 13.74C265.016 13.74 265.489 13.62 265.929 13.38C266.382 13.1267 266.742 12.7533 267.009 12.26C267.276 11.7667 267.409 11.1667 267.409 10.46C267.409 9.40667 267.129 8.6 266.569 8.04C266.022 7.46667 265.349 7.18 264.549 7.18C263.749 7.18 263.076 7.46667 262.529 8.04C261.996 8.6 261.729 9.40667 261.729 10.46C261.729 11.5133 261.989 12.3267 262.509 12.9C263.042 13.46 263.709 13.74 264.509 13.74ZM282.803 4.92V16H279.983V14.6C279.623 15.08 279.15 15.46 278.563 15.74C277.99 16.0067 277.363 16.14 276.683 16.14C275.816 16.14 275.05 15.96 274.383 15.6C273.716 15.2267 273.19 14.6867 272.803 13.98C272.43 13.26 272.243 12.4067 272.243 11.42V4.92H275.043V11.02C275.043 11.9 275.263 12.58 275.703 13.06C276.143 13.5267 276.743 13.76 277.503 13.76C278.276 13.76 278.883 13.5267 279.323 13.06C279.763 12.58 279.983 11.9 279.983 11.02V4.92H282.803ZM291.706 4.76C293.026 4.76 294.092 5.18 294.906 6.02C295.719 6.84667 296.126 8.00667 296.126 9.5V16H293.326V9.88C293.326 9 293.106 8.32667 292.666 7.86C292.226 7.38 291.626 7.14 290.866 7.14C290.092 7.14 289.479 7.38 289.026 7.86C288.586 8.32667 288.366 9 288.366 9.88V16H285.566V4.92H288.366V6.3C288.739 5.82 289.212 5.44667 289.786 5.18C290.372 4.9 291.012 4.76 291.706 4.76ZM298.068 10.42C298.068 9.3 298.288 8.30667 298.728 7.44C299.182 6.57333 299.795 5.90667 300.568 5.44C301.342 4.97333 302.202 4.74 303.148 4.74C303.868 4.74 304.555 4.9 305.208 5.22C305.862 5.52667 306.382 5.94 306.768 6.46V1.2H309.608V16H306.768V14.36C306.422 14.9067 305.935 15.3467 305.308 15.68C304.682 16.0133 303.955 16.18 303.128 16.18C302.195 16.18 301.342 15.94 300.568 15.46C299.795 14.98 299.182 14.3067 298.728 13.44C298.288 12.56 298.068 11.5533 298.068 10.42ZM306.788 10.46C306.788 9.78 306.655 9.2 306.388 8.72C306.122 8.22667 305.762 7.85333 305.308 7.6C304.855 7.33333 304.368 7.2 303.848 7.2C303.328 7.2 302.848 7.32667 302.408 7.58C301.968 7.83333 301.608 8.20667 301.328 8.7C301.062 9.18 300.928 9.75333 300.928 10.42C300.928 11.0867 301.062 11.6733 301.328 12.18C301.608 12.6733 301.968 13.0533 302.408 13.32C302.862 13.5867 303.342 13.72 303.848 13.72C304.368 13.72 304.855 13.5933 305.308 13.34C305.762 13.0733 306.122 12.7 306.388 12.22C306.655 11.7267 306.788 11.14 306.788 10.46ZM322.189 7.22H320.249V16H317.409V7.22H316.149V4.92H317.409V4.36C317.409 3 317.795 2 318.569 1.36C319.342 0.719999 320.509 0.42 322.069 0.46V2.82C321.389 2.80667 320.915 2.92 320.649 3.16C320.382 3.4 320.249 3.83333 320.249 4.46V4.92H322.189V7.22ZM328.923 16.18C327.856 16.18 326.896 15.9467 326.043 15.48C325.19 15 324.516 14.3267 324.023 13.46C323.543 12.5933 323.303 11.5933 323.303 10.46C323.303 9.32667 323.55 8.32667 324.043 7.46C324.55 6.59333 325.236 5.92667 326.103 5.46C326.97 4.98 327.936 4.74 329.003 4.74C330.07 4.74 331.036 4.98 331.903 5.46C332.77 5.92667 333.45 6.59333 333.943 7.46C334.45 8.32667 334.703 9.32667 334.703 10.46C334.703 11.5933 334.443 12.5933 333.923 13.46C333.416 14.3267 332.723 15 331.843 15.48C330.976 15.9467 330.003 16.18 328.923 16.18ZM328.923 13.74C329.43 13.74 329.903 13.62 330.343 13.38C330.796 13.1267 331.156 12.7533 331.423 12.26C331.69 11.7667 331.823 11.1667 331.823 10.46C331.823 9.40667 331.543 8.6 330.983 8.04C330.436 7.46667 329.763 7.18 328.963 7.18C328.163 7.18 327.49 7.46667 326.943 8.04C326.41 8.6 326.143 9.40667 326.143 10.46C326.143 11.5133 326.403 12.3267 326.923 12.9C327.456 13.46 328.123 13.74 328.923 13.74ZM339.557 6.64C339.917 6.05333 340.384 5.59333 340.957 5.26C341.544 4.92667 342.21 4.76 342.957 4.76V7.7H342.217C341.337 7.7 340.67 7.90667 340.217 8.32C339.777 8.73333 339.557 9.45333 339.557 10.48V16H336.757V4.92H339.557V6.64ZM49.3784 32.92L42.5184 49.24H39.5384L41.9384 43.72L37.4984 32.92H40.6384L43.4984 40.66L46.3984 32.92H49.3784ZM55.8078 44.18C54.7411 44.18 53.7811 43.9467 52.9278 43.48C52.0745 43 51.4011 42.3267 50.9078 41.46C50.4278 40.5933 50.1878 39.5933 50.1878 38.46C50.1878 37.3267 50.4345 36.3267 50.9278 35.46C51.4345 34.5933 52.1211 33.9267 52.9878 33.46C53.8545 32.98 54.8211 32.74 55.8878 32.74C56.9545 32.74 57.9211 32.98 58.7878 33.46C59.6545 33.9267 60.3345 34.5933 60.8278 35.46C61.3345 36.3267 61.5878 37.3267 61.5878 38.46C61.5878 39.5933 61.3278 40.5933 60.8078 41.46C60.3011 42.3267 59.6078 43 58.7278 43.48C57.8611 43.9467 56.8878 44.18 55.8078 44.18ZM55.8078 41.74C56.3145 41.74 56.7878 41.62 57.2278 41.38C57.6811 41.1267 58.0411 40.7533 58.3078 40.26C58.5745 39.7667 58.7078 39.1667 58.7078 38.46C58.7078 37.4067 58.4278 36.6 57.8678 36.04C57.3211 35.4667 56.6478 35.18 55.8478 35.18C55.0478 35.18 54.3745 35.4667 53.8278 36.04C53.2945 36.6 53.0278 37.4067 53.0278 38.46C53.0278 39.5133 53.2878 40.3267 53.8078 40.9C54.3411 41.46 55.0078 41.74 55.8078 41.74ZM74.1017 32.92V44H71.2817V42.6C70.9217 43.08 70.4484 43.46 69.8617 43.74C69.2884 44.0067 68.6617 44.14 67.9817 44.14C67.1151 44.14 66.3484 43.96 65.6817 43.6C65.0151 43.2267 64.4884 42.6867 64.1017 41.98C63.7284 41.26 63.5417 40.4067 63.5417 39.42V32.92H66.3417V39.02C66.3417 39.9 66.5617 40.58 67.0017 41.06C67.4417 41.5267 68.0417 41.76 68.8017 41.76C69.5751 41.76 70.1817 41.5267 70.6217 41.06C71.0617 40.58 71.2817 39.9 71.2817 39.02V32.92H74.1017ZM79.6644 34.64C80.0244 34.0533 80.491 33.5933 81.0644 33.26C81.651 32.9267 82.3177 32.76 83.0644 32.76V35.7H82.3244C81.4444 35.7 80.7777 35.9067 80.3244 36.32C79.8844 36.7333 79.6644 37.4533 79.6644 38.48V44H76.8644V32.92H79.6644V34.64ZM93.9559 44.18C93.0493 44.18 92.2359 44.02 91.5159 43.7C90.7959 43.3667 90.2226 42.92 89.7959 42.36C89.3826 41.8 89.1559 41.18 89.1159 40.5H91.9359C91.9893 40.9267 92.1959 41.28 92.5559 41.56C92.9293 41.84 93.3893 41.98 93.9359 41.98C94.4693 41.98 94.8826 41.8733 95.1759 41.66C95.4826 41.4467 95.6359 41.1733 95.6359 40.84C95.6359 40.48 95.4493 40.2133 95.0759 40.04C94.7159 39.8533 94.1359 39.6533 93.3359 39.44C92.5093 39.24 91.8293 39.0333 91.2959 38.82C90.7759 38.6067 90.3226 38.28 89.9359 37.84C89.5626 37.4 89.3759 36.8067 89.3759 36.06C89.3759 35.4467 89.5493 34.8867 89.8959 34.38C90.2559 33.8733 90.7626 33.4733 91.4159 33.18C92.0826 32.8867 92.8626 32.74 93.7559 32.74C95.0759 32.74 96.1293 33.0733 96.9159 33.74C97.7026 34.3933 98.1359 35.28 98.2159 36.4H95.5359C95.4959 35.96 95.3093 35.6133 94.9759 35.36C94.6559 35.0933 94.2226 34.96 93.6759 34.96C93.1693 34.96 92.7759 35.0533 92.4959 35.24C92.2293 35.4267 92.0959 35.6867 92.0959 36.02C92.0959 36.3933 92.2826 36.68 92.6559 36.88C93.0293 37.0667 93.6093 37.26 94.3959 37.46C95.1959 37.66 95.8559 37.8667 96.3759 38.08C96.8959 38.2933 97.3426 38.6267 97.7159 39.08C98.1026 39.52 98.3026 40.1067 98.3159 40.84C98.3159 41.48 98.1359 42.0533 97.7759 42.56C97.4293 43.0667 96.9226 43.4667 96.2559 43.76C95.6026 44.04 94.8359 44.18 93.9559 44.18ZM99.8944 38.46C99.8944 37.3133 100.128 36.3133 100.594 35.46C101.061 34.5933 101.708 33.9267 102.534 33.46C103.361 32.98 104.308 32.74 105.374 32.74C106.748 32.74 107.881 33.0867 108.774 33.78C109.681 34.46 110.288 35.42 110.594 36.66H107.574C107.414 36.18 107.141 35.8067 106.754 35.54C106.381 35.26 105.914 35.12 105.354 35.12C104.554 35.12 103.921 35.4133 103.454 36C102.988 36.5733 102.754 37.3933 102.754 38.46C102.754 39.5133 102.988 40.3333 103.454 40.92C103.921 41.4933 104.554 41.78 105.354 41.78C106.488 41.78 107.228 41.2733 107.574 40.26H110.594C110.288 41.46 109.681 42.4133 108.774 43.12C107.868 43.8267 106.734 44.18 105.374 44.18C104.308 44.18 103.361 43.9467 102.534 43.48C101.708 43 101.061 42.3333 100.594 41.48C100.128 40.6133 99.8944 39.6067 99.8944 38.46ZM118.886 32.76C119.726 32.76 120.472 32.9467 121.126 33.32C121.779 33.68 122.286 34.22 122.646 34.94C123.019 35.6467 123.206 36.5 123.206 37.5V44H120.406V37.88C120.406 37 120.186 36.3267 119.746 35.86C119.306 35.38 118.706 35.14 117.946 35.14C117.172 35.14 116.559 35.38 116.106 35.86C115.666 36.3267 115.446 37 115.446 37.88V44H112.646V29.2H115.446V34.3C115.806 33.82 116.286 33.4467 116.886 33.18C117.486 32.9 118.152 32.76 118.886 32.76ZM130.788 44.18C129.722 44.18 128.762 43.9467 127.908 43.48C127.055 43 126.382 42.3267 125.888 41.46C125.408 40.5933 125.168 39.5933 125.168 38.46C125.168 37.3267 125.415 36.3267 125.908 35.46C126.415 34.5933 127.102 33.9267 127.968 33.46C128.835 32.98 129.802 32.74 130.868 32.74C131.935 32.74 132.902 32.98 133.768 33.46C134.635 33.9267 135.315 34.5933 135.808 35.46C136.315 36.3267 136.568 37.3267 136.568 38.46C136.568 39.5933 136.308 40.5933 135.788 41.46C135.282 42.3267 134.588 43 133.708 43.48C132.842 43.9467 131.868 44.18 130.788 44.18ZM130.788 41.74C131.295 41.74 131.768 41.62 132.208 41.38C132.662 41.1267 133.022 40.7533 133.288 40.26C133.555 39.7667 133.688 39.1667 133.688 38.46C133.688 37.4067 133.408 36.6 132.848 36.04C132.302 35.4667 131.628 35.18 130.828 35.18C130.028 35.18 129.355 35.4667 128.808 36.04C128.275 36.6 128.008 37.4067 128.008 38.46C128.008 39.5133 128.268 40.3267 128.788 40.9C129.322 41.46 129.988 41.74 130.788 41.74ZM143.542 44.18C142.476 44.18 141.516 43.9467 140.662 43.48C139.809 43 139.136 42.3267 138.642 41.46C138.162 40.5933 137.922 39.5933 137.922 38.46C137.922 37.3267 138.169 36.3267 138.662 35.46C139.169 34.5933 139.856 33.9267 140.722 33.46C141.589 32.98 142.556 32.74 143.622 32.74C144.689 32.74 145.656 32.98 146.522 33.46C147.389 33.9267 148.069 34.5933 148.562 35.46C149.069 36.3267 149.322 37.3267 149.322 38.46C149.322 39.5933 149.062 40.5933 148.542 41.46C148.036 42.3267 147.342 43 146.462 43.48C145.596 43.9467 144.622 44.18 143.542 44.18ZM143.542 41.74C144.049 41.74 144.522 41.62 144.962 41.38C145.416 41.1267 145.776 40.7533 146.042 40.26C146.309 39.7667 146.442 39.1667 146.442 38.46C146.442 37.4067 146.162 36.6 145.602 36.04C145.056 35.4667 144.382 35.18 143.582 35.18C142.782 35.18 142.109 35.4667 141.562 36.04C141.029 36.6 140.762 37.4067 140.762 38.46C140.762 39.5133 141.022 40.3267 141.542 40.9C142.076 41.46 142.742 41.74 143.542 41.74ZM154.176 29.2V44H151.376V29.2H154.176ZM157.503 30.04H160.443L158.283 35.08H156.363L157.503 30.04ZM166.69 44.18C165.784 44.18 164.97 44.02 164.25 43.7C163.53 43.3667 162.957 42.92 162.53 42.36C162.117 41.8 161.89 41.18 161.85 40.5H164.67C164.724 40.9267 164.93 41.28 165.29 41.56C165.664 41.84 166.124 41.98 166.67 41.98C167.204 41.98 167.617 41.8733 167.91 41.66C168.217 41.4467 168.37 41.1733 168.37 40.84C168.37 40.48 168.184 40.2133 167.81 40.04C167.45 39.8533 166.87 39.6533 166.07 39.44C165.244 39.24 164.564 39.0333 164.03 38.82C163.51 38.6067 163.057 38.28 162.67 37.84C162.297 37.4 162.11 36.8067 162.11 36.06C162.11 35.4467 162.284 34.8867 162.63 34.38C162.99 33.8733 163.497 33.4733 164.15 33.18C164.817 32.8867 165.597 32.74 166.49 32.74C167.81 32.74 168.864 33.0733 169.65 33.74C170.437 34.3933 170.87 35.28 170.95 36.4H168.27C168.23 35.96 168.044 35.6133 167.71 35.36C167.39 35.0933 166.957 34.96 166.41 34.96C165.904 34.96 165.51 35.0533 165.23 35.24C164.964 35.4267 164.83 35.6867 164.83 36.02C164.83 36.3933 165.017 36.68 165.39 36.88C165.764 37.0667 166.344 37.26 167.13 37.46C167.93 37.66 168.59 37.8667 169.11 38.08C169.63 38.2933 170.077 38.6267 170.45 39.08C170.837 39.52 171.037 40.1067 171.05 40.84C171.05 41.48 170.87 42.0533 170.51 42.56C170.164 43.0667 169.657 43.4667 168.99 43.76C168.337 44.04 167.57 44.18 166.69 44.18ZM177.394 38.46C177.394 37.3133 177.628 36.3133 178.094 35.46C178.561 34.5933 179.208 33.9267 180.034 33.46C180.861 32.98 181.808 32.74 182.874 32.74C184.248 32.74 185.381 33.0867 186.274 33.78C187.181 34.46 187.788 35.42 188.094 36.66H185.074C184.914 36.18 184.641 35.8067 184.254 35.54C183.881 35.26 183.414 35.12 182.854 35.12C182.054 35.12 181.421 35.4133 180.954 36C180.488 36.5733 180.254 37.3933 180.254 38.46C180.254 39.5133 180.488 40.3333 180.954 40.92C181.421 41.4933 182.054 41.78 182.854 41.78C183.988 41.78 184.728 41.2733 185.074 40.26H188.094C187.788 41.46 187.181 42.4133 186.274 43.12C185.368 43.8267 184.234 44.18 182.874 44.18C181.808 44.18 180.861 43.9467 180.034 43.48C179.208 43 178.561 42.3333 178.094 41.48C177.628 40.6133 177.394 39.6067 177.394 38.46ZM192.946 34.64C193.306 34.0533 193.772 33.5933 194.346 33.26C194.932 32.9267 195.599 32.76 196.346 32.76V35.7H195.606C194.726 35.7 194.059 35.9067 193.606 36.32C193.166 36.7333 192.946 37.4533 192.946 38.48V44H190.146V32.92H192.946V34.64ZM199.652 31.6C199.158 31.6 198.745 31.4467 198.412 31.14C198.092 30.82 197.932 30.4267 197.932 29.96C197.932 29.4933 198.092 29.1067 198.412 28.8C198.745 28.48 199.158 28.32 199.652 28.32C200.145 28.32 200.552 28.48 200.872 28.8C201.205 29.1067 201.372 29.4933 201.372 29.96C201.372 30.4267 201.205 30.82 200.872 31.14C200.552 31.4467 200.145 31.6 199.652 31.6ZM201.032 32.92V44H198.232V32.92H201.032ZM203.078 38.46C203.078 37.3133 203.311 36.3133 203.778 35.46C204.245 34.5933 204.891 33.9267 205.718 33.46C206.545 32.98 207.491 32.74 208.558 32.74C209.931 32.74 211.065 33.0867 211.958 33.78C212.865 34.46 213.471 35.42 213.778 36.66H210.758C210.598 36.18 210.325 35.8067 209.938 35.54C209.565 35.26 209.098 35.12 208.538 35.12C207.738 35.12 207.105 35.4133 206.638 36C206.171 36.5733 205.938 37.3933 205.938 38.46C205.938 39.5133 206.171 40.3333 206.638 40.92C207.105 41.4933 207.738 41.78 208.538 41.78C209.671 41.78 210.411 41.2733 210.758 40.26H213.778C213.471 41.46 212.865 42.4133 211.958 43.12C211.051 43.8267 209.918 44.18 208.558 44.18C207.491 44.18 206.545 43.9467 205.718 43.48C204.891 43 204.245 42.3333 203.778 41.48C203.311 40.6133 203.078 39.6067 203.078 38.46ZM222.389 44L218.629 39.28V44H215.829V29.2H218.629V37.62L222.349 32.92H225.989L221.109 38.48L226.029 44H222.389ZM237.809 38.22C237.809 38.62 237.782 38.98 237.729 39.3H229.629C229.696 40.1 229.976 40.7267 230.469 41.18C230.962 41.6333 231.569 41.86 232.289 41.86C233.329 41.86 234.069 41.4133 234.509 40.52H237.529C237.209 41.5867 236.596 42.4667 235.689 43.16C234.782 43.84 233.669 44.18 232.349 44.18C231.282 44.18 230.322 43.9467 229.469 43.48C228.629 43 227.969 42.3267 227.489 41.46C227.022 40.5933 226.789 39.5933 226.789 38.46C226.789 37.3133 227.022 36.3067 227.489 35.44C227.956 34.5733 228.609 33.9067 229.449 33.44C230.289 32.9733 231.256 32.74 232.349 32.74C233.402 32.74 234.342 32.9667 235.169 33.42C236.009 33.8733 236.656 34.52 237.109 35.36C237.576 36.1867 237.809 37.14 237.809 38.22ZM234.909 37.42C234.896 36.7 234.636 36.1267 234.129 35.7C233.622 35.26 233.002 35.04 232.269 35.04C231.576 35.04 230.989 35.2533 230.509 35.68C230.042 36.0933 229.756 36.6733 229.649 37.42H234.909ZM243.113 35.22V40.58C243.113 40.9533 243.199 41.2267 243.373 41.4C243.559 41.56 243.866 41.64 244.293 41.64H245.593V44H243.833C241.473 44 240.293 42.8533 240.293 40.56V35.22H238.973V32.92H240.293V30.18H243.113V32.92H245.593V35.22H243.113ZM255.632 35.22V40.58C255.632 40.9533 255.719 41.2267 255.892 41.4C256.079 41.56 256.386 41.64 256.812 41.64H258.112V44H256.352C253.992 44 252.812 42.8533 252.812 40.56V35.22H251.492V32.92H252.812V30.18H255.632V32.92H258.112V35.22H255.632ZM270.426 38.22C270.426 38.62 270.399 38.98 270.346 39.3H262.246C262.313 40.1 262.593 40.7267 263.086 41.18C263.579 41.6333 264.186 41.86 264.906 41.86C265.946 41.86 266.686 41.4133 267.126 40.52H270.146C269.826 41.5867 269.213 42.4667 268.306 43.16C267.399 43.84 266.286 44.18 264.966 44.18C263.899 44.18 262.939 43.9467 262.086 43.48C261.246 43 260.586 42.3267 260.106 41.46C259.639 40.5933 259.406 39.5933 259.406 38.46C259.406 37.3133 259.639 36.3067 260.106 35.44C260.573 34.5733 261.226 33.9067 262.066 33.44C262.906 32.9733 263.873 32.74 264.966 32.74C266.019 32.74 266.959 32.9667 267.786 33.42C268.626 33.8733 269.273 34.52 269.726 35.36C270.193 36.1867 270.426 37.14 270.426 38.22ZM267.526 37.42C267.513 36.7 267.253 36.1267 266.746 35.7C266.239 35.26 265.619 35.04 264.886 35.04C264.193 35.04 263.606 35.2533 263.126 35.68C262.659 36.0933 262.373 36.6733 262.266 37.42H267.526ZM271.75 38.42C271.75 37.3 271.97 36.3067 272.41 35.44C272.863 34.5733 273.47 33.9067 274.23 33.44C275.003 32.9733 275.863 32.74 276.81 32.74C277.637 32.74 278.357 32.9067 278.97 33.24C279.597 33.5733 280.097 33.9933 280.47 34.5V32.92H283.29V44H280.47V42.38C280.11 42.9 279.61 43.3333 278.97 43.68C278.343 44.0133 277.617 44.18 276.79 44.18C275.857 44.18 275.003 43.94 274.23 43.46C273.47 42.98 272.863 42.3067 272.41 41.44C271.97 40.56 271.75 39.5533 271.75 38.42ZM280.47 38.46C280.47 37.78 280.337 37.2 280.07 36.72C279.803 36.2267 279.443 35.8533 278.99 35.6C278.537 35.3333 278.05 35.2 277.53 35.2C277.01 35.2 276.53 35.3267 276.09 35.58C275.65 35.8333 275.29 36.2067 275.01 36.7C274.743 37.18 274.61 37.7533 274.61 38.42C274.61 39.0867 274.743 39.6733 275.01 40.18C275.29 40.6733 275.65 41.0533 276.09 41.32C276.543 41.5867 277.023 41.72 277.53 41.72C278.05 41.72 278.537 41.5933 278.99 41.34C279.443 41.0733 279.803 40.7 280.07 40.22C280.337 39.7267 280.47 39.14 280.47 38.46ZM299.785 32.76C301.145 32.76 302.238 33.18 303.065 34.02C303.905 34.8467 304.325 36.0067 304.325 37.5V44H301.525V37.88C301.525 37.0133 301.305 36.3533 300.865 35.9C300.425 35.4333 299.825 35.2 299.065 35.2C298.305 35.2 297.698 35.4333 297.245 35.9C296.805 36.3533 296.585 37.0133 296.585 37.88V44H293.785V37.88C293.785 37.0133 293.565 36.3533 293.125 35.9C292.685 35.4333 292.085 35.2 291.325 35.2C290.551 35.2 289.938 35.4333 289.485 35.9C289.045 36.3533 288.825 37.0133 288.825 37.88V44H286.025V32.92H288.825V34.26C289.185 33.7933 289.645 33.4267 290.205 33.16C290.778 32.8933 291.405 32.76 292.085 32.76C292.951 32.76 293.725 32.9467 294.405 33.32C295.085 33.68 295.611 34.2 295.985 34.88C296.345 34.24 296.865 33.7267 297.545 33.34C298.238 32.9533 298.985 32.76 299.785 32.76ZM16.7835 62.52C17.1435 62.0133 17.6368 61.5933 18.2635 61.26C18.9035 60.9133 19.6302 60.74 20.4435 60.74C21.3902 60.74 22.2435 60.9733 23.0035 61.44C23.7768 61.9067 24.3835 62.5733 24.8235 63.44C25.2768 64.2933 25.5035 65.2867 25.5035 66.42C25.5035 67.5533 25.2768 68.56 24.8235 69.44C24.3835 70.3067 23.7768 70.98 23.0035 71.46C22.2435 71.94 21.3902 72.18 20.4435 72.18C19.6302 72.18 18.9102 72.0133 18.2835 71.68C17.6702 71.3467 17.1702 70.9267 16.7835 70.42V77.28H13.9835V60.92H16.7835V62.52ZM22.6435 66.42C22.6435 65.7533 22.5035 65.18 22.2235 64.7C21.9568 64.2067 21.5968 63.8333 21.1435 63.58C20.7035 63.3267 20.2235 63.2 19.7035 63.2C19.1968 63.2 18.7168 63.3333 18.2635 63.6C17.8235 63.8533 17.4635 64.2267 17.1835 64.72C16.9168 65.2133 16.7835 65.7933 16.7835 66.46C16.7835 67.1267 16.9168 67.7067 17.1835 68.2C17.4635 68.6933 17.8235 69.0733 18.2635 69.34C18.7168 69.5933 19.1968 69.72 19.7035 69.72C20.2235 69.72 20.7035 69.5867 21.1435 69.32C21.5968 69.0533 21.9568 68.6733 22.2235 68.18C22.5035 67.6867 22.6435 67.1 22.6435 66.42ZM30.3382 62.64C30.6982 62.0533 31.1649 61.5933 31.7382 61.26C32.3249 60.9267 32.9915 60.76 33.7382 60.76V63.7H32.9982C32.1182 63.7 31.4515 63.9067 30.9982 64.32C30.5582 64.7333 30.3382 65.4533 30.3382 66.48V72H27.5382V60.92H30.3382V62.64ZM34.9041 66.42C34.9041 65.3 35.1241 64.3067 35.5641 63.44C36.0175 62.5733 36.6241 61.9067 37.3841 61.44C38.1575 60.9733 39.0175 60.74 39.9641 60.74C40.7908 60.74 41.5108 60.9067 42.1241 61.24C42.7508 61.5733 43.2508 61.9933 43.6241 62.5V60.92H46.4441V72H43.6241V70.38C43.2641 70.9 42.7641 71.3333 42.1241 71.68C41.4975 72.0133 40.7708 72.18 39.9441 72.18C39.0108 72.18 38.1575 71.94 37.3841 71.46C36.6241 70.98 36.0175 70.3067 35.5641 69.44C35.1241 68.56 34.9041 67.5533 34.9041 66.42ZM43.6241 66.46C43.6241 65.78 43.4908 65.2 43.2241 64.72C42.9575 64.2267 42.5975 63.8533 42.1441 63.6C41.6908 63.3333 41.2041 63.2 40.6841 63.2C40.1641 63.2 39.6841 63.3267 39.2441 63.58C38.8041 63.8333 38.4441 64.2067 38.1641 64.7C37.8975 65.18 37.7641 65.7533 37.7641 66.42C37.7641 67.0867 37.8975 67.6733 38.1641 68.18C38.4441 68.6733 38.8041 69.0533 39.2441 69.32C39.6975 69.5867 40.1775 69.72 40.6841 69.72C41.2041 69.72 41.6908 69.5933 42.1441 69.34C42.5975 69.0733 42.9575 68.7 43.2241 68.22C43.4908 67.7267 43.6241 67.14 43.6241 66.46ZM48.4588 66.46C48.4588 65.3133 48.6922 64.3133 49.1588 63.46C49.6255 62.5933 50.2722 61.9267 51.0988 61.46C51.9255 60.98 52.8722 60.74 53.9388 60.74C55.3122 60.74 56.4455 61.0867 57.3388 61.78C58.2455 62.46 58.8522 63.42 59.1588 64.66H56.1388C55.9788 64.18 55.7055 63.8067 55.3188 63.54C54.9455 63.26 54.4788 63.12 53.9188 63.12C53.1188 63.12 52.4855 63.4133 52.0188 64C51.5522 64.5733 51.3188 65.3933 51.3188 66.46C51.3188 67.5133 51.5522 68.3333 52.0188 68.92C52.4855 69.4933 53.1188 69.78 53.9188 69.78C55.0522 69.78 55.7922 69.2733 56.1388 68.26H59.1588C58.8522 69.46 58.2455 70.4133 57.3388 71.12C56.4322 71.8267 55.2988 72.18 53.9388 72.18C52.8722 72.18 51.9255 71.9467 51.0988 71.48C50.2722 71 49.6255 70.3333 49.1588 69.48C48.6922 68.6133 48.4588 67.6067 48.4588 66.46ZM64.4701 63.22V68.58C64.4701 68.9533 64.5567 69.2267 64.7301 69.4C64.9167 69.56 65.2234 69.64 65.6501 69.64H66.9501V72H65.1901C62.8301 72 61.6501 70.8533 61.6501 68.56V63.22H60.3301V60.92H61.6501V58.18H64.4701V60.92H66.9501V63.22H64.4701ZM70.384 59.6C69.8907 59.6 69.4773 59.4467 69.144 59.14C68.824 58.82 68.664 58.4267 68.664 57.96C68.664 57.4933 68.824 57.1067 69.144 56.8C69.4773 56.48 69.8907 56.32 70.384 56.32C70.8773 56.32 71.284 56.48 71.604 56.8C71.9373 57.1067 72.104 57.4933 72.104 57.96C72.104 58.4267 71.9373 58.82 71.604 59.14C71.284 59.4467 70.8773 59.6 70.384 59.6ZM71.764 60.92V72H68.964V60.92H71.764ZM73.8104 66.46C73.8104 65.3133 74.0437 64.3133 74.5104 63.46C74.9771 62.5933 75.6237 61.9267 76.4504 61.46C77.2771 60.98 78.2237 60.74 79.2904 60.74C80.6637 60.74 81.7971 61.0867 82.6904 61.78C83.5971 62.46 84.2037 63.42 84.5104 64.66H81.4904C81.3304 64.18 81.0571 63.8067 80.6704 63.54C80.2971 63.26 79.8304 63.12 79.2704 63.12C78.4704 63.12 77.8371 63.4133 77.3704 64C76.9037 64.5733 76.6704 65.3933 76.6704 66.46C76.6704 67.5133 76.9037 68.3333 77.3704 68.92C77.8371 69.4933 78.4704 69.78 79.2704 69.78C80.4037 69.78 81.1437 69.2733 81.4904 68.26H84.5104C84.2037 69.46 83.5971 70.4133 82.6904 71.12C81.7837 71.8267 80.6504 72.18 79.2904 72.18C78.2237 72.18 77.2771 71.9467 76.4504 71.48C75.6237 71 74.9771 70.3333 74.5104 69.48C74.0437 68.6133 73.8104 67.6067 73.8104 66.46ZM96.8616 66.22C96.8616 66.62 96.835 66.98 96.7816 67.3H88.6816C88.7483 68.1 89.0283 68.7267 89.5216 69.18C90.015 69.6333 90.6216 69.86 91.3416 69.86C92.3816 69.86 93.1216 69.4133 93.5616 68.52H96.5816C96.2616 69.5867 95.6483 70.4667 94.7416 71.16C93.835 71.84 92.7216 72.18 91.4016 72.18C90.335 72.18 89.375 71.9467 88.5216 71.48C87.6816 71 87.0216 70.3267 86.5416 69.46C86.075 68.5933 85.8416 67.5933 85.8416 66.46C85.8416 65.3133 86.075 64.3067 86.5416 63.44C87.0083 62.5733 87.6616 61.9067 88.5016 61.44C89.3416 60.9733 90.3083 60.74 91.4016 60.74C92.455 60.74 93.395 60.9667 94.2216 61.42C95.0616 61.8733 95.7083 62.52 96.1616 63.36C96.6283 64.1867 96.8616 65.14 96.8616 66.22ZM93.9616 65.42C93.9483 64.7 93.6883 64.1267 93.1816 63.7C92.675 63.26 92.055 63.04 91.3216 63.04C90.6283 63.04 90.0416 63.2533 89.5616 63.68C89.095 64.0933 88.8083 64.6733 88.7016 65.42H93.9616ZM102.951 66.42C102.951 65.3 103.171 64.3067 103.611 63.44C104.064 62.5733 104.671 61.9067 105.431 61.44C106.204 60.9733 107.064 60.74 108.011 60.74C108.838 60.74 109.558 60.9067 110.171 61.24C110.798 61.5733 111.298 61.9933 111.671 62.5V60.92H114.491V72H111.671V70.38C111.311 70.9 110.811 71.3333 110.171 71.68C109.544 72.0133 108.818 72.18 107.991 72.18C107.058 72.18 106.204 71.94 105.431 71.46C104.671 70.98 104.064 70.3067 103.611 69.44C103.171 68.56 102.951 67.5533 102.951 66.42ZM111.671 66.46C111.671 65.78 111.538 65.2 111.271 64.72C111.004 64.2267 110.644 63.8533 110.191 63.6C109.738 63.3333 109.251 63.2 108.731 63.2C108.211 63.2 107.731 63.3267 107.291 63.58C106.851 63.8333 106.491 64.2067 106.211 64.7C105.944 65.18 105.811 65.7533 105.811 66.42C105.811 67.0867 105.944 67.6733 106.211 68.18C106.491 68.6733 106.851 69.0533 107.291 69.32C107.744 69.5867 108.224 69.72 108.731 69.72C109.251 69.72 109.738 69.5933 110.191 69.34C110.644 69.0733 111.004 68.7 111.271 68.22C111.538 67.7267 111.671 67.14 111.671 66.46ZM123.366 60.76C124.686 60.76 125.752 61.18 126.566 62.02C127.379 62.8467 127.786 64.0067 127.786 65.5V72H124.986V65.88C124.986 65 124.766 64.3267 124.326 63.86C123.886 63.38 123.286 63.14 122.526 63.14C121.752 63.14 121.139 63.38 120.686 63.86C120.246 64.3267 120.026 65 120.026 65.88V72H117.226V60.92H120.026V62.3C120.399 61.82 120.872 61.4467 121.446 61.18C122.032 60.9 122.672 60.76 123.366 60.76ZM129.728 66.42C129.728 65.3 129.948 64.3067 130.388 63.44C130.842 62.5733 131.455 61.9067 132.228 61.44C133.002 60.9733 133.862 60.74 134.808 60.74C135.528 60.74 136.215 60.9 136.868 61.22C137.522 61.5267 138.042 61.94 138.428 62.46V57.2H141.268V72H138.428V70.36C138.082 70.9067 137.595 71.3467 136.968 71.68C136.342 72.0133 135.615 72.18 134.788 72.18C133.855 72.18 133.002 71.94 132.228 71.46C131.455 70.98 130.842 70.3067 130.388 69.44C129.948 68.56 129.728 67.5533 129.728 66.42ZM138.448 66.46C138.448 65.78 138.315 65.2 138.048 64.72C137.782 64.2267 137.422 63.8533 136.968 63.6C136.515 63.3333 136.028 63.2 135.508 63.2C134.988 63.2 134.508 63.3267 134.068 63.58C133.628 63.8333 133.268 64.2067 132.988 64.7C132.722 65.18 132.588 65.7533 132.588 66.42C132.588 67.0867 132.722 67.6733 132.988 68.18C133.268 68.6733 133.628 69.0533 134.068 69.32C134.522 69.5867 135.002 69.72 135.508 69.72C136.028 69.72 136.515 69.5933 136.968 69.34C137.422 69.0733 137.782 68.7 138.048 68.22C138.315 67.7267 138.448 67.14 138.448 66.46ZM151.829 69.06L149.489 74.68H147.689L148.989 69.06H151.829ZM173.972 60.92L170.732 72H167.712L165.692 64.26L163.672 72H160.632L157.372 60.92H160.212L162.172 69.36L164.292 60.92H167.252L169.332 69.34L171.292 60.92H173.972ZM180.407 72.18C179.341 72.18 178.381 71.9467 177.527 71.48C176.674 71 176.001 70.3267 175.507 69.46C175.027 68.5933 174.787 67.5933 174.787 66.46C174.787 65.3267 175.034 64.3267 175.527 63.46C176.034 62.5933 176.721 61.9267 177.587 61.46C178.454 60.98 179.421 60.74 180.487 60.74C181.554 60.74 182.521 60.98 183.387 61.46C184.254 61.9267 184.934 62.5933 185.427 63.46C185.934 64.3267 186.187 65.3267 186.187 66.46C186.187 67.5933 185.927 68.5933 185.407 69.46C184.901 70.3267 184.207 71 183.327 71.48C182.461 71.9467 181.487 72.18 180.407 72.18ZM180.407 69.74C180.914 69.74 181.387 69.62 181.827 69.38C182.281 69.1267 182.641 68.7533 182.907 68.26C183.174 67.7667 183.307 67.1667 183.307 66.46C183.307 65.4067 183.027 64.6 182.467 64.04C181.921 63.4667 181.247 63.18 180.447 63.18C179.647 63.18 178.974 63.4667 178.427 64.04C177.894 64.6 177.627 65.4067 177.627 66.46C177.627 67.5133 177.887 68.3267 178.407 68.9C178.941 69.46 179.607 69.74 180.407 69.74ZM191.041 62.64C191.401 62.0533 191.868 61.5933 192.441 61.26C193.028 60.9267 193.695 60.76 194.441 60.76V63.7H193.701C192.821 63.7 192.155 63.9067 191.701 64.32C191.261 64.7333 191.041 65.4533 191.041 66.48V72H188.241V60.92H191.041V62.64ZM202.887 72L199.127 67.28V72H196.327V57.2H199.127V65.62L202.847 60.92H206.487L201.607 66.48L206.527 72H202.887ZM219.013 60.76C219.853 60.76 220.599 60.9467 221.253 61.32C221.906 61.68 222.413 62.22 222.773 62.94C223.146 63.6467 223.333 64.5 223.333 65.5V72H220.533V65.88C220.533 65 220.313 64.3267 219.873 63.86C219.433 63.38 218.833 63.14 218.073 63.14C217.299 63.14 216.686 63.38 216.233 63.86C215.793 64.3267 215.573 65 215.573 65.88V72H212.773V57.2H215.573V62.3C215.933 61.82 216.413 61.4467 217.013 61.18C217.613 60.9 218.279 60.76 219.013 60.76ZM225.275 66.42C225.275 65.3 225.495 64.3067 225.935 63.44C226.389 62.5733 226.995 61.9067 227.755 61.44C228.529 60.9733 229.389 60.74 230.335 60.74C231.162 60.74 231.882 60.9067 232.495 61.24C233.122 61.5733 233.622 61.9933 233.995 62.5V60.92H236.815V72H233.995V70.38C233.635 70.9 233.135 71.3333 232.495 71.68C231.869 72.0133 231.142 72.18 230.315 72.18C229.382 72.18 228.529 71.94 227.755 71.46C226.995 70.98 226.389 70.3067 225.935 69.44C225.495 68.56 225.275 67.5533 225.275 66.42ZM233.995 66.46C233.995 65.78 233.862 65.2 233.595 64.72C233.329 64.2267 232.969 63.8533 232.515 63.6C232.062 63.3333 231.575 63.2 231.055 63.2C230.535 63.2 230.055 63.3267 229.615 63.58C229.175 63.8333 228.815 64.2067 228.535 64.7C228.269 65.18 228.135 65.7533 228.135 66.42C228.135 67.0867 228.269 67.6733 228.535 68.18C228.815 68.6733 229.175 69.0533 229.615 69.32C230.069 69.5867 230.549 69.72 231.055 69.72C231.575 69.72 232.062 69.5933 232.515 69.34C232.969 69.0733 233.329 68.7 233.595 68.22C233.862 67.7267 233.995 67.14 233.995 66.46ZM242.35 62.64C242.71 62.0533 243.177 61.5933 243.75 61.26C244.337 60.9267 245.003 60.76 245.75 60.76V63.7H245.01C244.13 63.7 243.463 63.9067 243.01 64.32C242.57 64.7333 242.35 65.4533 242.35 66.48V72H239.55V60.92H242.35V62.64ZM246.916 66.42C246.916 65.3 247.136 64.3067 247.576 63.44C248.029 62.5733 248.643 61.9067 249.416 61.44C250.189 60.9733 251.049 60.74 251.996 60.74C252.716 60.74 253.403 60.9 254.056 61.22C254.709 61.5267 255.229 61.94 255.616 62.46V57.2H258.456V72H255.616V70.36C255.269 70.9067 254.783 71.3467 254.156 71.68C253.529 72.0133 252.803 72.18 251.976 72.18C251.043 72.18 250.189 71.94 249.416 71.46C248.643 70.98 248.029 70.3067 247.576 69.44C247.136 68.56 246.916 67.5533 246.916 66.42ZM255.636 66.46C255.636 65.78 255.503 65.2 255.236 64.72C254.969 64.2267 254.609 63.8533 254.156 63.6C253.703 63.3333 253.216 63.2 252.696 63.2C252.176 63.2 251.696 63.3267 251.256 63.58C250.816 63.8333 250.456 64.2067 250.176 64.7C249.909 65.18 249.776 65.7533 249.776 66.42C249.776 67.0867 249.909 67.6733 250.176 68.18C250.456 68.6733 250.816 69.0533 251.256 69.32C251.709 69.5867 252.189 69.72 252.696 69.72C253.216 69.72 253.703 69.5933 254.156 69.34C254.609 69.0733 254.969 68.7 255.236 68.22C255.503 67.7267 255.636 67.14 255.636 66.46ZM271.036 63.22H269.096V72H266.256V63.22H264.996V60.92H266.256V60.36C266.256 59 266.643 58 267.416 57.36C268.19 56.72 269.356 56.42 270.916 56.46V58.82C270.236 58.8067 269.763 58.92 269.496 59.16C269.23 59.4 269.096 59.8333 269.096 60.46V60.92H271.036V63.22ZM277.771 72.18C276.704 72.18 275.744 71.9467 274.891 71.48C274.037 71 273.364 70.3267 272.871 69.46C272.391 68.5933 272.151 67.5933 272.151 66.46C272.151 65.3267 272.397 64.3267 272.891 63.46C273.397 62.5933 274.084 61.9267 274.951 61.46C275.817 60.98 276.784 60.74 277.851 60.74C278.917 60.74 279.884 60.98 280.751 61.46C281.617 61.9267 282.297 62.5933 282.791 63.46C283.297 64.3267 283.551 65.3267 283.551 66.46C283.551 67.5933 283.291 68.5933 282.771 69.46C282.264 70.3267 281.571 71 280.691 71.48C279.824 71.9467 278.851 72.18 277.771 72.18ZM277.771 69.74C278.277 69.74 278.751 69.62 279.191 69.38C279.644 69.1267 280.004 68.7533 280.271 68.26C280.537 67.7667 280.671 67.1667 280.671 66.46C280.671 65.4067 280.391 64.6 279.831 64.04C279.284 63.4667 278.611 63.18 277.811 63.18C277.011 63.18 276.337 63.4667 275.791 64.04C275.257 64.6 274.991 65.4067 274.991 66.46C274.991 67.5133 275.251 68.3267 275.771 68.9C276.304 69.46 276.971 69.74 277.771 69.74ZM288.405 62.64C288.765 62.0533 289.231 61.5933 289.805 61.26C290.391 60.9267 291.058 60.76 291.805 60.76V63.7H291.065C290.185 63.7 289.518 63.9067 289.065 64.32C288.625 64.7333 288.405 65.4533 288.405 66.48V72H285.605V60.92H288.405V62.64ZM301.716 63.22V68.58C301.716 68.9533 301.803 69.2267 301.976 69.4C302.163 69.56 302.47 69.64 302.896 69.64H304.196V72H302.436C300.076 72 298.896 70.8533 298.896 68.56V63.22H297.576V60.92H298.896V58.18H301.716V60.92H304.196V63.22H301.716ZM312.45 60.76C313.29 60.76 314.037 60.9467 314.69 61.32C315.343 61.68 315.85 62.22 316.21 62.94C316.583 63.6467 316.77 64.5 316.77 65.5V72H313.97V65.88C313.97 65 313.75 64.3267 313.31 63.86C312.87 63.38 312.27 63.14 311.51 63.14C310.737 63.14 310.123 63.38 309.67 63.86C309.23 64.3267 309.01 65 309.01 65.88V72H306.21V57.2H309.01V62.3C309.37 61.82 309.85 61.4467 310.45 61.18C311.05 60.9 311.717 60.76 312.45 60.76ZM329.733 66.22C329.733 66.62 329.706 66.98 329.653 67.3H321.553C321.619 68.1 321.899 68.7267 322.393 69.18C322.886 69.6333 323.493 69.86 324.213 69.86C325.253 69.86 325.993 69.4133 326.433 68.52H329.453C329.133 69.5867 328.519 70.4667 327.613 71.16C326.706 71.84 325.593 72.18 324.273 72.18C323.206 72.18 322.246 71.9467 321.393 71.48C320.553 71 319.893 70.3267 319.413 69.46C318.946 68.5933 318.713 67.5933 318.713 66.46C318.713 65.3133 318.946 64.3067 319.413 63.44C319.879 62.5733 320.533 61.9067 321.373 61.44C322.213 60.9733 323.179 60.74 324.273 60.74C325.326 60.74 326.266 60.9667 327.093 61.42C327.933 61.8733 328.579 62.52 329.033 63.36C329.499 64.1867 329.733 65.14 329.733 66.22ZM326.833 65.42C326.819 64.7 326.559 64.1267 326.053 63.7C325.546 63.26 324.926 63.04 324.193 63.04C323.499 63.04 322.913 63.2533 322.433 63.68C321.966 64.0933 321.679 64.6733 321.573 65.42H326.833ZM128.282 100.18C127.375 100.18 126.562 100.02 125.842 99.7C125.122 99.3667 124.549 98.92 124.122 98.36C123.709 97.8 123.482 97.18 123.442 96.5H126.262C126.315 96.9267 126.522 97.28 126.882 97.56C127.255 97.84 127.715 97.98 128.262 97.98C128.795 97.98 129.209 97.8733 129.502 97.66C129.809 97.4467 129.962 97.1733 129.962 96.84C129.962 96.48 129.775 96.2133 129.402 96.04C129.042 95.8533 128.462 95.6533 127.662 95.44C126.835 95.24 126.155 95.0333 125.622 94.82C125.102 94.6067 124.649 94.28 124.262 93.84C123.889 93.4 123.702 92.8067 123.702 92.06C123.702 91.4467 123.875 90.8867 124.222 90.38C124.582 89.8733 125.089 89.4733 125.742 89.18C126.409 88.8867 127.189 88.74 128.082 88.74C129.402 88.74 130.455 89.0733 131.242 89.74C132.029 90.3933 132.462 91.28 132.542 92.4H129.862C129.822 91.96 129.635 91.6133 129.302 91.36C128.982 91.0933 128.549 90.96 128.002 90.96C127.495 90.96 127.102 91.0533 126.822 91.24C126.555 91.4267 126.422 91.6867 126.422 92.02C126.422 92.3933 126.609 92.68 126.982 92.88C127.355 93.0667 127.935 93.26 128.722 93.46C129.522 93.66 130.182 93.8667 130.702 94.08C131.222 94.2933 131.669 94.6267 132.042 95.08C132.429 95.52 132.629 96.1067 132.642 96.84C132.642 97.48 132.462 98.0533 132.102 98.56C131.755 99.0667 131.249 99.4667 130.582 99.76C129.929 100.04 129.162 100.18 128.282 100.18ZM145.241 94.22C145.241 94.62 145.214 94.98 145.161 95.3H137.061C137.127 96.1 137.407 96.7267 137.901 97.18C138.394 97.6333 139.001 97.86 139.721 97.86C140.761 97.86 141.501 97.4133 141.941 96.52H144.961C144.641 97.5867 144.027 98.4667 143.121 99.16C142.214 99.84 141.101 100.18 139.781 100.18C138.714 100.18 137.754 99.9467 136.901 99.48C136.061 99 135.401 98.3267 134.921 97.46C134.454 96.5933 134.221 95.5933 134.221 94.46C134.221 93.3133 134.454 92.3067 134.921 91.44C135.387 90.5733 136.041 89.9067 136.881 89.44C137.721 88.9733 138.687 88.74 139.781 88.74C140.834 88.74 141.774 88.9667 142.601 89.42C143.441 89.8733 144.087 90.52 144.541 91.36C145.007 92.1867 145.241 93.14 145.241 94.22ZM142.341 93.42C142.327 92.7 142.067 92.1267 141.561 91.7C141.054 91.26 140.434 91.04 139.701 91.04C139.007 91.04 138.421 91.2533 137.941 91.68C137.474 92.0933 137.187 92.6733 137.081 93.42H142.341ZM150.084 85.2V100H147.284V85.2H150.084ZM163.151 94.22C163.151 94.62 163.124 94.98 163.071 95.3H154.971C155.037 96.1 155.317 96.7267 155.811 97.18C156.304 97.6333 156.911 97.86 157.631 97.86C158.671 97.86 159.411 97.4133 159.851 96.52H162.871C162.551 97.5867 161.937 98.4667 161.031 99.16C160.124 99.84 159.011 100.18 157.691 100.18C156.624 100.18 155.664 99.9467 154.811 99.48C153.971 99 153.311 98.3267 152.831 97.46C152.364 96.5933 152.131 95.5933 152.131 94.46C152.131 93.3133 152.364 92.3067 152.831 91.44C153.297 90.5733 153.951 89.9067 154.791 89.44C155.631 88.9733 156.597 88.74 157.691 88.74C158.744 88.74 159.684 88.9667 160.511 89.42C161.351 89.8733 161.997 90.52 162.451 91.36C162.917 92.1867 163.151 93.14 163.151 94.22ZM160.251 93.42C160.237 92.7 159.977 92.1267 159.471 91.7C158.964 91.26 158.344 91.04 157.611 91.04C156.917 91.04 156.331 91.2533 155.851 91.68C155.384 92.0933 155.097 92.6733 154.991 93.42H160.251ZM164.474 94.46C164.474 93.3133 164.708 92.3133 165.174 91.46C165.641 90.5933 166.288 89.9267 167.114 89.46C167.941 88.98 168.888 88.74 169.954 88.74C171.328 88.74 172.461 89.0867 173.354 89.78C174.261 90.46 174.868 91.42 175.174 92.66H172.154C171.994 92.18 171.721 91.8067 171.334 91.54C170.961 91.26 170.494 91.12 169.934 91.12C169.134 91.12 168.501 91.4133 168.034 92C167.568 92.5733 167.334 93.3933 167.334 94.46C167.334 95.5133 167.568 96.3333 168.034 96.92C168.501 97.4933 169.134 97.78 169.934 97.78C171.068 97.78 171.808 97.2733 172.154 96.26H175.174C174.868 97.46 174.261 98.4133 173.354 99.12C172.448 99.8267 171.314 100.18 169.954 100.18C168.888 100.18 167.941 99.9467 167.114 99.48C166.288 99 165.641 98.3333 165.174 97.48C164.708 96.6133 164.474 95.6067 164.474 94.46ZM180.486 91.22V96.58C180.486 96.9533 180.572 97.2267 180.746 97.4C180.932 97.56 181.239 97.64 181.666 97.64H182.966V100H181.206C178.846 100 177.666 98.8533 177.666 96.56V91.22H176.346V88.92H177.666V86.18H180.486V88.92H182.966V91.22H180.486ZM186.4 87.6C185.906 87.6 185.493 87.4467 185.16 87.14C184.84 86.82 184.68 86.4267 184.68 85.96C184.68 85.4933 184.84 85.1067 185.16 84.8C185.493 84.48 185.906 84.32 186.4 84.32C186.893 84.32 187.3 84.48 187.62 84.8C187.953 85.1067 188.12 85.4933 188.12 85.96C188.12 86.4267 187.953 86.82 187.62 87.14C187.3 87.4467 186.893 87.6 186.4 87.6ZM187.78 88.92V100H184.98V88.92H187.78ZM195.466 100.18C194.399 100.18 193.439 99.9467 192.586 99.48C191.733 99 191.059 98.3267 190.566 97.46C190.086 96.5933 189.846 95.5933 189.846 94.46C189.846 93.3267 190.093 92.3267 190.586 91.46C191.093 90.5933 191.779 89.9267 192.646 89.46C193.513 88.98 194.479 88.74 195.546 88.74C196.613 88.74 197.579 88.98 198.446 89.46C199.313 89.9267 199.993 90.5933 200.486 91.46C200.993 92.3267 201.246 93.3267 201.246 94.46C201.246 95.5933 200.986 96.5933 200.466 97.46C199.959 98.3267 199.266 99 198.386 99.48C197.519 99.9467 196.546 100.18 195.466 100.18ZM195.466 97.74C195.973 97.74 196.446 97.62 196.886 97.38C197.339 97.1267 197.699 96.7533 197.966 96.26C198.233 95.7667 198.366 95.1667 198.366 94.46C198.366 93.4067 198.086 92.6 197.526 92.04C196.979 91.4667 196.306 91.18 195.506 91.18C194.706 91.18 194.033 91.4667 193.486 92.04C192.953 92.6 192.686 93.4067 192.686 94.46C192.686 95.5133 192.946 96.3267 193.466 96.9C193.999 97.46 194.666 97.74 195.466 97.74ZM209.44 88.76C210.76 88.76 211.827 89.18 212.64 90.02C213.453 90.8467 213.86 92.0067 213.86 93.5V100H211.06V93.88C211.06 93 210.84 92.3267 210.4 91.86C209.96 91.38 209.36 91.14 208.6 91.14C207.827 91.14 207.213 91.38 206.76 91.86C206.32 92.3267 206.1 93 206.1 93.88V100H203.3V88.92H206.1V90.3C206.473 89.82 206.947 89.4467 207.52 89.18C208.107 88.9 208.747 88.76 209.44 88.76ZM217.763 100.14C217.256 100.14 216.836 99.9867 216.503 99.68C216.183 99.36 216.023 98.9667 216.023 98.5C216.023 98.0333 216.183 97.6467 216.503 97.34C216.836 97.02 217.256 96.86 217.763 96.86C218.256 96.86 218.663 97.02 218.983 97.34C219.303 97.6467 219.463 98.0333 219.463 98.5C219.463 98.9667 219.303 99.36 218.983 99.68C218.663 99.9867 218.256 100.14 217.763 100.14Z" fill="black"/>
</svg>
