<svg width="297" height="73" viewBox="0 0 297 73" fill="none" xmlns="http://www.w3.org/2000/svg">
<path d="M8.69844 8.84C9.48511 8.98667 10.1318 9.38 10.6384 10.02C11.1451 10.66 11.3984 11.3933 11.3984 12.22C11.3984 12.9667 11.2118 13.6267 10.8384 14.2C10.4784 14.76 9.95177 15.2 9.25844 15.52C8.5651 15.84 7.7451 16 6.79844 16H0.778438V2.04H6.53844C7.4851 2.04 8.29844 2.19333 8.97844 2.5C9.67177 2.80667 10.1918 3.23333 10.5384 3.78C10.8984 4.32667 11.0784 4.94667 11.0784 5.64C11.0784 6.45333 10.8584 7.13333 10.4184 7.68C9.99177 8.22667 9.41844 8.61333 8.69844 8.84ZM3.57844 7.8H6.13844C6.8051 7.8 7.31844 7.65333 7.67844 7.36C8.03844 7.05333 8.21844 6.62 8.21844 6.06C8.21844 5.5 8.03844 5.06667 7.67844 4.76C7.31844 4.45333 6.8051 4.3 6.13844 4.3H3.57844V7.8ZM6.39844 13.72C7.07844 13.72 7.6051 13.56 7.97844 13.24C8.3651 12.92 8.55844 12.4667 8.55844 11.88C8.55844 11.28 8.35844 10.8133 7.95844 10.48C7.55844 10.1333 7.01844 9.96 6.33844 9.96H3.57844V13.72H6.39844ZM24.09 4.92V16H21.27V14.6C20.91 15.08 20.4367 15.46 19.85 15.74C19.2767 16.0067 18.65 16.14 17.97 16.14C17.1033 16.14 16.3367 15.96 15.67 15.6C15.0033 15.2267 14.4767 14.6867 14.09 13.98C13.7167 13.26 13.53 12.4067 13.53 11.42V4.92H16.33V11.02C16.33 11.9 16.55 12.58 16.99 13.06C17.43 13.5267 18.03 13.76 18.79 13.76C19.5633 13.76 20.17 13.5267 20.61 13.06C21.05 12.58 21.27 11.9 21.27 11.02V4.92H24.09ZM30.1127 7.22V12.58C30.1127 12.9533 30.1993 13.2267 30.3727 13.4C30.5593 13.56 30.866 13.64 31.2927 13.64H32.5927V16H30.8327C28.4727 16 27.2927 14.8533 27.2927 12.56V7.22H25.9727V4.92H27.2927V2.18H30.1127V4.92H32.5927V7.22H30.1127ZM37.6666 13.06L35.3266 18.68H33.5266L34.8266 13.06H37.6666ZM54.7503 10.22C54.7503 10.62 54.7236 10.98 54.6703 11.3H46.5703C46.637 12.1 46.917 12.7267 47.4103 13.18C47.9036 13.6333 48.5103 13.86 49.2303 13.86C50.2703 13.86 51.0103 13.4133 51.4503 12.52H54.4703C54.1503 13.5867 53.537 14.4667 52.6303 15.16C51.7236 15.84 50.6103 16.18 49.2903 16.18C48.2236 16.18 47.2636 15.9467 46.4103 15.48C45.5703 15 44.9103 14.3267 44.4303 13.46C43.9636 12.5933 43.7303 11.5933 43.7303 10.46C43.7303 9.31333 43.9636 8.30667 44.4303 7.44C44.897 6.57333 45.5503 5.90667 46.3903 5.44C47.2303 4.97333 48.197 4.74 49.2903 4.74C50.3436 4.74 51.2836 4.96667 52.1103 5.42C52.9503 5.87333 53.597 6.52 54.0503 7.36C54.517 8.18667 54.7503 9.14 54.7503 10.22ZM51.8503 9.42C51.837 8.7 51.577 8.12667 51.0703 7.7C50.5636 7.26 49.9436 7.04 49.2103 7.04C48.517 7.04 47.9303 7.25333 47.4503 7.68C46.9836 8.09333 46.697 8.67333 46.5903 9.42H51.8503ZM61.4141 13.42L64.2141 4.92H67.1941L63.0941 16H59.6941L55.6141 4.92H58.6141L61.4141 13.42ZM79.0667 10.22C79.0667 10.62 79.0401 10.98 78.9867 11.3H70.8867C70.9534 12.1 71.2334 12.7267 71.7267 13.18C72.2201 13.6333 72.8267 13.86 73.5467 13.86C74.5867 13.86 75.3267 13.4133 75.7667 12.52H78.7867C78.4667 13.5867 77.8534 14.4667 76.9467 15.16C76.0401 15.84 74.9267 16.18 73.6067 16.18C72.5401 16.18 71.5801 15.9467 70.7267 15.48C69.8867 15 69.2267 14.3267 68.7467 13.46C68.2801 12.5933 68.0467 11.5933 68.0467 10.46C68.0467 9.31333 68.2801 8.30667 68.7467 7.44C69.2134 6.57333 69.8667 5.90667 70.7067 5.44C71.5467 4.97333 72.5134 4.74 73.6067 4.74C74.6601 4.74 75.6001 4.96667 76.4267 5.42C77.2667 5.87333 77.9134 6.52 78.3667 7.36C78.8334 8.18667 79.0667 9.14 79.0667 10.22ZM76.1667 9.42C76.1534 8.7 75.8934 8.12667 75.3867 7.7C74.8801 7.26 74.2601 7.04 73.5267 7.04C72.8334 7.04 72.2467 7.25333 71.7667 7.68C71.3001 8.09333 71.0134 8.67333 70.9067 9.42H76.1667ZM87.2505 4.76C88.5705 4.76 89.6371 5.18 90.4505 6.02C91.2638 6.84667 91.6705 8.00667 91.6705 9.5V16H88.8705V9.88C88.8705 9 88.6505 8.32667 88.2105 7.86C87.7705 7.38 87.1705 7.14 86.4105 7.14C85.6371 7.14 85.0238 7.38 84.5705 7.86C84.1305 8.32667 83.9105 9 83.9105 9.88V16H81.1105V4.92H83.9105V6.3C84.2838 5.82 84.7571 5.44667 85.3305 5.18C85.9171 4.9 86.5571 4.76 87.2505 4.76ZM98.3787 10.42C98.3787 9.3 98.5987 8.30667 99.0387 7.44C99.4921 6.57333 100.099 5.90667 100.859 5.44C101.632 4.97333 102.492 4.74 103.439 4.74C104.265 4.74 104.985 4.90667 105.599 5.24C106.225 5.57333 106.725 5.99333 107.099 6.5V4.92H109.919V16H107.099V14.38C106.739 14.9 106.239 15.3333 105.599 15.68C104.972 16.0133 104.245 16.18 103.419 16.18C102.485 16.18 101.632 15.94 100.859 15.46C100.099 14.98 99.4921 14.3067 99.0387 13.44C98.5987 12.56 98.3787 11.5533 98.3787 10.42ZM107.099 10.46C107.099 9.78 106.965 9.2 106.699 8.72C106.432 8.22667 106.072 7.85333 105.619 7.6C105.165 7.33333 104.679 7.2 104.159 7.2C103.639 7.2 103.159 7.32667 102.719 7.58C102.279 7.83333 101.919 8.20667 101.639 8.7C101.372 9.18 101.239 9.75333 101.239 10.42C101.239 11.0867 101.372 11.6733 101.639 12.18C101.919 12.6733 102.279 13.0533 102.719 13.32C103.172 13.5867 103.652 13.72 104.159 13.72C104.679 13.72 105.165 13.5933 105.619 13.34C106.072 13.0733 106.432 12.7 106.699 12.22C106.965 11.7267 107.099 11.14 107.099 10.46ZM117.733 7.22H115.793V16H112.953V7.22H111.693V4.92H112.953V4.36C112.953 3 113.34 2 114.113 1.36C114.887 0.719999 116.053 0.42 117.613 0.46V2.82C116.933 2.80667 116.46 2.92 116.193 3.16C115.927 3.4 115.793 3.83333 115.793 4.46V4.92H117.733V7.22ZM122.808 7.22V12.58C122.808 12.9533 122.895 13.2267 123.068 13.4C123.255 13.56 123.561 13.64 123.988 13.64H125.288V16H123.528C121.168 16 119.988 14.8533 119.988 12.56V7.22H118.668V4.92H119.988V2.18H122.808V4.92H125.288V7.22H122.808ZM137.602 10.22C137.602 10.62 137.575 10.98 137.522 11.3H129.422C129.489 12.1 129.769 12.7267 130.262 13.18C130.755 13.6333 131.362 13.86 132.082 13.86C133.122 13.86 133.862 13.4133 134.302 12.52H137.322C137.002 13.5867 136.389 14.4667 135.482 15.16C134.575 15.84 133.462 16.18 132.142 16.18C131.075 16.18 130.115 15.9467 129.262 15.48C128.422 15 127.762 14.3267 127.282 13.46C126.815 12.5933 126.582 11.5933 126.582 10.46C126.582 9.31333 126.815 8.30667 127.282 7.44C127.749 6.57333 128.402 5.90667 129.242 5.44C130.082 4.97333 131.049 4.74 132.142 4.74C133.195 4.74 134.135 4.96667 134.962 5.42C135.802 5.87333 136.449 6.52 136.902 7.36C137.369 8.18667 137.602 9.14 137.602 10.22ZM134.702 9.42C134.689 8.7 134.429 8.12667 133.922 7.7C133.415 7.26 132.795 7.04 132.062 7.04C131.369 7.04 130.782 7.25333 130.302 7.68C129.835 8.09333 129.549 8.67333 129.442 9.42H134.702ZM142.446 6.64C142.806 6.05333 143.272 5.59333 143.846 5.26C144.432 4.92667 145.099 4.76 145.846 4.76V7.7H145.106C144.226 7.7 143.559 7.90667 143.106 8.32C142.666 8.73333 142.446 9.45333 142.446 10.48V16H139.646V4.92H142.446V6.64ZM157.417 16.18C156.351 16.18 155.391 15.9467 154.537 15.48C153.684 15 153.011 14.3267 152.517 13.46C152.037 12.5933 151.797 11.5933 151.797 10.46C151.797 9.32667 152.044 8.32667 152.537 7.46C153.044 6.59333 153.731 5.92667 154.597 5.46C155.464 4.98 156.431 4.74 157.497 4.74C158.564 4.74 159.531 4.98 160.397 5.46C161.264 5.92667 161.944 6.59333 162.437 7.46C162.944 8.32667 163.197 9.32667 163.197 10.46C163.197 11.5933 162.937 12.5933 162.417 13.46C161.911 14.3267 161.217 15 160.337 15.48C159.471 15.9467 158.497 16.18 157.417 16.18ZM157.417 13.74C157.924 13.74 158.397 13.62 158.837 13.38C159.291 13.1267 159.651 12.7533 159.917 12.26C160.184 11.7667 160.317 11.1667 160.317 10.46C160.317 9.40667 160.037 8.6 159.477 8.04C158.931 7.46667 158.257 7.18 157.457 7.18C156.657 7.18 155.984 7.46667 155.437 8.04C154.904 8.6 154.637 9.40667 154.637 10.46C154.637 11.5133 154.897 12.3267 155.417 12.9C155.951 13.46 156.617 13.74 157.417 13.74ZM175.711 4.92V16H172.891V14.6C172.531 15.08 172.058 15.46 171.471 15.74C170.898 16.0067 170.271 16.14 169.591 16.14C168.724 16.14 167.958 15.96 167.291 15.6C166.624 15.2267 166.098 14.6867 165.711 13.98C165.338 13.26 165.151 12.4067 165.151 11.42V4.92H167.951V11.02C167.951 11.9 168.171 12.58 168.611 13.06C169.051 13.5267 169.651 13.76 170.411 13.76C171.184 13.76 171.791 13.5267 172.231 13.06C172.671 12.58 172.891 11.9 172.891 11.02V4.92H175.711ZM181.274 6.64C181.634 6.05333 182.1 5.59333 182.674 5.26C183.26 4.92667 183.927 4.76 184.674 4.76V7.7H183.934C183.054 7.7 182.387 7.90667 181.934 8.32C181.494 8.73333 181.274 9.45333 181.274 10.48V16H178.474V4.92H181.274V6.64ZM197.565 4.76C198.405 4.76 199.152 4.94667 199.805 5.32C200.459 5.68 200.965 6.22 201.325 6.94C201.699 7.64667 201.885 8.5 201.885 9.5V16H199.085V9.88C199.085 9 198.865 8.32667 198.425 7.86C197.985 7.38 197.385 7.14 196.625 7.14C195.852 7.14 195.239 7.38 194.785 7.86C194.345 8.32667 194.125 9 194.125 9.88V16H191.325V1.2H194.125V6.3C194.485 5.82 194.965 5.44667 195.565 5.18C196.165 4.9 196.832 4.76 197.565 4.76ZM203.828 10.42C203.828 9.3 204.048 8.30667 204.488 7.44C204.941 6.57333 205.548 5.90667 206.308 5.44C207.081 4.97333 207.941 4.74 208.888 4.74C209.715 4.74 210.435 4.90667 211.048 5.24C211.675 5.57333 212.175 5.99333 212.548 6.5V4.92H215.368V16H212.548V14.38C212.188 14.9 211.688 15.3333 211.048 15.68C210.421 16.0133 209.695 16.18 208.868 16.18C207.935 16.18 207.081 15.94 206.308 15.46C205.548 14.98 204.941 14.3067 204.488 13.44C204.048 12.56 203.828 11.5533 203.828 10.42ZM212.548 10.46C212.548 9.78 212.415 9.2 212.148 8.72C211.881 8.22667 211.521 7.85333 211.068 7.6C210.615 7.33333 210.128 7.2 209.608 7.2C209.088 7.2 208.608 7.32667 208.168 7.58C207.728 7.83333 207.368 8.20667 207.088 8.7C206.821 9.18 206.688 9.75333 206.688 10.42C206.688 11.0867 206.821 11.6733 207.088 12.18C207.368 12.6733 207.728 13.0533 208.168 13.32C208.621 13.5867 209.101 13.72 209.608 13.72C210.128 13.72 210.615 13.5933 211.068 13.34C211.521 13.0733 211.881 12.7 212.148 12.22C212.415 11.7267 212.548 11.14 212.548 10.46ZM220.903 6.64C221.263 6.05333 221.729 5.59333 222.303 5.26C222.889 4.92667 223.556 4.76 224.303 4.76V7.7H223.563C222.683 7.7 222.016 7.90667 221.563 8.32C221.123 8.73333 220.903 9.45333 220.903 10.48V16H218.103V4.92H220.903V6.64ZM225.469 10.42C225.469 9.3 225.689 8.30667 226.129 7.44C226.582 6.57333 227.195 5.90667 227.969 5.44C228.742 4.97333 229.602 4.74 230.549 4.74C231.269 4.74 231.955 4.9 232.609 5.22C233.262 5.52667 233.782 5.94 234.169 6.46V1.2H237.009V16H234.169V14.36C233.822 14.9067 233.335 15.3467 232.709 15.68C232.082 16.0133 231.355 16.18 230.529 16.18C229.595 16.18 228.742 15.94 227.969 15.46C227.195 14.98 226.582 14.3067 226.129 13.44C225.689 12.56 225.469 11.5533 225.469 10.42ZM234.189 10.46C234.189 9.78 234.055 9.2 233.789 8.72C233.522 8.22667 233.162 7.85333 232.709 7.6C232.255 7.33333 231.769 7.2 231.249 7.2C230.729 7.2 230.249 7.32667 229.809 7.58C229.369 7.83333 229.009 8.20667 228.729 8.7C228.462 9.18 228.329 9.75333 228.329 10.42C228.329 11.0867 228.462 11.6733 228.729 12.18C229.009 12.6733 229.369 13.0533 229.809 13.32C230.262 13.5867 230.742 13.72 231.249 13.72C231.769 13.72 232.255 13.5933 232.709 13.34C233.162 13.0733 233.522 12.7 233.789 12.22C234.055 11.7267 234.189 11.14 234.189 10.46ZM259.869 4.92L256.629 16H253.609L251.589 8.26L249.569 16H246.529L243.269 4.92H246.109L248.069 13.36L250.189 4.92H253.149L255.229 13.34L257.189 4.92H259.869ZM266.304 16.18C265.237 16.18 264.277 15.9467 263.424 15.48C262.571 15 261.897 14.3267 261.404 13.46C260.924 12.5933 260.684 11.5933 260.684 10.46C260.684 9.32667 260.931 8.32667 261.424 7.46C261.931 6.59333 262.617 5.92667 263.484 5.46C264.351 4.98 265.317 4.74 266.384 4.74C267.451 4.74 268.417 4.98 269.284 5.46C270.151 5.92667 270.831 6.59333 271.324 7.46C271.831 8.32667 272.084 9.32667 272.084 10.46C272.084 11.5933 271.824 12.5933 271.304 13.46C270.797 14.3267 270.104 15 269.224 15.48C268.357 15.9467 267.384 16.18 266.304 16.18ZM266.304 13.74C266.811 13.74 267.284 13.62 267.724 13.38C268.177 13.1267 268.537 12.7533 268.804 12.26C269.071 11.7667 269.204 11.1667 269.204 10.46C269.204 9.40667 268.924 8.6 268.364 8.04C267.817 7.46667 267.144 7.18 266.344 7.18C265.544 7.18 264.871 7.46667 264.324 8.04C263.791 8.6 263.524 9.40667 263.524 10.46C263.524 11.5133 263.784 12.3267 264.304 12.9C264.837 13.46 265.504 13.74 266.304 13.74ZM276.938 6.64C277.298 6.05333 277.764 5.59333 278.338 5.26C278.924 4.92667 279.591 4.76 280.338 4.76V7.7H279.598C278.718 7.7 278.051 7.90667 277.598 8.32C277.158 8.73333 276.938 9.45333 276.938 10.48V16H274.138V4.92H276.938V6.64ZM288.784 16L285.024 11.28V16H282.224V1.2H285.024V9.62L288.744 4.92H292.384L287.504 10.48L292.424 16H288.784ZM296.963 13.06L294.623 18.68H292.823L294.123 13.06H296.963ZM24.3003 30.04L19.5803 39.14V44H16.7803V39.14L12.0403 30.04H15.2003L18.2003 36.42L21.1803 30.04H24.3003ZM30.8352 44.18C29.7685 44.18 28.8085 43.9467 27.9552 43.48C27.1018 43 26.4285 42.3267 25.9352 41.46C25.4552 40.5933 25.2152 39.5933 25.2152 38.46C25.2152 37.3267 25.4618 36.3267 25.9552 35.46C26.4618 34.5933 27.1485 33.9267 28.0152 33.46C28.8818 32.98 29.8485 32.74 30.9152 32.74C31.9818 32.74 32.9485 32.98 33.8152 33.46C34.6818 33.9267 35.3618 34.5933 35.8552 35.46C36.3618 36.3267 36.6152 37.3267 36.6152 38.46C36.6152 39.5933 36.3552 40.5933 35.8352 41.46C35.3285 42.3267 34.6352 43 33.7552 43.48C32.8885 43.9467 31.9152 44.18 30.8352 44.18ZM30.8352 41.74C31.3418 41.74 31.8152 41.62 32.2552 41.38C32.7085 41.1267 33.0685 40.7533 33.3352 40.26C33.6018 39.7667 33.7352 39.1667 33.7352 38.46C33.7352 37.4067 33.4552 36.6 32.8952 36.04C32.3485 35.4667 31.6752 35.18 30.8752 35.18C30.0752 35.18 29.4018 35.4667 28.8552 36.04C28.3218 36.6 28.0552 37.4067 28.0552 38.46C28.0552 39.5133 28.3152 40.3267 28.8352 40.9C29.3685 41.46 30.0352 41.74 30.8352 41.74ZM49.1291 32.92V44H46.3091V42.6C45.9491 43.08 45.4757 43.46 44.8891 43.74C44.3157 44.0067 43.6891 44.14 43.0091 44.14C42.1424 44.14 41.3757 43.96 40.7091 43.6C40.0424 43.2267 39.5157 42.6867 39.1291 41.98C38.7557 41.26 38.5691 40.4067 38.5691 39.42V32.92H41.3691V39.02C41.3691 39.9 41.5891 40.58 42.0291 41.06C42.4691 41.5267 43.0691 41.76 43.8291 41.76C44.6024 41.76 45.2091 41.5267 45.6491 41.06C46.0891 40.58 46.3091 39.9 46.3091 39.02V32.92H49.1291ZM55.9373 38.42C55.9373 37.3 56.1573 36.3067 56.5973 35.44C57.0507 34.5733 57.6573 33.9067 58.4173 33.44C59.1907 32.9733 60.0507 32.74 60.9973 32.74C61.824 32.74 62.544 32.9067 63.1573 33.24C63.784 33.5733 64.284 33.9933 64.6573 34.5V32.92H67.4773V44H64.6573V42.38C64.2973 42.9 63.7973 43.3333 63.1573 43.68C62.5307 44.0133 61.804 44.18 60.9773 44.18C60.044 44.18 59.1907 43.94 58.4173 43.46C57.6573 42.98 57.0507 42.3067 56.5973 41.44C56.1573 40.56 55.9373 39.5533 55.9373 38.42ZM64.6573 38.46C64.6573 37.78 64.524 37.2 64.2573 36.72C63.9907 36.2267 63.6307 35.8533 63.1773 35.6C62.724 35.3333 62.2373 35.2 61.7173 35.2C61.1973 35.2 60.7173 35.3267 60.2773 35.58C59.8373 35.8333 59.4773 36.2067 59.1973 36.7C58.9307 37.18 58.7973 37.7533 58.7973 38.42C58.7973 39.0867 58.9307 39.6733 59.1973 40.18C59.4773 40.6733 59.8373 41.0533 60.2773 41.32C60.7307 41.5867 61.2107 41.72 61.7173 41.72C62.2373 41.72 62.724 41.5933 63.1773 41.34C63.6307 41.0733 63.9907 40.7 64.2573 40.22C64.524 39.7267 64.6573 39.14 64.6573 38.46ZM73.012 34.64C73.372 34.0533 73.8387 33.5933 74.412 33.26C74.9987 32.9267 75.6654 32.76 76.412 32.76V35.7H75.672C74.792 35.7 74.1254 35.9067 73.672 36.32C73.232 36.7333 73.012 37.4533 73.012 38.48V44H70.212V32.92H73.012V34.64ZM88.598 38.22C88.598 38.62 88.5713 38.98 88.518 39.3H80.418C80.4846 40.1 80.7646 40.7267 81.258 41.18C81.7513 41.6333 82.358 41.86 83.078 41.86C84.118 41.86 84.858 41.4133 85.298 40.52H88.318C87.998 41.5867 87.3846 42.4667 86.478 43.16C85.5713 43.84 84.458 44.18 83.138 44.18C82.0713 44.18 81.1113 43.9467 80.258 43.48C79.418 43 78.758 42.3267 78.278 41.46C77.8113 40.5933 77.578 39.5933 77.578 38.46C77.578 37.3133 77.8113 36.3067 78.278 35.44C78.7446 34.5733 79.398 33.9067 80.238 33.44C81.078 32.9733 82.0446 32.74 83.138 32.74C84.1913 32.74 85.1313 32.9667 85.958 33.42C86.798 33.8733 87.4446 34.52 87.898 35.36C88.3646 36.1867 88.598 37.14 88.598 38.22ZM85.698 37.42C85.6846 36.7 85.4246 36.1267 84.918 35.7C84.4113 35.26 83.7913 35.04 83.058 35.04C82.3646 35.04 81.778 35.2533 81.298 35.68C80.8313 36.0933 80.5446 36.6733 80.438 37.42H85.698ZM101.547 32.76C102.867 32.76 103.934 33.18 104.747 34.02C105.561 34.8467 105.967 36.0067 105.967 37.5V44H103.167V37.88C103.167 37 102.947 36.3267 102.507 35.86C102.067 35.38 101.467 35.14 100.707 35.14C99.934 35.14 99.3207 35.38 98.8673 35.86C98.4273 36.3267 98.2073 37 98.2073 37.88V44H95.4073V32.92H98.2073V34.3C98.5807 33.82 99.054 33.4467 99.6273 33.18C100.214 32.9 100.854 32.76 101.547 32.76ZM113.55 44.18C112.483 44.18 111.523 43.9467 110.67 43.48C109.817 43 109.143 42.3267 108.65 41.46C108.17 40.5933 107.93 39.5933 107.93 38.46C107.93 37.3267 108.177 36.3267 108.67 35.46C109.177 34.5933 109.863 33.9267 110.73 33.46C111.597 32.98 112.563 32.74 113.63 32.74C114.697 32.74 115.663 32.98 116.53 33.46C117.397 33.9267 118.077 34.5933 118.57 35.46C119.077 36.3267 119.33 37.3267 119.33 38.46C119.33 39.5933 119.07 40.5933 118.55 41.46C118.043 42.3267 117.35 43 116.47 43.48C115.603 43.9467 114.63 44.18 113.55 44.18ZM113.55 41.74C114.057 41.74 114.53 41.62 114.97 41.38C115.423 41.1267 115.783 40.7533 116.05 40.26C116.317 39.7667 116.45 39.1667 116.45 38.46C116.45 37.4067 116.17 36.6 115.61 36.04C115.063 35.4667 114.39 35.18 113.59 35.18C112.79 35.18 112.117 35.4667 111.57 36.04C111.037 36.6 110.77 37.4067 110.77 38.46C110.77 39.5133 111.03 40.3267 111.55 40.9C112.083 41.46 112.75 41.74 113.55 41.74ZM124.644 35.22V40.58C124.644 40.9533 124.731 41.2267 124.904 41.4C125.091 41.56 125.397 41.64 125.824 41.64H127.124V44H125.364C123.004 44 121.824 42.8533 121.824 40.56V35.22H120.504V32.92H121.824V30.18H124.644V32.92H127.124V35.22H124.644ZM138.143 44.18C137.237 44.18 136.423 44.02 135.703 43.7C134.983 43.3667 134.41 42.92 133.983 42.36C133.57 41.8 133.343 41.18 133.303 40.5H136.123C136.177 40.9267 136.383 41.28 136.743 41.56C137.117 41.84 137.577 41.98 138.123 41.98C138.657 41.98 139.07 41.8733 139.363 41.66C139.67 41.4467 139.823 41.1733 139.823 40.84C139.823 40.48 139.637 40.2133 139.263 40.04C138.903 39.8533 138.323 39.6533 137.523 39.44C136.697 39.24 136.017 39.0333 135.483 38.82C134.963 38.6067 134.51 38.28 134.123 37.84C133.75 37.4 133.563 36.8067 133.563 36.06C133.563 35.4467 133.737 34.8867 134.083 34.38C134.443 33.8733 134.95 33.4733 135.603 33.18C136.27 32.8867 137.05 32.74 137.943 32.74C139.263 32.74 140.317 33.0733 141.103 33.74C141.89 34.3933 142.323 35.28 142.403 36.4H139.723C139.683 35.96 139.497 35.6133 139.163 35.36C138.843 35.0933 138.41 34.96 137.863 34.96C137.357 34.96 136.963 35.0533 136.683 35.24C136.417 35.4267 136.283 35.6867 136.283 36.02C136.283 36.3933 136.47 36.68 136.843 36.88C137.217 37.0667 137.797 37.26 138.583 37.46C139.383 37.66 140.043 37.8667 140.563 38.08C141.083 38.2933 141.53 38.6267 141.903 39.08C142.29 39.52 142.49 40.1067 142.503 40.84C142.503 41.48 142.323 42.0533 141.963 42.56C141.617 43.0667 141.11 43.4667 140.443 43.76C139.79 44.04 139.023 44.18 138.143 44.18ZM155.102 38.22C155.102 38.62 155.075 38.98 155.022 39.3H146.922C146.989 40.1 147.269 40.7267 147.762 41.18C148.255 41.6333 148.862 41.86 149.582 41.86C150.622 41.86 151.362 41.4133 151.802 40.52H154.822C154.502 41.5867 153.889 42.4667 152.982 43.16C152.075 43.84 150.962 44.18 149.642 44.18C148.575 44.18 147.615 43.9467 146.762 43.48C145.922 43 145.262 42.3267 144.782 41.46C144.315 40.5933 144.082 39.5933 144.082 38.46C144.082 37.3133 144.315 36.3067 144.782 35.44C145.249 34.5733 145.902 33.9067 146.742 33.44C147.582 32.9733 148.549 32.74 149.642 32.74C150.695 32.74 151.635 32.9667 152.462 33.42C153.302 33.8733 153.949 34.52 154.402 35.36C154.869 36.1867 155.102 37.14 155.102 38.22ZM152.202 37.42C152.189 36.7 151.929 36.1267 151.422 35.7C150.915 35.26 150.295 35.04 149.562 35.04C148.869 35.04 148.282 35.2533 147.802 35.68C147.335 36.0933 147.049 36.6733 146.942 37.42H152.202ZM159.946 29.2V44H157.146V29.2H159.946ZM173.012 38.22C173.012 38.62 172.985 38.98 172.932 39.3H164.832C164.899 40.1 165.179 40.7267 165.672 41.18C166.165 41.6333 166.772 41.86 167.492 41.86C168.532 41.86 169.272 41.4133 169.712 40.52H172.732C172.412 41.5867 171.799 42.4667 170.892 43.16C169.985 43.84 168.872 44.18 167.552 44.18C166.485 44.18 165.525 43.9467 164.672 43.48C163.832 43 163.172 42.3267 162.692 41.46C162.225 40.5933 161.992 39.5933 161.992 38.46C161.992 37.3133 162.225 36.3067 162.692 35.44C163.159 34.5733 163.812 33.9067 164.652 33.44C165.492 32.9733 166.459 32.74 167.552 32.74C168.605 32.74 169.545 32.9667 170.372 33.42C171.212 33.8733 171.859 34.52 172.312 35.36C172.779 36.1867 173.012 37.14 173.012 38.22ZM170.112 37.42C170.099 36.7 169.839 36.1267 169.332 35.7C168.825 35.26 168.205 35.04 167.472 35.04C166.779 35.04 166.192 35.2533 165.712 35.68C165.245 36.0933 164.959 36.6733 164.852 37.42H170.112ZM174.336 38.46C174.336 37.3133 174.569 36.3133 175.036 35.46C175.502 34.5933 176.149 33.9267 176.976 33.46C177.802 32.98 178.749 32.74 179.816 32.74C181.189 32.74 182.322 33.0867 183.216 33.78C184.122 34.46 184.729 35.42 185.036 36.66H182.016C181.856 36.18 181.582 35.8067 181.196 35.54C180.822 35.26 180.356 35.12 179.796 35.12C178.996 35.12 178.362 35.4133 177.896 36C177.429 36.5733 177.196 37.3933 177.196 38.46C177.196 39.5133 177.429 40.3333 177.896 40.92C178.362 41.4933 178.996 41.78 179.796 41.78C180.929 41.78 181.669 41.2733 182.016 40.26H185.036C184.729 41.46 184.122 42.4133 183.216 43.12C182.309 43.8267 181.176 44.18 179.816 44.18C178.749 44.18 177.802 43.9467 176.976 43.48C176.149 43 175.502 42.3333 175.036 41.48C174.569 40.6133 174.336 39.6067 174.336 38.46ZM190.347 35.22V40.58C190.347 40.9533 190.434 41.2267 190.607 41.4C190.794 41.56 191.1 41.64 191.527 41.64H192.827V44H191.067C188.707 44 187.527 42.8533 187.527 40.56V35.22H186.207V32.92H187.527V30.18H190.347V32.92H192.827V35.22H190.347ZM205.141 38.22C205.141 38.62 205.114 38.98 205.061 39.3H196.961C197.028 40.1 197.308 40.7267 197.801 41.18C198.294 41.6333 198.901 41.86 199.621 41.86C200.661 41.86 201.401 41.4133 201.841 40.52H204.861C204.541 41.5867 203.928 42.4667 203.021 43.16C202.114 43.84 201.001 44.18 199.681 44.18C198.614 44.18 197.654 43.9467 196.801 43.48C195.961 43 195.301 42.3267 194.821 41.46C194.354 40.5933 194.121 39.5933 194.121 38.46C194.121 37.3133 194.354 36.3067 194.821 35.44C195.288 34.5733 195.941 33.9067 196.781 33.44C197.621 32.9733 198.588 32.74 199.681 32.74C200.734 32.74 201.674 32.9667 202.501 33.42C203.341 33.8733 203.988 34.52 204.441 35.36C204.908 36.1867 205.141 37.14 205.141 38.22ZM202.241 37.42C202.228 36.7 201.968 36.1267 201.461 35.7C200.954 35.26 200.334 35.04 199.601 35.04C198.908 35.04 198.321 35.2533 197.841 35.68C197.374 36.0933 197.088 36.6733 196.981 37.42H202.241ZM206.465 38.42C206.465 37.3 206.685 36.3067 207.125 35.44C207.578 34.5733 208.191 33.9067 208.965 33.44C209.738 32.9733 210.598 32.74 211.545 32.74C212.265 32.74 212.951 32.9 213.605 33.22C214.258 33.5267 214.778 33.94 215.165 34.46V29.2H218.005V44H215.165V42.36C214.818 42.9067 214.331 43.3467 213.705 43.68C213.078 44.0133 212.351 44.18 211.525 44.18C210.591 44.18 209.738 43.94 208.965 43.46C208.191 42.98 207.578 42.3067 207.125 41.44C206.685 40.56 206.465 39.5533 206.465 38.42ZM215.185 38.46C215.185 37.78 215.051 37.2 214.785 36.72C214.518 36.2267 214.158 35.8533 213.705 35.6C213.251 35.3333 212.765 35.2 212.245 35.2C211.725 35.2 211.245 35.3267 210.805 35.58C210.365 35.8333 210.005 36.2067 209.725 36.7C209.458 37.18 209.325 37.7533 209.325 38.42C209.325 39.0867 209.458 39.6733 209.725 40.18C210.005 40.6733 210.365 41.0533 210.805 41.32C211.258 41.5867 211.738 41.72 212.245 41.72C212.765 41.72 213.251 41.5933 213.705 41.34C214.158 41.0733 214.518 40.7 214.785 40.22C215.051 39.7267 215.185 39.14 215.185 38.46ZM230.585 35.22H228.645V44H225.805V35.22H224.545V32.92H225.805V32.36C225.805 31 226.192 30 226.965 29.36C227.738 28.72 228.905 28.42 230.465 28.46V30.82C229.785 30.8067 229.312 30.92 229.045 31.16C228.778 31.4 228.645 31.8333 228.645 32.46V32.92H230.585V35.22ZM237.32 44.18C236.253 44.18 235.293 43.9467 234.44 43.48C233.586 43 232.913 42.3267 232.42 41.46C231.94 40.5933 231.7 39.5933 231.7 38.46C231.7 37.3267 231.946 36.3267 232.44 35.46C232.946 34.5933 233.633 33.9267 234.5 33.46C235.366 32.98 236.333 32.74 237.4 32.74C238.466 32.74 239.433 32.98 240.3 33.46C241.166 33.9267 241.846 34.5933 242.34 35.46C242.846 36.3267 243.1 37.3267 243.1 38.46C243.1 39.5933 242.84 40.5933 242.32 41.46C241.813 42.3267 241.12 43 240.24 43.48C239.373 43.9467 238.4 44.18 237.32 44.18ZM237.32 41.74C237.826 41.74 238.3 41.62 238.74 41.38C239.193 41.1267 239.553 40.7533 239.82 40.26C240.086 39.7667 240.22 39.1667 240.22 38.46C240.22 37.4067 239.94 36.6 239.38 36.04C238.833 35.4667 238.16 35.18 237.36 35.18C236.56 35.18 235.886 35.4667 235.34 36.04C234.806 36.6 234.54 37.4067 234.54 38.46C234.54 39.5133 234.8 40.3267 235.32 40.9C235.853 41.46 236.52 41.74 237.32 41.74ZM247.953 34.64C248.313 34.0533 248.78 33.5933 249.353 33.26C249.94 32.9267 250.607 32.76 251.353 32.76V35.7H250.613C249.733 35.7 249.067 35.9067 248.613 36.32C248.173 36.7333 247.953 37.4533 247.953 38.48V44H245.153V32.92H247.953V34.64ZM261.265 35.22V40.58C261.265 40.9533 261.352 41.2267 261.525 41.4C261.712 41.56 262.018 41.64 262.445 41.64H263.745V44H261.985C259.625 44 258.445 42.8533 258.445 40.56V35.22H257.125V32.92H258.445V30.18H261.265V32.92H263.745V35.22H261.265ZM271.999 32.76C272.839 32.76 273.586 32.9467 274.239 33.32C274.892 33.68 275.399 34.22 275.759 34.94C276.132 35.6467 276.319 36.5 276.319 37.5V44H273.519V37.88C273.519 37 273.299 36.3267 272.859 35.86C272.419 35.38 271.819 35.14 271.059 35.14C270.286 35.14 269.672 35.38 269.219 35.86C268.779 36.3267 268.559 37 268.559 37.88V44H265.759V29.2H268.559V34.3C268.919 33.82 269.399 33.4467 269.999 33.18C270.599 32.9 271.266 32.76 271.999 32.76ZM289.282 38.22C289.282 38.62 289.255 38.98 289.202 39.3H281.102C281.168 40.1 281.448 40.7267 281.942 41.18C282.435 41.6333 283.042 41.86 283.762 41.86C284.802 41.86 285.542 41.4133 285.982 40.52H289.002C288.682 41.5867 288.068 42.4667 287.162 43.16C286.255 43.84 285.142 44.18 283.822 44.18C282.755 44.18 281.795 43.9467 280.942 43.48C280.102 43 279.442 42.3267 278.962 41.46C278.495 40.5933 278.262 39.5933 278.262 38.46C278.262 37.3133 278.495 36.3067 278.962 35.44C279.428 34.5733 280.082 33.9067 280.922 33.44C281.762 32.9733 282.728 32.74 283.822 32.74C284.875 32.74 285.815 32.9667 286.642 33.42C287.482 33.8733 288.128 34.52 288.582 35.36C289.048 36.1867 289.282 37.14 289.282 38.22ZM286.382 37.42C286.368 36.7 286.108 36.1267 285.602 35.7C285.095 35.26 284.475 35.04 283.742 35.04C283.048 35.04 282.462 35.2533 281.982 35.68C281.515 36.0933 281.228 36.6733 281.122 37.42H286.382ZM47.4734 72.14C46.5001 72.14 45.6201 71.9733 44.8334 71.64C44.0601 71.3067 43.4468 70.8267 42.9934 70.2C42.5401 69.5733 42.3068 68.8333 42.2934 67.98H45.2934C45.3334 68.5533 45.5334 69.0067 45.8934 69.34C46.2668 69.6733 46.7734 69.84 47.4134 69.84C48.0668 69.84 48.5801 69.6867 48.9534 69.38C49.3268 69.06 49.5134 68.6467 49.5134 68.14C49.5134 67.7267 49.3868 67.3867 49.1334 67.12C48.8801 66.8533 48.5601 66.6467 48.1734 66.5C47.8001 66.34 47.2801 66.1667 46.6134 65.98C45.7068 65.7133 44.9668 65.4533 44.3934 65.2C43.8334 64.9333 43.3468 64.54 42.9334 64.02C42.5334 63.4867 42.3334 62.78 42.3334 61.9C42.3334 61.0733 42.5401 60.3533 42.9534 59.74C43.3668 59.1267 43.9468 58.66 44.6934 58.34C45.4401 58.0067 46.2934 57.84 47.2534 57.84C48.6934 57.84 49.8601 58.1933 50.7534 58.9C51.6601 59.5933 52.1601 60.5667 52.2534 61.82H49.1734C49.1468 61.34 48.9401 60.9467 48.5534 60.64C48.1801 60.32 47.6801 60.16 47.0534 60.16C46.5068 60.16 46.0668 60.3 45.7334 60.58C45.4134 60.86 45.2534 61.2667 45.2534 61.8C45.2534 62.1733 45.3734 62.4867 45.6134 62.74C45.8668 62.98 46.1734 63.18 46.5334 63.34C46.9068 63.4867 47.4268 63.66 48.0934 63.86C49.0001 64.1267 49.7401 64.3933 50.3134 64.66C50.8868 64.9267 51.3801 65.3267 51.7934 65.86C52.2068 66.3933 52.4134 67.0933 52.4134 67.96C52.4134 68.7067 52.2201 69.4 51.8334 70.04C51.4468 70.68 50.8801 71.1933 50.1334 71.58C49.3868 71.9533 48.5001 72.14 47.4734 72.14ZM54.1209 66.46C54.1209 65.3133 54.3543 64.3133 54.8209 63.46C55.2876 62.5933 55.9343 61.9267 56.7609 61.46C57.5876 60.98 58.5343 60.74 59.6009 60.74C60.9743 60.74 62.1076 61.0867 63.0009 61.78C63.9076 62.46 64.5143 63.42 64.8209 64.66H61.8009C61.6409 64.18 61.3676 63.8067 60.9809 63.54C60.6076 63.26 60.1409 63.12 59.5809 63.12C58.7809 63.12 58.1476 63.4133 57.6809 64C57.2143 64.5733 56.9809 65.3933 56.9809 66.46C56.9809 67.5133 57.2143 68.3333 57.6809 68.92C58.1476 69.4933 58.7809 69.78 59.5809 69.78C60.7143 69.78 61.4543 69.2733 61.8009 68.26H64.8209C64.5143 69.46 63.9076 70.4133 63.0009 71.12C62.0943 71.8267 60.9609 72.18 59.6009 72.18C58.5343 72.18 57.5876 71.9467 56.7609 71.48C55.9343 71 55.2876 70.3333 54.8209 69.48C54.3543 68.6133 54.1209 67.6067 54.1209 66.46ZM73.1122 60.76C73.9522 60.76 74.6989 60.9467 75.3522 61.32C76.0055 61.68 76.5122 62.22 76.8722 62.94C77.2455 63.6467 77.4322 64.5 77.4322 65.5V72H74.6322V65.88C74.6322 65 74.4122 64.3267 73.9722 63.86C73.5322 63.38 72.9322 63.14 72.1722 63.14C71.3989 63.14 70.7855 63.38 70.3322 63.86C69.8922 64.3267 69.6722 65 69.6722 65.88V72H66.8722V57.2H69.6722V62.3C70.0322 61.82 70.5122 61.4467 71.1122 61.18C71.7122 60.9 72.3789 60.76 73.1122 60.76ZM85.0148 72.18C83.9482 72.18 82.9882 71.9467 82.1348 71.48C81.2815 71 80.6082 70.3267 80.1148 69.46C79.6348 68.5933 79.3948 67.5933 79.3948 66.46C79.3948 65.3267 79.6415 64.3267 80.1348 63.46C80.6415 62.5933 81.3282 61.9267 82.1948 61.46C83.0615 60.98 84.0282 60.74 85.0948 60.74C86.1615 60.74 87.1282 60.98 87.9948 61.46C88.8615 61.9267 89.5415 62.5933 90.0348 63.46C90.5415 64.3267 90.7948 65.3267 90.7948 66.46C90.7948 67.5933 90.5348 68.5933 90.0148 69.46C89.5082 70.3267 88.8148 71 87.9348 71.48C87.0682 71.9467 86.0948 72.18 85.0148 72.18ZM85.0148 69.74C85.5215 69.74 85.9948 69.62 86.4348 69.38C86.8882 69.1267 87.2482 68.7533 87.5148 68.26C87.7815 67.7667 87.9148 67.1667 87.9148 66.46C87.9148 65.4067 87.6348 64.6 87.0748 64.04C86.5282 63.4667 85.8548 63.18 85.0548 63.18C84.2548 63.18 83.5815 63.4667 83.0348 64.04C82.5015 64.6 82.2348 65.4067 82.2348 66.46C82.2348 67.5133 82.4948 68.3267 83.0148 68.9C83.5482 69.46 84.2148 69.74 85.0148 69.74ZM97.7688 72.18C96.7021 72.18 95.7421 71.9467 94.8888 71.48C94.0354 71 93.3621 70.3267 92.8688 69.46C92.3888 68.5933 92.1488 67.5933 92.1488 66.46C92.1488 65.3267 92.3954 64.3267 92.8888 63.46C93.3954 62.5933 94.0821 61.9267 94.9488 61.46C95.8154 60.98 96.7821 60.74 97.8488 60.74C98.9154 60.74 99.8821 60.98 100.749 61.46C101.615 61.9267 102.295 62.5933 102.789 63.46C103.295 64.3267 103.549 65.3267 103.549 66.46C103.549 67.5933 103.289 68.5933 102.769 69.46C102.262 70.3267 101.569 71 100.689 71.48C99.8221 71.9467 98.8488 72.18 97.7688 72.18ZM97.7688 69.74C98.2754 69.74 98.7488 69.62 99.1888 69.38C99.6421 69.1267 100.002 68.7533 100.269 68.26C100.535 67.7667 100.669 67.1667 100.669 66.46C100.669 65.4067 100.389 64.6 99.8288 64.04C99.2821 63.4667 98.6088 63.18 97.8088 63.18C97.0088 63.18 96.3354 63.4667 95.7888 64.04C95.2554 64.6 94.9888 65.4067 94.9888 66.46C94.9888 67.5133 95.2488 68.3267 95.7688 68.9C96.3021 69.46 96.9688 69.74 97.7688 69.74ZM108.403 57.2V72H105.603V57.2H108.403ZM115.255 65C115.255 63.6267 115.561 62.4 116.175 61.32C116.801 60.2267 117.648 59.38 118.715 58.78C119.795 58.1667 121.001 57.86 122.335 57.86C123.895 57.86 125.261 58.26 126.435 59.06C127.608 59.86 128.428 60.9667 128.895 62.38H125.675C125.355 61.7133 124.901 61.2133 124.315 60.88C123.741 60.5467 123.075 60.38 122.315 60.38C121.501 60.38 120.775 60.5733 120.135 60.96C119.508 61.3333 119.015 61.8667 118.655 62.56C118.308 63.2533 118.135 64.0667 118.135 65C118.135 65.92 118.308 66.7333 118.655 67.44C119.015 68.1333 119.508 68.6733 120.135 69.06C120.775 69.4333 121.501 69.62 122.315 69.62C123.075 69.62 123.741 69.4533 124.315 69.12C124.901 68.7733 125.355 68.2667 125.675 67.6H128.895C128.428 69.0267 127.608 70.14 126.435 70.94C125.275 71.7267 123.908 72.12 122.335 72.12C121.001 72.12 119.795 71.82 118.715 71.22C117.648 70.6067 116.801 69.76 116.175 68.68C115.561 67.6 115.255 66.3733 115.255 65ZM134.086 62.64C134.446 62.0533 134.913 61.5933 135.486 61.26C136.073 60.9267 136.74 60.76 137.486 60.76V63.7H136.746C135.866 63.7 135.2 63.9067 134.746 64.32C134.306 64.7333 134.086 65.4533 134.086 66.48V72H131.286V60.92H134.086V62.64ZM140.792 59.6C140.299 59.6 139.886 59.4467 139.552 59.14C139.232 58.82 139.072 58.4267 139.072 57.96C139.072 57.4933 139.232 57.1067 139.552 56.8C139.886 56.48 140.299 56.32 140.792 56.32C141.286 56.32 141.692 56.48 142.012 56.8C142.346 57.1067 142.512 57.4933 142.512 57.96C142.512 58.4267 142.346 58.82 142.012 59.14C141.692 59.4467 141.286 59.6 140.792 59.6ZM142.172 60.92V72H139.372V60.92H142.172ZM144.219 66.46C144.219 65.3133 144.452 64.3133 144.919 63.46C145.385 62.5933 146.032 61.9267 146.859 61.46C147.685 60.98 148.632 60.74 149.699 60.74C151.072 60.74 152.205 61.0867 153.099 61.78C154.005 62.46 154.612 63.42 154.919 64.66H151.899C151.739 64.18 151.465 63.8067 151.079 63.54C150.705 63.26 150.239 63.12 149.679 63.12C148.879 63.12 148.245 63.4133 147.779 64C147.312 64.5733 147.079 65.3933 147.079 66.46C147.079 67.5133 147.312 68.3333 147.779 68.92C148.245 69.4933 148.879 69.78 149.679 69.78C150.812 69.78 151.552 69.2733 151.899 68.26H154.919C154.612 69.46 154.005 70.4133 153.099 71.12C152.192 71.8267 151.059 72.18 149.699 72.18C148.632 72.18 147.685 71.9467 146.859 71.48C146.032 71 145.385 70.3333 144.919 69.48C144.452 68.6133 144.219 67.6067 144.219 66.46ZM163.53 72L159.77 67.28V72H156.97V57.2H159.77V65.62L163.49 60.92H167.13L162.25 66.48L167.17 72H163.53ZM178.95 66.22C178.95 66.62 178.923 66.98 178.87 67.3H170.77C170.836 68.1 171.116 68.7267 171.61 69.18C172.103 69.6333 172.71 69.86 173.43 69.86C174.47 69.86 175.21 69.4133 175.65 68.52H178.67C178.35 69.5867 177.736 70.4667 176.83 71.16C175.923 71.84 174.81 72.18 173.49 72.18C172.423 72.18 171.463 71.9467 170.61 71.48C169.77 71 169.11 70.3267 168.63 69.46C168.163 68.5933 167.93 67.5933 167.93 66.46C167.93 65.3133 168.163 64.3067 168.63 63.44C169.096 62.5733 169.75 61.9067 170.59 61.44C171.43 60.9733 172.396 60.74 173.49 60.74C174.543 60.74 175.483 60.9667 176.31 61.42C177.15 61.8733 177.796 62.52 178.25 63.36C178.716 64.1867 178.95 65.14 178.95 66.22ZM176.05 65.42C176.036 64.7 175.776 64.1267 175.27 63.7C174.763 63.26 174.143 63.04 173.41 63.04C172.716 63.04 172.13 63.2533 171.65 63.68C171.183 64.0933 170.896 64.6733 170.79 65.42H176.05ZM184.253 63.22V68.58C184.253 68.9533 184.34 69.2267 184.513 69.4C184.7 69.56 185.007 69.64 185.433 69.64H186.733V72H184.973C182.613 72 181.433 70.8533 181.433 68.56V63.22H180.113V60.92H181.433V58.18H184.253V60.92H186.733V63.22H184.253ZM203.013 58.04V60.3H199.293V72H196.493V60.3H192.773V58.04H203.013ZM215.356 66.22C215.356 66.62 215.329 66.98 215.276 67.3H207.176C207.242 68.1 207.522 68.7267 208.016 69.18C208.509 69.6333 209.116 69.86 209.836 69.86C210.876 69.86 211.616 69.4133 212.056 68.52H215.076C214.756 69.5867 214.142 70.4667 213.236 71.16C212.329 71.84 211.216 72.18 209.896 72.18C208.829 72.18 207.869 71.9467 207.016 71.48C206.176 71 205.516 70.3267 205.036 69.46C204.569 68.5933 204.336 67.5933 204.336 66.46C204.336 65.3133 204.569 64.3067 205.036 63.44C205.502 62.5733 206.156 61.9067 206.996 61.44C207.836 60.9733 208.802 60.74 209.896 60.74C210.949 60.74 211.889 60.9667 212.716 61.42C213.556 61.8733 214.202 62.52 214.656 63.36C215.122 64.1867 215.356 65.14 215.356 66.22ZM212.456 65.42C212.442 64.7 212.182 64.1267 211.676 63.7C211.169 63.26 210.549 63.04 209.816 63.04C209.122 63.04 208.536 63.2533 208.056 63.68C207.589 64.0933 207.302 64.6733 207.196 65.42H212.456ZM216.68 66.42C216.68 65.3 216.9 64.3067 217.34 63.44C217.793 62.5733 218.4 61.9067 219.16 61.44C219.933 60.9733 220.793 60.74 221.74 60.74C222.566 60.74 223.286 60.9067 223.9 61.24C224.526 61.5733 225.026 61.9933 225.4 62.5V60.92H228.22V72H225.4V70.38C225.04 70.9 224.54 71.3333 223.9 71.68C223.273 72.0133 222.546 72.18 221.72 72.18C220.786 72.18 219.933 71.94 219.16 71.46C218.4 70.98 217.793 70.3067 217.34 69.44C216.9 68.56 216.68 67.5533 216.68 66.42ZM225.4 66.46C225.4 65.78 225.266 65.2 225 64.72C224.733 64.2267 224.373 63.8533 223.92 63.6C223.466 63.3333 222.98 63.2 222.46 63.2C221.94 63.2 221.46 63.3267 221.02 63.58C220.58 63.8333 220.22 64.2067 219.94 64.7C219.673 65.18 219.54 65.7533 219.54 66.42C219.54 67.0867 219.673 67.6733 219.94 68.18C220.22 68.6733 220.58 69.0533 221.02 69.32C221.473 69.5867 221.953 69.72 222.46 69.72C222.98 69.72 223.466 69.5933 223.92 69.34C224.373 69.0733 224.733 68.7 225 68.22C225.266 67.7267 225.4 67.14 225.4 66.46ZM244.714 60.76C246.074 60.76 247.168 61.18 247.994 62.02C248.834 62.8467 249.254 64.0067 249.254 65.5V72H246.454V65.88C246.454 65.0133 246.234 64.3533 245.794 63.9C245.354 63.4333 244.754 63.2 243.994 63.2C243.234 63.2 242.628 63.4333 242.174 63.9C241.734 64.3533 241.514 65.0133 241.514 65.88V72H238.714V65.88C238.714 65.0133 238.494 64.3533 238.054 63.9C237.614 63.4333 237.014 63.2 236.254 63.2C235.481 63.2 234.868 63.4333 234.414 63.9C233.974 64.3533 233.754 65.0133 233.754 65.88V72H230.954V60.92H233.754V62.26C234.114 61.7933 234.574 61.4267 235.134 61.16C235.708 60.8933 236.334 60.76 237.014 60.76C237.881 60.76 238.654 60.9467 239.334 61.32C240.014 61.68 240.541 62.2 240.914 62.88C241.274 62.24 241.794 61.7267 242.474 61.34C243.168 60.9533 243.914 60.76 244.714 60.76ZM253.151 72.14C252.645 72.14 252.225 71.9867 251.891 71.68C251.571 71.36 251.411 70.9667 251.411 70.5C251.411 70.0333 251.571 69.6467 251.891 69.34C252.225 69.02 252.645 68.86 253.151 68.86C253.645 68.86 254.051 69.02 254.371 69.34C254.691 69.6467 254.851 70.0333 254.851 70.5C254.851 70.9667 254.691 71.36 254.371 71.68C254.051 71.9867 253.645 72.14 253.151 72.14Z" fill="black"/>
</svg>
